M48
; DRILL file {KiCad (5.1.10)-1} date 09/27/21 23:12:12
; FORMAT={-:-/ absolute / metric / decimal}
; #@! TF.CreationDate,2021-09-27T23:12:12+02:00
; #@! TF.GenerationSoftware,Kicad,Pcbnew,(5.1.10)-1
; #@! TF.FileFunction,Plated,1,2,PTH
FMAT,2
METRIC
T1C0.400
T2C0.406
T3C0.508
T4C0.990
T5C1.000
T6C1.300
T7C2.600
%
G90
G05
T1
X75.333Y22.098
T2
X1.016Y20.828
X1.016Y16.51
X1.524Y5.08
X1.778Y9.906
X4.81Y2.81
X7.112Y5.334
X10.922Y22.352
X11.43Y10.668
X11.43Y9.144
X12.7Y20.828
X12.7Y18.796
X19.05Y12.7
X24.13Y19.05
X25.146Y12.7
X26.67Y15.494
X28.702Y17.526
X33.528Y12.7
X35.052Y16.256
X35.814Y8.636
X41.91Y17.849
X42.926Y18.034
X43.409Y16.281
X43.434Y14.732
X43.688Y1.778
X44.196Y10.668
X45.212Y9.398
X46.024Y15.494
X46.228Y8.636
X46.622Y18.288
X46.99Y6.604
X47.244Y23.114
X47.244Y16.256
X47.868Y9.396
X48.768Y20.828
X48.768Y13.716
X49.53Y21.59
X49.784Y18.542
X50.686Y8.636
X51.054Y17.92
X51.308Y10.16
X51.308Y6.858
X51.816Y17.414
X51.816Y12.954
X52.578Y16.789
X53.34Y10.16
X55.099Y14.497
X55.118Y11.684
X55.749Y8.022
X56.388Y15.494
X57.049Y20.981
X57.658Y11.684
X57.699Y20.361
X58.349Y12.263
X59.182Y20.828
X59.69Y14.478
X59.69Y20.066
X59.944Y4.064
X60.949Y19.293
X60.96Y14.478
X61.985Y19.301
X62.23Y22.352
X62.23Y20.32
X62.484Y14.478
X62.738Y11.43
X64.503Y23.127
X65.278Y20.574
X65.786Y17.272
X68.072Y8.382
X68.58Y13.716
X68.834Y22.098
X69.596Y5.334
X69.596Y3.81
X73.152Y19.812
X73.406Y11.43
X73.66Y15.74
X73.66Y14.478
X74.676Y5.474
X74.676Y3.581
X74.93Y19.304
X76.708Y15.748
X77.724Y5.613
X77.724Y4.089
X79.947Y6.439
X81.026Y12.192
X82.042Y15.748
T3
X9.906Y2.54
T4
X15.124Y2.819
X19.624Y2.819
X25.69Y2.819
X30.19Y2.819
X36.358Y2.819
X40.858Y2.819
T5
X5.842Y11.938
X52.324Y1.549
X54.864Y1.549
X57.404Y1.549
X59.944Y1.549
X62.484Y1.549
X65.024Y1.549
X84.582Y22.098
X87.122Y22.098
X88.036Y13.25
X88.036Y10.75
X90.036Y13.25
X90.036Y10.75
X90.678Y1.524
T6
X13.864Y5.309
X20.874Y5.309
X24.43Y5.309
X31.44Y5.309
X35.098Y5.309
X42.108Y5.309
T7
X92.896Y18.0
X92.896Y6.0
T0
M30
