%TF.GenerationSoftware,KiCad,Pcbnew,(5.1.10)-1*%
%TF.CreationDate,2021-09-27T23:11:59+02:00*%
%TF.ProjectId,MLGC210815,4d4c4743-3231-4303-9831-352e6b696361,rev?*%
%TF.SameCoordinates,Original*%
%TF.FileFunction,Soldermask,Top*%
%TF.FilePolarity,Negative*%
%FSLAX46Y46*%
G04 Gerber Fmt 4.6, Leading zero omitted, Abs format (unit mm)*
G04 Created by KiCad (PCBNEW (5.1.10)-1) date 2021-09-27 23:11:59*
%MOMM*%
%LPD*%
G01*
G04 APERTURE LIST*
%ADD10R,0.700000X0.800000*%
%ADD11R,0.800000X0.700000*%
%ADD12R,1.000000X1.500000*%
%ADD13R,1.700000X1.700000*%
%ADD14O,1.700000X1.700000*%
%ADD15R,1.400000X1.200000*%
%ADD16R,1.300000X1.700000*%
%ADD17O,1.300000X1.700000*%
%ADD18R,1.500000X1.000000*%
%ADD19R,0.900000X0.800000*%
%ADD20O,1.475000X0.300000*%
%ADD21R,1.475000X0.300000*%
%ADD22O,0.400000X1.200000*%
%ADD23R,0.400000X1.200000*%
%ADD24R,0.375000X0.350000*%
%ADD25R,0.350000X0.375000*%
%ADD26R,1.060000X0.650000*%
%ADD27O,0.450000X1.750000*%
%ADD28R,0.450000X1.750000*%
%ADD29C,2.100000*%
%ADD30C,1.750000*%
%ADD31C,1.700000*%
%ADD32C,4.000000*%
%ADD33R,1.125000X3.400000*%
G04 APERTURE END LIST*
%TO.C,U7*%
G36*
G01*
X36340000Y20614000D02*
X36340000Y20774000D01*
G75*
G02*
X36420000Y20854000I80000J0D01*
G01*
X38760000Y20854000D01*
G75*
G02*
X38840000Y20774000I0J-80000D01*
G01*
X38840000Y20614000D01*
G75*
G02*
X38760000Y20534000I-80000J0D01*
G01*
X36420000Y20534000D01*
G75*
G02*
X36340000Y20614000I0J80000D01*
G01*
G37*
G36*
G01*
X36340000Y19994000D02*
X36340000Y20154000D01*
G75*
G02*
X36420000Y20234000I80000J0D01*
G01*
X38760000Y20234000D01*
G75*
G02*
X38840000Y20154000I0J-80000D01*
G01*
X38840000Y19994000D01*
G75*
G02*
X38760000Y19914000I-80000J0D01*
G01*
X36420000Y19914000D01*
G75*
G02*
X36340000Y19994000I0J80000D01*
G01*
G37*
G36*
G01*
X36340000Y19374000D02*
X36340000Y19534000D01*
G75*
G02*
X36420000Y19614000I80000J0D01*
G01*
X38760000Y19614000D01*
G75*
G02*
X38840000Y19534000I0J-80000D01*
G01*
X38840000Y19374000D01*
G75*
G02*
X38760000Y19294000I-80000J0D01*
G01*
X36420000Y19294000D01*
G75*
G02*
X36340000Y19374000I0J80000D01*
G01*
G37*
G36*
G01*
X36340000Y18754000D02*
X36340000Y18914000D01*
G75*
G02*
X36420000Y18994000I80000J0D01*
G01*
X38760000Y18994000D01*
G75*
G02*
X38840000Y18914000I0J-80000D01*
G01*
X38840000Y18754000D01*
G75*
G02*
X38760000Y18674000I-80000J0D01*
G01*
X36420000Y18674000D01*
G75*
G02*
X36340000Y18754000I0J80000D01*
G01*
G37*
G36*
G01*
X36340000Y18134000D02*
X36340000Y18294000D01*
G75*
G02*
X36420000Y18374000I80000J0D01*
G01*
X38760000Y18374000D01*
G75*
G02*
X38840000Y18294000I0J-80000D01*
G01*
X38840000Y18134000D01*
G75*
G02*
X38760000Y18054000I-80000J0D01*
G01*
X36420000Y18054000D01*
G75*
G02*
X36340000Y18134000I0J80000D01*
G01*
G37*
G36*
G01*
X36340000Y17514000D02*
X36340000Y17674000D01*
G75*
G02*
X36420000Y17754000I80000J0D01*
G01*
X38760000Y17754000D01*
G75*
G02*
X38840000Y17674000I0J-80000D01*
G01*
X38840000Y17514000D01*
G75*
G02*
X38760000Y17434000I-80000J0D01*
G01*
X36420000Y17434000D01*
G75*
G02*
X36340000Y17514000I0J80000D01*
G01*
G37*
G36*
G01*
X36340000Y16894000D02*
X36340000Y17054000D01*
G75*
G02*
X36420000Y17134000I80000J0D01*
G01*
X38760000Y17134000D01*
G75*
G02*
X38840000Y17054000I0J-80000D01*
G01*
X38840000Y16894000D01*
G75*
G02*
X38760000Y16814000I-80000J0D01*
G01*
X36420000Y16814000D01*
G75*
G02*
X36340000Y16894000I0J80000D01*
G01*
G37*
G36*
G01*
X36340000Y16274000D02*
X36340000Y16434000D01*
G75*
G02*
X36420000Y16514000I80000J0D01*
G01*
X38760000Y16514000D01*
G75*
G02*
X38840000Y16434000I0J-80000D01*
G01*
X38840000Y16274000D01*
G75*
G02*
X38760000Y16194000I-80000J0D01*
G01*
X36420000Y16194000D01*
G75*
G02*
X36340000Y16274000I0J80000D01*
G01*
G37*
G36*
G01*
X36340000Y15654000D02*
X36340000Y15814000D01*
G75*
G02*
X36420000Y15894000I80000J0D01*
G01*
X38760000Y15894000D01*
G75*
G02*
X38840000Y15814000I0J-80000D01*
G01*
X38840000Y15654000D01*
G75*
G02*
X38760000Y15574000I-80000J0D01*
G01*
X36420000Y15574000D01*
G75*
G02*
X36340000Y15654000I0J80000D01*
G01*
G37*
G36*
G01*
X36340000Y15034000D02*
X36340000Y15194000D01*
G75*
G02*
X36420000Y15274000I80000J0D01*
G01*
X38760000Y15274000D01*
G75*
G02*
X38840000Y15194000I0J-80000D01*
G01*
X38840000Y15034000D01*
G75*
G02*
X38760000Y14954000I-80000J0D01*
G01*
X36420000Y14954000D01*
G75*
G02*
X36340000Y15034000I0J80000D01*
G01*
G37*
G36*
G01*
X36340000Y14414000D02*
X36340000Y14574000D01*
G75*
G02*
X36420000Y14654000I80000J0D01*
G01*
X38760000Y14654000D01*
G75*
G02*
X38840000Y14574000I0J-80000D01*
G01*
X38840000Y14414000D01*
G75*
G02*
X38760000Y14334000I-80000J0D01*
G01*
X36420000Y14334000D01*
G75*
G02*
X36340000Y14414000I0J80000D01*
G01*
G37*
G36*
G01*
X36340000Y13794000D02*
X36340000Y13954000D01*
G75*
G02*
X36420000Y14034000I80000J0D01*
G01*
X38760000Y14034000D01*
G75*
G02*
X38840000Y13954000I0J-80000D01*
G01*
X38840000Y13794000D01*
G75*
G02*
X38760000Y13714000I-80000J0D01*
G01*
X36420000Y13714000D01*
G75*
G02*
X36340000Y13794000I0J80000D01*
G01*
G37*
G36*
G01*
X36340000Y13174000D02*
X36340000Y13334000D01*
G75*
G02*
X36420000Y13414000I80000J0D01*
G01*
X38760000Y13414000D01*
G75*
G02*
X38840000Y13334000I0J-80000D01*
G01*
X38840000Y13174000D01*
G75*
G02*
X38760000Y13094000I-80000J0D01*
G01*
X36420000Y13094000D01*
G75*
G02*
X36340000Y13174000I0J80000D01*
G01*
G37*
G36*
G01*
X36340000Y12554000D02*
X36340000Y12714000D01*
G75*
G02*
X36420000Y12794000I80000J0D01*
G01*
X38760000Y12794000D01*
G75*
G02*
X38840000Y12714000I0J-80000D01*
G01*
X38840000Y12554000D01*
G75*
G02*
X38760000Y12474000I-80000J0D01*
G01*
X36420000Y12474000D01*
G75*
G02*
X36340000Y12554000I0J80000D01*
G01*
G37*
%TD*%
D10*
%TO.C,R16*%
X10464000Y7620000D03*
X8840000Y7620000D03*
%TD*%
%TO.C,R44*%
X44400000Y18288000D03*
X46024000Y18288000D03*
%TD*%
%TO.C,C13*%
X44654000Y3556000D03*
X46278000Y3556000D03*
%TD*%
D11*
%TO.C,C21*%
X35814000Y9856000D03*
X35814000Y11480000D03*
%TD*%
D12*
%TO.C,L1*%
X5969000Y18796000D03*
X8255000Y18796000D03*
%TD*%
D10*
%TO.C,R12*%
X5030000Y20599400D03*
X6654000Y20599400D03*
%TD*%
%TO.C,R7*%
X6654000Y8382000D03*
X5030000Y8382000D03*
%TD*%
%TO.C,C11*%
X9856000Y18796000D03*
X11480000Y18796000D03*
%TD*%
D13*
%TO.C,J5*%
X87122000Y22098000D03*
D14*
X84582000Y22098000D03*
%TD*%
D15*
%TO.C,Y1*%
X63162000Y4763400D03*
X65362000Y4763400D03*
X65362000Y6463400D03*
X63162000Y6463400D03*
%TD*%
D13*
%TO.C,J4*%
X5842000Y11938000D03*
%TD*%
%TO.C,J3*%
X90678000Y1524000D03*
%TD*%
D16*
%TO.C,J1*%
X52324000Y1549400D03*
D17*
X54864000Y1549400D03*
X57404000Y1549400D03*
X59944000Y1549400D03*
X62484000Y1549400D03*
X65024000Y1549400D03*
%TD*%
D10*
%TO.C,R1*%
X966000Y22098000D03*
X2590000Y22098000D03*
%TD*%
%TO.C,C8*%
X6654000Y15494000D03*
X5030000Y15494000D03*
%TD*%
%TO.C,C6*%
X966000Y17526000D03*
X2590000Y17526000D03*
%TD*%
D11*
%TO.C,C5*%
X67310000Y4776000D03*
X67310000Y6400000D03*
%TD*%
%TO.C,C4*%
X61214000Y6400000D03*
X61214000Y4776000D03*
%TD*%
D10*
%TO.C,C3*%
X63704000Y22098000D03*
X65328000Y22098000D03*
%TD*%
%TO.C,C2*%
X68630000Y14478000D03*
X67006000Y14478000D03*
%TD*%
D11*
%TO.C,R36*%
X48006000Y11126000D03*
X48006000Y12750000D03*
%TD*%
D10*
%TO.C,R14*%
X67006000Y16002000D03*
X68630000Y16002000D03*
%TD*%
%TO.C,R13*%
X10464000Y10693400D03*
X8840000Y10693400D03*
%TD*%
D11*
%TO.C,R9*%
X11684000Y20778000D03*
X11684000Y22402000D03*
%TD*%
D10*
%TO.C,R43*%
X72186000Y21336000D03*
X70562000Y21336000D03*
%TD*%
D11*
%TO.C,R21*%
X25146000Y11480000D03*
X25146000Y9856000D03*
%TD*%
%TO.C,R20*%
X34290000Y9856000D03*
X34290000Y11480000D03*
%TD*%
%TO.C,R19*%
X19050000Y11480000D03*
X19050000Y9856000D03*
%TD*%
D10*
%TO.C,R11*%
X2590000Y15494000D03*
X966000Y15494000D03*
%TD*%
%TO.C,R10*%
X5030000Y17018000D03*
X6654000Y17018000D03*
%TD*%
%TO.C,C10*%
X8840000Y9144000D03*
X10464000Y9144000D03*
%TD*%
%TO.C,L3*%
X81992000Y13208000D03*
X83616000Y13208000D03*
%TD*%
D18*
%TO.C,L2*%
X51054000Y22987000D03*
X51054000Y20701000D03*
%TD*%
D10*
%TO.C,R38*%
X76250000Y9931400D03*
X74626000Y9931400D03*
%TD*%
%TO.C,R28*%
X78028000Y787400D03*
X76404000Y787400D03*
%TD*%
%TO.C,R6*%
X67006000Y9906000D03*
X68630000Y9906000D03*
%TD*%
D11*
%TO.C,R5*%
X55626000Y5663400D03*
X55626000Y4039400D03*
%TD*%
%TO.C,R4*%
X54102000Y4039400D03*
X54102000Y5663400D03*
%TD*%
%TO.C,R3*%
X57150000Y4039400D03*
X57150000Y5663400D03*
%TD*%
%TO.C,R2*%
X58674000Y4039400D03*
X58674000Y5663400D03*
%TD*%
D10*
%TO.C,C1*%
X68630000Y12954000D03*
X67006000Y12954000D03*
%TD*%
%TO.C,R45*%
X70816000Y11430000D03*
X72440000Y11430000D03*
%TD*%
D19*
%TO.C,U3*%
X72374000Y16322000D03*
X72374000Y18222000D03*
X70374000Y17272000D03*
%TD*%
D20*
%TO.C,U6*%
X75307500Y17764000D03*
D21*
X75307500Y17264000D03*
X75307500Y16764000D03*
X75307500Y16264000D03*
X75307500Y15764000D03*
X79632500Y15764000D03*
X79632500Y16264000D03*
X79632500Y16764000D03*
X79632500Y17264000D03*
X79632500Y17764000D03*
%TD*%
D22*
%TO.C,U5*%
X76771500Y2734000D03*
D23*
X77406500Y2734000D03*
X78041500Y2734000D03*
X78676500Y2734000D03*
X79311500Y2734000D03*
X79946500Y2734000D03*
X80581500Y2734000D03*
X81216500Y2734000D03*
X81216500Y7934000D03*
X80581500Y7934000D03*
X79946500Y7934000D03*
X79311500Y7934000D03*
X78676500Y7934000D03*
X78041500Y7934000D03*
X77406500Y7934000D03*
X76771500Y7934000D03*
%TD*%
D24*
%TO.C,U4*%
X48259500Y7895400D03*
X48259500Y7395400D03*
X49784500Y7895400D03*
X49784500Y7395400D03*
X48259500Y6895400D03*
X49784500Y6895400D03*
X48259500Y8395400D03*
X49784500Y8395400D03*
D25*
X48772000Y6882900D03*
X49272000Y6882900D03*
X49272000Y8407900D03*
X48772000Y8407900D03*
%TD*%
D26*
%TO.C,U2*%
X8806000Y5776000D03*
X8806000Y4826000D03*
X8806000Y3876000D03*
X11006000Y3876000D03*
X11006000Y5776000D03*
%TD*%
D27*
%TO.C,U1*%
X54449000Y9862000D03*
D28*
X55099000Y9862000D03*
X55749000Y9862000D03*
X56399000Y9862000D03*
X57049000Y9862000D03*
X57699000Y9862000D03*
X58349000Y9862000D03*
X58999000Y9862000D03*
X59649000Y9862000D03*
X60299000Y9862000D03*
X60949000Y9862000D03*
X61599000Y9862000D03*
X62249000Y9862000D03*
X62899000Y9862000D03*
X62899000Y17062000D03*
X62249000Y17062000D03*
X61599000Y17062000D03*
X60949000Y17062000D03*
X60299000Y17062000D03*
X59649000Y17062000D03*
X58999000Y17062000D03*
X58349000Y17062000D03*
X57699000Y17062000D03*
X57049000Y17062000D03*
X56399000Y17062000D03*
X55749000Y17062000D03*
X55099000Y17062000D03*
X54449000Y17062000D03*
%TD*%
D10*
%TO.C,TH1*%
X81992000Y14986000D03*
X83616000Y14986000D03*
%TD*%
D29*
%TO.C,SW3*%
X24430000Y5309400D03*
D30*
X25690000Y2819400D03*
X30190000Y2819400D03*
D29*
X31440000Y5309400D03*
%TD*%
%TO.C,SW2*%
X35098000Y5309400D03*
D30*
X36358000Y2819400D03*
X40858000Y2819400D03*
D29*
X42108000Y5309400D03*
%TD*%
%TO.C,SW1*%
X13863600Y5309400D03*
D30*
X15123600Y2819400D03*
X19623600Y2819400D03*
D29*
X20873600Y5309400D03*
%TD*%
D10*
%TO.C,R42*%
X46024000Y19812000D03*
X44400000Y19812000D03*
%TD*%
D11*
%TO.C,R41*%
X55880000Y21386000D03*
X55880000Y19762000D03*
%TD*%
%TO.C,R40*%
X83058000Y4368000D03*
X83058000Y2744000D03*
%TD*%
%TO.C,R39*%
X83058000Y6300000D03*
X83058000Y7924000D03*
%TD*%
D10*
%TO.C,R37*%
X76658000Y12471400D03*
X78282000Y12471400D03*
%TD*%
%TO.C,R35*%
X70816000Y9906000D03*
X72440000Y9906000D03*
%TD*%
%TO.C,R34*%
X72440000Y12954000D03*
X70816000Y12954000D03*
%TD*%
D11*
%TO.C,R33*%
X31242000Y9856000D03*
X31242000Y11480000D03*
%TD*%
%TO.C,R32*%
X32766000Y9856000D03*
X32766000Y11480000D03*
%TD*%
D10*
%TO.C,R31*%
X72440000Y8382000D03*
X70816000Y8382000D03*
%TD*%
%TO.C,R30*%
X83616000Y18034000D03*
X81992000Y18034000D03*
%TD*%
%TO.C,R29*%
X81992000Y16510000D03*
X83616000Y16510000D03*
%TD*%
%TO.C,R27*%
X72440000Y5334000D03*
X70816000Y5334000D03*
%TD*%
%TO.C,R26*%
X70816000Y3810000D03*
X72440000Y3810000D03*
%TD*%
%TO.C,R25*%
X47702000Y3556000D03*
X49326000Y3556000D03*
%TD*%
D11*
%TO.C,R24*%
X28194000Y9856000D03*
X28194000Y11480000D03*
%TD*%
%TO.C,R23*%
X37338000Y9856000D03*
X37338000Y11480000D03*
%TD*%
%TO.C,R22*%
X22098000Y9881400D03*
X22098000Y11505400D03*
%TD*%
D10*
%TO.C,R15*%
X46278000Y5080000D03*
X44654000Y5080000D03*
%TD*%
%TO.C,R8*%
X966000Y8382000D03*
X2590000Y8382000D03*
%TD*%
D19*
%TO.C,Q4*%
X46212000Y10988000D03*
X46212000Y12888000D03*
X44212000Y11938000D03*
%TD*%
%TO.C,Q3*%
X67802000Y18354000D03*
X67802000Y20254000D03*
X65802000Y19304000D03*
%TD*%
%TO.C,Q2*%
X9160000Y14666000D03*
X9160000Y12766000D03*
X11160000Y13716000D03*
%TD*%
%TO.C,Q1*%
X10144000Y20640000D03*
X10144000Y22540000D03*
X8144000Y21590000D03*
%TD*%
D13*
%TO.C,J2*%
X88036000Y13250000D03*
D31*
X88036000Y10750000D03*
X90036000Y10750000D03*
X90036000Y13250000D03*
D32*
X92896000Y6000000D03*
X92896000Y18000000D03*
%TD*%
D33*
%TO.C,F1*%
X75332500Y22098000D03*
X79607500Y22098000D03*
%TD*%
D10*
%TO.C,D6*%
X70562000Y22860000D03*
G36*
G01*
X72536000Y23085000D02*
X72536000Y22635000D01*
G75*
G02*
X72361000Y22460000I-175000J0D01*
G01*
X72011000Y22460000D01*
G75*
G02*
X71836000Y22635000I0J175000D01*
G01*
X71836000Y23085000D01*
G75*
G02*
X72011000Y23260000I175000J0D01*
G01*
X72361000Y23260000D01*
G75*
G02*
X72536000Y23085000I0J-175000D01*
G01*
G37*
%TD*%
D11*
%TO.C,D5*%
X74676000Y6325400D03*
G36*
G01*
X74451000Y8299400D02*
X74901000Y8299400D01*
G75*
G02*
X75076000Y8124400I0J-175000D01*
G01*
X75076000Y7774400D01*
G75*
G02*
X74901000Y7599400I-175000J0D01*
G01*
X74451000Y7599400D01*
G75*
G02*
X74276000Y7774400I0J175000D01*
G01*
X74276000Y8124400D01*
G75*
G02*
X74451000Y8299400I175000J0D01*
G01*
G37*
%TD*%
%TO.C,D4*%
X74676000Y2336000D03*
G36*
G01*
X74901000Y362000D02*
X74451000Y362000D01*
G75*
G02*
X74276000Y537000I0J175000D01*
G01*
X74276000Y887000D01*
G75*
G02*
X74451000Y1062000I175000J0D01*
G01*
X74901000Y1062000D01*
G75*
G02*
X75076000Y887000I0J-175000D01*
G01*
X75076000Y537000D01*
G75*
G02*
X74901000Y362000I-175000J0D01*
G01*
G37*
%TD*%
D10*
%TO.C,D3*%
X67006000Y11430000D03*
G36*
G01*
X68980000Y11655000D02*
X68980000Y11205000D01*
G75*
G02*
X68805000Y11030000I-175000J0D01*
G01*
X68455000Y11030000D01*
G75*
G02*
X68280000Y11205000I0J175000D01*
G01*
X68280000Y11655000D01*
G75*
G02*
X68455000Y11830000I175000J0D01*
G01*
X68805000Y11830000D01*
G75*
G02*
X68980000Y11655000I0J-175000D01*
G01*
G37*
%TD*%
D19*
%TO.C,D2*%
X4810000Y4130000D03*
X4810000Y6030000D03*
X2810000Y5080000D03*
%TD*%
D10*
%TO.C,D1*%
X6654000Y22098000D03*
G36*
G01*
X4680000Y21873000D02*
X4680000Y22323000D01*
G75*
G02*
X4855000Y22498000I175000J0D01*
G01*
X5205000Y22498000D01*
G75*
G02*
X5380000Y22323000I0J-175000D01*
G01*
X5380000Y21873000D01*
G75*
G02*
X5205000Y21698000I-175000J0D01*
G01*
X4855000Y21698000D01*
G75*
G02*
X4680000Y21873000I0J175000D01*
G01*
G37*
%TD*%
%TO.C,C36*%
X46024000Y22860000D03*
X44400000Y22860000D03*
%TD*%
%TO.C,C35*%
X46024000Y21336000D03*
X44400000Y21336000D03*
%TD*%
%TO.C,C34*%
X76658000Y13970000D03*
X78282000Y13970000D03*
%TD*%
D11*
%TO.C,C33*%
X84582000Y6300000D03*
X84582000Y7924000D03*
%TD*%
%TO.C,C32*%
X41910000Y9856000D03*
X41910000Y11480000D03*
%TD*%
%TO.C,C31*%
X84582000Y4368000D03*
X84582000Y2744000D03*
%TD*%
%TO.C,C30*%
X40386000Y11480000D03*
X40386000Y9856000D03*
%TD*%
D10*
%TO.C,C29*%
X46024000Y14732000D03*
X44400000Y14732000D03*
%TD*%
%TO.C,C28*%
X46024000Y16256000D03*
X44400000Y16256000D03*
%TD*%
%TO.C,C27*%
X78944000Y9906000D03*
X80568000Y9906000D03*
%TD*%
%TO.C,C26*%
X76658000Y19329400D03*
X78282000Y19329400D03*
%TD*%
%TO.C,C25*%
X72440000Y6858000D03*
X70816000Y6858000D03*
%TD*%
D11*
%TO.C,C24*%
X52070000Y8457400D03*
X52070000Y6833400D03*
%TD*%
D10*
%TO.C,C23*%
X47702000Y5080000D03*
X49326000Y5080000D03*
%TD*%
D11*
%TO.C,C22*%
X29718000Y9856000D03*
X29718000Y11480000D03*
%TD*%
%TO.C,C20*%
X23622000Y9881400D03*
X23622000Y11505400D03*
%TD*%
%TO.C,C19*%
X26670000Y11480000D03*
X26670000Y9856000D03*
%TD*%
%TO.C,C18*%
X38862000Y11480000D03*
X38862000Y9856000D03*
%TD*%
%TO.C,C17*%
X20574000Y11480000D03*
X20574000Y9856000D03*
%TD*%
%TO.C,C16*%
X52832000Y19762000D03*
X52832000Y21386000D03*
%TD*%
%TO.C,C15*%
X54356000Y19762000D03*
X54356000Y21386000D03*
%TD*%
D10*
%TO.C,C12*%
X72440000Y14478000D03*
X70816000Y14478000D03*
%TD*%
%TO.C,C9*%
X72186000Y19812000D03*
X70562000Y19812000D03*
%TD*%
%TO.C,C7*%
X966000Y19558000D03*
X2590000Y19558000D03*
%TD*%
M02*
