%TF.GenerationSoftware,KiCad,Pcbnew,(5.1.10)-1*%
%TF.CreationDate,2021-09-27T23:11:59+02:00*%
%TF.ProjectId,MLGC210815,4d4c4743-3231-4303-9831-352e6b696361,rev?*%
%TF.SameCoordinates,Original*%
%TF.FileFunction,Legend,Top*%
%TF.FilePolarity,Positive*%
%FSLAX46Y46*%
G04 Gerber Fmt 4.6, Leading zero omitted, Abs format (unit mm)*
G04 Created by KiCad (PCBNEW (5.1.10)-1) date 2021-09-27 23:11:59*
%MOMM*%
%LPD*%
G01*
G04 APERTURE LIST*
%ADD10C,0.254000*%
%ADD11C,0.127000*%
%ADD12C,0.256000*%
%ADD13C,0.120000*%
%ADD14C,0.150000*%
%ADD15C,0.170000*%
G04 APERTURE END LIST*
D10*
%TO.C,U7*%
X35790000Y21384000D02*
X35790000Y20534000D01*
X36840000Y21384000D02*
X35790000Y21384000D01*
X12940000Y12284000D02*
X12940000Y23784000D01*
X42940000Y12284000D02*
X12940000Y12284000D01*
X42940000Y23784000D02*
X42940000Y12284000D01*
X12940000Y23784000D02*
X42940000Y23784000D01*
D11*
%TO.C,R16*%
X9414742Y7270000D02*
X9889258Y7270000D01*
X9414742Y7970000D02*
X9889258Y7970000D01*
%TO.C,R44*%
X45449258Y18638000D02*
X44974742Y18638000D01*
X45449258Y17938000D02*
X44974742Y17938000D01*
%TO.C,C13*%
X45703258Y3206000D02*
X45228742Y3206000D01*
X45703258Y3906000D02*
X45228742Y3906000D01*
%TO.C,C21*%
X36164000Y10905258D02*
X36164000Y10430742D01*
X35464000Y10905258D02*
X35464000Y10430742D01*
%TO.C,L1*%
X6662000Y18096000D02*
X7562000Y18096000D01*
X7562000Y19496000D02*
X6662000Y19496000D01*
%TO.C,R12*%
X6079258Y20949400D02*
X5604742Y20949400D01*
X6079258Y20249400D02*
X5604742Y20249400D01*
%TO.C,R7*%
X5604742Y8032000D02*
X6079258Y8032000D01*
X5604742Y8732000D02*
X6079258Y8732000D01*
%TO.C,C11*%
X10905258Y18446000D02*
X10430742Y18446000D01*
X10905258Y19146000D02*
X10430742Y19146000D01*
%TO.C,Y1*%
X62262000Y7263400D02*
X62262000Y3963400D01*
X62262000Y3963400D02*
X66262000Y3963400D01*
D12*
%TO.C,J4*%
X7112000Y10668000D02*
X5842000Y10668000D01*
X7112000Y11938000D02*
X7112000Y10668000D01*
D13*
X4732000Y12318000D02*
X4402000Y12318000D01*
X4732000Y11558000D02*
X4402000Y11558000D01*
X1742000Y12218000D02*
X-4258000Y12218000D01*
X1742000Y12098000D02*
X-4258000Y12098000D01*
X1742000Y11978000D02*
X-4258000Y11978000D01*
X1742000Y11858000D02*
X-4258000Y11858000D01*
X1742000Y11738000D02*
X-4258000Y11738000D01*
X1742000Y11618000D02*
X-4258000Y11618000D01*
X-4258000Y12318000D02*
X1742000Y12318000D01*
X-4258000Y11558000D02*
X-4258000Y12318000D01*
X1742000Y11558000D02*
X-4258000Y11558000D01*
D12*
X1742000Y10608000D02*
X4402000Y10608000D01*
X1742000Y13268000D02*
X1742000Y10608000D01*
X4402000Y13268000D02*
X1742000Y13268000D01*
X4402000Y10608000D02*
X4402000Y13268000D01*
%TO.C,J3*%
X89408000Y2794000D02*
X90678000Y2794000D01*
X89408000Y1524000D02*
X89408000Y2794000D01*
D13*
X91788000Y1144000D02*
X92118000Y1144000D01*
X91788000Y1904000D02*
X92118000Y1904000D01*
X94778000Y1244000D02*
X100778000Y1244000D01*
X94778000Y1364000D02*
X100778000Y1364000D01*
X94778000Y1484000D02*
X100778000Y1484000D01*
X94778000Y1604000D02*
X100778000Y1604000D01*
X94778000Y1724000D02*
X100778000Y1724000D01*
X94778000Y1844000D02*
X100778000Y1844000D01*
X100778000Y1144000D02*
X94778000Y1144000D01*
X100778000Y1904000D02*
X100778000Y1144000D01*
X94778000Y1904000D02*
X100778000Y1904000D01*
D12*
X94778000Y2854000D02*
X92118000Y2854000D01*
X94778000Y194000D02*
X94778000Y2854000D01*
X92118000Y194000D02*
X94778000Y194000D01*
X92118000Y2854000D02*
X92118000Y194000D01*
D10*
%TO.C,J1*%
X66354000Y219400D02*
X66354000Y2879400D01*
X53594000Y219400D02*
X66354000Y219400D01*
X53594000Y2879400D02*
X66354000Y2879400D01*
X53594000Y219400D02*
X53594000Y2879400D01*
X52324000Y219400D02*
X50994000Y219400D01*
X50994000Y219400D02*
X50994000Y1549400D01*
D11*
%TO.C,R1*%
X2015258Y22448000D02*
X1540742Y22448000D01*
X2015258Y21748000D02*
X1540742Y21748000D01*
%TO.C,C8*%
X5604742Y15844000D02*
X6079258Y15844000D01*
X5604742Y15144000D02*
X6079258Y15144000D01*
%TO.C,C6*%
X2015258Y17176000D02*
X1540742Y17176000D01*
X2015258Y17876000D02*
X1540742Y17876000D01*
%TO.C,C5*%
X67660000Y5825258D02*
X67660000Y5350742D01*
X66960000Y5825258D02*
X66960000Y5350742D01*
%TO.C,C4*%
X60864000Y5350742D02*
X60864000Y5825258D01*
X61564000Y5350742D02*
X61564000Y5825258D01*
%TO.C,C3*%
X64753258Y21748000D02*
X64278742Y21748000D01*
X64753258Y22448000D02*
X64278742Y22448000D01*
%TO.C,C2*%
X67580742Y14828000D02*
X68055258Y14828000D01*
X67580742Y14128000D02*
X68055258Y14128000D01*
%TO.C,R36*%
X47656000Y12175258D02*
X47656000Y11700742D01*
X48356000Y12175258D02*
X48356000Y11700742D01*
%TO.C,R14*%
X68055258Y16352000D02*
X67580742Y16352000D01*
X68055258Y15652000D02*
X67580742Y15652000D01*
%TO.C,R13*%
X9414742Y10343400D02*
X9889258Y10343400D01*
X9414742Y11043400D02*
X9889258Y11043400D01*
%TO.C,R9*%
X11334000Y21827258D02*
X11334000Y21352742D01*
X12034000Y21827258D02*
X12034000Y21352742D01*
%TO.C,R43*%
X71136742Y20986000D02*
X71611258Y20986000D01*
X71136742Y21686000D02*
X71611258Y21686000D01*
%TO.C,R21*%
X25496000Y10430742D02*
X25496000Y10905258D01*
X24796000Y10430742D02*
X24796000Y10905258D01*
%TO.C,R20*%
X33940000Y10905258D02*
X33940000Y10430742D01*
X34640000Y10905258D02*
X34640000Y10430742D01*
%TO.C,R19*%
X19400000Y10430742D02*
X19400000Y10905258D01*
X18700000Y10430742D02*
X18700000Y10905258D01*
%TO.C,R11*%
X1540742Y15144000D02*
X2015258Y15144000D01*
X1540742Y15844000D02*
X2015258Y15844000D01*
%TO.C,R10*%
X6079258Y17368000D02*
X5604742Y17368000D01*
X6079258Y16668000D02*
X5604742Y16668000D01*
%TO.C,C10*%
X9889258Y8794000D02*
X9414742Y8794000D01*
X9889258Y9494000D02*
X9414742Y9494000D01*
%TO.C,L3*%
X82566742Y13558000D02*
X83041258Y13558000D01*
X82566742Y12858000D02*
X83041258Y12858000D01*
%TO.C,L2*%
X50354000Y22294000D02*
X50354000Y21394000D01*
X51754000Y21394000D02*
X51754000Y22294000D01*
%TO.C,R38*%
X75200742Y9581400D02*
X75675258Y9581400D01*
X75200742Y10281400D02*
X75675258Y10281400D01*
%TO.C,R28*%
X76978742Y437400D02*
X77453258Y437400D01*
X76978742Y1137400D02*
X77453258Y1137400D01*
%TO.C,R6*%
X68055258Y10256000D02*
X67580742Y10256000D01*
X68055258Y9556000D02*
X67580742Y9556000D01*
%TO.C,R5*%
X55976000Y4614142D02*
X55976000Y5088658D01*
X55276000Y4614142D02*
X55276000Y5088658D01*
%TO.C,R4*%
X53752000Y5088658D02*
X53752000Y4614142D01*
X54452000Y5088658D02*
X54452000Y4614142D01*
%TO.C,R3*%
X56800000Y5088658D02*
X56800000Y4614142D01*
X57500000Y5088658D02*
X57500000Y4614142D01*
%TO.C,R2*%
X58324000Y5088658D02*
X58324000Y4614142D01*
X59024000Y5088658D02*
X59024000Y4614142D01*
%TO.C,C1*%
X67580742Y13304000D02*
X68055258Y13304000D01*
X67580742Y12604000D02*
X68055258Y12604000D01*
%TO.C,R45*%
X71865258Y11780000D02*
X71390742Y11780000D01*
X71865258Y11080000D02*
X71390742Y11080000D01*
D12*
%TO.C,U3*%
X70614000Y18852000D02*
X70614000Y17922000D01*
X70614000Y15692000D02*
X70614000Y16622000D01*
X70614000Y15692000D02*
X72774000Y15692000D01*
X70614000Y18852000D02*
X72074000Y18852000D01*
%TO.C,U6*%
X75870000Y15154000D02*
X78970000Y15154000D01*
X77470000Y18374000D02*
X74570000Y18374000D01*
D10*
%TO.C,U5*%
X76269000Y2059000D02*
X76269000Y7334000D01*
X81669000Y3334000D02*
X81669000Y7334000D01*
D12*
%TO.C,U4*%
X48422000Y8745400D02*
X47922000Y8745400D01*
X47922000Y6545400D02*
X47922000Y7045400D01*
X48422000Y6545400D02*
X47922000Y6545400D01*
X50122000Y6545400D02*
X49622000Y6545400D01*
X50122000Y7045400D02*
X50122000Y6545400D01*
D13*
X50122000Y8245400D02*
X50122000Y8245400D01*
D10*
X50122000Y8745400D02*
X50122000Y8245400D01*
D12*
X49622000Y8745400D02*
X50122000Y8745400D01*
%TO.C,U2*%
X9006000Y3216000D02*
X10806000Y3216000D01*
X10806000Y6436000D02*
X8356000Y6436000D01*
D10*
%TO.C,U1*%
X53924000Y10587000D02*
X53924000Y8987000D01*
X63999000Y10587000D02*
X63999000Y16337000D01*
X53349000Y10587000D02*
X53349000Y16337000D01*
X63999000Y10587000D02*
X63349000Y10587000D01*
X63999000Y16337000D02*
X63349000Y16337000D01*
X53349000Y16337000D02*
X53999000Y16337000D01*
X53349000Y10587000D02*
X53924000Y10587000D01*
D11*
%TO.C,TH1*%
X83041258Y15336000D02*
X82566742Y15336000D01*
X83041258Y14636000D02*
X82566742Y14636000D01*
D10*
%TO.C,SW3*%
X29140000Y3789400D02*
X26740000Y3789400D01*
X24080000Y6619400D02*
X24080000Y7129400D01*
X24600000Y7129400D02*
X24080000Y7129400D01*
X24600000Y6619400D02*
X24600000Y7129400D01*
X31800000Y6619400D02*
X31800000Y7129400D01*
X31280000Y6619400D02*
X31280000Y7129400D01*
X31800000Y119400D02*
X31800000Y4019400D01*
X31800000Y7129400D02*
X31280000Y7129400D01*
X24080000Y119400D02*
X24080000Y4019400D01*
X31800000Y119400D02*
X24080000Y119400D01*
%TO.C,SW2*%
X39808000Y3789400D02*
X37408000Y3789400D01*
X34748000Y6619400D02*
X34748000Y7129400D01*
X35268000Y7129400D02*
X34748000Y7129400D01*
X35268000Y6619400D02*
X35268000Y7129400D01*
X42468000Y6619400D02*
X42468000Y7129400D01*
X41948000Y6619400D02*
X41948000Y7129400D01*
X42468000Y119400D02*
X42468000Y4019400D01*
X42468000Y7129400D02*
X41948000Y7129400D01*
X34748000Y119400D02*
X34748000Y4019400D01*
X42468000Y119400D02*
X34748000Y119400D01*
%TO.C,SW1*%
X18573600Y3789400D02*
X16173600Y3789400D01*
X13513600Y6619400D02*
X13513600Y7129400D01*
X14033600Y7129400D02*
X13513600Y7129400D01*
X14033600Y6619400D02*
X14033600Y7129400D01*
X21233600Y6619400D02*
X21233600Y7129400D01*
X20713600Y6619400D02*
X20713600Y7129400D01*
X21233600Y119400D02*
X21233600Y4019400D01*
X21233600Y7129400D02*
X20713600Y7129400D01*
X13513600Y119400D02*
X13513600Y4019400D01*
X21233600Y119400D02*
X13513600Y119400D01*
D11*
%TO.C,R42*%
X44974742Y19462000D02*
X45449258Y19462000D01*
X44974742Y20162000D02*
X45449258Y20162000D01*
%TO.C,R41*%
X56230000Y20336742D02*
X56230000Y20811258D01*
X55530000Y20336742D02*
X55530000Y20811258D01*
%TO.C,R40*%
X83408000Y3318742D02*
X83408000Y3793258D01*
X82708000Y3318742D02*
X82708000Y3793258D01*
%TO.C,R39*%
X82708000Y7349258D02*
X82708000Y6874742D01*
X83408000Y7349258D02*
X83408000Y6874742D01*
%TO.C,R37*%
X77707258Y12821400D02*
X77232742Y12821400D01*
X77707258Y12121400D02*
X77232742Y12121400D01*
%TO.C,R35*%
X71865258Y10256000D02*
X71390742Y10256000D01*
X71865258Y9556000D02*
X71390742Y9556000D01*
%TO.C,R34*%
X71390742Y12604000D02*
X71865258Y12604000D01*
X71390742Y13304000D02*
X71865258Y13304000D01*
%TO.C,R33*%
X30892000Y10905258D02*
X30892000Y10430742D01*
X31592000Y10905258D02*
X31592000Y10430742D01*
%TO.C,R32*%
X32416000Y10905258D02*
X32416000Y10430742D01*
X33116000Y10905258D02*
X33116000Y10430742D01*
%TO.C,R31*%
X71390742Y8032000D02*
X71865258Y8032000D01*
X71390742Y8732000D02*
X71865258Y8732000D01*
%TO.C,R30*%
X82566742Y17684000D02*
X83041258Y17684000D01*
X82566742Y18384000D02*
X83041258Y18384000D01*
%TO.C,R29*%
X83041258Y16860000D02*
X82566742Y16860000D01*
X83041258Y16160000D02*
X82566742Y16160000D01*
%TO.C,R27*%
X71390742Y4984000D02*
X71865258Y4984000D01*
X71390742Y5684000D02*
X71865258Y5684000D01*
%TO.C,R26*%
X71865258Y4160000D02*
X71390742Y4160000D01*
X71865258Y3460000D02*
X71390742Y3460000D01*
%TO.C,R25*%
X48751258Y3906000D02*
X48276742Y3906000D01*
X48751258Y3206000D02*
X48276742Y3206000D01*
%TO.C,R24*%
X27844000Y10905258D02*
X27844000Y10430742D01*
X28544000Y10905258D02*
X28544000Y10430742D01*
%TO.C,R23*%
X36988000Y10905258D02*
X36988000Y10430742D01*
X37688000Y10905258D02*
X37688000Y10430742D01*
%TO.C,R22*%
X21748000Y10930658D02*
X21748000Y10456142D01*
X22448000Y10930658D02*
X22448000Y10456142D01*
%TO.C,R15*%
X45228742Y4730000D02*
X45703258Y4730000D01*
X45228742Y5430000D02*
X45703258Y5430000D01*
%TO.C,R8*%
X2015258Y8732000D02*
X1540742Y8732000D01*
X2015258Y8032000D02*
X1540742Y8032000D01*
D12*
%TO.C,Q4*%
X44452000Y13518000D02*
X44452000Y12588000D01*
X44452000Y10358000D02*
X44452000Y11288000D01*
X44452000Y10358000D02*
X46612000Y10358000D01*
X44452000Y13518000D02*
X45912000Y13518000D01*
%TO.C,Q3*%
X66042000Y20884000D02*
X66042000Y19954000D01*
X66042000Y17724000D02*
X66042000Y18654000D01*
X66042000Y17724000D02*
X68202000Y17724000D01*
X66042000Y20884000D02*
X67502000Y20884000D01*
%TO.C,Q2*%
X10920000Y12136000D02*
X10920000Y13066000D01*
X10920000Y15296000D02*
X10920000Y14366000D01*
X10920000Y15296000D02*
X8760000Y15296000D01*
X10920000Y12136000D02*
X9460000Y12136000D01*
%TO.C,Q1*%
X8384000Y23170000D02*
X8384000Y22240000D01*
X8384000Y20010000D02*
X8384000Y20940000D01*
X8384000Y20010000D02*
X10544000Y20010000D01*
X8384000Y23170000D02*
X9844000Y23170000D01*
D10*
%TO.C,J2*%
X86686000Y5890000D02*
X86686000Y18110000D01*
X86686000Y5890000D02*
X90436000Y5890000D01*
X86686000Y18110000D02*
X90436000Y18110000D01*
X103306000Y5890000D02*
X103306000Y18110000D01*
X103306000Y18110000D02*
X95336000Y18110000D01*
X103306000Y5890000D02*
X95336000Y5890000D01*
D11*
%TO.C,F1*%
X76220000Y23748000D02*
X78720000Y23748000D01*
X78720000Y20448000D02*
X76220000Y20448000D01*
D13*
%TO.C,D6*%
X71724000Y22860000D02*
X71374000Y22460000D01*
X71374000Y22460000D02*
X71374000Y23260000D01*
X71374000Y23260000D02*
X71724000Y22860000D01*
X71424000Y22610000D02*
X71424000Y23060000D01*
X71474000Y22710000D02*
X71474000Y23060000D01*
X71574000Y22710000D02*
X71574000Y22960000D01*
X71674000Y22810000D02*
X71624000Y22910000D01*
%TO.C,D5*%
X74826000Y7337400D02*
X74576000Y7337400D01*
X74726000Y7437400D02*
X74626000Y7387400D01*
X74676000Y7487400D02*
X75076000Y7137400D01*
X74276000Y7137400D02*
X74676000Y7487400D01*
X74926000Y7187400D02*
X74476000Y7187400D01*
X74826000Y7237400D02*
X74476000Y7237400D01*
X75076000Y7137400D02*
X74276000Y7137400D01*
%TO.C,D4*%
X74526000Y1324000D02*
X74776000Y1324000D01*
X74626000Y1224000D02*
X74726000Y1274000D01*
X74676000Y1174000D02*
X74276000Y1524000D01*
X75076000Y1524000D02*
X74676000Y1174000D01*
X74426000Y1474000D02*
X74876000Y1474000D01*
X74526000Y1424000D02*
X74876000Y1424000D01*
X74276000Y1524000D02*
X75076000Y1524000D01*
%TO.C,D3*%
X68018000Y11280000D02*
X68018000Y11530000D01*
X68118000Y11380000D02*
X68068000Y11480000D01*
X68168000Y11430000D02*
X67818000Y11030000D01*
X67818000Y11830000D02*
X68168000Y11430000D01*
X67868000Y11180000D02*
X67868000Y11630000D01*
X67918000Y11280000D02*
X67918000Y11630000D01*
X67818000Y11030000D02*
X67818000Y11830000D01*
D12*
%TO.C,D2*%
X3050000Y6660000D02*
X3050000Y5730000D01*
X3050000Y3500000D02*
X3050000Y4430000D01*
X3050000Y3500000D02*
X5210000Y3500000D01*
X3050000Y6660000D02*
X4510000Y6660000D01*
D13*
%TO.C,D1*%
X5642000Y22248000D02*
X5642000Y21998000D01*
X5542000Y22148000D02*
X5592000Y22048000D01*
X5492000Y22098000D02*
X5842000Y22498000D01*
X5842000Y21698000D02*
X5492000Y22098000D01*
X5792000Y22348000D02*
X5792000Y21898000D01*
X5742000Y22248000D02*
X5742000Y21898000D01*
X5842000Y22498000D02*
X5842000Y21698000D01*
D11*
%TO.C,C36*%
X44974742Y23210000D02*
X45449258Y23210000D01*
X44974742Y22510000D02*
X45449258Y22510000D01*
%TO.C,C35*%
X44974742Y21686000D02*
X45449258Y21686000D01*
X44974742Y20986000D02*
X45449258Y20986000D01*
%TO.C,C34*%
X77707258Y13620000D02*
X77232742Y13620000D01*
X77707258Y14320000D02*
X77232742Y14320000D01*
%TO.C,C33*%
X84932000Y7349258D02*
X84932000Y6874742D01*
X84232000Y7349258D02*
X84232000Y6874742D01*
%TO.C,C32*%
X42260000Y10905258D02*
X42260000Y10430742D01*
X41560000Y10905258D02*
X41560000Y10430742D01*
%TO.C,C31*%
X84232000Y3318742D02*
X84232000Y3793258D01*
X84932000Y3318742D02*
X84932000Y3793258D01*
%TO.C,C30*%
X40036000Y10430742D02*
X40036000Y10905258D01*
X40736000Y10430742D02*
X40736000Y10905258D01*
%TO.C,C29*%
X44974742Y15082000D02*
X45449258Y15082000D01*
X44974742Y14382000D02*
X45449258Y14382000D01*
%TO.C,C28*%
X44974742Y16606000D02*
X45449258Y16606000D01*
X44974742Y15906000D02*
X45449258Y15906000D01*
%TO.C,C27*%
X79993258Y9556000D02*
X79518742Y9556000D01*
X79993258Y10256000D02*
X79518742Y10256000D01*
%TO.C,C26*%
X77707258Y18979400D02*
X77232742Y18979400D01*
X77707258Y19679400D02*
X77232742Y19679400D01*
%TO.C,C25*%
X71390742Y7208000D02*
X71865258Y7208000D01*
X71390742Y6508000D02*
X71865258Y6508000D01*
%TO.C,C24*%
X51720000Y7408142D02*
X51720000Y7882658D01*
X52420000Y7408142D02*
X52420000Y7882658D01*
%TO.C,C23*%
X48751258Y4730000D02*
X48276742Y4730000D01*
X48751258Y5430000D02*
X48276742Y5430000D01*
%TO.C,C22*%
X30068000Y10905258D02*
X30068000Y10430742D01*
X29368000Y10905258D02*
X29368000Y10430742D01*
%TO.C,C20*%
X23972000Y10930658D02*
X23972000Y10456142D01*
X23272000Y10930658D02*
X23272000Y10456142D01*
%TO.C,C19*%
X26320000Y10430742D02*
X26320000Y10905258D01*
X27020000Y10430742D02*
X27020000Y10905258D01*
%TO.C,C18*%
X38512000Y10430742D02*
X38512000Y10905258D01*
X39212000Y10430742D02*
X39212000Y10905258D01*
%TO.C,C17*%
X20224000Y10430742D02*
X20224000Y10905258D01*
X20924000Y10430742D02*
X20924000Y10905258D01*
%TO.C,C16*%
X53182000Y20811258D02*
X53182000Y20336742D01*
X52482000Y20811258D02*
X52482000Y20336742D01*
%TO.C,C15*%
X54706000Y20811258D02*
X54706000Y20336742D01*
X54006000Y20811258D02*
X54006000Y20336742D01*
%TO.C,C12*%
X71390742Y14828000D02*
X71865258Y14828000D01*
X71390742Y14128000D02*
X71865258Y14128000D01*
%TO.C,C9*%
X71136742Y20162000D02*
X71611258Y20162000D01*
X71136742Y19462000D02*
X71611258Y19462000D01*
%TO.C,C7*%
X2015258Y19208000D02*
X1540742Y19208000D01*
X2015258Y19908000D02*
X1540742Y19908000D01*
%TO.C,U7*%
D14*
X13208095Y11977619D02*
X13208095Y11168095D01*
X13255714Y11072857D01*
X13303333Y11025238D01*
X13398571Y10977619D01*
X13589047Y10977619D01*
X13684285Y11025238D01*
X13731904Y11072857D01*
X13779523Y11168095D01*
X13779523Y11977619D01*
X14160476Y11977619D02*
X14827142Y11977619D01*
X14398571Y10977619D01*
X35392380Y20393523D02*
X35392380Y19822095D01*
X35392380Y20107809D02*
X34392380Y20107809D01*
X34535238Y20012571D01*
X34630476Y19917333D01*
X34678095Y19822095D01*
X34725714Y21250666D02*
X35392380Y21250666D01*
X34344761Y21012571D02*
X35059047Y20774476D01*
X35059047Y21393523D01*
X35492380Y13319714D02*
X35492380Y12748285D01*
X35492380Y13034000D02*
X34492380Y13034000D01*
X34635238Y12938761D01*
X34730476Y12843523D01*
X34778095Y12748285D01*
%TO.C,R16*%
D15*
X11488000Y7303333D02*
X11254666Y7636666D01*
X11088000Y7303333D02*
X11088000Y8003333D01*
X11354666Y8003333D01*
X11421333Y7970000D01*
X11454666Y7936666D01*
X11488000Y7870000D01*
X11488000Y7770000D01*
X11454666Y7703333D01*
X11421333Y7670000D01*
X11354666Y7636666D01*
X11088000Y7636666D01*
X12154666Y7303333D02*
X11754666Y7303333D01*
X11954666Y7303333D02*
X11954666Y8003333D01*
X11888000Y7903333D01*
X11821333Y7836666D01*
X11754666Y7803333D01*
X12754666Y8003333D02*
X12621333Y8003333D01*
X12554666Y7970000D01*
X12521333Y7936666D01*
X12454666Y7836666D01*
X12421333Y7703333D01*
X12421333Y7436666D01*
X12454666Y7370000D01*
X12488000Y7336666D01*
X12554666Y7303333D01*
X12688000Y7303333D01*
X12754666Y7336666D01*
X12788000Y7370000D01*
X12821333Y7436666D01*
X12821333Y7603333D01*
X12788000Y7670000D01*
X12754666Y7703333D01*
X12688000Y7736666D01*
X12554666Y7736666D01*
X12488000Y7703333D01*
X12454666Y7670000D01*
X12421333Y7603333D01*
%TO.C,R44*%
X47048000Y17971333D02*
X46814666Y18304666D01*
X46648000Y17971333D02*
X46648000Y18671333D01*
X46914666Y18671333D01*
X46981333Y18638000D01*
X47014666Y18604666D01*
X47048000Y18538000D01*
X47048000Y18438000D01*
X47014666Y18371333D01*
X46981333Y18338000D01*
X46914666Y18304666D01*
X46648000Y18304666D01*
X47648000Y18438000D02*
X47648000Y17971333D01*
X47481333Y18704666D02*
X47314666Y18204666D01*
X47748000Y18204666D01*
X48314666Y18438000D02*
X48314666Y17971333D01*
X48148000Y18704666D02*
X47981333Y18204666D01*
X48414666Y18204666D01*
%TO.C,C13*%
X45016000Y1876000D02*
X44982666Y1842666D01*
X44882666Y1809333D01*
X44816000Y1809333D01*
X44716000Y1842666D01*
X44649333Y1909333D01*
X44616000Y1976000D01*
X44582666Y2109333D01*
X44582666Y2209333D01*
X44616000Y2342666D01*
X44649333Y2409333D01*
X44716000Y2476000D01*
X44816000Y2509333D01*
X44882666Y2509333D01*
X44982666Y2476000D01*
X45016000Y2442666D01*
X45682666Y1809333D02*
X45282666Y1809333D01*
X45482666Y1809333D02*
X45482666Y2509333D01*
X45416000Y2409333D01*
X45349333Y2342666D01*
X45282666Y2309333D01*
X45916000Y2509333D02*
X46349333Y2509333D01*
X46116000Y2242666D01*
X46216000Y2242666D01*
X46282666Y2209333D01*
X46316000Y2176000D01*
X46349333Y2109333D01*
X46349333Y1942666D01*
X46316000Y1876000D01*
X46282666Y1842666D01*
X46216000Y1809333D01*
X46016000Y1809333D01*
X45949333Y1842666D01*
X45916000Y1876000D01*
%TO.C,C21*%
X36064000Y7932000D02*
X36097333Y7898666D01*
X36130666Y7798666D01*
X36130666Y7732000D01*
X36097333Y7632000D01*
X36030666Y7565333D01*
X35964000Y7532000D01*
X35830666Y7498666D01*
X35730666Y7498666D01*
X35597333Y7532000D01*
X35530666Y7565333D01*
X35464000Y7632000D01*
X35430666Y7732000D01*
X35430666Y7798666D01*
X35464000Y7898666D01*
X35497333Y7932000D01*
X35497333Y8198666D02*
X35464000Y8232000D01*
X35430666Y8298666D01*
X35430666Y8465333D01*
X35464000Y8532000D01*
X35497333Y8565333D01*
X35564000Y8598666D01*
X35630666Y8598666D01*
X35730666Y8565333D01*
X36130666Y8165333D01*
X36130666Y8598666D01*
X36130666Y9265333D02*
X36130666Y8865333D01*
X36130666Y9065333D02*
X35430666Y9065333D01*
X35530666Y8998666D01*
X35597333Y8932000D01*
X35630666Y8865333D01*
%TO.C,L1*%
X4455333Y18479333D02*
X4122000Y18479333D01*
X4122000Y19179333D01*
X5055333Y18479333D02*
X4655333Y18479333D01*
X4855333Y18479333D02*
X4855333Y19179333D01*
X4788666Y19079333D01*
X4722000Y19012666D01*
X4655333Y18979333D01*
%TO.C,R12*%
X4126666Y20378000D02*
X3793333Y20144666D01*
X4126666Y19978000D02*
X3426666Y19978000D01*
X3426666Y20244666D01*
X3460000Y20311333D01*
X3493333Y20344666D01*
X3560000Y20378000D01*
X3660000Y20378000D01*
X3726666Y20344666D01*
X3760000Y20311333D01*
X3793333Y20244666D01*
X3793333Y19978000D01*
X4126666Y21044666D02*
X4126666Y20644666D01*
X4126666Y20844666D02*
X3426666Y20844666D01*
X3526666Y20778000D01*
X3593333Y20711333D01*
X3626666Y20644666D01*
X3493333Y21311333D02*
X3460000Y21344666D01*
X3426666Y21411333D01*
X3426666Y21578000D01*
X3460000Y21644666D01*
X3493333Y21678000D01*
X3560000Y21711333D01*
X3626666Y21711333D01*
X3726666Y21678000D01*
X4126666Y21278000D01*
X4126666Y21711333D01*
%TO.C,R7*%
X5725333Y9335333D02*
X5492000Y9668666D01*
X5325333Y9335333D02*
X5325333Y10035333D01*
X5592000Y10035333D01*
X5658666Y10002000D01*
X5692000Y9968666D01*
X5725333Y9902000D01*
X5725333Y9802000D01*
X5692000Y9735333D01*
X5658666Y9702000D01*
X5592000Y9668666D01*
X5325333Y9668666D01*
X5958666Y10035333D02*
X6425333Y10035333D01*
X6125333Y9335333D01*
%TO.C,C11*%
X10218000Y17276000D02*
X10184666Y17242666D01*
X10084666Y17209333D01*
X10018000Y17209333D01*
X9918000Y17242666D01*
X9851333Y17309333D01*
X9818000Y17376000D01*
X9784666Y17509333D01*
X9784666Y17609333D01*
X9818000Y17742666D01*
X9851333Y17809333D01*
X9918000Y17876000D01*
X10018000Y17909333D01*
X10084666Y17909333D01*
X10184666Y17876000D01*
X10218000Y17842666D01*
X10884666Y17209333D02*
X10484666Y17209333D01*
X10684666Y17209333D02*
X10684666Y17909333D01*
X10618000Y17809333D01*
X10551333Y17742666D01*
X10484666Y17709333D01*
X11551333Y17209333D02*
X11151333Y17209333D01*
X11351333Y17209333D02*
X11351333Y17909333D01*
X11284666Y17809333D01*
X11218000Y17742666D01*
X11151333Y17709333D01*
%TO.C,Y1*%
X63928666Y7890666D02*
X63928666Y7557333D01*
X63695333Y8257333D02*
X63928666Y7890666D01*
X64162000Y8257333D01*
X64762000Y7557333D02*
X64362000Y7557333D01*
X64562000Y7557333D02*
X64562000Y8257333D01*
X64495333Y8157333D01*
X64428666Y8090666D01*
X64362000Y8057333D01*
%TO.C,J4*%
X5608666Y14099333D02*
X5608666Y13599333D01*
X5575333Y13499333D01*
X5508666Y13432666D01*
X5408666Y13399333D01*
X5342000Y13399333D01*
X6242000Y13866000D02*
X6242000Y13399333D01*
X6075333Y14132666D02*
X5908666Y13632666D01*
X6342000Y13632666D01*
%TO.C,J3*%
X93594666Y4257333D02*
X93594666Y3757333D01*
X93561333Y3657333D01*
X93494666Y3590666D01*
X93394666Y3557333D01*
X93328000Y3557333D01*
X93861333Y4257333D02*
X94294666Y4257333D01*
X94061333Y3990666D01*
X94161333Y3990666D01*
X94228000Y3957333D01*
X94261333Y3924000D01*
X94294666Y3857333D01*
X94294666Y3690666D01*
X94261333Y3624000D01*
X94228000Y3590666D01*
X94161333Y3557333D01*
X93961333Y3557333D01*
X93894666Y3590666D01*
X93861333Y3624000D01*
%TO.C,J1*%
X55960666Y1316066D02*
X56460666Y1316066D01*
X56560666Y1282733D01*
X56627333Y1216066D01*
X56660666Y1116066D01*
X56660666Y1049400D01*
X56660666Y2016066D02*
X56660666Y1616066D01*
X56660666Y1816066D02*
X55960666Y1816066D01*
X56060666Y1749400D01*
X56127333Y1682733D01*
X56160666Y1616066D01*
%TO.C,R1*%
X1661333Y22797333D02*
X1428000Y23130666D01*
X1261333Y22797333D02*
X1261333Y23497333D01*
X1528000Y23497333D01*
X1594666Y23464000D01*
X1628000Y23430666D01*
X1661333Y23364000D01*
X1661333Y23264000D01*
X1628000Y23197333D01*
X1594666Y23164000D01*
X1528000Y23130666D01*
X1261333Y23130666D01*
X2328000Y22797333D02*
X1928000Y22797333D01*
X2128000Y22797333D02*
X2128000Y23497333D01*
X2061333Y23397333D01*
X1994666Y23330666D01*
X1928000Y23297333D01*
%TO.C,C8*%
X7757333Y15244000D02*
X7724000Y15210666D01*
X7624000Y15177333D01*
X7557333Y15177333D01*
X7457333Y15210666D01*
X7390666Y15277333D01*
X7357333Y15344000D01*
X7324000Y15477333D01*
X7324000Y15577333D01*
X7357333Y15710666D01*
X7390666Y15777333D01*
X7457333Y15844000D01*
X7557333Y15877333D01*
X7624000Y15877333D01*
X7724000Y15844000D01*
X7757333Y15810666D01*
X8157333Y15577333D02*
X8090666Y15610666D01*
X8057333Y15644000D01*
X8024000Y15710666D01*
X8024000Y15744000D01*
X8057333Y15810666D01*
X8090666Y15844000D01*
X8157333Y15877333D01*
X8290666Y15877333D01*
X8357333Y15844000D01*
X8390666Y15810666D01*
X8424000Y15744000D01*
X8424000Y15710666D01*
X8390666Y15644000D01*
X8357333Y15610666D01*
X8290666Y15577333D01*
X8157333Y15577333D01*
X8090666Y15544000D01*
X8057333Y15510666D01*
X8024000Y15444000D01*
X8024000Y15310666D01*
X8057333Y15244000D01*
X8090666Y15210666D01*
X8157333Y15177333D01*
X8290666Y15177333D01*
X8357333Y15210666D01*
X8390666Y15244000D01*
X8424000Y15310666D01*
X8424000Y15444000D01*
X8390666Y15510666D01*
X8357333Y15544000D01*
X8290666Y15577333D01*
%TO.C,C6*%
X1661333Y18292000D02*
X1627999Y18258666D01*
X1528000Y18225333D01*
X1461333Y18225333D01*
X1361333Y18258666D01*
X1294666Y18325333D01*
X1261333Y18392000D01*
X1227999Y18525333D01*
X1227999Y18625333D01*
X1261333Y18758666D01*
X1294666Y18825333D01*
X1361333Y18892000D01*
X1461333Y18925333D01*
X1528000Y18925333D01*
X1627999Y18892000D01*
X1661333Y18858666D01*
X2261333Y18925333D02*
X2128000Y18925333D01*
X2061333Y18892000D01*
X2027999Y18858666D01*
X1961333Y18758666D01*
X1927999Y18625333D01*
X1927999Y18358666D01*
X1961333Y18292000D01*
X1994666Y18258666D01*
X2061333Y18225333D01*
X2194666Y18225333D01*
X2261333Y18258666D01*
X2294666Y18292000D01*
X2328000Y18358666D01*
X2328000Y18525333D01*
X2294666Y18592000D01*
X2261333Y18625333D01*
X2194666Y18658666D01*
X2061333Y18658666D01*
X1994666Y18625333D01*
X1961333Y18592000D01*
X1927999Y18525333D01*
%TO.C,C5*%
X67560000Y7503333D02*
X67593333Y7470000D01*
X67626666Y7370000D01*
X67626666Y7303333D01*
X67593333Y7203333D01*
X67526666Y7136666D01*
X67460000Y7103333D01*
X67326666Y7070000D01*
X67226666Y7070000D01*
X67093333Y7103333D01*
X67026666Y7136666D01*
X66960000Y7203333D01*
X66926666Y7303333D01*
X66926666Y7370000D01*
X66960000Y7470000D01*
X66993333Y7503333D01*
X66926666Y8136666D02*
X66926666Y7803333D01*
X67260000Y7770000D01*
X67226666Y7803333D01*
X67193333Y7870000D01*
X67193333Y8036666D01*
X67226666Y8103333D01*
X67260000Y8136666D01*
X67326666Y8170000D01*
X67493333Y8170000D01*
X67560000Y8136666D01*
X67593333Y8103333D01*
X67626666Y8036666D01*
X67626666Y7870000D01*
X67593333Y7803333D01*
X67560000Y7770000D01*
%TO.C,C4*%
X61464000Y7503333D02*
X61497333Y7470000D01*
X61530666Y7370000D01*
X61530666Y7303333D01*
X61497333Y7203333D01*
X61430666Y7136666D01*
X61364000Y7103333D01*
X61230666Y7070000D01*
X61130666Y7070000D01*
X60997333Y7103333D01*
X60930666Y7136666D01*
X60864000Y7203333D01*
X60830666Y7303333D01*
X60830666Y7370000D01*
X60864000Y7470000D01*
X60897333Y7503333D01*
X61064000Y8103333D02*
X61530666Y8103333D01*
X60797333Y7936666D02*
X61297333Y7770000D01*
X61297333Y8203333D01*
%TO.C,C2*%
X65669333Y14228000D02*
X65636000Y14194666D01*
X65536000Y14161333D01*
X65469333Y14161333D01*
X65369333Y14194666D01*
X65302666Y14261333D01*
X65269333Y14328000D01*
X65236000Y14461333D01*
X65236000Y14561333D01*
X65269333Y14694666D01*
X65302666Y14761333D01*
X65369333Y14828000D01*
X65469333Y14861333D01*
X65536000Y14861333D01*
X65636000Y14828000D01*
X65669333Y14794666D01*
X65936000Y14794666D02*
X65969333Y14828000D01*
X66036000Y14861333D01*
X66202666Y14861333D01*
X66269333Y14828000D01*
X66302666Y14794666D01*
X66336000Y14728000D01*
X66336000Y14661333D01*
X66302666Y14561333D01*
X65902666Y14161333D01*
X66336000Y14161333D01*
%TO.C,R36*%
X49752666Y11488000D02*
X49419333Y11254666D01*
X49752666Y11088000D02*
X49052666Y11088000D01*
X49052666Y11354666D01*
X49086000Y11421333D01*
X49119333Y11454666D01*
X49186000Y11488000D01*
X49286000Y11488000D01*
X49352666Y11454666D01*
X49386000Y11421333D01*
X49419333Y11354666D01*
X49419333Y11088000D01*
X49052666Y11721333D02*
X49052666Y12154666D01*
X49319333Y11921333D01*
X49319333Y12021333D01*
X49352666Y12088000D01*
X49386000Y12121333D01*
X49452666Y12154666D01*
X49619333Y12154666D01*
X49686000Y12121333D01*
X49719333Y12088000D01*
X49752666Y12021333D01*
X49752666Y11821333D01*
X49719333Y11754666D01*
X49686000Y11721333D01*
X49052666Y12754666D02*
X49052666Y12621333D01*
X49086000Y12554666D01*
X49119333Y12521333D01*
X49219333Y12454666D01*
X49352666Y12421333D01*
X49619333Y12421333D01*
X49686000Y12454666D01*
X49719333Y12488000D01*
X49752666Y12554666D01*
X49752666Y12688000D01*
X49719333Y12754666D01*
X49686000Y12788000D01*
X49619333Y12821333D01*
X49452666Y12821333D01*
X49386000Y12788000D01*
X49352666Y12754666D01*
X49319333Y12688000D01*
X49319333Y12554666D01*
X49352666Y12488000D01*
X49386000Y12454666D01*
X49452666Y12421333D01*
%TO.C,R14*%
X65082000Y15685333D02*
X64848666Y16018666D01*
X64682000Y15685333D02*
X64682000Y16385333D01*
X64948666Y16385333D01*
X65015333Y16352000D01*
X65048666Y16318666D01*
X65082000Y16252000D01*
X65082000Y16152000D01*
X65048666Y16085333D01*
X65015333Y16052000D01*
X64948666Y16018666D01*
X64682000Y16018666D01*
X65748666Y15685333D02*
X65348666Y15685333D01*
X65548666Y15685333D02*
X65548666Y16385333D01*
X65482000Y16285333D01*
X65415333Y16218666D01*
X65348666Y16185333D01*
X66348666Y16152000D02*
X66348666Y15685333D01*
X66182000Y16418666D02*
X66015333Y15918666D01*
X66448666Y15918666D01*
%TO.C,R13*%
X11488000Y10351333D02*
X11254666Y10684666D01*
X11088000Y10351333D02*
X11088000Y11051333D01*
X11354666Y11051333D01*
X11421333Y11018000D01*
X11454666Y10984666D01*
X11488000Y10918000D01*
X11488000Y10818000D01*
X11454666Y10751333D01*
X11421333Y10718000D01*
X11354666Y10684666D01*
X11088000Y10684666D01*
X12154666Y10351333D02*
X11754666Y10351333D01*
X11954666Y10351333D02*
X11954666Y11051333D01*
X11888000Y10951333D01*
X11821333Y10884666D01*
X11754666Y10851333D01*
X12388000Y11051333D02*
X12821333Y11051333D01*
X12588000Y10784666D01*
X12688000Y10784666D01*
X12754666Y10751333D01*
X12788000Y10718000D01*
X12821333Y10651333D01*
X12821333Y10484666D01*
X12788000Y10418000D01*
X12754666Y10384666D01*
X12688000Y10351333D01*
X12488000Y10351333D01*
X12421333Y10384666D01*
X12388000Y10418000D01*
%TO.C,R9*%
X11567333Y23051333D02*
X11334000Y23384666D01*
X11167333Y23051333D02*
X11167333Y23751333D01*
X11434000Y23751333D01*
X11500666Y23718000D01*
X11534000Y23684666D01*
X11567333Y23618000D01*
X11567333Y23518000D01*
X11534000Y23451333D01*
X11500666Y23418000D01*
X11434000Y23384666D01*
X11167333Y23384666D01*
X11900666Y23051333D02*
X12034000Y23051333D01*
X12100666Y23084666D01*
X12134000Y23118000D01*
X12200666Y23218000D01*
X12234000Y23351333D01*
X12234000Y23618000D01*
X12200666Y23684666D01*
X12167333Y23718000D01*
X12100666Y23751333D01*
X11967333Y23751333D01*
X11900666Y23718000D01*
X11867333Y23684666D01*
X11834000Y23618000D01*
X11834000Y23451333D01*
X11867333Y23384666D01*
X11900666Y23351333D01*
X11967333Y23318000D01*
X12100666Y23318000D01*
X12167333Y23351333D01*
X12200666Y23384666D01*
X12234000Y23451333D01*
%TO.C,R43*%
X73210000Y21019333D02*
X72976666Y21352666D01*
X72810000Y21019333D02*
X72810000Y21719333D01*
X73076666Y21719333D01*
X73143333Y21686000D01*
X73176666Y21652666D01*
X73210000Y21586000D01*
X73210000Y21486000D01*
X73176666Y21419333D01*
X73143333Y21386000D01*
X73076666Y21352666D01*
X72810000Y21352666D01*
X73810000Y21486000D02*
X73810000Y21019333D01*
X73643333Y21752666D02*
X73476666Y21252666D01*
X73910000Y21252666D01*
X74110000Y21719333D02*
X74543333Y21719333D01*
X74310000Y21452666D01*
X74410000Y21452666D01*
X74476666Y21419333D01*
X74510000Y21386000D01*
X74543333Y21319333D01*
X74543333Y21152666D01*
X74510000Y21086000D01*
X74476666Y21052666D01*
X74410000Y21019333D01*
X74210000Y21019333D01*
X74143333Y21052666D01*
X74110000Y21086000D01*
%TO.C,R21*%
X25462666Y7932000D02*
X25129333Y7698666D01*
X25462666Y7532000D02*
X24762666Y7532000D01*
X24762666Y7798666D01*
X24796000Y7865333D01*
X24829333Y7898666D01*
X24896000Y7932000D01*
X24996000Y7932000D01*
X25062666Y7898666D01*
X25096000Y7865333D01*
X25129333Y7798666D01*
X25129333Y7532000D01*
X24829333Y8198666D02*
X24796000Y8232000D01*
X24762666Y8298666D01*
X24762666Y8465333D01*
X24796000Y8532000D01*
X24829333Y8565333D01*
X24896000Y8598666D01*
X24962666Y8598666D01*
X25062666Y8565333D01*
X25462666Y8165333D01*
X25462666Y8598666D01*
X25462666Y9265333D02*
X25462666Y8865333D01*
X25462666Y9065333D02*
X24762666Y9065333D01*
X24862666Y8998666D01*
X24929333Y8932000D01*
X24962666Y8865333D01*
%TO.C,R20*%
X34606666Y7932000D02*
X34273333Y7698666D01*
X34606666Y7532000D02*
X33906666Y7532000D01*
X33906666Y7798666D01*
X33940000Y7865333D01*
X33973333Y7898666D01*
X34040000Y7932000D01*
X34140000Y7932000D01*
X34206666Y7898666D01*
X34240000Y7865333D01*
X34273333Y7798666D01*
X34273333Y7532000D01*
X33973333Y8198666D02*
X33940000Y8232000D01*
X33906666Y8298666D01*
X33906666Y8465333D01*
X33940000Y8532000D01*
X33973333Y8565333D01*
X34040000Y8598666D01*
X34106666Y8598666D01*
X34206666Y8565333D01*
X34606666Y8165333D01*
X34606666Y8598666D01*
X33906666Y9032000D02*
X33906666Y9098666D01*
X33940000Y9165333D01*
X33973333Y9198666D01*
X34040000Y9232000D01*
X34173333Y9265333D01*
X34340000Y9265333D01*
X34473333Y9232000D01*
X34540000Y9198666D01*
X34573333Y9165333D01*
X34606666Y9098666D01*
X34606666Y9032000D01*
X34573333Y8965333D01*
X34540000Y8932000D01*
X34473333Y8898666D01*
X34340000Y8865333D01*
X34173333Y8865333D01*
X34040000Y8898666D01*
X33973333Y8932000D01*
X33940000Y8965333D01*
X33906666Y9032000D01*
%TO.C,R19*%
X19366666Y7932000D02*
X19033333Y7698666D01*
X19366666Y7532000D02*
X18666666Y7532000D01*
X18666666Y7798666D01*
X18700000Y7865333D01*
X18733333Y7898666D01*
X18800000Y7932000D01*
X18900000Y7932000D01*
X18966666Y7898666D01*
X19000000Y7865333D01*
X19033333Y7798666D01*
X19033333Y7532000D01*
X19366666Y8598666D02*
X19366666Y8198666D01*
X19366666Y8398666D02*
X18666666Y8398666D01*
X18766666Y8332000D01*
X18833333Y8265333D01*
X18866666Y8198666D01*
X19366666Y8932000D02*
X19366666Y9065333D01*
X19333333Y9132000D01*
X19300000Y9165333D01*
X19200000Y9232000D01*
X19066666Y9265333D01*
X18800000Y9265333D01*
X18733333Y9232000D01*
X18700000Y9198666D01*
X18666666Y9132000D01*
X18666666Y8998666D01*
X18700000Y8932000D01*
X18733333Y8898666D01*
X18800000Y8865333D01*
X18966666Y8865333D01*
X19033333Y8898666D01*
X19066666Y8932000D01*
X19100000Y8998666D01*
X19100000Y9132000D01*
X19066666Y9198666D01*
X19033333Y9232000D01*
X18966666Y9265333D01*
%TO.C,R11*%
X1328000Y16193333D02*
X1094666Y16526666D01*
X928000Y16193333D02*
X928000Y16893333D01*
X1194666Y16893333D01*
X1261333Y16860000D01*
X1294666Y16826666D01*
X1328000Y16760000D01*
X1328000Y16660000D01*
X1294666Y16593333D01*
X1261333Y16560000D01*
X1194666Y16526666D01*
X928000Y16526666D01*
X1994666Y16193333D02*
X1594666Y16193333D01*
X1794666Y16193333D02*
X1794666Y16893333D01*
X1728000Y16793333D01*
X1661333Y16726666D01*
X1594666Y16693333D01*
X2661333Y16193333D02*
X2261333Y16193333D01*
X2461333Y16193333D02*
X2461333Y16893333D01*
X2394666Y16793333D01*
X2328000Y16726666D01*
X2261333Y16693333D01*
%TO.C,R10*%
X7678000Y16701333D02*
X7444666Y17034666D01*
X7278000Y16701333D02*
X7278000Y17401333D01*
X7544666Y17401333D01*
X7611333Y17368000D01*
X7644666Y17334666D01*
X7678000Y17268000D01*
X7678000Y17168000D01*
X7644666Y17101333D01*
X7611333Y17068000D01*
X7544666Y17034666D01*
X7278000Y17034666D01*
X8344666Y16701333D02*
X7944666Y16701333D01*
X8144666Y16701333D02*
X8144666Y17401333D01*
X8078000Y17301333D01*
X8011333Y17234666D01*
X7944666Y17201333D01*
X8778000Y17401333D02*
X8844666Y17401333D01*
X8911333Y17368000D01*
X8944666Y17334666D01*
X8978000Y17268000D01*
X9011333Y17134666D01*
X9011333Y16968000D01*
X8978000Y16834666D01*
X8944666Y16768000D01*
X8911333Y16734666D01*
X8844666Y16701333D01*
X8778000Y16701333D01*
X8711333Y16734666D01*
X8678000Y16768000D01*
X8644666Y16834666D01*
X8611333Y16968000D01*
X8611333Y17134666D01*
X8644666Y17268000D01*
X8678000Y17334666D01*
X8711333Y17368000D01*
X8778000Y17401333D01*
%TO.C,C10*%
X11488000Y8894000D02*
X11454666Y8860666D01*
X11354666Y8827333D01*
X11288000Y8827333D01*
X11188000Y8860666D01*
X11121333Y8927333D01*
X11088000Y8994000D01*
X11054666Y9127333D01*
X11054666Y9227333D01*
X11088000Y9360666D01*
X11121333Y9427333D01*
X11188000Y9494000D01*
X11288000Y9527333D01*
X11354666Y9527333D01*
X11454666Y9494000D01*
X11488000Y9460666D01*
X12154666Y8827333D02*
X11754666Y8827333D01*
X11954666Y8827333D02*
X11954666Y9527333D01*
X11888000Y9427333D01*
X11821333Y9360666D01*
X11754666Y9327333D01*
X12588000Y9527333D02*
X12654666Y9527333D01*
X12721333Y9494000D01*
X12754666Y9460666D01*
X12788000Y9394000D01*
X12821333Y9260666D01*
X12821333Y9094000D01*
X12788000Y8960666D01*
X12754666Y8894000D01*
X12721333Y8860666D01*
X12654666Y8827333D01*
X12588000Y8827333D01*
X12521333Y8860666D01*
X12488000Y8894000D01*
X12454666Y8960666D01*
X12421333Y9094000D01*
X12421333Y9260666D01*
X12454666Y9394000D01*
X12488000Y9460666D01*
X12521333Y9494000D01*
X12588000Y9527333D01*
%TO.C,L3*%
X84719333Y12891333D02*
X84386000Y12891333D01*
X84386000Y13591333D01*
X84886000Y13591333D02*
X85319333Y13591333D01*
X85086000Y13324666D01*
X85186000Y13324666D01*
X85252666Y13291333D01*
X85286000Y13258000D01*
X85319333Y13191333D01*
X85319333Y13024666D01*
X85286000Y12958000D01*
X85252666Y12924666D01*
X85186000Y12891333D01*
X84986000Y12891333D01*
X84919333Y12924666D01*
X84886000Y12958000D01*
%TO.C,L2*%
X50937333Y18987333D02*
X50604000Y18987333D01*
X50604000Y19687333D01*
X51137333Y19620666D02*
X51170666Y19654000D01*
X51237333Y19687333D01*
X51404000Y19687333D01*
X51470666Y19654000D01*
X51504000Y19620666D01*
X51537333Y19554000D01*
X51537333Y19487333D01*
X51504000Y19387333D01*
X51104000Y18987333D01*
X51537333Y18987333D01*
%TO.C,R38*%
X75750000Y10605333D02*
X75516666Y10938666D01*
X75350000Y10605333D02*
X75350000Y11305333D01*
X75616666Y11305333D01*
X75683333Y11272000D01*
X75716666Y11238666D01*
X75750000Y11172000D01*
X75750000Y11072000D01*
X75716666Y11005333D01*
X75683333Y10972000D01*
X75616666Y10938666D01*
X75350000Y10938666D01*
X75983333Y11305333D02*
X76416666Y11305333D01*
X76183333Y11038666D01*
X76283333Y11038666D01*
X76350000Y11005333D01*
X76383333Y10972000D01*
X76416666Y10905333D01*
X76416666Y10738666D01*
X76383333Y10672000D01*
X76350000Y10638666D01*
X76283333Y10605333D01*
X76083333Y10605333D01*
X76016666Y10638666D01*
X75983333Y10672000D01*
X76816666Y11005333D02*
X76750000Y11038666D01*
X76716666Y11072000D01*
X76683333Y11138666D01*
X76683333Y11172000D01*
X76716666Y11238666D01*
X76750000Y11272000D01*
X76816666Y11305333D01*
X76950000Y11305333D01*
X77016666Y11272000D01*
X77050000Y11238666D01*
X77083333Y11172000D01*
X77083333Y11138666D01*
X77050000Y11072000D01*
X77016666Y11038666D01*
X76950000Y11005333D01*
X76816666Y11005333D01*
X76750000Y10972000D01*
X76716666Y10938666D01*
X76683333Y10872000D01*
X76683333Y10738666D01*
X76716666Y10672000D01*
X76750000Y10638666D01*
X76816666Y10605333D01*
X76950000Y10605333D01*
X77016666Y10638666D01*
X77050000Y10672000D01*
X77083333Y10738666D01*
X77083333Y10872000D01*
X77050000Y10938666D01*
X77016666Y10972000D01*
X76950000Y11005333D01*
%TO.C,R28*%
X79306000Y445333D02*
X79072666Y778666D01*
X78906000Y445333D02*
X78906000Y1145333D01*
X79172666Y1145333D01*
X79239333Y1112000D01*
X79272666Y1078666D01*
X79306000Y1012000D01*
X79306000Y912000D01*
X79272666Y845333D01*
X79239333Y812000D01*
X79172666Y778666D01*
X78906000Y778666D01*
X79572666Y1078666D02*
X79606000Y1112000D01*
X79672666Y1145333D01*
X79839333Y1145333D01*
X79906000Y1112000D01*
X79939333Y1078666D01*
X79972666Y1012000D01*
X79972666Y945333D01*
X79939333Y845333D01*
X79539333Y445333D01*
X79972666Y445333D01*
X80372666Y845333D02*
X80306000Y878666D01*
X80272666Y912000D01*
X80239333Y978666D01*
X80239333Y1012000D01*
X80272666Y1078666D01*
X80306000Y1112000D01*
X80372666Y1145333D01*
X80506000Y1145333D01*
X80572666Y1112000D01*
X80606000Y1078666D01*
X80639333Y1012000D01*
X80639333Y978666D01*
X80606000Y912000D01*
X80572666Y878666D01*
X80506000Y845333D01*
X80372666Y845333D01*
X80306000Y812000D01*
X80272666Y778666D01*
X80239333Y712000D01*
X80239333Y578666D01*
X80272666Y512000D01*
X80306000Y478666D01*
X80372666Y445333D01*
X80506000Y445333D01*
X80572666Y478666D01*
X80606000Y512000D01*
X80639333Y578666D01*
X80639333Y712000D01*
X80606000Y778666D01*
X80572666Y812000D01*
X80506000Y845333D01*
%TO.C,R6*%
X65669333Y9589333D02*
X65436000Y9922666D01*
X65269333Y9589333D02*
X65269333Y10289333D01*
X65536000Y10289333D01*
X65602666Y10256000D01*
X65636000Y10222666D01*
X65669333Y10156000D01*
X65669333Y10056000D01*
X65636000Y9989333D01*
X65602666Y9956000D01*
X65536000Y9922666D01*
X65269333Y9922666D01*
X66269333Y10289333D02*
X66136000Y10289333D01*
X66069333Y10256000D01*
X66036000Y10222666D01*
X65969333Y10122666D01*
X65936000Y9989333D01*
X65936000Y9722666D01*
X65969333Y9656000D01*
X66002666Y9622666D01*
X66069333Y9589333D01*
X66202666Y9589333D01*
X66269333Y9622666D01*
X66302666Y9656000D01*
X66336000Y9722666D01*
X66336000Y9889333D01*
X66302666Y9956000D01*
X66269333Y9989333D01*
X66202666Y10022666D01*
X66069333Y10022666D01*
X66002666Y9989333D01*
X65969333Y9956000D01*
X65936000Y9889333D01*
%TO.C,R5*%
X55942666Y6741333D02*
X55609333Y6508000D01*
X55942666Y6341333D02*
X55242666Y6341333D01*
X55242666Y6608000D01*
X55276000Y6674666D01*
X55309333Y6708000D01*
X55376000Y6741333D01*
X55476000Y6741333D01*
X55542666Y6708000D01*
X55576000Y6674666D01*
X55609333Y6608000D01*
X55609333Y6341333D01*
X55242666Y7374666D02*
X55242666Y7041333D01*
X55576000Y7008000D01*
X55542666Y7041333D01*
X55509333Y7108000D01*
X55509333Y7274666D01*
X55542666Y7341333D01*
X55576000Y7374666D01*
X55642666Y7408000D01*
X55809333Y7408000D01*
X55876000Y7374666D01*
X55909333Y7341333D01*
X55942666Y7274666D01*
X55942666Y7108000D01*
X55909333Y7041333D01*
X55876000Y7008000D01*
%TO.C,R4*%
X54672666Y6741333D02*
X54339333Y6508000D01*
X54672666Y6341333D02*
X53972666Y6341333D01*
X53972666Y6608000D01*
X54006000Y6674666D01*
X54039333Y6708000D01*
X54106000Y6741333D01*
X54206000Y6741333D01*
X54272666Y6708000D01*
X54306000Y6674666D01*
X54339333Y6608000D01*
X54339333Y6341333D01*
X54206000Y7341333D02*
X54672666Y7341333D01*
X53939333Y7174666D02*
X54439333Y7008000D01*
X54439333Y7441333D01*
%TO.C,R3*%
X57466666Y6741333D02*
X57133333Y6508000D01*
X57466666Y6341333D02*
X56766666Y6341333D01*
X56766666Y6608000D01*
X56800000Y6674666D01*
X56833333Y6708000D01*
X56900000Y6741333D01*
X57000000Y6741333D01*
X57066666Y6708000D01*
X57100000Y6674666D01*
X57133333Y6608000D01*
X57133333Y6341333D01*
X56766666Y6974666D02*
X56766666Y7408000D01*
X57033333Y7174666D01*
X57033333Y7274666D01*
X57066666Y7341333D01*
X57100000Y7374666D01*
X57166666Y7408000D01*
X57333333Y7408000D01*
X57400000Y7374666D01*
X57433333Y7341333D01*
X57466666Y7274666D01*
X57466666Y7074666D01*
X57433333Y7008000D01*
X57400000Y6974666D01*
%TO.C,R2*%
X58990666Y6741333D02*
X58657333Y6508000D01*
X58990666Y6341333D02*
X58290666Y6341333D01*
X58290666Y6608000D01*
X58324000Y6674666D01*
X58357333Y6708000D01*
X58424000Y6741333D01*
X58524000Y6741333D01*
X58590666Y6708000D01*
X58624000Y6674666D01*
X58657333Y6608000D01*
X58657333Y6341333D01*
X58357333Y7008000D02*
X58324000Y7041333D01*
X58290666Y7108000D01*
X58290666Y7274666D01*
X58324000Y7341333D01*
X58357333Y7374666D01*
X58424000Y7408000D01*
X58490666Y7408000D01*
X58590666Y7374666D01*
X58990666Y6974666D01*
X58990666Y7408000D01*
%TO.C,C1*%
X65669333Y12704000D02*
X65636000Y12670666D01*
X65536000Y12637333D01*
X65469333Y12637333D01*
X65369333Y12670666D01*
X65302666Y12737333D01*
X65269333Y12804000D01*
X65236000Y12937333D01*
X65236000Y13037333D01*
X65269333Y13170666D01*
X65302666Y13237333D01*
X65369333Y13304000D01*
X65469333Y13337333D01*
X65536000Y13337333D01*
X65636000Y13304000D01*
X65669333Y13270666D01*
X66336000Y12637333D02*
X65936000Y12637333D01*
X66136000Y12637333D02*
X66136000Y13337333D01*
X66069333Y13237333D01*
X66002666Y13170666D01*
X65936000Y13137333D01*
%TO.C,R45*%
X73464000Y11113333D02*
X73230666Y11446666D01*
X73064000Y11113333D02*
X73064000Y11813333D01*
X73330666Y11813333D01*
X73397333Y11780000D01*
X73430666Y11746666D01*
X73464000Y11680000D01*
X73464000Y11580000D01*
X73430666Y11513333D01*
X73397333Y11480000D01*
X73330666Y11446666D01*
X73064000Y11446666D01*
X74064000Y11580000D02*
X74064000Y11113333D01*
X73897333Y11846666D02*
X73730666Y11346666D01*
X74164000Y11346666D01*
X74764000Y11813333D02*
X74430666Y11813333D01*
X74397333Y11480000D01*
X74430666Y11513333D01*
X74497333Y11546666D01*
X74664000Y11546666D01*
X74730666Y11513333D01*
X74764000Y11480000D01*
X74797333Y11413333D01*
X74797333Y11246666D01*
X74764000Y11180000D01*
X74730666Y11146666D01*
X74664000Y11113333D01*
X74497333Y11113333D01*
X74430666Y11146666D01*
X74397333Y11180000D01*
%TO.C,U3*%
X73126666Y17655333D02*
X73126666Y17088666D01*
X73160000Y17022000D01*
X73193333Y16988666D01*
X73260000Y16955333D01*
X73393333Y16955333D01*
X73460000Y16988666D01*
X73493333Y17022000D01*
X73526666Y17088666D01*
X73526666Y17655333D01*
X73793333Y17655333D02*
X74226666Y17655333D01*
X73993333Y17388666D01*
X74093333Y17388666D01*
X74160000Y17355333D01*
X74193333Y17322000D01*
X74226666Y17255333D01*
X74226666Y17088666D01*
X74193333Y17022000D01*
X74160000Y16988666D01*
X74093333Y16955333D01*
X73893333Y16955333D01*
X73826666Y16988666D01*
X73793333Y17022000D01*
%TO.C,U6*%
X79222666Y18925333D02*
X79222666Y18358666D01*
X79256000Y18292000D01*
X79289333Y18258666D01*
X79356000Y18225333D01*
X79489333Y18225333D01*
X79556000Y18258666D01*
X79589333Y18292000D01*
X79622666Y18358666D01*
X79622666Y18925333D01*
X80256000Y18925333D02*
X80122666Y18925333D01*
X80056000Y18892000D01*
X80022666Y18858666D01*
X79956000Y18758666D01*
X79922666Y18625333D01*
X79922666Y18358666D01*
X79956000Y18292000D01*
X79989333Y18258666D01*
X80056000Y18225333D01*
X80189333Y18225333D01*
X80256000Y18258666D01*
X80289333Y18292000D01*
X80322666Y18358666D01*
X80322666Y18525333D01*
X80289333Y18592000D01*
X80256000Y18625333D01*
X80189333Y18658666D01*
X80056000Y18658666D01*
X79989333Y18625333D01*
X79956000Y18592000D01*
X79922666Y18525333D01*
%TO.C,U5*%
X74650666Y4955333D02*
X74650666Y4388666D01*
X74684000Y4322000D01*
X74717333Y4288666D01*
X74784000Y4255333D01*
X74917333Y4255333D01*
X74984000Y4288666D01*
X75017333Y4322000D01*
X75050666Y4388666D01*
X75050666Y4955333D01*
X75717333Y4955333D02*
X75384000Y4955333D01*
X75350666Y4622000D01*
X75384000Y4655333D01*
X75450666Y4688666D01*
X75617333Y4688666D01*
X75684000Y4655333D01*
X75717333Y4622000D01*
X75750666Y4555333D01*
X75750666Y4388666D01*
X75717333Y4322000D01*
X75684000Y4288666D01*
X75617333Y4255333D01*
X75450666Y4255333D01*
X75384000Y4288666D01*
X75350666Y4322000D01*
%TO.C,U4*%
X48488666Y9878733D02*
X48488666Y9312066D01*
X48522000Y9245400D01*
X48555333Y9212066D01*
X48622000Y9178733D01*
X48755333Y9178733D01*
X48822000Y9212066D01*
X48855333Y9245400D01*
X48888666Y9312066D01*
X48888666Y9878733D01*
X49522000Y9645400D02*
X49522000Y9178733D01*
X49355333Y9912066D02*
X49188666Y9412066D01*
X49622000Y9412066D01*
%TO.C,U2*%
X6832666Y6987333D02*
X6832666Y6420666D01*
X6866000Y6354000D01*
X6899333Y6320666D01*
X6966000Y6287333D01*
X7099333Y6287333D01*
X7166000Y6320666D01*
X7199333Y6354000D01*
X7232666Y6420666D01*
X7232666Y6987333D01*
X7532666Y6920666D02*
X7566000Y6954000D01*
X7632666Y6987333D01*
X7799333Y6987333D01*
X7866000Y6954000D01*
X7899333Y6920666D01*
X7932666Y6854000D01*
X7932666Y6787333D01*
X7899333Y6687333D01*
X7499333Y6287333D01*
X7932666Y6287333D01*
%TO.C,U1*%
X54330666Y19179333D02*
X54330666Y18612666D01*
X54364000Y18546000D01*
X54397333Y18512666D01*
X54464000Y18479333D01*
X54597333Y18479333D01*
X54664000Y18512666D01*
X54697333Y18546000D01*
X54730666Y18612666D01*
X54730666Y19179333D01*
X55430666Y18479333D02*
X55030666Y18479333D01*
X55230666Y18479333D02*
X55230666Y19179333D01*
X55164000Y19079333D01*
X55097333Y19012666D01*
X55030666Y18979333D01*
%TO.C,TH1*%
X84190000Y15369333D02*
X84590000Y15369333D01*
X84390000Y14669333D02*
X84390000Y15369333D01*
X84823333Y14669333D02*
X84823333Y15369333D01*
X84823333Y15036000D02*
X85223333Y15036000D01*
X85223333Y14669333D02*
X85223333Y15369333D01*
X85923333Y14669333D02*
X85523333Y14669333D01*
X85723333Y14669333D02*
X85723333Y15369333D01*
X85656666Y15269333D01*
X85590000Y15202666D01*
X85523333Y15169333D01*
%TO.C,SW3*%
X23651333Y1352666D02*
X23684666Y1452666D01*
X23684666Y1619333D01*
X23651333Y1686000D01*
X23618000Y1719333D01*
X23551333Y1752666D01*
X23484666Y1752666D01*
X23418000Y1719333D01*
X23384666Y1686000D01*
X23351333Y1619333D01*
X23318000Y1486000D01*
X23284666Y1419333D01*
X23251333Y1386000D01*
X23184666Y1352666D01*
X23118000Y1352666D01*
X23051333Y1386000D01*
X23018000Y1419333D01*
X22984666Y1486000D01*
X22984666Y1652666D01*
X23018000Y1752666D01*
X22984666Y1986000D02*
X23684666Y2152666D01*
X23184666Y2286000D01*
X23684666Y2419333D01*
X22984666Y2586000D01*
X22984666Y2786000D02*
X22984666Y3219333D01*
X23251333Y2986000D01*
X23251333Y3086000D01*
X23284666Y3152666D01*
X23318000Y3186000D01*
X23384666Y3219333D01*
X23551333Y3219333D01*
X23618000Y3186000D01*
X23651333Y3152666D01*
X23684666Y3086000D01*
X23684666Y2886000D01*
X23651333Y2819333D01*
X23618000Y2786000D01*
%TO.C,SW2*%
X34319333Y1352666D02*
X34352666Y1452666D01*
X34352666Y1619333D01*
X34319333Y1686000D01*
X34286000Y1719333D01*
X34219333Y1752666D01*
X34152666Y1752666D01*
X34086000Y1719333D01*
X34052666Y1686000D01*
X34019333Y1619333D01*
X33986000Y1486000D01*
X33952666Y1419333D01*
X33919333Y1386000D01*
X33852666Y1352666D01*
X33786000Y1352666D01*
X33719333Y1386000D01*
X33686000Y1419333D01*
X33652666Y1486000D01*
X33652666Y1652666D01*
X33686000Y1752666D01*
X33652666Y1986000D02*
X34352666Y2152666D01*
X33852666Y2286000D01*
X34352666Y2419333D01*
X33652666Y2586000D01*
X33719333Y2819333D02*
X33686000Y2852666D01*
X33652666Y2919333D01*
X33652666Y3086000D01*
X33686000Y3152666D01*
X33719333Y3186000D01*
X33786000Y3219333D01*
X33852666Y3219333D01*
X33952666Y3186000D01*
X34352666Y2786000D01*
X34352666Y3219333D01*
%TO.C,SW1*%
X12983333Y1352666D02*
X13016666Y1452666D01*
X13016666Y1619333D01*
X12983333Y1686000D01*
X12950000Y1719333D01*
X12883333Y1752666D01*
X12816666Y1752666D01*
X12750000Y1719333D01*
X12716666Y1686000D01*
X12683333Y1619333D01*
X12650000Y1486000D01*
X12616666Y1419333D01*
X12583333Y1386000D01*
X12516666Y1352666D01*
X12450000Y1352666D01*
X12383333Y1386000D01*
X12350000Y1419333D01*
X12316666Y1486000D01*
X12316666Y1652666D01*
X12350000Y1752666D01*
X12316666Y1986000D02*
X13016666Y2152666D01*
X12516666Y2286000D01*
X13016666Y2419333D01*
X12316666Y2586000D01*
X13016666Y3219333D02*
X13016666Y2819333D01*
X13016666Y3019333D02*
X12316666Y3019333D01*
X12416666Y2952666D01*
X12483333Y2886000D01*
X12516666Y2819333D01*
%TO.C,R42*%
X47048000Y19495333D02*
X46814666Y19828666D01*
X46648000Y19495333D02*
X46648000Y20195333D01*
X46914666Y20195333D01*
X46981333Y20162000D01*
X47014666Y20128666D01*
X47048000Y20062000D01*
X47048000Y19962000D01*
X47014666Y19895333D01*
X46981333Y19862000D01*
X46914666Y19828666D01*
X46648000Y19828666D01*
X47648000Y19962000D02*
X47648000Y19495333D01*
X47481333Y20228666D02*
X47314666Y19728666D01*
X47748000Y19728666D01*
X47981333Y20128666D02*
X48014666Y20162000D01*
X48081333Y20195333D01*
X48248000Y20195333D01*
X48314666Y20162000D01*
X48348000Y20128666D01*
X48381333Y20062000D01*
X48381333Y19995333D01*
X48348000Y19895333D01*
X47948000Y19495333D01*
X48381333Y19495333D01*
%TO.C,R41*%
X56196666Y22410000D02*
X55863333Y22176666D01*
X56196666Y22010000D02*
X55496666Y22010000D01*
X55496666Y22276666D01*
X55530000Y22343333D01*
X55563333Y22376666D01*
X55630000Y22410000D01*
X55730000Y22410000D01*
X55796666Y22376666D01*
X55830000Y22343333D01*
X55863333Y22276666D01*
X55863333Y22010000D01*
X55730000Y23010000D02*
X56196666Y23010000D01*
X55463333Y22843333D02*
X55963333Y22676666D01*
X55963333Y23110000D01*
X56196666Y23743333D02*
X56196666Y23343333D01*
X56196666Y23543333D02*
X55496666Y23543333D01*
X55596666Y23476666D01*
X55663333Y23410000D01*
X55696666Y23343333D01*
%TO.C,R40*%
X83374666Y820000D02*
X83041333Y586666D01*
X83374666Y420000D02*
X82674666Y420000D01*
X82674666Y686666D01*
X82708000Y753333D01*
X82741333Y786666D01*
X82808000Y820000D01*
X82908000Y820000D01*
X82974666Y786666D01*
X83008000Y753333D01*
X83041333Y686666D01*
X83041333Y420000D01*
X82908000Y1420000D02*
X83374666Y1420000D01*
X82641333Y1253333D02*
X83141333Y1086666D01*
X83141333Y1520000D01*
X82674666Y1920000D02*
X82674666Y1986666D01*
X82708000Y2053333D01*
X82741333Y2086666D01*
X82808000Y2120000D01*
X82941333Y2153333D01*
X83108000Y2153333D01*
X83241333Y2120000D01*
X83308000Y2086666D01*
X83341333Y2053333D01*
X83374666Y1986666D01*
X83374666Y1920000D01*
X83341333Y1853333D01*
X83308000Y1820000D01*
X83241333Y1786666D01*
X83108000Y1753333D01*
X82941333Y1753333D01*
X82808000Y1786666D01*
X82741333Y1820000D01*
X82708000Y1853333D01*
X82674666Y1920000D01*
%TO.C,R39*%
X83374666Y8948000D02*
X83041333Y8714666D01*
X83374666Y8548000D02*
X82674666Y8548000D01*
X82674666Y8814666D01*
X82708000Y8881333D01*
X82741333Y8914666D01*
X82808000Y8948000D01*
X82908000Y8948000D01*
X82974666Y8914666D01*
X83008000Y8881333D01*
X83041333Y8814666D01*
X83041333Y8548000D01*
X82674666Y9181333D02*
X82674666Y9614666D01*
X82941333Y9381333D01*
X82941333Y9481333D01*
X82974666Y9548000D01*
X83008000Y9581333D01*
X83074666Y9614666D01*
X83241333Y9614666D01*
X83308000Y9581333D01*
X83341333Y9548000D01*
X83374666Y9481333D01*
X83374666Y9281333D01*
X83341333Y9214666D01*
X83308000Y9181333D01*
X83374666Y9948000D02*
X83374666Y10081333D01*
X83341333Y10148000D01*
X83308000Y10181333D01*
X83208000Y10248000D01*
X83074666Y10281333D01*
X82808000Y10281333D01*
X82741333Y10248000D01*
X82708000Y10214666D01*
X82674666Y10148000D01*
X82674666Y10014666D01*
X82708000Y9948000D01*
X82741333Y9914666D01*
X82808000Y9881333D01*
X82974666Y9881333D01*
X83041333Y9914666D01*
X83074666Y9948000D01*
X83108000Y10014666D01*
X83108000Y10148000D01*
X83074666Y10214666D01*
X83041333Y10248000D01*
X82974666Y10281333D01*
%TO.C,R37*%
X79306000Y12129333D02*
X79072666Y12462666D01*
X78906000Y12129333D02*
X78906000Y12829333D01*
X79172666Y12829333D01*
X79239333Y12796000D01*
X79272666Y12762666D01*
X79306000Y12696000D01*
X79306000Y12596000D01*
X79272666Y12529333D01*
X79239333Y12496000D01*
X79172666Y12462666D01*
X78906000Y12462666D01*
X79539333Y12829333D02*
X79972666Y12829333D01*
X79739333Y12562666D01*
X79839333Y12562666D01*
X79906000Y12529333D01*
X79939333Y12496000D01*
X79972666Y12429333D01*
X79972666Y12262666D01*
X79939333Y12196000D01*
X79906000Y12162666D01*
X79839333Y12129333D01*
X79639333Y12129333D01*
X79572666Y12162666D01*
X79539333Y12196000D01*
X80206000Y12829333D02*
X80672666Y12829333D01*
X80372666Y12129333D01*
%TO.C,R35*%
X73722666Y9456000D02*
X73389333Y9222666D01*
X73722666Y9056000D02*
X73022666Y9056000D01*
X73022666Y9322666D01*
X73056000Y9389333D01*
X73089333Y9422666D01*
X73156000Y9456000D01*
X73256000Y9456000D01*
X73322666Y9422666D01*
X73356000Y9389333D01*
X73389333Y9322666D01*
X73389333Y9056000D01*
X73022666Y9689333D02*
X73022666Y10122666D01*
X73289333Y9889333D01*
X73289333Y9989333D01*
X73322666Y10056000D01*
X73356000Y10089333D01*
X73422666Y10122666D01*
X73589333Y10122666D01*
X73656000Y10089333D01*
X73689333Y10056000D01*
X73722666Y9989333D01*
X73722666Y9789333D01*
X73689333Y9722666D01*
X73656000Y9689333D01*
X73022666Y10756000D02*
X73022666Y10422666D01*
X73356000Y10389333D01*
X73322666Y10422666D01*
X73289333Y10489333D01*
X73289333Y10656000D01*
X73322666Y10722666D01*
X73356000Y10756000D01*
X73422666Y10789333D01*
X73589333Y10789333D01*
X73656000Y10756000D01*
X73689333Y10722666D01*
X73722666Y10656000D01*
X73722666Y10489333D01*
X73689333Y10422666D01*
X73656000Y10389333D01*
%TO.C,R34*%
X73464000Y12637333D02*
X73230666Y12970666D01*
X73064000Y12637333D02*
X73064000Y13337333D01*
X73330666Y13337333D01*
X73397333Y13304000D01*
X73430666Y13270666D01*
X73464000Y13204000D01*
X73464000Y13104000D01*
X73430666Y13037333D01*
X73397333Y13004000D01*
X73330666Y12970666D01*
X73064000Y12970666D01*
X73697333Y13337333D02*
X74130666Y13337333D01*
X73897333Y13070666D01*
X73997333Y13070666D01*
X74064000Y13037333D01*
X74097333Y13004000D01*
X74130666Y12937333D01*
X74130666Y12770666D01*
X74097333Y12704000D01*
X74064000Y12670666D01*
X73997333Y12637333D01*
X73797333Y12637333D01*
X73730666Y12670666D01*
X73697333Y12704000D01*
X74730666Y13104000D02*
X74730666Y12637333D01*
X74564000Y13370666D02*
X74397333Y12870666D01*
X74830666Y12870666D01*
%TO.C,R33*%
X31558666Y7932000D02*
X31225333Y7698666D01*
X31558666Y7532000D02*
X30858666Y7532000D01*
X30858666Y7798666D01*
X30892000Y7865333D01*
X30925333Y7898666D01*
X30992000Y7932000D01*
X31092000Y7932000D01*
X31158666Y7898666D01*
X31192000Y7865333D01*
X31225333Y7798666D01*
X31225333Y7532000D01*
X30858666Y8165333D02*
X30858666Y8598666D01*
X31125333Y8365333D01*
X31125333Y8465333D01*
X31158666Y8532000D01*
X31192000Y8565333D01*
X31258666Y8598666D01*
X31425333Y8598666D01*
X31492000Y8565333D01*
X31525333Y8532000D01*
X31558666Y8465333D01*
X31558666Y8265333D01*
X31525333Y8198666D01*
X31492000Y8165333D01*
X30858666Y8832000D02*
X30858666Y9265333D01*
X31125333Y9032000D01*
X31125333Y9132000D01*
X31158666Y9198666D01*
X31192000Y9232000D01*
X31258666Y9265333D01*
X31425333Y9265333D01*
X31492000Y9232000D01*
X31525333Y9198666D01*
X31558666Y9132000D01*
X31558666Y8932000D01*
X31525333Y8865333D01*
X31492000Y8832000D01*
%TO.C,R32*%
X33082666Y7932000D02*
X32749333Y7698666D01*
X33082666Y7532000D02*
X32382666Y7532000D01*
X32382666Y7798666D01*
X32416000Y7865333D01*
X32449333Y7898666D01*
X32516000Y7932000D01*
X32616000Y7932000D01*
X32682666Y7898666D01*
X32716000Y7865333D01*
X32749333Y7798666D01*
X32749333Y7532000D01*
X32382666Y8165333D02*
X32382666Y8598666D01*
X32649333Y8365333D01*
X32649333Y8465333D01*
X32682666Y8532000D01*
X32716000Y8565333D01*
X32782666Y8598666D01*
X32949333Y8598666D01*
X33016000Y8565333D01*
X33049333Y8532000D01*
X33082666Y8465333D01*
X33082666Y8265333D01*
X33049333Y8198666D01*
X33016000Y8165333D01*
X32449333Y8865333D02*
X32416000Y8898666D01*
X32382666Y8965333D01*
X32382666Y9132000D01*
X32416000Y9198666D01*
X32449333Y9232000D01*
X32516000Y9265333D01*
X32582666Y9265333D01*
X32682666Y9232000D01*
X33082666Y8832000D01*
X33082666Y9265333D01*
%TO.C,R31*%
X68638000Y8065333D02*
X68404666Y8398666D01*
X68238000Y8065333D02*
X68238000Y8765333D01*
X68504666Y8765333D01*
X68571333Y8732000D01*
X68604666Y8698666D01*
X68638000Y8632000D01*
X68638000Y8532000D01*
X68604666Y8465333D01*
X68571333Y8432000D01*
X68504666Y8398666D01*
X68238000Y8398666D01*
X68871333Y8765333D02*
X69304666Y8765333D01*
X69071333Y8498666D01*
X69171333Y8498666D01*
X69238000Y8465333D01*
X69271333Y8432000D01*
X69304666Y8365333D01*
X69304666Y8198666D01*
X69271333Y8132000D01*
X69238000Y8098666D01*
X69171333Y8065333D01*
X68971333Y8065333D01*
X68904666Y8098666D01*
X68871333Y8132000D01*
X69971333Y8065333D02*
X69571333Y8065333D01*
X69771333Y8065333D02*
X69771333Y8765333D01*
X69704666Y8665333D01*
X69638000Y8598666D01*
X69571333Y8565333D01*
%TO.C,R30*%
X84640000Y17717333D02*
X84406666Y18050666D01*
X84240000Y17717333D02*
X84240000Y18417333D01*
X84506666Y18417333D01*
X84573333Y18384000D01*
X84606666Y18350666D01*
X84640000Y18284000D01*
X84640000Y18184000D01*
X84606666Y18117333D01*
X84573333Y18084000D01*
X84506666Y18050666D01*
X84240000Y18050666D01*
X84873333Y18417333D02*
X85306666Y18417333D01*
X85073333Y18150666D01*
X85173333Y18150666D01*
X85240000Y18117333D01*
X85273333Y18084000D01*
X85306666Y18017333D01*
X85306666Y17850666D01*
X85273333Y17784000D01*
X85240000Y17750666D01*
X85173333Y17717333D01*
X84973333Y17717333D01*
X84906666Y17750666D01*
X84873333Y17784000D01*
X85740000Y18417333D02*
X85806666Y18417333D01*
X85873333Y18384000D01*
X85906666Y18350666D01*
X85940000Y18284000D01*
X85973333Y18150666D01*
X85973333Y17984000D01*
X85940000Y17850666D01*
X85906666Y17784000D01*
X85873333Y17750666D01*
X85806666Y17717333D01*
X85740000Y17717333D01*
X85673333Y17750666D01*
X85640000Y17784000D01*
X85606666Y17850666D01*
X85573333Y17984000D01*
X85573333Y18150666D01*
X85606666Y18284000D01*
X85640000Y18350666D01*
X85673333Y18384000D01*
X85740000Y18417333D01*
%TO.C,R29*%
X84640000Y16193333D02*
X84406666Y16526666D01*
X84240000Y16193333D02*
X84240000Y16893333D01*
X84506666Y16893333D01*
X84573333Y16860000D01*
X84606666Y16826666D01*
X84640000Y16760000D01*
X84640000Y16660000D01*
X84606666Y16593333D01*
X84573333Y16560000D01*
X84506666Y16526666D01*
X84240000Y16526666D01*
X84906666Y16826666D02*
X84940000Y16860000D01*
X85006666Y16893333D01*
X85173333Y16893333D01*
X85240000Y16860000D01*
X85273333Y16826666D01*
X85306666Y16760000D01*
X85306666Y16693333D01*
X85273333Y16593333D01*
X84873333Y16193333D01*
X85306666Y16193333D01*
X85640000Y16193333D02*
X85773333Y16193333D01*
X85840000Y16226666D01*
X85873333Y16260000D01*
X85940000Y16360000D01*
X85973333Y16493333D01*
X85973333Y16760000D01*
X85940000Y16826666D01*
X85906666Y16860000D01*
X85840000Y16893333D01*
X85706666Y16893333D01*
X85640000Y16860000D01*
X85606666Y16826666D01*
X85573333Y16760000D01*
X85573333Y16593333D01*
X85606666Y16526666D01*
X85640000Y16493333D01*
X85706666Y16460000D01*
X85840000Y16460000D01*
X85906666Y16493333D01*
X85940000Y16526666D01*
X85973333Y16593333D01*
%TO.C,R27*%
X68638000Y5017333D02*
X68404666Y5350666D01*
X68238000Y5017333D02*
X68238000Y5717333D01*
X68504666Y5717333D01*
X68571333Y5684000D01*
X68604666Y5650666D01*
X68638000Y5584000D01*
X68638000Y5484000D01*
X68604666Y5417333D01*
X68571333Y5384000D01*
X68504666Y5350666D01*
X68238000Y5350666D01*
X68904666Y5650666D02*
X68938000Y5684000D01*
X69004666Y5717333D01*
X69171333Y5717333D01*
X69238000Y5684000D01*
X69271333Y5650666D01*
X69304666Y5584000D01*
X69304666Y5517333D01*
X69271333Y5417333D01*
X68871333Y5017333D01*
X69304666Y5017333D01*
X69538000Y5717333D02*
X70004666Y5717333D01*
X69704666Y5017333D01*
%TO.C,R26*%
X68638000Y3493333D02*
X68404666Y3826666D01*
X68238000Y3493333D02*
X68238000Y4193333D01*
X68504666Y4193333D01*
X68571333Y4160000D01*
X68604666Y4126666D01*
X68638000Y4060000D01*
X68638000Y3960000D01*
X68604666Y3893333D01*
X68571333Y3860000D01*
X68504666Y3826666D01*
X68238000Y3826666D01*
X68904666Y4126666D02*
X68938000Y4160000D01*
X69004666Y4193333D01*
X69171333Y4193333D01*
X69238000Y4160000D01*
X69271333Y4126666D01*
X69304666Y4060000D01*
X69304666Y3993333D01*
X69271333Y3893333D01*
X68871333Y3493333D01*
X69304666Y3493333D01*
X69904666Y4193333D02*
X69771333Y4193333D01*
X69704666Y4160000D01*
X69671333Y4126666D01*
X69604666Y4026666D01*
X69571333Y3893333D01*
X69571333Y3626666D01*
X69604666Y3560000D01*
X69638000Y3526666D01*
X69704666Y3493333D01*
X69838000Y3493333D01*
X69904666Y3526666D01*
X69938000Y3560000D01*
X69971333Y3626666D01*
X69971333Y3793333D01*
X69938000Y3860000D01*
X69904666Y3893333D01*
X69838000Y3926666D01*
X69704666Y3926666D01*
X69638000Y3893333D01*
X69604666Y3860000D01*
X69571333Y3793333D01*
%TO.C,R25*%
X48064000Y1969333D02*
X47830666Y2302666D01*
X47664000Y1969333D02*
X47664000Y2669333D01*
X47930666Y2669333D01*
X47997333Y2636000D01*
X48030666Y2602666D01*
X48064000Y2536000D01*
X48064000Y2436000D01*
X48030666Y2369333D01*
X47997333Y2336000D01*
X47930666Y2302666D01*
X47664000Y2302666D01*
X48330666Y2602666D02*
X48364000Y2636000D01*
X48430666Y2669333D01*
X48597333Y2669333D01*
X48664000Y2636000D01*
X48697333Y2602666D01*
X48730666Y2536000D01*
X48730666Y2469333D01*
X48697333Y2369333D01*
X48297333Y1969333D01*
X48730666Y1969333D01*
X49364000Y2669333D02*
X49030666Y2669333D01*
X48997333Y2336000D01*
X49030666Y2369333D01*
X49097333Y2402666D01*
X49264000Y2402666D01*
X49330666Y2369333D01*
X49364000Y2336000D01*
X49397333Y2269333D01*
X49397333Y2102666D01*
X49364000Y2036000D01*
X49330666Y2002666D01*
X49264000Y1969333D01*
X49097333Y1969333D01*
X49030666Y2002666D01*
X48997333Y2036000D01*
%TO.C,R24*%
X28510666Y7932000D02*
X28177333Y7698666D01*
X28510666Y7532000D02*
X27810666Y7532000D01*
X27810666Y7798666D01*
X27844000Y7865333D01*
X27877333Y7898666D01*
X27944000Y7932000D01*
X28044000Y7932000D01*
X28110666Y7898666D01*
X28144000Y7865333D01*
X28177333Y7798666D01*
X28177333Y7532000D01*
X27877333Y8198666D02*
X27844000Y8232000D01*
X27810666Y8298666D01*
X27810666Y8465333D01*
X27844000Y8532000D01*
X27877333Y8565333D01*
X27944000Y8598666D01*
X28010666Y8598666D01*
X28110666Y8565333D01*
X28510666Y8165333D01*
X28510666Y8598666D01*
X28044000Y9198666D02*
X28510666Y9198666D01*
X27777333Y9032000D02*
X28277333Y8865333D01*
X28277333Y9298666D01*
%TO.C,R23*%
X37654666Y7932000D02*
X37321333Y7698666D01*
X37654666Y7532000D02*
X36954666Y7532000D01*
X36954666Y7798666D01*
X36988000Y7865333D01*
X37021333Y7898666D01*
X37088000Y7932000D01*
X37188000Y7932000D01*
X37254666Y7898666D01*
X37288000Y7865333D01*
X37321333Y7798666D01*
X37321333Y7532000D01*
X37021333Y8198666D02*
X36988000Y8232000D01*
X36954666Y8298666D01*
X36954666Y8465333D01*
X36988000Y8532000D01*
X37021333Y8565333D01*
X37088000Y8598666D01*
X37154666Y8598666D01*
X37254666Y8565333D01*
X37654666Y8165333D01*
X37654666Y8598666D01*
X36954666Y8832000D02*
X36954666Y9265333D01*
X37221333Y9032000D01*
X37221333Y9132000D01*
X37254666Y9198666D01*
X37288000Y9232000D01*
X37354666Y9265333D01*
X37521333Y9265333D01*
X37588000Y9232000D01*
X37621333Y9198666D01*
X37654666Y9132000D01*
X37654666Y8932000D01*
X37621333Y8865333D01*
X37588000Y8832000D01*
%TO.C,R22*%
X22414666Y7932000D02*
X22081333Y7698666D01*
X22414666Y7532000D02*
X21714666Y7532000D01*
X21714666Y7798666D01*
X21748000Y7865333D01*
X21781333Y7898666D01*
X21848000Y7932000D01*
X21948000Y7932000D01*
X22014666Y7898666D01*
X22048000Y7865333D01*
X22081333Y7798666D01*
X22081333Y7532000D01*
X21781333Y8198666D02*
X21748000Y8232000D01*
X21714666Y8298666D01*
X21714666Y8465333D01*
X21748000Y8532000D01*
X21781333Y8565333D01*
X21848000Y8598666D01*
X21914666Y8598666D01*
X22014666Y8565333D01*
X22414666Y8165333D01*
X22414666Y8598666D01*
X21781333Y8865333D02*
X21748000Y8898666D01*
X21714666Y8965333D01*
X21714666Y9132000D01*
X21748000Y9198666D01*
X21781333Y9232000D01*
X21848000Y9265333D01*
X21914666Y9265333D01*
X22014666Y9232000D01*
X22414666Y8832000D01*
X22414666Y9265333D01*
%TO.C,R15*%
X45016000Y5779333D02*
X44782666Y6112666D01*
X44616000Y5779333D02*
X44616000Y6479333D01*
X44882666Y6479333D01*
X44949333Y6446000D01*
X44982666Y6412666D01*
X45016000Y6346000D01*
X45016000Y6246000D01*
X44982666Y6179333D01*
X44949333Y6146000D01*
X44882666Y6112666D01*
X44616000Y6112666D01*
X45682666Y5779333D02*
X45282666Y5779333D01*
X45482666Y5779333D02*
X45482666Y6479333D01*
X45416000Y6379333D01*
X45349333Y6312666D01*
X45282666Y6279333D01*
X46316000Y6479333D02*
X45982666Y6479333D01*
X45949333Y6146000D01*
X45982666Y6179333D01*
X46049333Y6212666D01*
X46216000Y6212666D01*
X46282666Y6179333D01*
X46316000Y6146000D01*
X46349333Y6079333D01*
X46349333Y5912666D01*
X46316000Y5846000D01*
X46282666Y5812666D01*
X46216000Y5779333D01*
X46049333Y5779333D01*
X45982666Y5812666D01*
X45949333Y5846000D01*
%TO.C,R8*%
X1661333Y9081333D02*
X1428000Y9414666D01*
X1261333Y9081333D02*
X1261333Y9781333D01*
X1528000Y9781333D01*
X1594666Y9748000D01*
X1628000Y9714666D01*
X1661333Y9648000D01*
X1661333Y9548000D01*
X1628000Y9481333D01*
X1594666Y9448000D01*
X1528000Y9414666D01*
X1261333Y9414666D01*
X2061333Y9481333D02*
X1994666Y9514666D01*
X1961333Y9548000D01*
X1928000Y9614666D01*
X1928000Y9648000D01*
X1961333Y9714666D01*
X1994666Y9748000D01*
X2061333Y9781333D01*
X2194666Y9781333D01*
X2261333Y9748000D01*
X2294666Y9714666D01*
X2328000Y9648000D01*
X2328000Y9614666D01*
X2294666Y9548000D01*
X2261333Y9514666D01*
X2194666Y9481333D01*
X2061333Y9481333D01*
X1994666Y9448000D01*
X1961333Y9414666D01*
X1928000Y9348000D01*
X1928000Y9214666D01*
X1961333Y9148000D01*
X1994666Y9114666D01*
X2061333Y9081333D01*
X2194666Y9081333D01*
X2261333Y9114666D01*
X2294666Y9148000D01*
X2328000Y9214666D01*
X2328000Y9348000D01*
X2294666Y9414666D01*
X2261333Y9448000D01*
X2194666Y9481333D01*
%TO.C,Q4*%
X45145333Y9054666D02*
X45078666Y9088000D01*
X45012000Y9154666D01*
X44912000Y9254666D01*
X44845333Y9288000D01*
X44778666Y9288000D01*
X44812000Y9121333D02*
X44745333Y9154666D01*
X44678666Y9221333D01*
X44645333Y9354666D01*
X44645333Y9588000D01*
X44678666Y9721333D01*
X44745333Y9788000D01*
X44812000Y9821333D01*
X44945333Y9821333D01*
X45012000Y9788000D01*
X45078666Y9721333D01*
X45112000Y9588000D01*
X45112000Y9354666D01*
X45078666Y9221333D01*
X45012000Y9154666D01*
X44945333Y9121333D01*
X44812000Y9121333D01*
X45712000Y9588000D02*
X45712000Y9121333D01*
X45545333Y9854666D02*
X45378666Y9354666D01*
X45812000Y9354666D01*
%TO.C,Q3*%
X66735333Y21206666D02*
X66668666Y21240000D01*
X66602000Y21306666D01*
X66502000Y21406666D01*
X66435333Y21440000D01*
X66368666Y21440000D01*
X66402000Y21273333D02*
X66335333Y21306666D01*
X66268666Y21373333D01*
X66235333Y21506666D01*
X66235333Y21740000D01*
X66268666Y21873333D01*
X66335333Y21940000D01*
X66402000Y21973333D01*
X66535333Y21973333D01*
X66602000Y21940000D01*
X66668666Y21873333D01*
X66702000Y21740000D01*
X66702000Y21506666D01*
X66668666Y21373333D01*
X66602000Y21306666D01*
X66535333Y21273333D01*
X66402000Y21273333D01*
X66935333Y21973333D02*
X67368666Y21973333D01*
X67135333Y21706666D01*
X67235333Y21706666D01*
X67302000Y21673333D01*
X67335333Y21640000D01*
X67368666Y21573333D01*
X67368666Y21406666D01*
X67335333Y21340000D01*
X67302000Y21306666D01*
X67235333Y21273333D01*
X67035333Y21273333D01*
X66968666Y21306666D01*
X66935333Y21340000D01*
%TO.C,Q2*%
X11871333Y11808666D02*
X11804666Y11842000D01*
X11738000Y11908666D01*
X11638000Y12008666D01*
X11571333Y12042000D01*
X11504666Y12042000D01*
X11538000Y11875333D02*
X11471333Y11908666D01*
X11404666Y11975333D01*
X11371333Y12108666D01*
X11371333Y12342000D01*
X11404666Y12475333D01*
X11471333Y12542000D01*
X11538000Y12575333D01*
X11671333Y12575333D01*
X11738000Y12542000D01*
X11804666Y12475333D01*
X11838000Y12342000D01*
X11838000Y12108666D01*
X11804666Y11975333D01*
X11738000Y11908666D01*
X11671333Y11875333D01*
X11538000Y11875333D01*
X12104666Y12508666D02*
X12138000Y12542000D01*
X12204666Y12575333D01*
X12371333Y12575333D01*
X12438000Y12542000D01*
X12471333Y12508666D01*
X12504666Y12442000D01*
X12504666Y12375333D01*
X12471333Y12275333D01*
X12071333Y11875333D01*
X12504666Y11875333D01*
%TO.C,Q1*%
X7299333Y22730666D02*
X7232666Y22764000D01*
X7166000Y22830666D01*
X7066000Y22930666D01*
X6999333Y22964000D01*
X6932666Y22964000D01*
X6966000Y22797333D02*
X6899333Y22830666D01*
X6832666Y22897333D01*
X6799333Y23030666D01*
X6799333Y23264000D01*
X6832666Y23397333D01*
X6899333Y23464000D01*
X6966000Y23497333D01*
X7099333Y23497333D01*
X7166000Y23464000D01*
X7232666Y23397333D01*
X7266000Y23264000D01*
X7266000Y23030666D01*
X7232666Y22897333D01*
X7166000Y22830666D01*
X7099333Y22797333D01*
X6966000Y22797333D01*
X7932666Y22797333D02*
X7532666Y22797333D01*
X7732666Y22797333D02*
X7732666Y23497333D01*
X7666000Y23397333D01*
X7599333Y23330666D01*
X7532666Y23297333D01*
%TO.C,J2*%
X86888666Y19179333D02*
X86888666Y18679333D01*
X86855333Y18579333D01*
X86788666Y18512666D01*
X86688666Y18479333D01*
X86622000Y18479333D01*
X87188666Y19112666D02*
X87222000Y19146000D01*
X87288666Y19179333D01*
X87455333Y19179333D01*
X87522000Y19146000D01*
X87555333Y19112666D01*
X87588666Y19046000D01*
X87588666Y18979333D01*
X87555333Y18879333D01*
X87155333Y18479333D01*
X87588666Y18479333D01*
%TO.C,F1*%
X80792666Y23164000D02*
X80559333Y23164000D01*
X80559333Y22797333D02*
X80559333Y23497333D01*
X80892666Y23497333D01*
X81526000Y22797333D02*
X81126000Y22797333D01*
X81326000Y22797333D02*
X81326000Y23497333D01*
X81259333Y23397333D01*
X81192666Y23330666D01*
X81126000Y23297333D01*
%TO.C,D6*%
X72889333Y22543333D02*
X72889333Y23243333D01*
X73056000Y23243333D01*
X73156000Y23210000D01*
X73222666Y23143333D01*
X73256000Y23076666D01*
X73289333Y22943333D01*
X73289333Y22843333D01*
X73256000Y22710000D01*
X73222666Y22643333D01*
X73156000Y22576666D01*
X73056000Y22543333D01*
X72889333Y22543333D01*
X73889333Y23243333D02*
X73756000Y23243333D01*
X73689333Y23210000D01*
X73656000Y23176666D01*
X73589333Y23076666D01*
X73556000Y22943333D01*
X73556000Y22676666D01*
X73589333Y22610000D01*
X73622666Y22576666D01*
X73689333Y22543333D01*
X73822666Y22543333D01*
X73889333Y22576666D01*
X73922666Y22610000D01*
X73956000Y22676666D01*
X73956000Y22843333D01*
X73922666Y22910000D01*
X73889333Y22943333D01*
X73822666Y22976666D01*
X73689333Y22976666D01*
X73622666Y22943333D01*
X73589333Y22910000D01*
X73556000Y22843333D01*
%TO.C,D5*%
X73976666Y6620733D02*
X73276666Y6620733D01*
X73276666Y6787400D01*
X73310000Y6887400D01*
X73376666Y6954066D01*
X73443333Y6987400D01*
X73576666Y7020733D01*
X73676666Y7020733D01*
X73810000Y6987400D01*
X73876666Y6954066D01*
X73943333Y6887400D01*
X73976666Y6787400D01*
X73976666Y6620733D01*
X73276666Y7654066D02*
X73276666Y7320733D01*
X73610000Y7287400D01*
X73576666Y7320733D01*
X73543333Y7387400D01*
X73543333Y7554066D01*
X73576666Y7620733D01*
X73610000Y7654066D01*
X73676666Y7687400D01*
X73843333Y7687400D01*
X73910000Y7654066D01*
X73943333Y7620733D01*
X73976666Y7554066D01*
X73976666Y7387400D01*
X73943333Y7320733D01*
X73910000Y7287400D01*
%TO.C,D4*%
X73976666Y1007333D02*
X73276666Y1007333D01*
X73276666Y1174000D01*
X73310000Y1274000D01*
X73376666Y1340666D01*
X73443333Y1374000D01*
X73576666Y1407333D01*
X73676666Y1407333D01*
X73810000Y1374000D01*
X73876666Y1340666D01*
X73943333Y1274000D01*
X73976666Y1174000D01*
X73976666Y1007333D01*
X73510000Y2007333D02*
X73976666Y2007333D01*
X73243333Y1840666D02*
X73743333Y1674000D01*
X73743333Y2107333D01*
%TO.C,D3*%
X65269333Y11113333D02*
X65269333Y11813333D01*
X65436000Y11813333D01*
X65536000Y11780000D01*
X65602666Y11713333D01*
X65636000Y11646666D01*
X65669333Y11513333D01*
X65669333Y11413333D01*
X65636000Y11280000D01*
X65602666Y11213333D01*
X65536000Y11146666D01*
X65436000Y11113333D01*
X65269333Y11113333D01*
X65902666Y11813333D02*
X66336000Y11813333D01*
X66102666Y11546666D01*
X66202666Y11546666D01*
X66269333Y11513333D01*
X66302666Y11480000D01*
X66336000Y11413333D01*
X66336000Y11246666D01*
X66302666Y11180000D01*
X66269333Y11146666D01*
X66202666Y11113333D01*
X66002666Y11113333D01*
X65936000Y11146666D01*
X65902666Y11180000D01*
%TO.C,D2*%
X3293333Y2263333D02*
X3293333Y2963333D01*
X3460000Y2963333D01*
X3560000Y2930000D01*
X3626666Y2863333D01*
X3660000Y2796666D01*
X3693333Y2663333D01*
X3693333Y2563333D01*
X3660000Y2430000D01*
X3626666Y2363333D01*
X3560000Y2296666D01*
X3460000Y2263333D01*
X3293333Y2263333D01*
X3960000Y2896666D02*
X3993333Y2930000D01*
X4060000Y2963333D01*
X4226666Y2963333D01*
X4293333Y2930000D01*
X4326666Y2896666D01*
X4360000Y2830000D01*
X4360000Y2763333D01*
X4326666Y2663333D01*
X3926666Y2263333D01*
X4360000Y2263333D01*
%TO.C,D1*%
X5325333Y22797333D02*
X5325333Y23497333D01*
X5492000Y23497333D01*
X5592000Y23464000D01*
X5658666Y23397333D01*
X5692000Y23330666D01*
X5725333Y23197333D01*
X5725333Y23097333D01*
X5692000Y22964000D01*
X5658666Y22897333D01*
X5592000Y22830666D01*
X5492000Y22797333D01*
X5325333Y22797333D01*
X6392000Y22797333D02*
X5992000Y22797333D01*
X6192000Y22797333D02*
X6192000Y23497333D01*
X6125333Y23397333D01*
X6058666Y23330666D01*
X5992000Y23297333D01*
%TO.C,C36*%
X47048000Y22610000D02*
X47014666Y22576666D01*
X46914666Y22543333D01*
X46848000Y22543333D01*
X46748000Y22576666D01*
X46681333Y22643333D01*
X46648000Y22710000D01*
X46614666Y22843333D01*
X46614666Y22943333D01*
X46648000Y23076666D01*
X46681333Y23143333D01*
X46748000Y23210000D01*
X46848000Y23243333D01*
X46914666Y23243333D01*
X47014666Y23210000D01*
X47048000Y23176666D01*
X47281333Y23243333D02*
X47714666Y23243333D01*
X47481333Y22976666D01*
X47581333Y22976666D01*
X47648000Y22943333D01*
X47681333Y22910000D01*
X47714666Y22843333D01*
X47714666Y22676666D01*
X47681333Y22610000D01*
X47648000Y22576666D01*
X47581333Y22543333D01*
X47381333Y22543333D01*
X47314666Y22576666D01*
X47281333Y22610000D01*
X48314666Y23243333D02*
X48181333Y23243333D01*
X48114666Y23210000D01*
X48081333Y23176666D01*
X48014666Y23076666D01*
X47981333Y22943333D01*
X47981333Y22676666D01*
X48014666Y22610000D01*
X48048000Y22576666D01*
X48114666Y22543333D01*
X48248000Y22543333D01*
X48314666Y22576666D01*
X48348000Y22610000D01*
X48381333Y22676666D01*
X48381333Y22843333D01*
X48348000Y22910000D01*
X48314666Y22943333D01*
X48248000Y22976666D01*
X48114666Y22976666D01*
X48048000Y22943333D01*
X48014666Y22910000D01*
X47981333Y22843333D01*
%TO.C,C35*%
X47048000Y21086000D02*
X47014666Y21052666D01*
X46914666Y21019333D01*
X46848000Y21019333D01*
X46748000Y21052666D01*
X46681333Y21119333D01*
X46648000Y21186000D01*
X46614666Y21319333D01*
X46614666Y21419333D01*
X46648000Y21552666D01*
X46681333Y21619333D01*
X46748000Y21686000D01*
X46848000Y21719333D01*
X46914666Y21719333D01*
X47014666Y21686000D01*
X47048000Y21652666D01*
X47281333Y21719333D02*
X47714666Y21719333D01*
X47481333Y21452666D01*
X47581333Y21452666D01*
X47648000Y21419333D01*
X47681333Y21386000D01*
X47714666Y21319333D01*
X47714666Y21152666D01*
X47681333Y21086000D01*
X47648000Y21052666D01*
X47581333Y21019333D01*
X47381333Y21019333D01*
X47314666Y21052666D01*
X47281333Y21086000D01*
X48348000Y21719333D02*
X48014666Y21719333D01*
X47981333Y21386000D01*
X48014666Y21419333D01*
X48081333Y21452666D01*
X48248000Y21452666D01*
X48314666Y21419333D01*
X48348000Y21386000D01*
X48381333Y21319333D01*
X48381333Y21152666D01*
X48348000Y21086000D01*
X48314666Y21052666D01*
X48248000Y21019333D01*
X48081333Y21019333D01*
X48014666Y21052666D01*
X47981333Y21086000D01*
%TO.C,C34*%
X79306000Y13720000D02*
X79272666Y13686666D01*
X79172666Y13653333D01*
X79106000Y13653333D01*
X79006000Y13686666D01*
X78939333Y13753333D01*
X78906000Y13820000D01*
X78872666Y13953333D01*
X78872666Y14053333D01*
X78906000Y14186666D01*
X78939333Y14253333D01*
X79006000Y14320000D01*
X79106000Y14353333D01*
X79172666Y14353333D01*
X79272666Y14320000D01*
X79306000Y14286666D01*
X79539333Y14353333D02*
X79972666Y14353333D01*
X79739333Y14086666D01*
X79839333Y14086666D01*
X79906000Y14053333D01*
X79939333Y14020000D01*
X79972666Y13953333D01*
X79972666Y13786666D01*
X79939333Y13720000D01*
X79906000Y13686666D01*
X79839333Y13653333D01*
X79639333Y13653333D01*
X79572666Y13686666D01*
X79539333Y13720000D01*
X80572666Y14120000D02*
X80572666Y13653333D01*
X80406000Y14386666D02*
X80239333Y13886666D01*
X80672666Y13886666D01*
%TO.C,C33*%
X84832000Y8948000D02*
X84865333Y8914666D01*
X84898666Y8814666D01*
X84898666Y8748000D01*
X84865333Y8648000D01*
X84798666Y8581333D01*
X84732000Y8548000D01*
X84598666Y8514666D01*
X84498666Y8514666D01*
X84365333Y8548000D01*
X84298666Y8581333D01*
X84232000Y8648000D01*
X84198666Y8748000D01*
X84198666Y8814666D01*
X84232000Y8914666D01*
X84265333Y8948000D01*
X84198666Y9181333D02*
X84198666Y9614666D01*
X84465333Y9381333D01*
X84465333Y9481333D01*
X84498666Y9548000D01*
X84532000Y9581333D01*
X84598666Y9614666D01*
X84765333Y9614666D01*
X84832000Y9581333D01*
X84865333Y9548000D01*
X84898666Y9481333D01*
X84898666Y9281333D01*
X84865333Y9214666D01*
X84832000Y9181333D01*
X84198666Y9848000D02*
X84198666Y10281333D01*
X84465333Y10048000D01*
X84465333Y10148000D01*
X84498666Y10214666D01*
X84532000Y10248000D01*
X84598666Y10281333D01*
X84765333Y10281333D01*
X84832000Y10248000D01*
X84865333Y10214666D01*
X84898666Y10148000D01*
X84898666Y9948000D01*
X84865333Y9881333D01*
X84832000Y9848000D01*
%TO.C,C32*%
X42160000Y7932000D02*
X42193333Y7898666D01*
X42226666Y7798666D01*
X42226666Y7732000D01*
X42193333Y7632000D01*
X42126666Y7565333D01*
X42060000Y7532000D01*
X41926666Y7498666D01*
X41826666Y7498666D01*
X41693333Y7532000D01*
X41626666Y7565333D01*
X41560000Y7632000D01*
X41526666Y7732000D01*
X41526666Y7798666D01*
X41560000Y7898666D01*
X41593333Y7932000D01*
X41526666Y8165333D02*
X41526666Y8598666D01*
X41793333Y8365333D01*
X41793333Y8465333D01*
X41826666Y8532000D01*
X41860000Y8565333D01*
X41926666Y8598666D01*
X42093333Y8598666D01*
X42160000Y8565333D01*
X42193333Y8532000D01*
X42226666Y8465333D01*
X42226666Y8265333D01*
X42193333Y8198666D01*
X42160000Y8165333D01*
X41593333Y8865333D02*
X41560000Y8898666D01*
X41526666Y8965333D01*
X41526666Y9132000D01*
X41560000Y9198666D01*
X41593333Y9232000D01*
X41660000Y9265333D01*
X41726666Y9265333D01*
X41826666Y9232000D01*
X42226666Y8832000D01*
X42226666Y9265333D01*
%TO.C,C31*%
X84832000Y820000D02*
X84865333Y786666D01*
X84898666Y686666D01*
X84898666Y620000D01*
X84865333Y520000D01*
X84798666Y453333D01*
X84732000Y420000D01*
X84598666Y386666D01*
X84498666Y386666D01*
X84365333Y420000D01*
X84298666Y453333D01*
X84232000Y520000D01*
X84198666Y620000D01*
X84198666Y686666D01*
X84232000Y786666D01*
X84265333Y820000D01*
X84198666Y1053333D02*
X84198666Y1486666D01*
X84465333Y1253333D01*
X84465333Y1353333D01*
X84498666Y1420000D01*
X84532000Y1453333D01*
X84598666Y1486666D01*
X84765333Y1486666D01*
X84832000Y1453333D01*
X84865333Y1420000D01*
X84898666Y1353333D01*
X84898666Y1153333D01*
X84865333Y1086666D01*
X84832000Y1053333D01*
X84898666Y2153333D02*
X84898666Y1753333D01*
X84898666Y1953333D02*
X84198666Y1953333D01*
X84298666Y1886666D01*
X84365333Y1820000D01*
X84398666Y1753333D01*
%TO.C,C30*%
X40636000Y7932000D02*
X40669333Y7898666D01*
X40702666Y7798666D01*
X40702666Y7732000D01*
X40669333Y7632000D01*
X40602666Y7565333D01*
X40536000Y7532000D01*
X40402666Y7498666D01*
X40302666Y7498666D01*
X40169333Y7532000D01*
X40102666Y7565333D01*
X40036000Y7632000D01*
X40002666Y7732000D01*
X40002666Y7798666D01*
X40036000Y7898666D01*
X40069333Y7932000D01*
X40002666Y8165333D02*
X40002666Y8598666D01*
X40269333Y8365333D01*
X40269333Y8465333D01*
X40302666Y8532000D01*
X40336000Y8565333D01*
X40402666Y8598666D01*
X40569333Y8598666D01*
X40636000Y8565333D01*
X40669333Y8532000D01*
X40702666Y8465333D01*
X40702666Y8265333D01*
X40669333Y8198666D01*
X40636000Y8165333D01*
X40002666Y9032000D02*
X40002666Y9098666D01*
X40036000Y9165333D01*
X40069333Y9198666D01*
X40136000Y9232000D01*
X40269333Y9265333D01*
X40436000Y9265333D01*
X40569333Y9232000D01*
X40636000Y9198666D01*
X40669333Y9165333D01*
X40702666Y9098666D01*
X40702666Y9032000D01*
X40669333Y8965333D01*
X40636000Y8932000D01*
X40569333Y8898666D01*
X40436000Y8865333D01*
X40269333Y8865333D01*
X40136000Y8898666D01*
X40069333Y8932000D01*
X40036000Y8965333D01*
X40002666Y9032000D01*
%TO.C,C29*%
X47048000Y14482000D02*
X47014666Y14448666D01*
X46914666Y14415333D01*
X46848000Y14415333D01*
X46748000Y14448666D01*
X46681333Y14515333D01*
X46648000Y14582000D01*
X46614666Y14715333D01*
X46614666Y14815333D01*
X46648000Y14948666D01*
X46681333Y15015333D01*
X46748000Y15082000D01*
X46848000Y15115333D01*
X46914666Y15115333D01*
X47014666Y15082000D01*
X47048000Y15048666D01*
X47314666Y15048666D02*
X47348000Y15082000D01*
X47414666Y15115333D01*
X47581333Y15115333D01*
X47648000Y15082000D01*
X47681333Y15048666D01*
X47714666Y14982000D01*
X47714666Y14915333D01*
X47681333Y14815333D01*
X47281333Y14415333D01*
X47714666Y14415333D01*
X48048000Y14415333D02*
X48181333Y14415333D01*
X48248000Y14448666D01*
X48281333Y14482000D01*
X48348000Y14582000D01*
X48381333Y14715333D01*
X48381333Y14982000D01*
X48348000Y15048666D01*
X48314666Y15082000D01*
X48248000Y15115333D01*
X48114666Y15115333D01*
X48048000Y15082000D01*
X48014666Y15048666D01*
X47981333Y14982000D01*
X47981333Y14815333D01*
X48014666Y14748666D01*
X48048000Y14715333D01*
X48114666Y14682000D01*
X48248000Y14682000D01*
X48314666Y14715333D01*
X48348000Y14748666D01*
X48381333Y14815333D01*
%TO.C,C28*%
X47048000Y16006000D02*
X47014666Y15972666D01*
X46914666Y15939333D01*
X46848000Y15939333D01*
X46748000Y15972666D01*
X46681333Y16039333D01*
X46648000Y16106000D01*
X46614666Y16239333D01*
X46614666Y16339333D01*
X46648000Y16472666D01*
X46681333Y16539333D01*
X46748000Y16606000D01*
X46848000Y16639333D01*
X46914666Y16639333D01*
X47014666Y16606000D01*
X47048000Y16572666D01*
X47314666Y16572666D02*
X47348000Y16606000D01*
X47414666Y16639333D01*
X47581333Y16639333D01*
X47648000Y16606000D01*
X47681333Y16572666D01*
X47714666Y16506000D01*
X47714666Y16439333D01*
X47681333Y16339333D01*
X47281333Y15939333D01*
X47714666Y15939333D01*
X48114666Y16339333D02*
X48048000Y16372666D01*
X48014666Y16406000D01*
X47981333Y16472666D01*
X47981333Y16506000D01*
X48014666Y16572666D01*
X48048000Y16606000D01*
X48114666Y16639333D01*
X48248000Y16639333D01*
X48314666Y16606000D01*
X48348000Y16572666D01*
X48381333Y16506000D01*
X48381333Y16472666D01*
X48348000Y16406000D01*
X48314666Y16372666D01*
X48248000Y16339333D01*
X48114666Y16339333D01*
X48048000Y16306000D01*
X48014666Y16272666D01*
X47981333Y16206000D01*
X47981333Y16072666D01*
X48014666Y16006000D01*
X48048000Y15972666D01*
X48114666Y15939333D01*
X48248000Y15939333D01*
X48314666Y15972666D01*
X48348000Y16006000D01*
X48381333Y16072666D01*
X48381333Y16206000D01*
X48348000Y16272666D01*
X48314666Y16306000D01*
X48248000Y16339333D01*
%TO.C,C27*%
X79306000Y10672000D02*
X79272666Y10638666D01*
X79172666Y10605333D01*
X79106000Y10605333D01*
X79006000Y10638666D01*
X78939333Y10705333D01*
X78906000Y10772000D01*
X78872666Y10905333D01*
X78872666Y11005333D01*
X78906000Y11138666D01*
X78939333Y11205333D01*
X79006000Y11272000D01*
X79106000Y11305333D01*
X79172666Y11305333D01*
X79272666Y11272000D01*
X79306000Y11238666D01*
X79572666Y11238666D02*
X79606000Y11272000D01*
X79672666Y11305333D01*
X79839333Y11305333D01*
X79906000Y11272000D01*
X79939333Y11238666D01*
X79972666Y11172000D01*
X79972666Y11105333D01*
X79939333Y11005333D01*
X79539333Y10605333D01*
X79972666Y10605333D01*
X80206000Y11305333D02*
X80672666Y11305333D01*
X80372666Y10605333D01*
%TO.C,C26*%
X79560000Y19308000D02*
X79526666Y19274666D01*
X79426666Y19241333D01*
X79360000Y19241333D01*
X79260000Y19274666D01*
X79193333Y19341333D01*
X79160000Y19408000D01*
X79126666Y19541333D01*
X79126666Y19641333D01*
X79160000Y19774666D01*
X79193333Y19841333D01*
X79260000Y19908000D01*
X79360000Y19941333D01*
X79426666Y19941333D01*
X79526666Y19908000D01*
X79560000Y19874666D01*
X79826666Y19874666D02*
X79860000Y19908000D01*
X79926666Y19941333D01*
X80093333Y19941333D01*
X80160000Y19908000D01*
X80193333Y19874666D01*
X80226666Y19808000D01*
X80226666Y19741333D01*
X80193333Y19641333D01*
X79793333Y19241333D01*
X80226666Y19241333D01*
X80826666Y19941333D02*
X80693333Y19941333D01*
X80626666Y19908000D01*
X80593333Y19874666D01*
X80526666Y19774666D01*
X80493333Y19641333D01*
X80493333Y19374666D01*
X80526666Y19308000D01*
X80560000Y19274666D01*
X80626666Y19241333D01*
X80760000Y19241333D01*
X80826666Y19274666D01*
X80860000Y19308000D01*
X80893333Y19374666D01*
X80893333Y19541333D01*
X80860000Y19608000D01*
X80826666Y19641333D01*
X80760000Y19674666D01*
X80626666Y19674666D01*
X80560000Y19641333D01*
X80526666Y19608000D01*
X80493333Y19541333D01*
%TO.C,C25*%
X68638000Y6608000D02*
X68604666Y6574666D01*
X68504666Y6541333D01*
X68438000Y6541333D01*
X68338000Y6574666D01*
X68271333Y6641333D01*
X68238000Y6708000D01*
X68204666Y6841333D01*
X68204666Y6941333D01*
X68238000Y7074666D01*
X68271333Y7141333D01*
X68338000Y7208000D01*
X68438000Y7241333D01*
X68504666Y7241333D01*
X68604666Y7208000D01*
X68638000Y7174666D01*
X68904666Y7174666D02*
X68938000Y7208000D01*
X69004666Y7241333D01*
X69171333Y7241333D01*
X69238000Y7208000D01*
X69271333Y7174666D01*
X69304666Y7108000D01*
X69304666Y7041333D01*
X69271333Y6941333D01*
X68871333Y6541333D01*
X69304666Y6541333D01*
X69938000Y7241333D02*
X69604666Y7241333D01*
X69571333Y6908000D01*
X69604666Y6941333D01*
X69671333Y6974666D01*
X69838000Y6974666D01*
X69904666Y6941333D01*
X69938000Y6908000D01*
X69971333Y6841333D01*
X69971333Y6674666D01*
X69938000Y6608000D01*
X69904666Y6574666D01*
X69838000Y6541333D01*
X69671333Y6541333D01*
X69604666Y6574666D01*
X69571333Y6608000D01*
%TO.C,C24*%
X52320000Y9456000D02*
X52353333Y9422666D01*
X52386666Y9322666D01*
X52386666Y9256000D01*
X52353333Y9156000D01*
X52286666Y9089333D01*
X52220000Y9056000D01*
X52086666Y9022666D01*
X51986666Y9022666D01*
X51853333Y9056000D01*
X51786666Y9089333D01*
X51720000Y9156000D01*
X51686666Y9256000D01*
X51686666Y9322666D01*
X51720000Y9422666D01*
X51753333Y9456000D01*
X51753333Y9722666D02*
X51720000Y9756000D01*
X51686666Y9822666D01*
X51686666Y9989333D01*
X51720000Y10056000D01*
X51753333Y10089333D01*
X51820000Y10122666D01*
X51886666Y10122666D01*
X51986666Y10089333D01*
X52386666Y9689333D01*
X52386666Y10122666D01*
X51920000Y10722666D02*
X52386666Y10722666D01*
X51653333Y10556000D02*
X52153333Y10389333D01*
X52153333Y10822666D01*
%TO.C,C23*%
X50604000Y4830000D02*
X50570666Y4796666D01*
X50470666Y4763333D01*
X50404000Y4763333D01*
X50304000Y4796666D01*
X50237333Y4863333D01*
X50204000Y4930000D01*
X50170666Y5063333D01*
X50170666Y5163333D01*
X50204000Y5296666D01*
X50237333Y5363333D01*
X50304000Y5430000D01*
X50404000Y5463333D01*
X50470666Y5463333D01*
X50570666Y5430000D01*
X50604000Y5396666D01*
X50870666Y5396666D02*
X50904000Y5430000D01*
X50970666Y5463333D01*
X51137333Y5463333D01*
X51204000Y5430000D01*
X51237333Y5396666D01*
X51270666Y5330000D01*
X51270666Y5263333D01*
X51237333Y5163333D01*
X50837333Y4763333D01*
X51270666Y4763333D01*
X51504000Y5463333D02*
X51937333Y5463333D01*
X51704000Y5196666D01*
X51804000Y5196666D01*
X51870666Y5163333D01*
X51904000Y5130000D01*
X51937333Y5063333D01*
X51937333Y4896666D01*
X51904000Y4830000D01*
X51870666Y4796666D01*
X51804000Y4763333D01*
X51604000Y4763333D01*
X51537333Y4796666D01*
X51504000Y4830000D01*
%TO.C,C22*%
X29968000Y7932000D02*
X30001333Y7898666D01*
X30034666Y7798666D01*
X30034666Y7732000D01*
X30001333Y7632000D01*
X29934666Y7565333D01*
X29868000Y7532000D01*
X29734666Y7498666D01*
X29634666Y7498666D01*
X29501333Y7532000D01*
X29434666Y7565333D01*
X29368000Y7632000D01*
X29334666Y7732000D01*
X29334666Y7798666D01*
X29368000Y7898666D01*
X29401333Y7932000D01*
X29401333Y8198666D02*
X29368000Y8232000D01*
X29334666Y8298666D01*
X29334666Y8465333D01*
X29368000Y8532000D01*
X29401333Y8565333D01*
X29468000Y8598666D01*
X29534666Y8598666D01*
X29634666Y8565333D01*
X30034666Y8165333D01*
X30034666Y8598666D01*
X29401333Y8865333D02*
X29368000Y8898666D01*
X29334666Y8965333D01*
X29334666Y9132000D01*
X29368000Y9198666D01*
X29401333Y9232000D01*
X29468000Y9265333D01*
X29534666Y9265333D01*
X29634666Y9232000D01*
X30034666Y8832000D01*
X30034666Y9265333D01*
%TO.C,C20*%
X23872000Y7932000D02*
X23905333Y7898666D01*
X23938666Y7798666D01*
X23938666Y7732000D01*
X23905333Y7632000D01*
X23838666Y7565333D01*
X23772000Y7532000D01*
X23638666Y7498666D01*
X23538666Y7498666D01*
X23405333Y7532000D01*
X23338666Y7565333D01*
X23272000Y7632000D01*
X23238666Y7732000D01*
X23238666Y7798666D01*
X23272000Y7898666D01*
X23305333Y7932000D01*
X23305333Y8198666D02*
X23272000Y8232000D01*
X23238666Y8298666D01*
X23238666Y8465333D01*
X23272000Y8532000D01*
X23305333Y8565333D01*
X23372000Y8598666D01*
X23438666Y8598666D01*
X23538666Y8565333D01*
X23938666Y8165333D01*
X23938666Y8598666D01*
X23238666Y9032000D02*
X23238666Y9098666D01*
X23272000Y9165333D01*
X23305333Y9198666D01*
X23372000Y9232000D01*
X23505333Y9265333D01*
X23672000Y9265333D01*
X23805333Y9232000D01*
X23872000Y9198666D01*
X23905333Y9165333D01*
X23938666Y9098666D01*
X23938666Y9032000D01*
X23905333Y8965333D01*
X23872000Y8932000D01*
X23805333Y8898666D01*
X23672000Y8865333D01*
X23505333Y8865333D01*
X23372000Y8898666D01*
X23305333Y8932000D01*
X23272000Y8965333D01*
X23238666Y9032000D01*
%TO.C,C19*%
X26920000Y7932000D02*
X26953333Y7898666D01*
X26986666Y7798666D01*
X26986666Y7732000D01*
X26953333Y7632000D01*
X26886666Y7565333D01*
X26820000Y7532000D01*
X26686666Y7498666D01*
X26586666Y7498666D01*
X26453333Y7532000D01*
X26386666Y7565333D01*
X26320000Y7632000D01*
X26286666Y7732000D01*
X26286666Y7798666D01*
X26320000Y7898666D01*
X26353333Y7932000D01*
X26986666Y8598666D02*
X26986666Y8198666D01*
X26986666Y8398666D02*
X26286666Y8398666D01*
X26386666Y8332000D01*
X26453333Y8265333D01*
X26486666Y8198666D01*
X26986666Y8932000D02*
X26986666Y9065333D01*
X26953333Y9132000D01*
X26920000Y9165333D01*
X26820000Y9232000D01*
X26686666Y9265333D01*
X26420000Y9265333D01*
X26353333Y9232000D01*
X26320000Y9198666D01*
X26286666Y9132000D01*
X26286666Y8998666D01*
X26320000Y8932000D01*
X26353333Y8898666D01*
X26420000Y8865333D01*
X26586666Y8865333D01*
X26653333Y8898666D01*
X26686666Y8932000D01*
X26720000Y8998666D01*
X26720000Y9132000D01*
X26686666Y9198666D01*
X26653333Y9232000D01*
X26586666Y9265333D01*
%TO.C,C18*%
X39112000Y7932000D02*
X39145333Y7898666D01*
X39178666Y7798666D01*
X39178666Y7732000D01*
X39145333Y7632000D01*
X39078666Y7565333D01*
X39012000Y7532000D01*
X38878666Y7498666D01*
X38778666Y7498666D01*
X38645333Y7532000D01*
X38578666Y7565333D01*
X38512000Y7632000D01*
X38478666Y7732000D01*
X38478666Y7798666D01*
X38512000Y7898666D01*
X38545333Y7932000D01*
X39178666Y8598666D02*
X39178666Y8198666D01*
X39178666Y8398666D02*
X38478666Y8398666D01*
X38578666Y8332000D01*
X38645333Y8265333D01*
X38678666Y8198666D01*
X38778666Y8998666D02*
X38745333Y8932000D01*
X38712000Y8898666D01*
X38645333Y8865333D01*
X38612000Y8865333D01*
X38545333Y8898666D01*
X38512000Y8932000D01*
X38478666Y8998666D01*
X38478666Y9132000D01*
X38512000Y9198666D01*
X38545333Y9232000D01*
X38612000Y9265333D01*
X38645333Y9265333D01*
X38712000Y9232000D01*
X38745333Y9198666D01*
X38778666Y9132000D01*
X38778666Y8998666D01*
X38812000Y8932000D01*
X38845333Y8898666D01*
X38912000Y8865333D01*
X39045333Y8865333D01*
X39112000Y8898666D01*
X39145333Y8932000D01*
X39178666Y8998666D01*
X39178666Y9132000D01*
X39145333Y9198666D01*
X39112000Y9232000D01*
X39045333Y9265333D01*
X38912000Y9265333D01*
X38845333Y9232000D01*
X38812000Y9198666D01*
X38778666Y9132000D01*
%TO.C,C17*%
X20824000Y7932000D02*
X20857333Y7898666D01*
X20890666Y7798666D01*
X20890666Y7732000D01*
X20857333Y7632000D01*
X20790666Y7565333D01*
X20724000Y7532000D01*
X20590666Y7498666D01*
X20490666Y7498666D01*
X20357333Y7532000D01*
X20290666Y7565333D01*
X20224000Y7632000D01*
X20190666Y7732000D01*
X20190666Y7798666D01*
X20224000Y7898666D01*
X20257333Y7932000D01*
X20890666Y8598666D02*
X20890666Y8198666D01*
X20890666Y8398666D02*
X20190666Y8398666D01*
X20290666Y8332000D01*
X20357333Y8265333D01*
X20390666Y8198666D01*
X20190666Y8832000D02*
X20190666Y9298666D01*
X20890666Y8998666D01*
%TO.C,C16*%
X53082000Y22410000D02*
X53115333Y22376666D01*
X53148666Y22276666D01*
X53148666Y22210000D01*
X53115333Y22110000D01*
X53048666Y22043333D01*
X52982000Y22010000D01*
X52848666Y21976666D01*
X52748666Y21976666D01*
X52615333Y22010000D01*
X52548666Y22043333D01*
X52482000Y22110000D01*
X52448666Y22210000D01*
X52448666Y22276666D01*
X52482000Y22376666D01*
X52515333Y22410000D01*
X53148666Y23076666D02*
X53148666Y22676666D01*
X53148666Y22876666D02*
X52448666Y22876666D01*
X52548666Y22810000D01*
X52615333Y22743333D01*
X52648666Y22676666D01*
X52448666Y23676666D02*
X52448666Y23543333D01*
X52482000Y23476666D01*
X52515333Y23443333D01*
X52615333Y23376666D01*
X52748666Y23343333D01*
X53015333Y23343333D01*
X53082000Y23376666D01*
X53115333Y23410000D01*
X53148666Y23476666D01*
X53148666Y23610000D01*
X53115333Y23676666D01*
X53082000Y23710000D01*
X53015333Y23743333D01*
X52848666Y23743333D01*
X52782000Y23710000D01*
X52748666Y23676666D01*
X52715333Y23610000D01*
X52715333Y23476666D01*
X52748666Y23410000D01*
X52782000Y23376666D01*
X52848666Y23343333D01*
%TO.C,C15*%
X54606000Y22410000D02*
X54639333Y22376666D01*
X54672666Y22276666D01*
X54672666Y22210000D01*
X54639333Y22110000D01*
X54572666Y22043333D01*
X54506000Y22010000D01*
X54372666Y21976666D01*
X54272666Y21976666D01*
X54139333Y22010000D01*
X54072666Y22043333D01*
X54006000Y22110000D01*
X53972666Y22210000D01*
X53972666Y22276666D01*
X54006000Y22376666D01*
X54039333Y22410000D01*
X54672666Y23076666D02*
X54672666Y22676666D01*
X54672666Y22876666D02*
X53972666Y22876666D01*
X54072666Y22810000D01*
X54139333Y22743333D01*
X54172666Y22676666D01*
X53972666Y23710000D02*
X53972666Y23376666D01*
X54306000Y23343333D01*
X54272666Y23376666D01*
X54239333Y23443333D01*
X54239333Y23610000D01*
X54272666Y23676666D01*
X54306000Y23710000D01*
X54372666Y23743333D01*
X54539333Y23743333D01*
X54606000Y23710000D01*
X54639333Y23676666D01*
X54672666Y23610000D01*
X54672666Y23443333D01*
X54639333Y23376666D01*
X54606000Y23343333D01*
%TO.C,C12*%
X73464000Y14228000D02*
X73430666Y14194666D01*
X73330666Y14161333D01*
X73264000Y14161333D01*
X73164000Y14194666D01*
X73097333Y14261333D01*
X73064000Y14328000D01*
X73030666Y14461333D01*
X73030666Y14561333D01*
X73064000Y14694666D01*
X73097333Y14761333D01*
X73164000Y14828000D01*
X73264000Y14861333D01*
X73330666Y14861333D01*
X73430666Y14828000D01*
X73464000Y14794666D01*
X74130666Y14161333D02*
X73730666Y14161333D01*
X73930666Y14161333D02*
X73930666Y14861333D01*
X73864000Y14761333D01*
X73797333Y14694666D01*
X73730666Y14661333D01*
X74397333Y14794666D02*
X74430666Y14828000D01*
X74497333Y14861333D01*
X74664000Y14861333D01*
X74730666Y14828000D01*
X74764000Y14794666D01*
X74797333Y14728000D01*
X74797333Y14661333D01*
X74764000Y14561333D01*
X74364000Y14161333D01*
X74797333Y14161333D01*
%TO.C,C9*%
X73289333Y19562000D02*
X73256000Y19528666D01*
X73156000Y19495333D01*
X73089333Y19495333D01*
X72989333Y19528666D01*
X72922666Y19595333D01*
X72889333Y19662000D01*
X72856000Y19795333D01*
X72856000Y19895333D01*
X72889333Y20028666D01*
X72922666Y20095333D01*
X72989333Y20162000D01*
X73089333Y20195333D01*
X73156000Y20195333D01*
X73256000Y20162000D01*
X73289333Y20128666D01*
X73622666Y19495333D02*
X73756000Y19495333D01*
X73822666Y19528666D01*
X73856000Y19562000D01*
X73922666Y19662000D01*
X73956000Y19795333D01*
X73956000Y20062000D01*
X73922666Y20128666D01*
X73889333Y20162000D01*
X73822666Y20195333D01*
X73689333Y20195333D01*
X73622666Y20162000D01*
X73589333Y20128666D01*
X73556000Y20062000D01*
X73556000Y19895333D01*
X73589333Y19828666D01*
X73622666Y19795333D01*
X73689333Y19762000D01*
X73822666Y19762000D01*
X73889333Y19795333D01*
X73922666Y19828666D01*
X73956000Y19895333D01*
%TO.C,C7*%
X1661333Y20324000D02*
X1627999Y20290666D01*
X1528000Y20257333D01*
X1461333Y20257333D01*
X1361333Y20290666D01*
X1294666Y20357333D01*
X1261333Y20424000D01*
X1227999Y20557333D01*
X1227999Y20657333D01*
X1261333Y20790666D01*
X1294666Y20857333D01*
X1361333Y20924000D01*
X1461333Y20957333D01*
X1528000Y20957333D01*
X1627999Y20924000D01*
X1661333Y20890666D01*
X1894666Y20957333D02*
X2361333Y20957333D01*
X2061333Y20257333D01*
%TD*%
M02*
