%TF.GenerationSoftware,KiCad,Pcbnew,(5.1.10)-1*%
%TF.CreationDate,2021-09-27T23:39:52+02:00*%
%TF.ProjectId,XX,58582e6b-6963-4616-945f-706362585858,V00*%
%TF.SameCoordinates,Original*%
%TF.FileFunction,Copper,L2,Bot*%
%TF.FilePolarity,Positive*%
%FSLAX46Y46*%
G04 Gerber Fmt 4.6, Leading zero omitted, Abs format (unit mm)*
G04 Created by KiCad (PCBNEW (5.1.10)-1) date 2021-09-27 23:39:52*
%MOMM*%
%LPD*%
G01*
G04 APERTURE LIST*
%TA.AperFunction,ComponentPad*%
%ADD10C,2.100000*%
%TD*%
%TA.AperFunction,ComponentPad*%
%ADD11C,1.750000*%
%TD*%
%TA.AperFunction,ComponentPad*%
%ADD12R,1.300000X1.700000*%
%TD*%
%TA.AperFunction,ComponentPad*%
%ADD13O,1.300000X1.700000*%
%TD*%
%TA.AperFunction,ComponentPad*%
%ADD14R,1.700000X1.700000*%
%TD*%
%TA.AperFunction,ComponentPad*%
%ADD15O,1.700000X1.700000*%
%TD*%
%TA.AperFunction,ComponentPad*%
%ADD16C,1.700000*%
%TD*%
%TA.AperFunction,ComponentPad*%
%ADD17C,4.000000*%
%TD*%
%TA.AperFunction,ViaPad*%
%ADD18C,0.635000*%
%TD*%
%TA.AperFunction,ViaPad*%
%ADD19C,0.812800*%
%TD*%
%TA.AperFunction,ViaPad*%
%ADD20C,0.800000*%
%TD*%
%TA.AperFunction,Conductor*%
%ADD21C,0.254000*%
%TD*%
%TA.AperFunction,Conductor*%
%ADD22C,0.381000*%
%TD*%
%TA.AperFunction,Conductor*%
%ADD23C,0.304800*%
%TD*%
%TA.AperFunction,Conductor*%
%ADD24C,0.250000*%
%TD*%
%TA.AperFunction,Conductor*%
%ADD25C,0.100000*%
%TD*%
G04 APERTURE END LIST*
D10*
%TO.P,SW3,*%
%TO.N,*%
X128570000Y-96290600D03*
D11*
%TO.P,SW3,2*%
%TO.N,Net-(C19-Pad1)*%
X129830000Y-98780600D03*
%TO.P,SW3,1*%
%TO.N,GNDD*%
X134330000Y-98780600D03*
D10*
%TO.P,SW3,*%
%TO.N,*%
X135580000Y-96290600D03*
%TD*%
%TO.P,SW2,*%
%TO.N,*%
X139238000Y-96290600D03*
D11*
%TO.P,SW2,2*%
%TO.N,Net-(C18-Pad1)*%
X140498000Y-98780600D03*
%TO.P,SW2,1*%
%TO.N,GNDD*%
X144998000Y-98780600D03*
D10*
%TO.P,SW2,*%
%TO.N,*%
X146248000Y-96290600D03*
%TD*%
%TO.P,SW1,*%
%TO.N,*%
X118003600Y-96290600D03*
D11*
%TO.P,SW1,2*%
%TO.N,Net-(C17-Pad1)*%
X119263600Y-98780600D03*
%TO.P,SW1,1*%
%TO.N,GNDD*%
X123763600Y-98780600D03*
D10*
%TO.P,SW1,*%
%TO.N,*%
X125013600Y-96290600D03*
%TD*%
D12*
%TO.P,J1,1*%
%TO.N,Net-(J1-Pad1)*%
X156464000Y-100050600D03*
D13*
%TO.P,J1,2*%
%TO.N,+3V3*%
X159004000Y-100050600D03*
%TO.P,J1,3*%
%TO.N,GNDD*%
X161544000Y-100050600D03*
%TO.P,J1,4*%
%TO.N,Net-(J1-Pad4)*%
X164084000Y-100050600D03*
%TO.P,J1,5*%
%TO.N,Net-(J1-Pad5)*%
X166624000Y-100050600D03*
%TO.P,J1,6*%
%TO.N,Net-(J1-Pad6)*%
X169164000Y-100050600D03*
%TD*%
D14*
%TO.P,J5,1*%
%TO.N,GNDD*%
X191262000Y-79502000D03*
D15*
%TO.P,J5,2*%
%TO.N,Net-(F1-Pad2)*%
X188722000Y-79502000D03*
%TD*%
D14*
%TO.P,J4,1*%
%TO.N,Net-(C8-Pad2)*%
X109982000Y-89662000D03*
%TD*%
%TO.P,J3,1*%
%TO.N,GNDD*%
X194818000Y-100076000D03*
%TD*%
%TO.P,J2,1*%
%TO.N,Net-(J2-Pad1)*%
X192176000Y-88350000D03*
D16*
%TO.P,J2,2*%
%TO.N,/D-*%
X192176000Y-90850000D03*
%TO.P,J2,3*%
%TO.N,/D+*%
X194176000Y-90850000D03*
%TO.P,J2,4*%
%TO.N,GNDD*%
X194176000Y-88350000D03*
D17*
%TO.P,J2,5*%
X197036000Y-95600000D03*
X197036000Y-83600000D03*
%TD*%
D18*
%TO.N,GNDD*%
X150164000Y-86106000D03*
X115570000Y-90932000D03*
X105156000Y-85090000D03*
X105156000Y-80772000D03*
X105664000Y-96520000D03*
X108950000Y-98790000D03*
X179070000Y-82296000D03*
X130810000Y-86106000D03*
X164084000Y-97536000D03*
X169418000Y-81026000D03*
X177800000Y-87122000D03*
X172720000Y-87884000D03*
X154825690Y-92964000D03*
X186182000Y-85852000D03*
X159239000Y-87103000D03*
X177292000Y-81788000D03*
X163829997Y-87121997D03*
X180848000Y-85852000D03*
X111252000Y-96266000D03*
X139954000Y-92964000D03*
X152008195Y-92203885D03*
X151130000Y-94996000D03*
%TO.N,/+3V3_USB*%
X181864000Y-97510600D03*
X184086516Y-95161116D03*
X181864000Y-95986600D03*
X178816000Y-96126300D03*
X178816000Y-98018600D03*
D19*
%TO.N,Net-(R15-Pad1)*%
X114046000Y-99060000D03*
D18*
X147828000Y-99822000D03*
%TO.N,/INT1*%
X155956000Y-88646000D03*
X162489000Y-89337008D03*
%TO.N,/PG#*%
X177546000Y-90170000D03*
X185166000Y-89408000D03*
%TO.N,+3V3*%
X123190000Y-88900000D03*
X137668000Y-88900000D03*
X129286000Y-88900000D03*
X155448000Y-94742000D03*
X147548600Y-85318600D03*
X151384000Y-85344000D03*
X151384000Y-78486000D03*
X150368000Y-92964000D03*
X155447988Y-91440000D03*
X166878000Y-90170000D03*
X115061989Y-79247989D03*
X157480000Y-91440000D03*
X168643310Y-78473324D03*
%TO.N,+3.3VA*%
X115570000Y-92456000D03*
X105918000Y-94234000D03*
%TO.N,/IC1*%
X161797996Y-89915996D03*
X152908000Y-87884000D03*
X116840000Y-82804000D03*
X152908000Y-80772000D03*
%TO.N,+BATT*%
X172974000Y-79501994D03*
X153670000Y-80010000D03*
D20*
X179472528Y-79502000D03*
D18*
%TO.N,/AN0*%
X159258000Y-89916000D03*
X149352000Y-92202000D03*
%TO.N,/DN#*%
X128270000Y-82550000D03*
X161188994Y-80618994D03*
%TO.N,/UP#*%
X139192000Y-85344000D03*
X163322000Y-80772000D03*
%TO.N,/OK#*%
X132842000Y-84073994D03*
X161839000Y-81239000D03*
%TO.N,/AN1*%
X172212000Y-93218000D03*
X159889000Y-93577600D03*
%TO.N,Net-(C29-Pad1)*%
X148336000Y-90932000D03*
X147574000Y-86868000D03*
%TO.N,/PSEN#*%
X116840000Y-80772000D03*
X166369986Y-79248000D03*
%TO.N,/MCLR#*%
X156718004Y-84810600D03*
X169926000Y-84328000D03*
%TO.N,/DEN#*%
X153924000Y-83058000D03*
X163830000Y-81534000D03*
%TO.N,/U1RX*%
X166624006Y-87122000D03*
X173736000Y-97790000D03*
%TO.N,/U1TX*%
X173736000Y-96266000D03*
X165100000Y-87122000D03*
%TO.N,/SCL1*%
X166125101Y-82299033D03*
X155956000Y-84186310D03*
X146050000Y-83750867D03*
%TO.N,/SDA1*%
X165089000Y-82307004D03*
X155194000Y-83680310D03*
X147066000Y-83566000D03*
%TO.N,/CH_CPLT#*%
X160528000Y-86106000D03*
X177800000Y-85860165D03*
%TO.N,/RST#*%
X150761690Y-83312000D03*
X166370000Y-81280000D03*
%TD*%
D21*
%TO.N,GNDD*%
X170180000Y-81788000D02*
X169418000Y-81026000D01*
X177241200Y-81788000D02*
X170180000Y-81788000D01*
D22*
X150164000Y-86056000D02*
X150114000Y-86106000D01*
X150164000Y-86056000D02*
X150214000Y-86106000D01*
D21*
X159257997Y-87121997D02*
X159239000Y-87103000D01*
X161544000Y-100050600D02*
X161544000Y-99822000D01*
X180848000Y-84328000D02*
X180848000Y-84074000D01*
%TO.N,/+3V3_USB*%
X178816000Y-98018600D02*
X178816000Y-96126300D01*
X181864000Y-95986600D02*
X182689484Y-95161116D01*
X181864000Y-95986600D02*
X181864000Y-97510600D01*
X182689484Y-95161116D02*
X184086516Y-95161116D01*
%TO.N,Net-(R15-Pad1)*%
X115798600Y-100812600D02*
X146837400Y-100812600D01*
X146837400Y-100812600D02*
X147828000Y-99822000D01*
X114046000Y-99060000D02*
X115798600Y-100812600D01*
%TO.N,/INT1*%
X161797992Y-88646000D02*
X155956000Y-88646000D01*
X162489000Y-89337008D02*
X161797992Y-88646000D01*
%TO.N,/PG#*%
X177546000Y-90170000D02*
X184531000Y-90170000D01*
X184531000Y-90170000D02*
X185166000Y-89535000D01*
%TO.N,+3V3*%
X154152600Y-91440000D02*
X154432000Y-91440000D01*
X163576000Y-91440000D02*
X157480000Y-91440000D01*
X157480000Y-91440000D02*
X155447988Y-91440000D01*
X154432000Y-91440000D02*
X151130000Y-91440000D01*
X151130000Y-91440000D02*
X150368000Y-92202000D01*
X150368000Y-92202000D02*
X150368000Y-92964000D01*
X165608000Y-91440000D02*
X166878000Y-90170000D01*
X163576000Y-91440000D02*
X165608000Y-91440000D01*
X154432000Y-91440000D02*
X155252987Y-91439999D01*
X155252988Y-91440000D02*
X155447988Y-91440000D01*
X151892001Y-91439999D02*
X155252987Y-91439999D01*
X155252987Y-91439999D02*
X155252988Y-91440000D01*
D22*
X151638000Y-78486000D02*
X168630634Y-78486000D01*
X168630634Y-78486000D02*
X168643310Y-78473324D01*
D21*
X158978600Y-100050600D02*
X159004000Y-100050600D01*
X155448000Y-94742000D02*
X155448000Y-91440000D01*
X147548600Y-85344000D02*
X151269700Y-85344000D01*
D22*
X151130000Y-78486000D02*
X115823978Y-78486000D01*
X115823978Y-78486000D02*
X115061989Y-79247989D01*
D21*
X129286000Y-88900000D02*
X123190000Y-88900000D01*
X137668000Y-88900000D02*
X129286000Y-88900000D01*
D23*
%TO.N,+3.3VA*%
X115062000Y-94234000D02*
X115570000Y-93726000D01*
X115570000Y-93726000D02*
X115570000Y-92456000D01*
X105918000Y-94234000D02*
X115062000Y-94234000D01*
D21*
%TO.N,/IC1*%
X127508000Y-80772000D02*
X152908000Y-80772000D01*
X116840000Y-82804000D02*
X125476000Y-82804000D01*
X125476000Y-82804000D02*
X127508000Y-80772000D01*
X161163000Y-89281000D02*
X154305000Y-89281000D01*
X161163000Y-89281000D02*
X161797996Y-89915996D01*
X154305000Y-89281000D02*
X152908000Y-87884000D01*
%TO.N,+BATT*%
X153987499Y-79692501D02*
X153670000Y-80010000D01*
X165131493Y-79692501D02*
X153987499Y-79692501D01*
X172974000Y-79501994D02*
X172478692Y-79997302D01*
X165436294Y-79997302D02*
X165131493Y-79692501D01*
X172478692Y-79997302D02*
X165436294Y-79997302D01*
X153669992Y-80009992D02*
X153670000Y-80010000D01*
X179324000Y-79502000D02*
X179472528Y-79502000D01*
X179298600Y-79476600D02*
X179324000Y-79502000D01*
D22*
X179472522Y-79501994D02*
X179472528Y-79502000D01*
X172974000Y-79501994D02*
X179472522Y-79501994D01*
D21*
X172974000Y-79502000D02*
X172974000Y-79501994D01*
%TO.N,/AN0*%
X149352000Y-90932000D02*
X149352000Y-92202000D01*
X152146000Y-89916000D02*
X150368000Y-89916000D01*
X159258000Y-89916000D02*
X152146000Y-89916000D01*
X150368000Y-89916000D02*
X149352000Y-90932000D01*
X152146000Y-89916000D02*
X150876000Y-89916000D01*
%TO.N,/DN#*%
X128270000Y-82550000D02*
X129286000Y-81534000D01*
X129286000Y-81534000D02*
X153162000Y-81534000D01*
X153670000Y-81026000D02*
X160781988Y-81026000D01*
X160781988Y-81026000D02*
X161188994Y-80618994D01*
X153162000Y-81534000D02*
X153670000Y-81026000D01*
%TO.N,/UP#*%
X162052000Y-82042000D02*
X162179000Y-81915000D01*
X159512000Y-82042000D02*
X159258000Y-82042000D01*
X159258000Y-82042000D02*
X162052000Y-82042000D01*
X162179000Y-81915000D02*
X162306000Y-81788000D01*
D24*
X163004501Y-81089499D02*
X163322000Y-80772000D01*
X162306000Y-81788000D02*
X163004501Y-81089499D01*
D21*
X162306000Y-81788000D02*
X162489000Y-81605000D01*
X153924000Y-82042000D02*
X153416000Y-82550000D01*
X141986000Y-82550000D02*
X139192000Y-85344000D01*
X159258000Y-82042000D02*
X153924000Y-82042000D01*
X153416000Y-82550000D02*
X141986000Y-82550000D01*
%TO.N,/OK#*%
X134873994Y-82042000D02*
X153264672Y-82042000D01*
X132842000Y-84073994D02*
X134873994Y-82042000D01*
X153264672Y-82042000D02*
X153750173Y-81556499D01*
X161521501Y-81556499D02*
X161839000Y-81239000D01*
X153750173Y-81556499D02*
X161521501Y-81556499D01*
%TO.N,/AN1*%
X170793600Y-93577600D02*
X171047586Y-93577600D01*
X170793600Y-93577600D02*
X171852400Y-93577600D01*
X159889000Y-93577600D02*
X170793600Y-93577600D01*
X171852400Y-93577600D02*
X172212000Y-93218000D01*
%TO.N,Net-(C29-Pad1)*%
X147574000Y-86868000D02*
X148336000Y-87630000D01*
X148336000Y-87630000D02*
X148336000Y-90932000D01*
%TO.N,/PSEN#*%
X116840000Y-80772000D02*
X118364000Y-79248000D01*
X118364000Y-79248000D02*
X166369986Y-79248000D01*
%TO.N,/MCLR#*%
X156718004Y-84810600D02*
X169443400Y-84810600D01*
X169443400Y-84810600D02*
X169926000Y-84328000D01*
%TO.N,/DEN#*%
X163830000Y-81534000D02*
X162814000Y-82550000D01*
X162814000Y-82550000D02*
X154432000Y-82550000D01*
X154432000Y-82550000D02*
X153924000Y-83058000D01*
%TO.N,/U1RX*%
X170180000Y-87122000D02*
X166624006Y-87122000D01*
X171958000Y-88900000D02*
X170180000Y-87122000D01*
X174498000Y-97002600D02*
X174498000Y-89408000D01*
X173736000Y-97764600D02*
X174498000Y-97002600D01*
X174498000Y-89408000D02*
X173990000Y-88900000D01*
X173990000Y-88900000D02*
X171958000Y-88900000D01*
%TO.N,/U1TX*%
X173736000Y-96240600D02*
X173736000Y-91694000D01*
X173736000Y-91694000D02*
X169989499Y-87947499D01*
X165925499Y-87947499D02*
X165100000Y-87122000D01*
X169989499Y-87947499D02*
X165925499Y-87947499D01*
D24*
%TO.N,/SCL1*%
X155818290Y-84186310D02*
X155956000Y-84186310D01*
D21*
X146050000Y-83750867D02*
X146881133Y-84582000D01*
X146881133Y-84582000D02*
X155560310Y-84582000D01*
X155560310Y-84582000D02*
X155956000Y-84186310D01*
D24*
X165807602Y-82616532D02*
X166125101Y-82299033D01*
X163626800Y-84074000D02*
X164350134Y-84074000D01*
X164350134Y-84074000D02*
X165807602Y-82616532D01*
X155956000Y-84074000D02*
X163601400Y-84074000D01*
%TO.N,/SDA1*%
X165089000Y-82307004D02*
X163830004Y-83566000D01*
X147637499Y-84137499D02*
X154736811Y-84137499D01*
X154736811Y-84137499D02*
X155194000Y-83680310D01*
X163830004Y-83566000D02*
X155308310Y-83566000D01*
X147066000Y-83566000D02*
X147637499Y-84137499D01*
X155308310Y-83566000D02*
X155194000Y-83680310D01*
D21*
%TO.N,/CH_CPLT#*%
X174244000Y-85852000D02*
X173990000Y-86106000D01*
X177791835Y-85852000D02*
X174244000Y-85852000D01*
X160977012Y-86106000D02*
X160528000Y-86106000D01*
X177800000Y-85860165D02*
X177791835Y-85852000D01*
X173990000Y-86106000D02*
X160977012Y-86106000D01*
%TO.N,/RST#*%
X166370000Y-81280000D02*
X165100000Y-81280000D01*
X165100000Y-81280000D02*
X163322000Y-83058000D01*
X154895304Y-83058000D02*
X154245615Y-83707689D01*
X151779689Y-83707689D02*
X151384000Y-83312000D01*
X163322000Y-83058000D02*
X154895304Y-83058000D01*
X154245615Y-83707689D02*
X151779689Y-83707689D01*
X151384000Y-83312000D02*
X150761690Y-83312000D01*
%TD*%
%TO.N,Net-(C8-Pad2)*%
X112649000Y-91821000D02*
X104775000Y-91821000D01*
X104775000Y-87503000D01*
X112649000Y-87503000D01*
X112649000Y-91821000D01*
%TA.AperFunction,Conductor*%
D25*
G36*
X112649000Y-91821000D02*
G01*
X104775000Y-91821000D01*
X104775000Y-87503000D01*
X112649000Y-87503000D01*
X112649000Y-91821000D01*
G37*
%TD.AperFunction*%
%TD*%
D21*
%TO.N,GNDD*%
X114879542Y-78442608D02*
X114821200Y-78454213D01*
X114670968Y-78516441D01*
X114535764Y-78606781D01*
X114420781Y-78721764D01*
X114330441Y-78856968D01*
X114268213Y-79007200D01*
X114236489Y-79166684D01*
X114236489Y-79329294D01*
X114268213Y-79488778D01*
X114330441Y-79639010D01*
X114420781Y-79774214D01*
X114535764Y-79889197D01*
X114670968Y-79979537D01*
X114821200Y-80041765D01*
X114980684Y-80073489D01*
X115143294Y-80073489D01*
X115302778Y-80041765D01*
X115453010Y-79979537D01*
X115588214Y-79889197D01*
X115703197Y-79774214D01*
X115793537Y-79639010D01*
X115855765Y-79488778D01*
X115867370Y-79430436D01*
X116113306Y-79184500D01*
X117529475Y-79184500D01*
X116767475Y-79946500D01*
X116758695Y-79946500D01*
X116599211Y-79978224D01*
X116448979Y-80040452D01*
X116313775Y-80130792D01*
X116198792Y-80245775D01*
X116108452Y-80380979D01*
X116046224Y-80531211D01*
X116014500Y-80690695D01*
X116014500Y-80853305D01*
X116046224Y-81012789D01*
X116108452Y-81163021D01*
X116198792Y-81298225D01*
X116313775Y-81413208D01*
X116448979Y-81503548D01*
X116599211Y-81565776D01*
X116758695Y-81597500D01*
X116921305Y-81597500D01*
X117080789Y-81565776D01*
X117231021Y-81503548D01*
X117366225Y-81413208D01*
X117481208Y-81298225D01*
X117571548Y-81163021D01*
X117633776Y-81012789D01*
X117665500Y-80853305D01*
X117665500Y-80844525D01*
X118627026Y-79883000D01*
X152853589Y-79883000D01*
X152844500Y-79928695D01*
X152844500Y-79946500D01*
X152826695Y-79946500D01*
X152667211Y-79978224D01*
X152516979Y-80040452D01*
X152381775Y-80130792D01*
X152375567Y-80137000D01*
X127539181Y-80137000D01*
X127508000Y-80133929D01*
X127476819Y-80137000D01*
X127476808Y-80137000D01*
X127383518Y-80146188D01*
X127263820Y-80182498D01*
X127153506Y-80241462D01*
X127104108Y-80282003D01*
X127056815Y-80320815D01*
X127036931Y-80345044D01*
X125212976Y-82169000D01*
X117372433Y-82169000D01*
X117366225Y-82162792D01*
X117231021Y-82072452D01*
X117080789Y-82010224D01*
X116921305Y-81978500D01*
X116758695Y-81978500D01*
X116599211Y-82010224D01*
X116448979Y-82072452D01*
X116313775Y-82162792D01*
X116198792Y-82277775D01*
X116108452Y-82412979D01*
X116046224Y-82563211D01*
X116014500Y-82722695D01*
X116014500Y-82885305D01*
X116046224Y-83044789D01*
X116108452Y-83195021D01*
X116198792Y-83330225D01*
X116313775Y-83445208D01*
X116448979Y-83535548D01*
X116599211Y-83597776D01*
X116758695Y-83629500D01*
X116921305Y-83629500D01*
X117080789Y-83597776D01*
X117231021Y-83535548D01*
X117366225Y-83445208D01*
X117372433Y-83439000D01*
X125444819Y-83439000D01*
X125476000Y-83442071D01*
X125507181Y-83439000D01*
X125507192Y-83439000D01*
X125600482Y-83429812D01*
X125720180Y-83393502D01*
X125830494Y-83334537D01*
X125927185Y-83255185D01*
X125947074Y-83230950D01*
X127771025Y-81407000D01*
X128514975Y-81407000D01*
X128197476Y-81724500D01*
X128188695Y-81724500D01*
X128029211Y-81756224D01*
X127878979Y-81818452D01*
X127743775Y-81908792D01*
X127628792Y-82023775D01*
X127538452Y-82158979D01*
X127476224Y-82309211D01*
X127444500Y-82468695D01*
X127444500Y-82631305D01*
X127476224Y-82790789D01*
X127538452Y-82941021D01*
X127628792Y-83076225D01*
X127743775Y-83191208D01*
X127878979Y-83281548D01*
X128029211Y-83343776D01*
X128188695Y-83375500D01*
X128351305Y-83375500D01*
X128510789Y-83343776D01*
X128661021Y-83281548D01*
X128796225Y-83191208D01*
X128911208Y-83076225D01*
X129001548Y-82941021D01*
X129063776Y-82790789D01*
X129095500Y-82631305D01*
X129095500Y-82622524D01*
X129549025Y-82169000D01*
X133848969Y-82169000D01*
X132769476Y-83248494D01*
X132760695Y-83248494D01*
X132601211Y-83280218D01*
X132450979Y-83342446D01*
X132315775Y-83432786D01*
X132200792Y-83547769D01*
X132110452Y-83682973D01*
X132048224Y-83833205D01*
X132016500Y-83992689D01*
X132016500Y-84155299D01*
X132048224Y-84314783D01*
X132110452Y-84465015D01*
X132200792Y-84600219D01*
X132315775Y-84715202D01*
X132450979Y-84805542D01*
X132601211Y-84867770D01*
X132760695Y-84899494D01*
X132923305Y-84899494D01*
X133082789Y-84867770D01*
X133233021Y-84805542D01*
X133368225Y-84715202D01*
X133483208Y-84600219D01*
X133573548Y-84465015D01*
X133635776Y-84314783D01*
X133667500Y-84155299D01*
X133667500Y-84146518D01*
X135137020Y-82677000D01*
X140960974Y-82677000D01*
X139119476Y-84518500D01*
X139110695Y-84518500D01*
X138951211Y-84550224D01*
X138800979Y-84612452D01*
X138665775Y-84702792D01*
X138550792Y-84817775D01*
X138460452Y-84952979D01*
X138398224Y-85103211D01*
X138366500Y-85262695D01*
X138366500Y-85425305D01*
X138398224Y-85584789D01*
X138460452Y-85735021D01*
X138550792Y-85870225D01*
X138665775Y-85985208D01*
X138800979Y-86075548D01*
X138951211Y-86137776D01*
X139110695Y-86169500D01*
X139273305Y-86169500D01*
X139432789Y-86137776D01*
X139583021Y-86075548D01*
X139718225Y-85985208D01*
X139833208Y-85870225D01*
X139923548Y-85735021D01*
X139985776Y-85584789D01*
X140017500Y-85425305D01*
X140017500Y-85416524D01*
X142249026Y-83185000D01*
X145448434Y-83185000D01*
X145408792Y-83224642D01*
X145318452Y-83359846D01*
X145256224Y-83510078D01*
X145224500Y-83669562D01*
X145224500Y-83832172D01*
X145256224Y-83991656D01*
X145318452Y-84141888D01*
X145408792Y-84277092D01*
X145523775Y-84392075D01*
X145658979Y-84482415D01*
X145809211Y-84544643D01*
X145968695Y-84576367D01*
X145977475Y-84576367D01*
X146410067Y-85008960D01*
X146429948Y-85033185D01*
X146454172Y-85053065D01*
X146454176Y-85053069D01*
X146526639Y-85112538D01*
X146636953Y-85171502D01*
X146730540Y-85199891D01*
X146723100Y-85237295D01*
X146723100Y-85399905D01*
X146754824Y-85559389D01*
X146817052Y-85709621D01*
X146907392Y-85844825D01*
X147022375Y-85959808D01*
X147157579Y-86050148D01*
X147274457Y-86098561D01*
X147182979Y-86136452D01*
X147047775Y-86226792D01*
X146932792Y-86341775D01*
X146842452Y-86476979D01*
X146780224Y-86627211D01*
X146748500Y-86786695D01*
X146748500Y-86949305D01*
X146780224Y-87108789D01*
X146842452Y-87259021D01*
X146932792Y-87394225D01*
X147047775Y-87509208D01*
X147182979Y-87599548D01*
X147333211Y-87661776D01*
X147492695Y-87693500D01*
X147501475Y-87693500D01*
X147701000Y-87893026D01*
X147701001Y-90399566D01*
X147694792Y-90405775D01*
X147604452Y-90540979D01*
X147542224Y-90691211D01*
X147510500Y-90850695D01*
X147510500Y-91013305D01*
X147542224Y-91172789D01*
X147604452Y-91323021D01*
X147694792Y-91458225D01*
X147809775Y-91573208D01*
X147944979Y-91663548D01*
X148095211Y-91725776D01*
X148254695Y-91757500D01*
X148417305Y-91757500D01*
X148576789Y-91725776D01*
X148717001Y-91667699D01*
X148717001Y-91669566D01*
X148710792Y-91675775D01*
X148620452Y-91810979D01*
X148558224Y-91961211D01*
X148526500Y-92120695D01*
X148526500Y-92283305D01*
X148558224Y-92442789D01*
X148620452Y-92593021D01*
X148710792Y-92728225D01*
X148825775Y-92843208D01*
X148960979Y-92933548D01*
X149111211Y-92995776D01*
X149270695Y-93027500D01*
X149433305Y-93027500D01*
X149542500Y-93005779D01*
X149542500Y-93045305D01*
X149574224Y-93204789D01*
X149636452Y-93355021D01*
X149726792Y-93490225D01*
X149841775Y-93605208D01*
X149976979Y-93695548D01*
X150127211Y-93757776D01*
X150286695Y-93789500D01*
X150449305Y-93789500D01*
X150608789Y-93757776D01*
X150759021Y-93695548D01*
X150894225Y-93605208D01*
X151009208Y-93490225D01*
X151099548Y-93355021D01*
X151161776Y-93204789D01*
X151193500Y-93045305D01*
X151193500Y-92882695D01*
X151161776Y-92723211D01*
X151099548Y-92572979D01*
X151017636Y-92450389D01*
X151393025Y-92075000D01*
X154463193Y-92075000D01*
X154813001Y-92074999D01*
X154813000Y-94209567D01*
X154806792Y-94215775D01*
X154716452Y-94350979D01*
X154654224Y-94501211D01*
X154622500Y-94660695D01*
X154622500Y-94823305D01*
X154654224Y-94982789D01*
X154716452Y-95133021D01*
X154806792Y-95268225D01*
X154921775Y-95383208D01*
X155056979Y-95473548D01*
X155207211Y-95535776D01*
X155366695Y-95567500D01*
X155529305Y-95567500D01*
X155688789Y-95535776D01*
X155839021Y-95473548D01*
X155974225Y-95383208D01*
X156089208Y-95268225D01*
X156179548Y-95133021D01*
X156241776Y-94982789D01*
X156273500Y-94823305D01*
X156273500Y-94660695D01*
X156241776Y-94501211D01*
X156179548Y-94350979D01*
X156089208Y-94215775D01*
X156083000Y-94209567D01*
X156083000Y-93496295D01*
X159063500Y-93496295D01*
X159063500Y-93658905D01*
X159095224Y-93818389D01*
X159157452Y-93968621D01*
X159247792Y-94103825D01*
X159362775Y-94218808D01*
X159497979Y-94309148D01*
X159648211Y-94371376D01*
X159807695Y-94403100D01*
X159970305Y-94403100D01*
X160129789Y-94371376D01*
X160280021Y-94309148D01*
X160415225Y-94218808D01*
X160421433Y-94212600D01*
X171821219Y-94212600D01*
X171852400Y-94215671D01*
X171883581Y-94212600D01*
X171883592Y-94212600D01*
X171976882Y-94203412D01*
X172096580Y-94167102D01*
X172206894Y-94108137D01*
X172285655Y-94043500D01*
X172293305Y-94043500D01*
X172452789Y-94011776D01*
X172603021Y-93949548D01*
X172738225Y-93859208D01*
X172853208Y-93744225D01*
X172943548Y-93609021D01*
X173005776Y-93458789D01*
X173037500Y-93299305D01*
X173037500Y-93136695D01*
X173005776Y-92977211D01*
X172943548Y-92826979D01*
X172853208Y-92691775D01*
X172738225Y-92576792D01*
X172603021Y-92486452D01*
X172452789Y-92424224D01*
X172293305Y-92392500D01*
X172130695Y-92392500D01*
X171971211Y-92424224D01*
X171820979Y-92486452D01*
X171685775Y-92576792D01*
X171570792Y-92691775D01*
X171480452Y-92826979D01*
X171432560Y-92942600D01*
X160421433Y-92942600D01*
X160415225Y-92936392D01*
X160280021Y-92846052D01*
X160129789Y-92783824D01*
X159970305Y-92752100D01*
X159807695Y-92752100D01*
X159648211Y-92783824D01*
X159497979Y-92846052D01*
X159362775Y-92936392D01*
X159247792Y-93051375D01*
X159157452Y-93186579D01*
X159095224Y-93336811D01*
X159063500Y-93496295D01*
X156083000Y-93496295D01*
X156083000Y-92075000D01*
X156947567Y-92075000D01*
X156953775Y-92081208D01*
X157088979Y-92171548D01*
X157239211Y-92233776D01*
X157398695Y-92265500D01*
X157561305Y-92265500D01*
X157720789Y-92233776D01*
X157871021Y-92171548D01*
X158006225Y-92081208D01*
X158012433Y-92075000D01*
X165576819Y-92075000D01*
X165608000Y-92078071D01*
X165639181Y-92075000D01*
X165639192Y-92075000D01*
X165732482Y-92065812D01*
X165852180Y-92029502D01*
X165962494Y-91970537D01*
X166059185Y-91891185D01*
X166079074Y-91866950D01*
X166950525Y-90995500D01*
X166959305Y-90995500D01*
X167118789Y-90963776D01*
X167269021Y-90901548D01*
X167404225Y-90811208D01*
X167519208Y-90696225D01*
X167609548Y-90561021D01*
X167671776Y-90410789D01*
X167703500Y-90251305D01*
X167703500Y-90088695D01*
X167671776Y-89929211D01*
X167609548Y-89778979D01*
X167519208Y-89643775D01*
X167404225Y-89528792D01*
X167269021Y-89438452D01*
X167118789Y-89376224D01*
X166959305Y-89344500D01*
X166796695Y-89344500D01*
X166637211Y-89376224D01*
X166486979Y-89438452D01*
X166351775Y-89528792D01*
X166236792Y-89643775D01*
X166146452Y-89778979D01*
X166084224Y-89929211D01*
X166052500Y-90088695D01*
X166052500Y-90097475D01*
X165344976Y-90805000D01*
X158012433Y-90805000D01*
X158006225Y-90798792D01*
X157871021Y-90708452D01*
X157720789Y-90646224D01*
X157561305Y-90614500D01*
X157398695Y-90614500D01*
X157239211Y-90646224D01*
X157088979Y-90708452D01*
X156953775Y-90798792D01*
X156947567Y-90805000D01*
X155980421Y-90805000D01*
X155974213Y-90798792D01*
X155839009Y-90708452D01*
X155688777Y-90646224D01*
X155529293Y-90614500D01*
X155366683Y-90614500D01*
X155207199Y-90646224D01*
X155056967Y-90708452D01*
X154921763Y-90798792D01*
X154915556Y-90804999D01*
X151860809Y-90804999D01*
X151860799Y-90805000D01*
X151161189Y-90805000D01*
X151130000Y-90801928D01*
X151098811Y-90805000D01*
X151098808Y-90805000D01*
X151005518Y-90814188D01*
X150885823Y-90850497D01*
X150885820Y-90850498D01*
X150775506Y-90909462D01*
X150703043Y-90968931D01*
X150703039Y-90968935D01*
X150678815Y-90988815D01*
X150658934Y-91013040D01*
X149994407Y-91677569D01*
X149993208Y-91675775D01*
X149987000Y-91669567D01*
X149987000Y-91195024D01*
X150631025Y-90551000D01*
X158725567Y-90551000D01*
X158731775Y-90557208D01*
X158866979Y-90647548D01*
X159017211Y-90709776D01*
X159176695Y-90741500D01*
X159339305Y-90741500D01*
X159498789Y-90709776D01*
X159649021Y-90647548D01*
X159784225Y-90557208D01*
X159899208Y-90442225D01*
X159989548Y-90307021D01*
X160051776Y-90156789D01*
X160083500Y-89997305D01*
X160083500Y-89916000D01*
X160899976Y-89916000D01*
X160972496Y-89988520D01*
X160972496Y-89997301D01*
X161004220Y-90156785D01*
X161066448Y-90307017D01*
X161156788Y-90442221D01*
X161271771Y-90557204D01*
X161406975Y-90647544D01*
X161557207Y-90709772D01*
X161716691Y-90741496D01*
X161879301Y-90741496D01*
X162038785Y-90709772D01*
X162189017Y-90647544D01*
X162324221Y-90557204D01*
X162439204Y-90442221D01*
X162529544Y-90307017D01*
X162591116Y-90158368D01*
X162729789Y-90130784D01*
X162880021Y-90068556D01*
X163015225Y-89978216D01*
X163130208Y-89863233D01*
X163220548Y-89728029D01*
X163282776Y-89577797D01*
X163314500Y-89418313D01*
X163314500Y-89255703D01*
X163282776Y-89096219D01*
X163220548Y-88945987D01*
X163130208Y-88810783D01*
X163015225Y-88695800D01*
X162880021Y-88605460D01*
X162729789Y-88543232D01*
X162570305Y-88511508D01*
X162561524Y-88511508D01*
X162269066Y-88219050D01*
X162249177Y-88194815D01*
X162152486Y-88115463D01*
X162042172Y-88056498D01*
X161922474Y-88020188D01*
X161829184Y-88011000D01*
X161829173Y-88011000D01*
X161797992Y-88007929D01*
X161766811Y-88011000D01*
X156488433Y-88011000D01*
X156482225Y-88004792D01*
X156347021Y-87914452D01*
X156196789Y-87852224D01*
X156037305Y-87820500D01*
X155874695Y-87820500D01*
X155715211Y-87852224D01*
X155564979Y-87914452D01*
X155429775Y-88004792D01*
X155314792Y-88119775D01*
X155224452Y-88254979D01*
X155162224Y-88405211D01*
X155130500Y-88564695D01*
X155130500Y-88646000D01*
X154568025Y-88646000D01*
X153733500Y-87811476D01*
X153733500Y-87802695D01*
X153701776Y-87643211D01*
X153639548Y-87492979D01*
X153549208Y-87357775D01*
X153434225Y-87242792D01*
X153299021Y-87152452D01*
X153148789Y-87090224D01*
X152989305Y-87058500D01*
X152826695Y-87058500D01*
X152667211Y-87090224D01*
X152516979Y-87152452D01*
X152381775Y-87242792D01*
X152266792Y-87357775D01*
X152176452Y-87492979D01*
X152114224Y-87643211D01*
X152082500Y-87802695D01*
X152082500Y-87965305D01*
X152114224Y-88124789D01*
X152176452Y-88275021D01*
X152266792Y-88410225D01*
X152381775Y-88525208D01*
X152516979Y-88615548D01*
X152667211Y-88677776D01*
X152826695Y-88709500D01*
X152835476Y-88709500D01*
X153406975Y-89281000D01*
X150399181Y-89281000D01*
X150368000Y-89277929D01*
X150336819Y-89281000D01*
X150336808Y-89281000D01*
X150243518Y-89290188D01*
X150123820Y-89326498D01*
X150013506Y-89385463D01*
X149916815Y-89464815D01*
X149896930Y-89489045D01*
X148978407Y-90407569D01*
X148977208Y-90405775D01*
X148971000Y-90399567D01*
X148971000Y-87661189D01*
X148974072Y-87630000D01*
X148971000Y-87598808D01*
X148961812Y-87505518D01*
X148925502Y-87385820D01*
X148915004Y-87366180D01*
X148866538Y-87275506D01*
X148807069Y-87203043D01*
X148807065Y-87203039D01*
X148787185Y-87178815D01*
X148762961Y-87158935D01*
X148399500Y-86795475D01*
X148399500Y-86786695D01*
X148367776Y-86627211D01*
X148305548Y-86476979D01*
X148215208Y-86341775D01*
X148100225Y-86226792D01*
X147965021Y-86136452D01*
X147848143Y-86088039D01*
X147939621Y-86050148D01*
X148046102Y-85979000D01*
X150851567Y-85979000D01*
X150857775Y-85985208D01*
X150992979Y-86075548D01*
X151143211Y-86137776D01*
X151302695Y-86169500D01*
X151465305Y-86169500D01*
X151624789Y-86137776D01*
X151775021Y-86075548D01*
X151910225Y-85985208D01*
X152025208Y-85870225D01*
X152115548Y-85735021D01*
X152177776Y-85584789D01*
X152209500Y-85425305D01*
X152209500Y-85262695D01*
X152200411Y-85217000D01*
X155529129Y-85217000D01*
X155560310Y-85220071D01*
X155591491Y-85217000D01*
X155591502Y-85217000D01*
X155684792Y-85207812D01*
X155804490Y-85171502D01*
X155914804Y-85112537D01*
X155940740Y-85091252D01*
X155986456Y-85201621D01*
X156076796Y-85336825D01*
X156191779Y-85451808D01*
X156326983Y-85542148D01*
X156477215Y-85604376D01*
X156636699Y-85636100D01*
X156799309Y-85636100D01*
X156958793Y-85604376D01*
X157109025Y-85542148D01*
X157244229Y-85451808D01*
X157250437Y-85445600D01*
X160030498Y-85445600D01*
X160001775Y-85464792D01*
X159886792Y-85579775D01*
X159796452Y-85714979D01*
X159734224Y-85865211D01*
X159702500Y-86024695D01*
X159702500Y-86187305D01*
X159734224Y-86346789D01*
X159796452Y-86497021D01*
X159886792Y-86632225D01*
X160001775Y-86747208D01*
X160136979Y-86837548D01*
X160287211Y-86899776D01*
X160446695Y-86931500D01*
X160609305Y-86931500D01*
X160768789Y-86899776D01*
X160919021Y-86837548D01*
X161054225Y-86747208D01*
X161060433Y-86741000D01*
X164364301Y-86741000D01*
X164306224Y-86881211D01*
X164274500Y-87040695D01*
X164274500Y-87203305D01*
X164306224Y-87362789D01*
X164368452Y-87513021D01*
X164458792Y-87648225D01*
X164573775Y-87763208D01*
X164708979Y-87853548D01*
X164859211Y-87915776D01*
X165018695Y-87947500D01*
X165027476Y-87947500D01*
X165454429Y-88374454D01*
X165474314Y-88398684D01*
X165517023Y-88433734D01*
X165571005Y-88478037D01*
X165659256Y-88525208D01*
X165681319Y-88537001D01*
X165801017Y-88573311D01*
X165894307Y-88582499D01*
X165894310Y-88582499D01*
X165925499Y-88585571D01*
X165956688Y-88582499D01*
X169726475Y-88582499D01*
X173101001Y-91957027D01*
X173101000Y-95733567D01*
X173094792Y-95739775D01*
X173004452Y-95874979D01*
X172942224Y-96025211D01*
X172910500Y-96184695D01*
X172910500Y-96347305D01*
X172942224Y-96506789D01*
X173004452Y-96657021D01*
X173094792Y-96792225D01*
X173209775Y-96907208D01*
X173344979Y-96997548D01*
X173418497Y-97028000D01*
X173344979Y-97058452D01*
X173209775Y-97148792D01*
X173094792Y-97263775D01*
X173004452Y-97398979D01*
X172942224Y-97549211D01*
X172910500Y-97708695D01*
X172910500Y-97871305D01*
X172942224Y-98030789D01*
X173004452Y-98181021D01*
X173094792Y-98316225D01*
X173209775Y-98431208D01*
X173344979Y-98521548D01*
X173495211Y-98583776D01*
X173654695Y-98615500D01*
X173817305Y-98615500D01*
X173976789Y-98583776D01*
X174127021Y-98521548D01*
X174262225Y-98431208D01*
X174377208Y-98316225D01*
X174467548Y-98181021D01*
X174529776Y-98030789D01*
X174561500Y-97871305D01*
X174561500Y-97837125D01*
X174924961Y-97473665D01*
X174949185Y-97453785D01*
X174969065Y-97429561D01*
X174969069Y-97429557D01*
X175028538Y-97357094D01*
X175087502Y-97246780D01*
X175094162Y-97224824D01*
X175123812Y-97127082D01*
X175133000Y-97033792D01*
X175133000Y-97033789D01*
X175136072Y-97002600D01*
X175133000Y-96971411D01*
X175133000Y-96044995D01*
X177990500Y-96044995D01*
X177990500Y-96207605D01*
X178022224Y-96367089D01*
X178084452Y-96517321D01*
X178174792Y-96652525D01*
X178181001Y-96658734D01*
X178181000Y-97486167D01*
X178174792Y-97492375D01*
X178084452Y-97627579D01*
X178022224Y-97777811D01*
X177990500Y-97937295D01*
X177990500Y-98099905D01*
X178022224Y-98259389D01*
X178084452Y-98409621D01*
X178174792Y-98544825D01*
X178289775Y-98659808D01*
X178424979Y-98750148D01*
X178575211Y-98812376D01*
X178734695Y-98844100D01*
X178897305Y-98844100D01*
X179056789Y-98812376D01*
X179207021Y-98750148D01*
X179342225Y-98659808D01*
X179457208Y-98544825D01*
X179547548Y-98409621D01*
X179609776Y-98259389D01*
X179641500Y-98099905D01*
X179641500Y-97937295D01*
X179609776Y-97777811D01*
X179547548Y-97627579D01*
X179457208Y-97492375D01*
X179451000Y-97486167D01*
X179451000Y-96658733D01*
X179457208Y-96652525D01*
X179547548Y-96517321D01*
X179609776Y-96367089D01*
X179641500Y-96207605D01*
X179641500Y-96044995D01*
X179613712Y-95905295D01*
X181038500Y-95905295D01*
X181038500Y-96067905D01*
X181070224Y-96227389D01*
X181132452Y-96377621D01*
X181222792Y-96512825D01*
X181229000Y-96519033D01*
X181229001Y-96978166D01*
X181222792Y-96984375D01*
X181132452Y-97119579D01*
X181070224Y-97269811D01*
X181038500Y-97429295D01*
X181038500Y-97591905D01*
X181070224Y-97751389D01*
X181132452Y-97901621D01*
X181222792Y-98036825D01*
X181337775Y-98151808D01*
X181472979Y-98242148D01*
X181623211Y-98304376D01*
X181782695Y-98336100D01*
X181945305Y-98336100D01*
X182104789Y-98304376D01*
X182255021Y-98242148D01*
X182390225Y-98151808D01*
X182505208Y-98036825D01*
X182595548Y-97901621D01*
X182657776Y-97751389D01*
X182689500Y-97591905D01*
X182689500Y-97429295D01*
X182657776Y-97269811D01*
X182595548Y-97119579D01*
X182505208Y-96984375D01*
X182499000Y-96978167D01*
X182499000Y-96519033D01*
X182505208Y-96512825D01*
X182595548Y-96377621D01*
X182657776Y-96227389D01*
X182689500Y-96067905D01*
X182689500Y-96059125D01*
X182952510Y-95796116D01*
X183554083Y-95796116D01*
X183560291Y-95802324D01*
X183695495Y-95892664D01*
X183845727Y-95954892D01*
X184005211Y-95986616D01*
X184167821Y-95986616D01*
X184327305Y-95954892D01*
X184477537Y-95892664D01*
X184612741Y-95802324D01*
X184727724Y-95687341D01*
X184770667Y-95623071D01*
X194388352Y-95623071D01*
X194443727Y-96139159D01*
X194598721Y-96634526D01*
X194821742Y-97051772D01*
X195188501Y-97267894D01*
X196856395Y-95600000D01*
X195188501Y-93932106D01*
X194821742Y-94148228D01*
X194581062Y-94608105D01*
X194434725Y-95106098D01*
X194388352Y-95623071D01*
X184770667Y-95623071D01*
X184818064Y-95552137D01*
X184880292Y-95401905D01*
X184912016Y-95242421D01*
X184912016Y-95079811D01*
X184880292Y-94920327D01*
X184818064Y-94770095D01*
X184727724Y-94634891D01*
X184612741Y-94519908D01*
X184477537Y-94429568D01*
X184327305Y-94367340D01*
X184167821Y-94335616D01*
X184005211Y-94335616D01*
X183845727Y-94367340D01*
X183695495Y-94429568D01*
X183560291Y-94519908D01*
X183554083Y-94526116D01*
X182720673Y-94526116D01*
X182689484Y-94523044D01*
X182658295Y-94526116D01*
X182658292Y-94526116D01*
X182565002Y-94535304D01*
X182445304Y-94571614D01*
X182334990Y-94630578D01*
X182262527Y-94690047D01*
X182262523Y-94690051D01*
X182238299Y-94709931D01*
X182218418Y-94734156D01*
X181791475Y-95161100D01*
X181782695Y-95161100D01*
X181623211Y-95192824D01*
X181472979Y-95255052D01*
X181337775Y-95345392D01*
X181222792Y-95460375D01*
X181132452Y-95595579D01*
X181070224Y-95745811D01*
X181038500Y-95905295D01*
X179613712Y-95905295D01*
X179609776Y-95885511D01*
X179547548Y-95735279D01*
X179457208Y-95600075D01*
X179342225Y-95485092D01*
X179207021Y-95394752D01*
X179056789Y-95332524D01*
X178897305Y-95300800D01*
X178734695Y-95300800D01*
X178575211Y-95332524D01*
X178424979Y-95394752D01*
X178289775Y-95485092D01*
X178174792Y-95600075D01*
X178084452Y-95735279D01*
X178022224Y-95885511D01*
X177990500Y-96044995D01*
X175133000Y-96044995D01*
X175133000Y-90088695D01*
X176720500Y-90088695D01*
X176720500Y-90251305D01*
X176752224Y-90410789D01*
X176814452Y-90561021D01*
X176904792Y-90696225D01*
X177019775Y-90811208D01*
X177154979Y-90901548D01*
X177305211Y-90963776D01*
X177464695Y-90995500D01*
X177627305Y-90995500D01*
X177786789Y-90963776D01*
X177937021Y-90901548D01*
X178072225Y-90811208D01*
X178078433Y-90805000D01*
X184499819Y-90805000D01*
X184531000Y-90808071D01*
X184562181Y-90805000D01*
X184562192Y-90805000D01*
X184655482Y-90795812D01*
X184775180Y-90759502D01*
X184885494Y-90700537D01*
X184982185Y-90621185D01*
X185002074Y-90596950D01*
X185394880Y-90204145D01*
X185406789Y-90201776D01*
X185557021Y-90139548D01*
X185692225Y-90049208D01*
X185807208Y-89934225D01*
X185897548Y-89799021D01*
X185959776Y-89648789D01*
X185991500Y-89489305D01*
X185991500Y-89326695D01*
X185959776Y-89167211D01*
X185897548Y-89016979D01*
X185807208Y-88881775D01*
X185692225Y-88766792D01*
X185557021Y-88676452D01*
X185406789Y-88614224D01*
X185247305Y-88582500D01*
X185084695Y-88582500D01*
X184925211Y-88614224D01*
X184774979Y-88676452D01*
X184639775Y-88766792D01*
X184524792Y-88881775D01*
X184434452Y-89016979D01*
X184372224Y-89167211D01*
X184340500Y-89326695D01*
X184340500Y-89462475D01*
X184267975Y-89535000D01*
X178078433Y-89535000D01*
X178072225Y-89528792D01*
X177937021Y-89438452D01*
X177786789Y-89376224D01*
X177627305Y-89344500D01*
X177464695Y-89344500D01*
X177305211Y-89376224D01*
X177154979Y-89438452D01*
X177019775Y-89528792D01*
X176904792Y-89643775D01*
X176814452Y-89778979D01*
X176752224Y-89929211D01*
X176720500Y-90088695D01*
X175133000Y-90088695D01*
X175133000Y-89439180D01*
X175136071Y-89407999D01*
X175133000Y-89376818D01*
X175133000Y-89376808D01*
X175123812Y-89283518D01*
X175087502Y-89163820D01*
X175044738Y-89083815D01*
X175028537Y-89053505D01*
X174969068Y-88981042D01*
X174969065Y-88981039D01*
X174949185Y-88956815D01*
X174924960Y-88936934D01*
X174461074Y-88473050D01*
X174441185Y-88448815D01*
X174344494Y-88369463D01*
X174234180Y-88310498D01*
X174114482Y-88274188D01*
X174021192Y-88265000D01*
X174021181Y-88265000D01*
X173990000Y-88261929D01*
X173958819Y-88265000D01*
X172221026Y-88265000D01*
X171456025Y-87500000D01*
X190815543Y-87500000D01*
X190815543Y-89200000D01*
X190825351Y-89299585D01*
X190854399Y-89395343D01*
X190901571Y-89483595D01*
X190965052Y-89560948D01*
X191042405Y-89624429D01*
X191130657Y-89671601D01*
X191226415Y-89700649D01*
X191326000Y-89710457D01*
X191437111Y-89710457D01*
X191310325Y-89795172D01*
X191121172Y-89984325D01*
X190972556Y-90206746D01*
X190870187Y-90453886D01*
X190818000Y-90716249D01*
X190818000Y-90983751D01*
X190870187Y-91246114D01*
X190972556Y-91493254D01*
X191121172Y-91715675D01*
X191310325Y-91904828D01*
X191532746Y-92053444D01*
X191779886Y-92155813D01*
X192042249Y-92208000D01*
X192309751Y-92208000D01*
X192572114Y-92155813D01*
X192819254Y-92053444D01*
X193041675Y-91904828D01*
X193176000Y-91770503D01*
X193310325Y-91904828D01*
X193532746Y-92053444D01*
X193779886Y-92155813D01*
X194042249Y-92208000D01*
X194309751Y-92208000D01*
X194572114Y-92155813D01*
X194819254Y-92053444D01*
X195041675Y-91904828D01*
X195230828Y-91715675D01*
X195379444Y-91493254D01*
X195481813Y-91246114D01*
X195534000Y-90983751D01*
X195534000Y-90716249D01*
X195481813Y-90453886D01*
X195379444Y-90206746D01*
X195230828Y-89984325D01*
X195041675Y-89795172D01*
X194860230Y-89673935D01*
X194947157Y-89627472D01*
X195024792Y-89378397D01*
X194176000Y-88529605D01*
X194161858Y-88543748D01*
X193982253Y-88364143D01*
X193996395Y-88350000D01*
X194355605Y-88350000D01*
X195204397Y-89198792D01*
X195453472Y-89121157D01*
X195579371Y-88857117D01*
X195651339Y-88573589D01*
X195666611Y-88281469D01*
X195624599Y-87991981D01*
X195526919Y-87716253D01*
X195453472Y-87578843D01*
X195204397Y-87501208D01*
X194355605Y-88350000D01*
X193996395Y-88350000D01*
X193982253Y-88335858D01*
X194161858Y-88156253D01*
X194176000Y-88170395D01*
X195024792Y-87321603D01*
X194947157Y-87072528D01*
X194683117Y-86946629D01*
X194399589Y-86874661D01*
X194107469Y-86859389D01*
X193817981Y-86901401D01*
X193542253Y-86999081D01*
X193404843Y-87072528D01*
X193384686Y-87137196D01*
X193309595Y-87075571D01*
X193221343Y-87028399D01*
X193125585Y-86999351D01*
X193026000Y-86989543D01*
X191326000Y-86989543D01*
X191226415Y-86999351D01*
X191130657Y-87028399D01*
X191042405Y-87075571D01*
X190965052Y-87139052D01*
X190901571Y-87216405D01*
X190854399Y-87304657D01*
X190825351Y-87400415D01*
X190815543Y-87500000D01*
X171456025Y-87500000D01*
X170697024Y-86741000D01*
X173958819Y-86741000D01*
X173990000Y-86744071D01*
X174021181Y-86741000D01*
X174021192Y-86741000D01*
X174114482Y-86731812D01*
X174234180Y-86695502D01*
X174344494Y-86636537D01*
X174441185Y-86557185D01*
X174461074Y-86532950D01*
X174507024Y-86487000D01*
X177259402Y-86487000D01*
X177273775Y-86501373D01*
X177408979Y-86591713D01*
X177559211Y-86653941D01*
X177718695Y-86685665D01*
X177881305Y-86685665D01*
X178040789Y-86653941D01*
X178191021Y-86591713D01*
X178326225Y-86501373D01*
X178441208Y-86386390D01*
X178531548Y-86251186D01*
X178593776Y-86100954D01*
X178625500Y-85941470D01*
X178625500Y-85778860D01*
X178593776Y-85619376D01*
X178531548Y-85469144D01*
X178441208Y-85333940D01*
X178326225Y-85218957D01*
X178191021Y-85128617D01*
X178040789Y-85066389D01*
X177881305Y-85034665D01*
X177718695Y-85034665D01*
X177559211Y-85066389D01*
X177408979Y-85128617D01*
X177276704Y-85217000D01*
X174275180Y-85217000D01*
X174243999Y-85213929D01*
X174212818Y-85217000D01*
X174212808Y-85217000D01*
X174119518Y-85226188D01*
X173999820Y-85262498D01*
X173889506Y-85321463D01*
X173792815Y-85400815D01*
X173772926Y-85425050D01*
X173726976Y-85471000D01*
X161060433Y-85471000D01*
X161054225Y-85464792D01*
X161025502Y-85445600D01*
X169412219Y-85445600D01*
X169443400Y-85448671D01*
X169474581Y-85445600D01*
X169474592Y-85445600D01*
X169567882Y-85436412D01*
X169687580Y-85400102D01*
X169797894Y-85341137D01*
X169894585Y-85261785D01*
X169914474Y-85237550D01*
X169998524Y-85153500D01*
X170007305Y-85153500D01*
X170166789Y-85121776D01*
X170317021Y-85059548D01*
X170452225Y-84969208D01*
X170567208Y-84854225D01*
X170657548Y-84719021D01*
X170719776Y-84568789D01*
X170751500Y-84409305D01*
X170751500Y-84246695D01*
X170719776Y-84087211D01*
X170657548Y-83936979D01*
X170567208Y-83801775D01*
X170452225Y-83686792D01*
X170356860Y-83623071D01*
X194388352Y-83623071D01*
X194443727Y-84139159D01*
X194598721Y-84634526D01*
X194821742Y-85051772D01*
X195188501Y-85267894D01*
X196856395Y-83600000D01*
X195188501Y-81932106D01*
X194821742Y-82148228D01*
X194581062Y-82608105D01*
X194434725Y-83106098D01*
X194388352Y-83623071D01*
X170356860Y-83623071D01*
X170317021Y-83596452D01*
X170166789Y-83534224D01*
X170007305Y-83502500D01*
X169844695Y-83502500D01*
X169685211Y-83534224D01*
X169534979Y-83596452D01*
X169399775Y-83686792D01*
X169284792Y-83801775D01*
X169194452Y-83936979D01*
X169132224Y-84087211D01*
X169114642Y-84175600D01*
X165143731Y-84175600D01*
X166194799Y-83124533D01*
X166206406Y-83124533D01*
X166365890Y-83092809D01*
X166516122Y-83030581D01*
X166651326Y-82940241D01*
X166766309Y-82825258D01*
X166856649Y-82690054D01*
X166918877Y-82539822D01*
X166950601Y-82380338D01*
X166950601Y-82217728D01*
X166918877Y-82058244D01*
X166869509Y-81939059D01*
X166896225Y-81921208D01*
X167011208Y-81806225D01*
X167101548Y-81671021D01*
X167163776Y-81520789D01*
X167195500Y-81361305D01*
X167195500Y-81198695D01*
X167163776Y-81039211D01*
X167101548Y-80888979D01*
X167011208Y-80753775D01*
X166896225Y-80638792D01*
X166886512Y-80632302D01*
X172447511Y-80632302D01*
X172478692Y-80635373D01*
X172509873Y-80632302D01*
X172509884Y-80632302D01*
X172603174Y-80623114D01*
X172722872Y-80586804D01*
X172833186Y-80527839D01*
X172929877Y-80448487D01*
X172949766Y-80424252D01*
X173046524Y-80327494D01*
X173055305Y-80327494D01*
X173214789Y-80295770D01*
X173365021Y-80233542D01*
X173414481Y-80200494D01*
X178886917Y-80200494D01*
X178893712Y-80207289D01*
X179042429Y-80306659D01*
X179207674Y-80375106D01*
X179383098Y-80410000D01*
X179561958Y-80410000D01*
X179737382Y-80375106D01*
X179902627Y-80306659D01*
X180051344Y-80207289D01*
X180177817Y-80080816D01*
X180277187Y-79932099D01*
X180345634Y-79766854D01*
X180380528Y-79591430D01*
X180380528Y-79412570D01*
X180345634Y-79237146D01*
X180277187Y-79071901D01*
X180177817Y-78923184D01*
X180051344Y-78796711D01*
X179902627Y-78697341D01*
X179737382Y-78628894D01*
X179561958Y-78594000D01*
X179383098Y-78594000D01*
X179207674Y-78628894D01*
X179042429Y-78697341D01*
X178893712Y-78796711D01*
X178886929Y-78803494D01*
X173414481Y-78803494D01*
X173365021Y-78770446D01*
X173214789Y-78708218D01*
X173055305Y-78676494D01*
X172892695Y-78676494D01*
X172733211Y-78708218D01*
X172582979Y-78770446D01*
X172447775Y-78860786D01*
X172332792Y-78975769D01*
X172242452Y-79110973D01*
X172180224Y-79261205D01*
X172160114Y-79362302D01*
X167188922Y-79362302D01*
X167195486Y-79329305D01*
X167195486Y-79184500D01*
X168221800Y-79184500D01*
X168252289Y-79204872D01*
X168402521Y-79267100D01*
X168562005Y-79298824D01*
X168724615Y-79298824D01*
X168884099Y-79267100D01*
X169034331Y-79204872D01*
X169169535Y-79114532D01*
X169284518Y-78999549D01*
X169374858Y-78864345D01*
X169437086Y-78714113D01*
X169468810Y-78554629D01*
X169468810Y-78392019D01*
X169437576Y-78235000D01*
X188232183Y-78235000D01*
X188078746Y-78298556D01*
X187856325Y-78447172D01*
X187667172Y-78636325D01*
X187518556Y-78858746D01*
X187416187Y-79105886D01*
X187364000Y-79368249D01*
X187364000Y-79635751D01*
X187416187Y-79898114D01*
X187518556Y-80145254D01*
X187667172Y-80367675D01*
X187856325Y-80556828D01*
X188078746Y-80705444D01*
X188325886Y-80807813D01*
X188588249Y-80860000D01*
X188855751Y-80860000D01*
X189118114Y-80807813D01*
X189365254Y-80705444D01*
X189587675Y-80556828D01*
X189775593Y-80368910D01*
X189786188Y-80476482D01*
X189822498Y-80596180D01*
X189881463Y-80706494D01*
X189960815Y-80803185D01*
X190057506Y-80882537D01*
X190167820Y-80941502D01*
X190287518Y-80977812D01*
X190412000Y-80990072D01*
X190976250Y-80987000D01*
X191135000Y-80828250D01*
X191135000Y-79629000D01*
X191389000Y-79629000D01*
X191389000Y-80828250D01*
X191547750Y-80987000D01*
X192112000Y-80990072D01*
X192236482Y-80977812D01*
X192356180Y-80941502D01*
X192466494Y-80882537D01*
X192563185Y-80803185D01*
X192642537Y-80706494D01*
X192701502Y-80596180D01*
X192737812Y-80476482D01*
X192750072Y-80352000D01*
X192747000Y-79787750D01*
X192588250Y-79629000D01*
X191389000Y-79629000D01*
X191135000Y-79629000D01*
X191115000Y-79629000D01*
X191115000Y-79375000D01*
X191135000Y-79375000D01*
X191135000Y-79355000D01*
X191389000Y-79355000D01*
X191389000Y-79375000D01*
X192588250Y-79375000D01*
X192747000Y-79216250D01*
X192750072Y-78652000D01*
X192737812Y-78527518D01*
X192701502Y-78407820D01*
X192642537Y-78297506D01*
X192591240Y-78235000D01*
X198505001Y-78235000D01*
X198505001Y-81414979D01*
X198487772Y-81385742D01*
X198027895Y-81145062D01*
X197529902Y-80998725D01*
X197012929Y-80952352D01*
X196496841Y-81007727D01*
X196001474Y-81162721D01*
X195584228Y-81385742D01*
X195368106Y-81752501D01*
X197036000Y-83420395D01*
X197050143Y-83406253D01*
X197229748Y-83585858D01*
X197215605Y-83600000D01*
X197229748Y-83614143D01*
X197050143Y-83793748D01*
X197036000Y-83779605D01*
X195368106Y-85447499D01*
X195584228Y-85814258D01*
X196044105Y-86054938D01*
X196542098Y-86201275D01*
X197059071Y-86247648D01*
X197575159Y-86192273D01*
X198070526Y-86037279D01*
X198487772Y-85814258D01*
X198505001Y-85785021D01*
X198505000Y-93414978D01*
X198487772Y-93385742D01*
X198027895Y-93145062D01*
X197529902Y-92998725D01*
X197012929Y-92952352D01*
X196496841Y-93007727D01*
X196001474Y-93162721D01*
X195584228Y-93385742D01*
X195368106Y-93752501D01*
X197036000Y-95420395D01*
X197050143Y-95406253D01*
X197229748Y-95585858D01*
X197215605Y-95600000D01*
X197229748Y-95614143D01*
X197050143Y-95793748D01*
X197036000Y-95779605D01*
X195368106Y-97447499D01*
X195584228Y-97814258D01*
X196044105Y-98054938D01*
X196542098Y-98201275D01*
X197059071Y-98247648D01*
X197575159Y-98192273D01*
X198070526Y-98037279D01*
X198487772Y-97814258D01*
X198505000Y-97785022D01*
X198505000Y-100965000D01*
X196302231Y-100965000D01*
X196306072Y-100926000D01*
X196303000Y-100361750D01*
X196144250Y-100203000D01*
X194945000Y-100203000D01*
X194945000Y-100223000D01*
X194691000Y-100223000D01*
X194691000Y-100203000D01*
X193491750Y-100203000D01*
X193333000Y-100361750D01*
X193329928Y-100926000D01*
X193333769Y-100965000D01*
X170075746Y-100965000D01*
X170131501Y-100897062D01*
X170239029Y-100695891D01*
X170305245Y-100477607D01*
X170322000Y-100307488D01*
X170322000Y-99793711D01*
X170305245Y-99623592D01*
X170239029Y-99405308D01*
X170143188Y-99226000D01*
X193329928Y-99226000D01*
X193333000Y-99790250D01*
X193491750Y-99949000D01*
X194691000Y-99949000D01*
X194691000Y-98749750D01*
X194945000Y-98749750D01*
X194945000Y-99949000D01*
X196144250Y-99949000D01*
X196303000Y-99790250D01*
X196306072Y-99226000D01*
X196293812Y-99101518D01*
X196257502Y-98981820D01*
X196198537Y-98871506D01*
X196119185Y-98774815D01*
X196022494Y-98695463D01*
X195912180Y-98636498D01*
X195792482Y-98600188D01*
X195668000Y-98587928D01*
X195103750Y-98591000D01*
X194945000Y-98749750D01*
X194691000Y-98749750D01*
X194532250Y-98591000D01*
X193968000Y-98587928D01*
X193843518Y-98600188D01*
X193723820Y-98636498D01*
X193613506Y-98695463D01*
X193516815Y-98774815D01*
X193437463Y-98871506D01*
X193378498Y-98981820D01*
X193342188Y-99101518D01*
X193329928Y-99226000D01*
X170143188Y-99226000D01*
X170131501Y-99204137D01*
X169986792Y-99027808D01*
X169810462Y-98883099D01*
X169609291Y-98775571D01*
X169391007Y-98709355D01*
X169164000Y-98686997D01*
X168936992Y-98709355D01*
X168718708Y-98775571D01*
X168517537Y-98883099D01*
X168341208Y-99027808D01*
X168196499Y-99204138D01*
X168088971Y-99405309D01*
X168022755Y-99623593D01*
X168006000Y-99793712D01*
X168006000Y-100307489D01*
X168022755Y-100477608D01*
X168088971Y-100695892D01*
X168196500Y-100897063D01*
X168252254Y-100965000D01*
X167535746Y-100965000D01*
X167591501Y-100897062D01*
X167699029Y-100695891D01*
X167765245Y-100477607D01*
X167782000Y-100307488D01*
X167782000Y-99793711D01*
X167765245Y-99623592D01*
X167699029Y-99405308D01*
X167591501Y-99204137D01*
X167446792Y-99027808D01*
X167270462Y-98883099D01*
X167069291Y-98775571D01*
X166851007Y-98709355D01*
X166624000Y-98686997D01*
X166396992Y-98709355D01*
X166178708Y-98775571D01*
X165977537Y-98883099D01*
X165801208Y-99027808D01*
X165656499Y-99204138D01*
X165548971Y-99405309D01*
X165482755Y-99623593D01*
X165466000Y-99793712D01*
X165466000Y-100307489D01*
X165482755Y-100477608D01*
X165548971Y-100695892D01*
X165656500Y-100897063D01*
X165712254Y-100965000D01*
X164995746Y-100965000D01*
X165051501Y-100897062D01*
X165159029Y-100695891D01*
X165225245Y-100477607D01*
X165242000Y-100307488D01*
X165242000Y-99793711D01*
X165225245Y-99623592D01*
X165159029Y-99405308D01*
X165051501Y-99204137D01*
X164906792Y-99027808D01*
X164730462Y-98883099D01*
X164529291Y-98775571D01*
X164311007Y-98709355D01*
X164084000Y-98686997D01*
X163856992Y-98709355D01*
X163638708Y-98775571D01*
X163437537Y-98883099D01*
X163261208Y-99027808D01*
X163116499Y-99204138D01*
X163008971Y-99405309D01*
X162942755Y-99623593D01*
X162926000Y-99793712D01*
X162926000Y-100307489D01*
X162942755Y-100477608D01*
X163008971Y-100695892D01*
X163116500Y-100897063D01*
X163172254Y-100965000D01*
X162611450Y-100965000D01*
X162680854Y-100861648D01*
X162778219Y-100628118D01*
X162828154Y-100380080D01*
X162673849Y-100177600D01*
X161671000Y-100177600D01*
X161671000Y-100197600D01*
X161417000Y-100197600D01*
X161417000Y-100177600D01*
X160414151Y-100177600D01*
X160259846Y-100380080D01*
X160309781Y-100628118D01*
X160407146Y-100861648D01*
X160476550Y-100965000D01*
X159915746Y-100965000D01*
X159971501Y-100897062D01*
X160079029Y-100695891D01*
X160145245Y-100477607D01*
X160162000Y-100307488D01*
X160162000Y-99793711D01*
X160154851Y-99721120D01*
X160259846Y-99721120D01*
X160414151Y-99923600D01*
X161417000Y-99923600D01*
X161417000Y-98731533D01*
X161671000Y-98731533D01*
X161671000Y-99923600D01*
X162673849Y-99923600D01*
X162828154Y-99721120D01*
X162778219Y-99473082D01*
X162680854Y-99239552D01*
X162539800Y-99029504D01*
X162360478Y-98851010D01*
X162149779Y-98710930D01*
X161915801Y-98614647D01*
X161869471Y-98607501D01*
X161671000Y-98731533D01*
X161417000Y-98731533D01*
X161218529Y-98607501D01*
X161172199Y-98614647D01*
X160938221Y-98710930D01*
X160727522Y-98851010D01*
X160548200Y-99029504D01*
X160407146Y-99239552D01*
X160309781Y-99473082D01*
X160259846Y-99721120D01*
X160154851Y-99721120D01*
X160145245Y-99623592D01*
X160079029Y-99405308D01*
X159971501Y-99204137D01*
X159826792Y-99027808D01*
X159650462Y-98883099D01*
X159449291Y-98775571D01*
X159231007Y-98709355D01*
X159004000Y-98686997D01*
X158776992Y-98709355D01*
X158558708Y-98775571D01*
X158357537Y-98883099D01*
X158181208Y-99027808D01*
X158036499Y-99204138D01*
X157928971Y-99405309D01*
X157862755Y-99623593D01*
X157846000Y-99793712D01*
X157846000Y-100307489D01*
X157862755Y-100477608D01*
X157928971Y-100695892D01*
X158036500Y-100897063D01*
X158092254Y-100965000D01*
X157618114Y-100965000D01*
X157624457Y-100900600D01*
X157624457Y-99200600D01*
X157614649Y-99101015D01*
X157585601Y-99005257D01*
X157538429Y-98917005D01*
X157474948Y-98839652D01*
X157397595Y-98776171D01*
X157309343Y-98728999D01*
X157213585Y-98699951D01*
X157114000Y-98690143D01*
X155814000Y-98690143D01*
X155714415Y-98699951D01*
X155618657Y-98728999D01*
X155530405Y-98776171D01*
X155453052Y-98839652D01*
X155389571Y-98917005D01*
X155342399Y-99005257D01*
X155313351Y-99101015D01*
X155303543Y-99200600D01*
X155303543Y-100900600D01*
X155309886Y-100965000D01*
X147583024Y-100965000D01*
X147900525Y-100647500D01*
X147909305Y-100647500D01*
X148068789Y-100615776D01*
X148219021Y-100553548D01*
X148354225Y-100463208D01*
X148469208Y-100348225D01*
X148559548Y-100213021D01*
X148621776Y-100062789D01*
X148653500Y-99903305D01*
X148653500Y-99740695D01*
X148621776Y-99581211D01*
X148559548Y-99430979D01*
X148469208Y-99295775D01*
X148354225Y-99180792D01*
X148219021Y-99090452D01*
X148068789Y-99028224D01*
X147909305Y-98996500D01*
X147746695Y-98996500D01*
X147587211Y-99028224D01*
X147436979Y-99090452D01*
X147301775Y-99180792D01*
X147186792Y-99295775D01*
X147096452Y-99430979D01*
X147034224Y-99581211D01*
X147002500Y-99740695D01*
X147002500Y-99749475D01*
X146574376Y-100177600D01*
X145576880Y-100177600D01*
X145640474Y-100155172D01*
X145783975Y-100078468D01*
X145864635Y-99826840D01*
X144998000Y-98960205D01*
X144131365Y-99826840D01*
X144212025Y-100078468D01*
X144419172Y-100177600D01*
X134908880Y-100177600D01*
X134972474Y-100155172D01*
X135115975Y-100078468D01*
X135196635Y-99826840D01*
X134330000Y-98960205D01*
X133463365Y-99826840D01*
X133544025Y-100078468D01*
X133751172Y-100177600D01*
X124342480Y-100177600D01*
X124406074Y-100155172D01*
X124549575Y-100078468D01*
X124630235Y-99826840D01*
X123763600Y-98960205D01*
X122896965Y-99826840D01*
X122977625Y-100078468D01*
X123184772Y-100177600D01*
X116061626Y-100177600D01*
X114960400Y-99076375D01*
X114960400Y-98969939D01*
X114925260Y-98793279D01*
X114856330Y-98626869D01*
X114756261Y-98477104D01*
X114628896Y-98349739D01*
X114479131Y-98249670D01*
X114312721Y-98180740D01*
X114136061Y-98145600D01*
X113955939Y-98145600D01*
X113779279Y-98180740D01*
X113612869Y-98249670D01*
X113463104Y-98349739D01*
X113335739Y-98477104D01*
X113235670Y-98626869D01*
X113166740Y-98793279D01*
X113131600Y-98969939D01*
X113131600Y-99150061D01*
X113166740Y-99326721D01*
X113235670Y-99493131D01*
X113335739Y-99642896D01*
X113463104Y-99770261D01*
X113612869Y-99870330D01*
X113779279Y-99939260D01*
X113955939Y-99974400D01*
X114062375Y-99974400D01*
X115052974Y-100965000D01*
X104775000Y-100965000D01*
X104775000Y-96137150D01*
X116445600Y-96137150D01*
X116445600Y-96444050D01*
X116505474Y-96745052D01*
X116622919Y-97028590D01*
X116793423Y-97283767D01*
X117010433Y-97500777D01*
X117265610Y-97671281D01*
X117549148Y-97788726D01*
X117850150Y-97848600D01*
X118157050Y-97848600D01*
X118260276Y-97828067D01*
X118189354Y-97898989D01*
X118038001Y-98125504D01*
X117933748Y-98377194D01*
X117880600Y-98644386D01*
X117880600Y-98916814D01*
X117933748Y-99184006D01*
X118038001Y-99435696D01*
X118189354Y-99662211D01*
X118381989Y-99854846D01*
X118608504Y-100006199D01*
X118860194Y-100110452D01*
X119127386Y-100163600D01*
X119399814Y-100163600D01*
X119667006Y-100110452D01*
X119918696Y-100006199D01*
X120145211Y-99854846D01*
X120337846Y-99662211D01*
X120489199Y-99435696D01*
X120593452Y-99184006D01*
X120646600Y-98916814D01*
X120646600Y-98848143D01*
X122247796Y-98848143D01*
X122290099Y-99142563D01*
X122389028Y-99423074D01*
X122465732Y-99566575D01*
X122717360Y-99647235D01*
X123583995Y-98780600D01*
X122717360Y-97913965D01*
X122465732Y-97994625D01*
X122337333Y-98262929D01*
X122263745Y-98551126D01*
X122247796Y-98848143D01*
X120646600Y-98848143D01*
X120646600Y-98644386D01*
X120593452Y-98377194D01*
X120489199Y-98125504D01*
X120337846Y-97898989D01*
X120173217Y-97734360D01*
X122896965Y-97734360D01*
X123763600Y-98600995D01*
X123777743Y-98586853D01*
X123957348Y-98766458D01*
X123943205Y-98780600D01*
X124809840Y-99647235D01*
X125061468Y-99566575D01*
X125189867Y-99298271D01*
X125263455Y-99010074D01*
X125279404Y-98713057D01*
X125237101Y-98418637D01*
X125138172Y-98138126D01*
X125061468Y-97994625D01*
X124809842Y-97913966D01*
X124875208Y-97848600D01*
X125167050Y-97848600D01*
X125468052Y-97788726D01*
X125751590Y-97671281D01*
X126006767Y-97500777D01*
X126223777Y-97283767D01*
X126394281Y-97028590D01*
X126511726Y-96745052D01*
X126571600Y-96444050D01*
X126571600Y-96137150D01*
X127012000Y-96137150D01*
X127012000Y-96444050D01*
X127071874Y-96745052D01*
X127189319Y-97028590D01*
X127359823Y-97283767D01*
X127576833Y-97500777D01*
X127832010Y-97671281D01*
X128115548Y-97788726D01*
X128416550Y-97848600D01*
X128723450Y-97848600D01*
X128826676Y-97828067D01*
X128755754Y-97898989D01*
X128604401Y-98125504D01*
X128500148Y-98377194D01*
X128447000Y-98644386D01*
X128447000Y-98916814D01*
X128500148Y-99184006D01*
X128604401Y-99435696D01*
X128755754Y-99662211D01*
X128948389Y-99854846D01*
X129174904Y-100006199D01*
X129426594Y-100110452D01*
X129693786Y-100163600D01*
X129966214Y-100163600D01*
X130233406Y-100110452D01*
X130485096Y-100006199D01*
X130711611Y-99854846D01*
X130904246Y-99662211D01*
X131055599Y-99435696D01*
X131159852Y-99184006D01*
X131213000Y-98916814D01*
X131213000Y-98848143D01*
X132814196Y-98848143D01*
X132856499Y-99142563D01*
X132955428Y-99423074D01*
X133032132Y-99566575D01*
X133283760Y-99647235D01*
X134150395Y-98780600D01*
X133283760Y-97913965D01*
X133032132Y-97994625D01*
X132903733Y-98262929D01*
X132830145Y-98551126D01*
X132814196Y-98848143D01*
X131213000Y-98848143D01*
X131213000Y-98644386D01*
X131159852Y-98377194D01*
X131055599Y-98125504D01*
X130904246Y-97898989D01*
X130739617Y-97734360D01*
X133463365Y-97734360D01*
X134330000Y-98600995D01*
X134344143Y-98586853D01*
X134523748Y-98766458D01*
X134509605Y-98780600D01*
X135376240Y-99647235D01*
X135627868Y-99566575D01*
X135756267Y-99298271D01*
X135829855Y-99010074D01*
X135845804Y-98713057D01*
X135803501Y-98418637D01*
X135704572Y-98138126D01*
X135627868Y-97994625D01*
X135376242Y-97913966D01*
X135441608Y-97848600D01*
X135733450Y-97848600D01*
X136034452Y-97788726D01*
X136317990Y-97671281D01*
X136573167Y-97500777D01*
X136790177Y-97283767D01*
X136960681Y-97028590D01*
X137078126Y-96745052D01*
X137138000Y-96444050D01*
X137138000Y-96137150D01*
X137680000Y-96137150D01*
X137680000Y-96444050D01*
X137739874Y-96745052D01*
X137857319Y-97028590D01*
X138027823Y-97283767D01*
X138244833Y-97500777D01*
X138500010Y-97671281D01*
X138783548Y-97788726D01*
X139084550Y-97848600D01*
X139391450Y-97848600D01*
X139494676Y-97828067D01*
X139423754Y-97898989D01*
X139272401Y-98125504D01*
X139168148Y-98377194D01*
X139115000Y-98644386D01*
X139115000Y-98916814D01*
X139168148Y-99184006D01*
X139272401Y-99435696D01*
X139423754Y-99662211D01*
X139616389Y-99854846D01*
X139842904Y-100006199D01*
X140094594Y-100110452D01*
X140361786Y-100163600D01*
X140634214Y-100163600D01*
X140901406Y-100110452D01*
X141153096Y-100006199D01*
X141379611Y-99854846D01*
X141572246Y-99662211D01*
X141723599Y-99435696D01*
X141827852Y-99184006D01*
X141881000Y-98916814D01*
X141881000Y-98848143D01*
X143482196Y-98848143D01*
X143524499Y-99142563D01*
X143623428Y-99423074D01*
X143700132Y-99566575D01*
X143951760Y-99647235D01*
X144818395Y-98780600D01*
X143951760Y-97913965D01*
X143700132Y-97994625D01*
X143571733Y-98262929D01*
X143498145Y-98551126D01*
X143482196Y-98848143D01*
X141881000Y-98848143D01*
X141881000Y-98644386D01*
X141827852Y-98377194D01*
X141723599Y-98125504D01*
X141572246Y-97898989D01*
X141407617Y-97734360D01*
X144131365Y-97734360D01*
X144998000Y-98600995D01*
X145012143Y-98586853D01*
X145191748Y-98766458D01*
X145177605Y-98780600D01*
X146044240Y-99647235D01*
X146295868Y-99566575D01*
X146424267Y-99298271D01*
X146497855Y-99010074D01*
X146513804Y-98713057D01*
X146471501Y-98418637D01*
X146372572Y-98138126D01*
X146295868Y-97994625D01*
X146044242Y-97913966D01*
X146109608Y-97848600D01*
X146401450Y-97848600D01*
X146702452Y-97788726D01*
X146985990Y-97671281D01*
X147241167Y-97500777D01*
X147458177Y-97283767D01*
X147628681Y-97028590D01*
X147746126Y-96745052D01*
X147806000Y-96444050D01*
X147806000Y-96137150D01*
X147746126Y-95836148D01*
X147628681Y-95552610D01*
X147458177Y-95297433D01*
X147241167Y-95080423D01*
X146985990Y-94909919D01*
X146702452Y-94792474D01*
X146401450Y-94732600D01*
X146094550Y-94732600D01*
X145793548Y-94792474D01*
X145510010Y-94909919D01*
X145254833Y-95080423D01*
X145037823Y-95297433D01*
X144867319Y-95552610D01*
X144749874Y-95836148D01*
X144690000Y-96137150D01*
X144690000Y-96444050D01*
X144749874Y-96745052D01*
X144867319Y-97028590D01*
X145028671Y-97270070D01*
X144930457Y-97264796D01*
X144636037Y-97307099D01*
X144355526Y-97406028D01*
X144212025Y-97482732D01*
X144131365Y-97734360D01*
X141407617Y-97734360D01*
X141379611Y-97706354D01*
X141153096Y-97555001D01*
X140901406Y-97450748D01*
X140634214Y-97397600D01*
X140361786Y-97397600D01*
X140327530Y-97404414D01*
X140448177Y-97283767D01*
X140618681Y-97028590D01*
X140736126Y-96745052D01*
X140796000Y-96444050D01*
X140796000Y-96137150D01*
X140736126Y-95836148D01*
X140618681Y-95552610D01*
X140448177Y-95297433D01*
X140231167Y-95080423D01*
X139975990Y-94909919D01*
X139692452Y-94792474D01*
X139391450Y-94732600D01*
X139084550Y-94732600D01*
X138783548Y-94792474D01*
X138500010Y-94909919D01*
X138244833Y-95080423D01*
X138027823Y-95297433D01*
X137857319Y-95552610D01*
X137739874Y-95836148D01*
X137680000Y-96137150D01*
X137138000Y-96137150D01*
X137078126Y-95836148D01*
X136960681Y-95552610D01*
X136790177Y-95297433D01*
X136573167Y-95080423D01*
X136317990Y-94909919D01*
X136034452Y-94792474D01*
X135733450Y-94732600D01*
X135426550Y-94732600D01*
X135125548Y-94792474D01*
X134842010Y-94909919D01*
X134586833Y-95080423D01*
X134369823Y-95297433D01*
X134199319Y-95552610D01*
X134081874Y-95836148D01*
X134022000Y-96137150D01*
X134022000Y-96444050D01*
X134081874Y-96745052D01*
X134199319Y-97028590D01*
X134360671Y-97270070D01*
X134262457Y-97264796D01*
X133968037Y-97307099D01*
X133687526Y-97406028D01*
X133544025Y-97482732D01*
X133463365Y-97734360D01*
X130739617Y-97734360D01*
X130711611Y-97706354D01*
X130485096Y-97555001D01*
X130233406Y-97450748D01*
X129966214Y-97397600D01*
X129693786Y-97397600D01*
X129659530Y-97404414D01*
X129780177Y-97283767D01*
X129950681Y-97028590D01*
X130068126Y-96745052D01*
X130128000Y-96444050D01*
X130128000Y-96137150D01*
X130068126Y-95836148D01*
X129950681Y-95552610D01*
X129780177Y-95297433D01*
X129563167Y-95080423D01*
X129307990Y-94909919D01*
X129024452Y-94792474D01*
X128723450Y-94732600D01*
X128416550Y-94732600D01*
X128115548Y-94792474D01*
X127832010Y-94909919D01*
X127576833Y-95080423D01*
X127359823Y-95297433D01*
X127189319Y-95552610D01*
X127071874Y-95836148D01*
X127012000Y-96137150D01*
X126571600Y-96137150D01*
X126511726Y-95836148D01*
X126394281Y-95552610D01*
X126223777Y-95297433D01*
X126006767Y-95080423D01*
X125751590Y-94909919D01*
X125468052Y-94792474D01*
X125167050Y-94732600D01*
X124860150Y-94732600D01*
X124559148Y-94792474D01*
X124275610Y-94909919D01*
X124020433Y-95080423D01*
X123803423Y-95297433D01*
X123632919Y-95552610D01*
X123515474Y-95836148D01*
X123455600Y-96137150D01*
X123455600Y-96444050D01*
X123515474Y-96745052D01*
X123632919Y-97028590D01*
X123794271Y-97270070D01*
X123696057Y-97264796D01*
X123401637Y-97307099D01*
X123121126Y-97406028D01*
X122977625Y-97482732D01*
X122896965Y-97734360D01*
X120173217Y-97734360D01*
X120145211Y-97706354D01*
X119918696Y-97555001D01*
X119667006Y-97450748D01*
X119399814Y-97397600D01*
X119127386Y-97397600D01*
X119093130Y-97404414D01*
X119213777Y-97283767D01*
X119384281Y-97028590D01*
X119501726Y-96745052D01*
X119561600Y-96444050D01*
X119561600Y-96137150D01*
X119501726Y-95836148D01*
X119384281Y-95552610D01*
X119213777Y-95297433D01*
X118996767Y-95080423D01*
X118741590Y-94909919D01*
X118458052Y-94792474D01*
X118157050Y-94732600D01*
X117850150Y-94732600D01*
X117549148Y-94792474D01*
X117265610Y-94909919D01*
X117010433Y-95080423D01*
X116793423Y-95297433D01*
X116622919Y-95552610D01*
X116505474Y-95836148D01*
X116445600Y-96137150D01*
X104775000Y-96137150D01*
X104775000Y-94152695D01*
X105092500Y-94152695D01*
X105092500Y-94315305D01*
X105124224Y-94474789D01*
X105186452Y-94625021D01*
X105276792Y-94760225D01*
X105391775Y-94875208D01*
X105526979Y-94965548D01*
X105677211Y-95027776D01*
X105836695Y-95059500D01*
X105999305Y-95059500D01*
X106158789Y-95027776D01*
X106309021Y-94965548D01*
X106415502Y-94894400D01*
X115029561Y-94894400D01*
X115062000Y-94897595D01*
X115094439Y-94894400D01*
X115191461Y-94884844D01*
X115315947Y-94847082D01*
X115430674Y-94785759D01*
X115531233Y-94703233D01*
X115551918Y-94678028D01*
X116014029Y-94215917D01*
X116039233Y-94195233D01*
X116121759Y-94094674D01*
X116183082Y-93979947D01*
X116220844Y-93855461D01*
X116230400Y-93758439D01*
X116230400Y-93758438D01*
X116233595Y-93726001D01*
X116230400Y-93693562D01*
X116230400Y-92953502D01*
X116301548Y-92847021D01*
X116363776Y-92696789D01*
X116395500Y-92537305D01*
X116395500Y-92374695D01*
X116363776Y-92215211D01*
X116301548Y-92064979D01*
X116211208Y-91929775D01*
X116096225Y-91814792D01*
X115961021Y-91724452D01*
X115810789Y-91662224D01*
X115651305Y-91630500D01*
X115488695Y-91630500D01*
X115329211Y-91662224D01*
X115178979Y-91724452D01*
X115043775Y-91814792D01*
X114928792Y-91929775D01*
X114838452Y-92064979D01*
X114776224Y-92215211D01*
X114744500Y-92374695D01*
X114744500Y-92537305D01*
X114776224Y-92696789D01*
X114838452Y-92847021D01*
X114909601Y-92953503D01*
X114909600Y-93452454D01*
X114788454Y-93573600D01*
X106415502Y-93573600D01*
X106309021Y-93502452D01*
X106158789Y-93440224D01*
X105999305Y-93408500D01*
X105836695Y-93408500D01*
X105677211Y-93440224D01*
X105526979Y-93502452D01*
X105391775Y-93592792D01*
X105276792Y-93707775D01*
X105186452Y-93842979D01*
X105124224Y-93993211D01*
X105092500Y-94152695D01*
X104775000Y-94152695D01*
X104775000Y-92583000D01*
X113284000Y-92583000D01*
X113308776Y-92580560D01*
X113332601Y-92573333D01*
X113354557Y-92561597D01*
X113373803Y-92545803D01*
X113389597Y-92526557D01*
X113401333Y-92504601D01*
X113408560Y-92480776D01*
X113411000Y-92456000D01*
X113411000Y-88818695D01*
X122364500Y-88818695D01*
X122364500Y-88981305D01*
X122396224Y-89140789D01*
X122458452Y-89291021D01*
X122548792Y-89426225D01*
X122663775Y-89541208D01*
X122798979Y-89631548D01*
X122949211Y-89693776D01*
X123108695Y-89725500D01*
X123271305Y-89725500D01*
X123430789Y-89693776D01*
X123581021Y-89631548D01*
X123716225Y-89541208D01*
X123722433Y-89535000D01*
X128753567Y-89535000D01*
X128759775Y-89541208D01*
X128894979Y-89631548D01*
X129045211Y-89693776D01*
X129204695Y-89725500D01*
X129367305Y-89725500D01*
X129526789Y-89693776D01*
X129677021Y-89631548D01*
X129812225Y-89541208D01*
X129818433Y-89535000D01*
X137135567Y-89535000D01*
X137141775Y-89541208D01*
X137276979Y-89631548D01*
X137427211Y-89693776D01*
X137586695Y-89725500D01*
X137749305Y-89725500D01*
X137908789Y-89693776D01*
X138059021Y-89631548D01*
X138194225Y-89541208D01*
X138309208Y-89426225D01*
X138399548Y-89291021D01*
X138461776Y-89140789D01*
X138493500Y-88981305D01*
X138493500Y-88818695D01*
X138461776Y-88659211D01*
X138399548Y-88508979D01*
X138309208Y-88373775D01*
X138194225Y-88258792D01*
X138059021Y-88168452D01*
X137908789Y-88106224D01*
X137749305Y-88074500D01*
X137586695Y-88074500D01*
X137427211Y-88106224D01*
X137276979Y-88168452D01*
X137141775Y-88258792D01*
X137135567Y-88265000D01*
X129818433Y-88265000D01*
X129812225Y-88258792D01*
X129677021Y-88168452D01*
X129526789Y-88106224D01*
X129367305Y-88074500D01*
X129204695Y-88074500D01*
X129045211Y-88106224D01*
X128894979Y-88168452D01*
X128759775Y-88258792D01*
X128753567Y-88265000D01*
X123722433Y-88265000D01*
X123716225Y-88258792D01*
X123581021Y-88168452D01*
X123430789Y-88106224D01*
X123271305Y-88074500D01*
X123108695Y-88074500D01*
X122949211Y-88106224D01*
X122798979Y-88168452D01*
X122663775Y-88258792D01*
X122548792Y-88373775D01*
X122458452Y-88508979D01*
X122396224Y-88659211D01*
X122364500Y-88818695D01*
X113411000Y-88818695D01*
X113411000Y-86868000D01*
X113408560Y-86843224D01*
X113401333Y-86819399D01*
X113389597Y-86797443D01*
X113373803Y-86778197D01*
X113354557Y-86762403D01*
X113332601Y-86750667D01*
X113308776Y-86743440D01*
X113284000Y-86741000D01*
X104775000Y-86741000D01*
X104775000Y-78235000D01*
X115087150Y-78235000D01*
X114879542Y-78442608D01*
%TA.AperFunction,Conductor*%
D25*
G36*
X114879542Y-78442608D02*
G01*
X114821200Y-78454213D01*
X114670968Y-78516441D01*
X114535764Y-78606781D01*
X114420781Y-78721764D01*
X114330441Y-78856968D01*
X114268213Y-79007200D01*
X114236489Y-79166684D01*
X114236489Y-79329294D01*
X114268213Y-79488778D01*
X114330441Y-79639010D01*
X114420781Y-79774214D01*
X114535764Y-79889197D01*
X114670968Y-79979537D01*
X114821200Y-80041765D01*
X114980684Y-80073489D01*
X115143294Y-80073489D01*
X115302778Y-80041765D01*
X115453010Y-79979537D01*
X115588214Y-79889197D01*
X115703197Y-79774214D01*
X115793537Y-79639010D01*
X115855765Y-79488778D01*
X115867370Y-79430436D01*
X116113306Y-79184500D01*
X117529475Y-79184500D01*
X116767475Y-79946500D01*
X116758695Y-79946500D01*
X116599211Y-79978224D01*
X116448979Y-80040452D01*
X116313775Y-80130792D01*
X116198792Y-80245775D01*
X116108452Y-80380979D01*
X116046224Y-80531211D01*
X116014500Y-80690695D01*
X116014500Y-80853305D01*
X116046224Y-81012789D01*
X116108452Y-81163021D01*
X116198792Y-81298225D01*
X116313775Y-81413208D01*
X116448979Y-81503548D01*
X116599211Y-81565776D01*
X116758695Y-81597500D01*
X116921305Y-81597500D01*
X117080789Y-81565776D01*
X117231021Y-81503548D01*
X117366225Y-81413208D01*
X117481208Y-81298225D01*
X117571548Y-81163021D01*
X117633776Y-81012789D01*
X117665500Y-80853305D01*
X117665500Y-80844525D01*
X118627026Y-79883000D01*
X152853589Y-79883000D01*
X152844500Y-79928695D01*
X152844500Y-79946500D01*
X152826695Y-79946500D01*
X152667211Y-79978224D01*
X152516979Y-80040452D01*
X152381775Y-80130792D01*
X152375567Y-80137000D01*
X127539181Y-80137000D01*
X127508000Y-80133929D01*
X127476819Y-80137000D01*
X127476808Y-80137000D01*
X127383518Y-80146188D01*
X127263820Y-80182498D01*
X127153506Y-80241462D01*
X127104108Y-80282003D01*
X127056815Y-80320815D01*
X127036931Y-80345044D01*
X125212976Y-82169000D01*
X117372433Y-82169000D01*
X117366225Y-82162792D01*
X117231021Y-82072452D01*
X117080789Y-82010224D01*
X116921305Y-81978500D01*
X116758695Y-81978500D01*
X116599211Y-82010224D01*
X116448979Y-82072452D01*
X116313775Y-82162792D01*
X116198792Y-82277775D01*
X116108452Y-82412979D01*
X116046224Y-82563211D01*
X116014500Y-82722695D01*
X116014500Y-82885305D01*
X116046224Y-83044789D01*
X116108452Y-83195021D01*
X116198792Y-83330225D01*
X116313775Y-83445208D01*
X116448979Y-83535548D01*
X116599211Y-83597776D01*
X116758695Y-83629500D01*
X116921305Y-83629500D01*
X117080789Y-83597776D01*
X117231021Y-83535548D01*
X117366225Y-83445208D01*
X117372433Y-83439000D01*
X125444819Y-83439000D01*
X125476000Y-83442071D01*
X125507181Y-83439000D01*
X125507192Y-83439000D01*
X125600482Y-83429812D01*
X125720180Y-83393502D01*
X125830494Y-83334537D01*
X125927185Y-83255185D01*
X125947074Y-83230950D01*
X127771025Y-81407000D01*
X128514975Y-81407000D01*
X128197476Y-81724500D01*
X128188695Y-81724500D01*
X128029211Y-81756224D01*
X127878979Y-81818452D01*
X127743775Y-81908792D01*
X127628792Y-82023775D01*
X127538452Y-82158979D01*
X127476224Y-82309211D01*
X127444500Y-82468695D01*
X127444500Y-82631305D01*
X127476224Y-82790789D01*
X127538452Y-82941021D01*
X127628792Y-83076225D01*
X127743775Y-83191208D01*
X127878979Y-83281548D01*
X128029211Y-83343776D01*
X128188695Y-83375500D01*
X128351305Y-83375500D01*
X128510789Y-83343776D01*
X128661021Y-83281548D01*
X128796225Y-83191208D01*
X128911208Y-83076225D01*
X129001548Y-82941021D01*
X129063776Y-82790789D01*
X129095500Y-82631305D01*
X129095500Y-82622524D01*
X129549025Y-82169000D01*
X133848969Y-82169000D01*
X132769476Y-83248494D01*
X132760695Y-83248494D01*
X132601211Y-83280218D01*
X132450979Y-83342446D01*
X132315775Y-83432786D01*
X132200792Y-83547769D01*
X132110452Y-83682973D01*
X132048224Y-83833205D01*
X132016500Y-83992689D01*
X132016500Y-84155299D01*
X132048224Y-84314783D01*
X132110452Y-84465015D01*
X132200792Y-84600219D01*
X132315775Y-84715202D01*
X132450979Y-84805542D01*
X132601211Y-84867770D01*
X132760695Y-84899494D01*
X132923305Y-84899494D01*
X133082789Y-84867770D01*
X133233021Y-84805542D01*
X133368225Y-84715202D01*
X133483208Y-84600219D01*
X133573548Y-84465015D01*
X133635776Y-84314783D01*
X133667500Y-84155299D01*
X133667500Y-84146518D01*
X135137020Y-82677000D01*
X140960974Y-82677000D01*
X139119476Y-84518500D01*
X139110695Y-84518500D01*
X138951211Y-84550224D01*
X138800979Y-84612452D01*
X138665775Y-84702792D01*
X138550792Y-84817775D01*
X138460452Y-84952979D01*
X138398224Y-85103211D01*
X138366500Y-85262695D01*
X138366500Y-85425305D01*
X138398224Y-85584789D01*
X138460452Y-85735021D01*
X138550792Y-85870225D01*
X138665775Y-85985208D01*
X138800979Y-86075548D01*
X138951211Y-86137776D01*
X139110695Y-86169500D01*
X139273305Y-86169500D01*
X139432789Y-86137776D01*
X139583021Y-86075548D01*
X139718225Y-85985208D01*
X139833208Y-85870225D01*
X139923548Y-85735021D01*
X139985776Y-85584789D01*
X140017500Y-85425305D01*
X140017500Y-85416524D01*
X142249026Y-83185000D01*
X145448434Y-83185000D01*
X145408792Y-83224642D01*
X145318452Y-83359846D01*
X145256224Y-83510078D01*
X145224500Y-83669562D01*
X145224500Y-83832172D01*
X145256224Y-83991656D01*
X145318452Y-84141888D01*
X145408792Y-84277092D01*
X145523775Y-84392075D01*
X145658979Y-84482415D01*
X145809211Y-84544643D01*
X145968695Y-84576367D01*
X145977475Y-84576367D01*
X146410067Y-85008960D01*
X146429948Y-85033185D01*
X146454172Y-85053065D01*
X146454176Y-85053069D01*
X146526639Y-85112538D01*
X146636953Y-85171502D01*
X146730540Y-85199891D01*
X146723100Y-85237295D01*
X146723100Y-85399905D01*
X146754824Y-85559389D01*
X146817052Y-85709621D01*
X146907392Y-85844825D01*
X147022375Y-85959808D01*
X147157579Y-86050148D01*
X147274457Y-86098561D01*
X147182979Y-86136452D01*
X147047775Y-86226792D01*
X146932792Y-86341775D01*
X146842452Y-86476979D01*
X146780224Y-86627211D01*
X146748500Y-86786695D01*
X146748500Y-86949305D01*
X146780224Y-87108789D01*
X146842452Y-87259021D01*
X146932792Y-87394225D01*
X147047775Y-87509208D01*
X147182979Y-87599548D01*
X147333211Y-87661776D01*
X147492695Y-87693500D01*
X147501475Y-87693500D01*
X147701000Y-87893026D01*
X147701001Y-90399566D01*
X147694792Y-90405775D01*
X147604452Y-90540979D01*
X147542224Y-90691211D01*
X147510500Y-90850695D01*
X147510500Y-91013305D01*
X147542224Y-91172789D01*
X147604452Y-91323021D01*
X147694792Y-91458225D01*
X147809775Y-91573208D01*
X147944979Y-91663548D01*
X148095211Y-91725776D01*
X148254695Y-91757500D01*
X148417305Y-91757500D01*
X148576789Y-91725776D01*
X148717001Y-91667699D01*
X148717001Y-91669566D01*
X148710792Y-91675775D01*
X148620452Y-91810979D01*
X148558224Y-91961211D01*
X148526500Y-92120695D01*
X148526500Y-92283305D01*
X148558224Y-92442789D01*
X148620452Y-92593021D01*
X148710792Y-92728225D01*
X148825775Y-92843208D01*
X148960979Y-92933548D01*
X149111211Y-92995776D01*
X149270695Y-93027500D01*
X149433305Y-93027500D01*
X149542500Y-93005779D01*
X149542500Y-93045305D01*
X149574224Y-93204789D01*
X149636452Y-93355021D01*
X149726792Y-93490225D01*
X149841775Y-93605208D01*
X149976979Y-93695548D01*
X150127211Y-93757776D01*
X150286695Y-93789500D01*
X150449305Y-93789500D01*
X150608789Y-93757776D01*
X150759021Y-93695548D01*
X150894225Y-93605208D01*
X151009208Y-93490225D01*
X151099548Y-93355021D01*
X151161776Y-93204789D01*
X151193500Y-93045305D01*
X151193500Y-92882695D01*
X151161776Y-92723211D01*
X151099548Y-92572979D01*
X151017636Y-92450389D01*
X151393025Y-92075000D01*
X154463193Y-92075000D01*
X154813001Y-92074999D01*
X154813000Y-94209567D01*
X154806792Y-94215775D01*
X154716452Y-94350979D01*
X154654224Y-94501211D01*
X154622500Y-94660695D01*
X154622500Y-94823305D01*
X154654224Y-94982789D01*
X154716452Y-95133021D01*
X154806792Y-95268225D01*
X154921775Y-95383208D01*
X155056979Y-95473548D01*
X155207211Y-95535776D01*
X155366695Y-95567500D01*
X155529305Y-95567500D01*
X155688789Y-95535776D01*
X155839021Y-95473548D01*
X155974225Y-95383208D01*
X156089208Y-95268225D01*
X156179548Y-95133021D01*
X156241776Y-94982789D01*
X156273500Y-94823305D01*
X156273500Y-94660695D01*
X156241776Y-94501211D01*
X156179548Y-94350979D01*
X156089208Y-94215775D01*
X156083000Y-94209567D01*
X156083000Y-93496295D01*
X159063500Y-93496295D01*
X159063500Y-93658905D01*
X159095224Y-93818389D01*
X159157452Y-93968621D01*
X159247792Y-94103825D01*
X159362775Y-94218808D01*
X159497979Y-94309148D01*
X159648211Y-94371376D01*
X159807695Y-94403100D01*
X159970305Y-94403100D01*
X160129789Y-94371376D01*
X160280021Y-94309148D01*
X160415225Y-94218808D01*
X160421433Y-94212600D01*
X171821219Y-94212600D01*
X171852400Y-94215671D01*
X171883581Y-94212600D01*
X171883592Y-94212600D01*
X171976882Y-94203412D01*
X172096580Y-94167102D01*
X172206894Y-94108137D01*
X172285655Y-94043500D01*
X172293305Y-94043500D01*
X172452789Y-94011776D01*
X172603021Y-93949548D01*
X172738225Y-93859208D01*
X172853208Y-93744225D01*
X172943548Y-93609021D01*
X173005776Y-93458789D01*
X173037500Y-93299305D01*
X173037500Y-93136695D01*
X173005776Y-92977211D01*
X172943548Y-92826979D01*
X172853208Y-92691775D01*
X172738225Y-92576792D01*
X172603021Y-92486452D01*
X172452789Y-92424224D01*
X172293305Y-92392500D01*
X172130695Y-92392500D01*
X171971211Y-92424224D01*
X171820979Y-92486452D01*
X171685775Y-92576792D01*
X171570792Y-92691775D01*
X171480452Y-92826979D01*
X171432560Y-92942600D01*
X160421433Y-92942600D01*
X160415225Y-92936392D01*
X160280021Y-92846052D01*
X160129789Y-92783824D01*
X159970305Y-92752100D01*
X159807695Y-92752100D01*
X159648211Y-92783824D01*
X159497979Y-92846052D01*
X159362775Y-92936392D01*
X159247792Y-93051375D01*
X159157452Y-93186579D01*
X159095224Y-93336811D01*
X159063500Y-93496295D01*
X156083000Y-93496295D01*
X156083000Y-92075000D01*
X156947567Y-92075000D01*
X156953775Y-92081208D01*
X157088979Y-92171548D01*
X157239211Y-92233776D01*
X157398695Y-92265500D01*
X157561305Y-92265500D01*
X157720789Y-92233776D01*
X157871021Y-92171548D01*
X158006225Y-92081208D01*
X158012433Y-92075000D01*
X165576819Y-92075000D01*
X165608000Y-92078071D01*
X165639181Y-92075000D01*
X165639192Y-92075000D01*
X165732482Y-92065812D01*
X165852180Y-92029502D01*
X165962494Y-91970537D01*
X166059185Y-91891185D01*
X166079074Y-91866950D01*
X166950525Y-90995500D01*
X166959305Y-90995500D01*
X167118789Y-90963776D01*
X167269021Y-90901548D01*
X167404225Y-90811208D01*
X167519208Y-90696225D01*
X167609548Y-90561021D01*
X167671776Y-90410789D01*
X167703500Y-90251305D01*
X167703500Y-90088695D01*
X167671776Y-89929211D01*
X167609548Y-89778979D01*
X167519208Y-89643775D01*
X167404225Y-89528792D01*
X167269021Y-89438452D01*
X167118789Y-89376224D01*
X166959305Y-89344500D01*
X166796695Y-89344500D01*
X166637211Y-89376224D01*
X166486979Y-89438452D01*
X166351775Y-89528792D01*
X166236792Y-89643775D01*
X166146452Y-89778979D01*
X166084224Y-89929211D01*
X166052500Y-90088695D01*
X166052500Y-90097475D01*
X165344976Y-90805000D01*
X158012433Y-90805000D01*
X158006225Y-90798792D01*
X157871021Y-90708452D01*
X157720789Y-90646224D01*
X157561305Y-90614500D01*
X157398695Y-90614500D01*
X157239211Y-90646224D01*
X157088979Y-90708452D01*
X156953775Y-90798792D01*
X156947567Y-90805000D01*
X155980421Y-90805000D01*
X155974213Y-90798792D01*
X155839009Y-90708452D01*
X155688777Y-90646224D01*
X155529293Y-90614500D01*
X155366683Y-90614500D01*
X155207199Y-90646224D01*
X155056967Y-90708452D01*
X154921763Y-90798792D01*
X154915556Y-90804999D01*
X151860809Y-90804999D01*
X151860799Y-90805000D01*
X151161189Y-90805000D01*
X151130000Y-90801928D01*
X151098811Y-90805000D01*
X151098808Y-90805000D01*
X151005518Y-90814188D01*
X150885823Y-90850497D01*
X150885820Y-90850498D01*
X150775506Y-90909462D01*
X150703043Y-90968931D01*
X150703039Y-90968935D01*
X150678815Y-90988815D01*
X150658934Y-91013040D01*
X149994407Y-91677569D01*
X149993208Y-91675775D01*
X149987000Y-91669567D01*
X149987000Y-91195024D01*
X150631025Y-90551000D01*
X158725567Y-90551000D01*
X158731775Y-90557208D01*
X158866979Y-90647548D01*
X159017211Y-90709776D01*
X159176695Y-90741500D01*
X159339305Y-90741500D01*
X159498789Y-90709776D01*
X159649021Y-90647548D01*
X159784225Y-90557208D01*
X159899208Y-90442225D01*
X159989548Y-90307021D01*
X160051776Y-90156789D01*
X160083500Y-89997305D01*
X160083500Y-89916000D01*
X160899976Y-89916000D01*
X160972496Y-89988520D01*
X160972496Y-89997301D01*
X161004220Y-90156785D01*
X161066448Y-90307017D01*
X161156788Y-90442221D01*
X161271771Y-90557204D01*
X161406975Y-90647544D01*
X161557207Y-90709772D01*
X161716691Y-90741496D01*
X161879301Y-90741496D01*
X162038785Y-90709772D01*
X162189017Y-90647544D01*
X162324221Y-90557204D01*
X162439204Y-90442221D01*
X162529544Y-90307017D01*
X162591116Y-90158368D01*
X162729789Y-90130784D01*
X162880021Y-90068556D01*
X163015225Y-89978216D01*
X163130208Y-89863233D01*
X163220548Y-89728029D01*
X163282776Y-89577797D01*
X163314500Y-89418313D01*
X163314500Y-89255703D01*
X163282776Y-89096219D01*
X163220548Y-88945987D01*
X163130208Y-88810783D01*
X163015225Y-88695800D01*
X162880021Y-88605460D01*
X162729789Y-88543232D01*
X162570305Y-88511508D01*
X162561524Y-88511508D01*
X162269066Y-88219050D01*
X162249177Y-88194815D01*
X162152486Y-88115463D01*
X162042172Y-88056498D01*
X161922474Y-88020188D01*
X161829184Y-88011000D01*
X161829173Y-88011000D01*
X161797992Y-88007929D01*
X161766811Y-88011000D01*
X156488433Y-88011000D01*
X156482225Y-88004792D01*
X156347021Y-87914452D01*
X156196789Y-87852224D01*
X156037305Y-87820500D01*
X155874695Y-87820500D01*
X155715211Y-87852224D01*
X155564979Y-87914452D01*
X155429775Y-88004792D01*
X155314792Y-88119775D01*
X155224452Y-88254979D01*
X155162224Y-88405211D01*
X155130500Y-88564695D01*
X155130500Y-88646000D01*
X154568025Y-88646000D01*
X153733500Y-87811476D01*
X153733500Y-87802695D01*
X153701776Y-87643211D01*
X153639548Y-87492979D01*
X153549208Y-87357775D01*
X153434225Y-87242792D01*
X153299021Y-87152452D01*
X153148789Y-87090224D01*
X152989305Y-87058500D01*
X152826695Y-87058500D01*
X152667211Y-87090224D01*
X152516979Y-87152452D01*
X152381775Y-87242792D01*
X152266792Y-87357775D01*
X152176452Y-87492979D01*
X152114224Y-87643211D01*
X152082500Y-87802695D01*
X152082500Y-87965305D01*
X152114224Y-88124789D01*
X152176452Y-88275021D01*
X152266792Y-88410225D01*
X152381775Y-88525208D01*
X152516979Y-88615548D01*
X152667211Y-88677776D01*
X152826695Y-88709500D01*
X152835476Y-88709500D01*
X153406975Y-89281000D01*
X150399181Y-89281000D01*
X150368000Y-89277929D01*
X150336819Y-89281000D01*
X150336808Y-89281000D01*
X150243518Y-89290188D01*
X150123820Y-89326498D01*
X150013506Y-89385463D01*
X149916815Y-89464815D01*
X149896930Y-89489045D01*
X148978407Y-90407569D01*
X148977208Y-90405775D01*
X148971000Y-90399567D01*
X148971000Y-87661189D01*
X148974072Y-87630000D01*
X148971000Y-87598808D01*
X148961812Y-87505518D01*
X148925502Y-87385820D01*
X148915004Y-87366180D01*
X148866538Y-87275506D01*
X148807069Y-87203043D01*
X148807065Y-87203039D01*
X148787185Y-87178815D01*
X148762961Y-87158935D01*
X148399500Y-86795475D01*
X148399500Y-86786695D01*
X148367776Y-86627211D01*
X148305548Y-86476979D01*
X148215208Y-86341775D01*
X148100225Y-86226792D01*
X147965021Y-86136452D01*
X147848143Y-86088039D01*
X147939621Y-86050148D01*
X148046102Y-85979000D01*
X150851567Y-85979000D01*
X150857775Y-85985208D01*
X150992979Y-86075548D01*
X151143211Y-86137776D01*
X151302695Y-86169500D01*
X151465305Y-86169500D01*
X151624789Y-86137776D01*
X151775021Y-86075548D01*
X151910225Y-85985208D01*
X152025208Y-85870225D01*
X152115548Y-85735021D01*
X152177776Y-85584789D01*
X152209500Y-85425305D01*
X152209500Y-85262695D01*
X152200411Y-85217000D01*
X155529129Y-85217000D01*
X155560310Y-85220071D01*
X155591491Y-85217000D01*
X155591502Y-85217000D01*
X155684792Y-85207812D01*
X155804490Y-85171502D01*
X155914804Y-85112537D01*
X155940740Y-85091252D01*
X155986456Y-85201621D01*
X156076796Y-85336825D01*
X156191779Y-85451808D01*
X156326983Y-85542148D01*
X156477215Y-85604376D01*
X156636699Y-85636100D01*
X156799309Y-85636100D01*
X156958793Y-85604376D01*
X157109025Y-85542148D01*
X157244229Y-85451808D01*
X157250437Y-85445600D01*
X160030498Y-85445600D01*
X160001775Y-85464792D01*
X159886792Y-85579775D01*
X159796452Y-85714979D01*
X159734224Y-85865211D01*
X159702500Y-86024695D01*
X159702500Y-86187305D01*
X159734224Y-86346789D01*
X159796452Y-86497021D01*
X159886792Y-86632225D01*
X160001775Y-86747208D01*
X160136979Y-86837548D01*
X160287211Y-86899776D01*
X160446695Y-86931500D01*
X160609305Y-86931500D01*
X160768789Y-86899776D01*
X160919021Y-86837548D01*
X161054225Y-86747208D01*
X161060433Y-86741000D01*
X164364301Y-86741000D01*
X164306224Y-86881211D01*
X164274500Y-87040695D01*
X164274500Y-87203305D01*
X164306224Y-87362789D01*
X164368452Y-87513021D01*
X164458792Y-87648225D01*
X164573775Y-87763208D01*
X164708979Y-87853548D01*
X164859211Y-87915776D01*
X165018695Y-87947500D01*
X165027476Y-87947500D01*
X165454429Y-88374454D01*
X165474314Y-88398684D01*
X165517023Y-88433734D01*
X165571005Y-88478037D01*
X165659256Y-88525208D01*
X165681319Y-88537001D01*
X165801017Y-88573311D01*
X165894307Y-88582499D01*
X165894310Y-88582499D01*
X165925499Y-88585571D01*
X165956688Y-88582499D01*
X169726475Y-88582499D01*
X173101001Y-91957027D01*
X173101000Y-95733567D01*
X173094792Y-95739775D01*
X173004452Y-95874979D01*
X172942224Y-96025211D01*
X172910500Y-96184695D01*
X172910500Y-96347305D01*
X172942224Y-96506789D01*
X173004452Y-96657021D01*
X173094792Y-96792225D01*
X173209775Y-96907208D01*
X173344979Y-96997548D01*
X173418497Y-97028000D01*
X173344979Y-97058452D01*
X173209775Y-97148792D01*
X173094792Y-97263775D01*
X173004452Y-97398979D01*
X172942224Y-97549211D01*
X172910500Y-97708695D01*
X172910500Y-97871305D01*
X172942224Y-98030789D01*
X173004452Y-98181021D01*
X173094792Y-98316225D01*
X173209775Y-98431208D01*
X173344979Y-98521548D01*
X173495211Y-98583776D01*
X173654695Y-98615500D01*
X173817305Y-98615500D01*
X173976789Y-98583776D01*
X174127021Y-98521548D01*
X174262225Y-98431208D01*
X174377208Y-98316225D01*
X174467548Y-98181021D01*
X174529776Y-98030789D01*
X174561500Y-97871305D01*
X174561500Y-97837125D01*
X174924961Y-97473665D01*
X174949185Y-97453785D01*
X174969065Y-97429561D01*
X174969069Y-97429557D01*
X175028538Y-97357094D01*
X175087502Y-97246780D01*
X175094162Y-97224824D01*
X175123812Y-97127082D01*
X175133000Y-97033792D01*
X175133000Y-97033789D01*
X175136072Y-97002600D01*
X175133000Y-96971411D01*
X175133000Y-96044995D01*
X177990500Y-96044995D01*
X177990500Y-96207605D01*
X178022224Y-96367089D01*
X178084452Y-96517321D01*
X178174792Y-96652525D01*
X178181001Y-96658734D01*
X178181000Y-97486167D01*
X178174792Y-97492375D01*
X178084452Y-97627579D01*
X178022224Y-97777811D01*
X177990500Y-97937295D01*
X177990500Y-98099905D01*
X178022224Y-98259389D01*
X178084452Y-98409621D01*
X178174792Y-98544825D01*
X178289775Y-98659808D01*
X178424979Y-98750148D01*
X178575211Y-98812376D01*
X178734695Y-98844100D01*
X178897305Y-98844100D01*
X179056789Y-98812376D01*
X179207021Y-98750148D01*
X179342225Y-98659808D01*
X179457208Y-98544825D01*
X179547548Y-98409621D01*
X179609776Y-98259389D01*
X179641500Y-98099905D01*
X179641500Y-97937295D01*
X179609776Y-97777811D01*
X179547548Y-97627579D01*
X179457208Y-97492375D01*
X179451000Y-97486167D01*
X179451000Y-96658733D01*
X179457208Y-96652525D01*
X179547548Y-96517321D01*
X179609776Y-96367089D01*
X179641500Y-96207605D01*
X179641500Y-96044995D01*
X179613712Y-95905295D01*
X181038500Y-95905295D01*
X181038500Y-96067905D01*
X181070224Y-96227389D01*
X181132452Y-96377621D01*
X181222792Y-96512825D01*
X181229000Y-96519033D01*
X181229001Y-96978166D01*
X181222792Y-96984375D01*
X181132452Y-97119579D01*
X181070224Y-97269811D01*
X181038500Y-97429295D01*
X181038500Y-97591905D01*
X181070224Y-97751389D01*
X181132452Y-97901621D01*
X181222792Y-98036825D01*
X181337775Y-98151808D01*
X181472979Y-98242148D01*
X181623211Y-98304376D01*
X181782695Y-98336100D01*
X181945305Y-98336100D01*
X182104789Y-98304376D01*
X182255021Y-98242148D01*
X182390225Y-98151808D01*
X182505208Y-98036825D01*
X182595548Y-97901621D01*
X182657776Y-97751389D01*
X182689500Y-97591905D01*
X182689500Y-97429295D01*
X182657776Y-97269811D01*
X182595548Y-97119579D01*
X182505208Y-96984375D01*
X182499000Y-96978167D01*
X182499000Y-96519033D01*
X182505208Y-96512825D01*
X182595548Y-96377621D01*
X182657776Y-96227389D01*
X182689500Y-96067905D01*
X182689500Y-96059125D01*
X182952510Y-95796116D01*
X183554083Y-95796116D01*
X183560291Y-95802324D01*
X183695495Y-95892664D01*
X183845727Y-95954892D01*
X184005211Y-95986616D01*
X184167821Y-95986616D01*
X184327305Y-95954892D01*
X184477537Y-95892664D01*
X184612741Y-95802324D01*
X184727724Y-95687341D01*
X184770667Y-95623071D01*
X194388352Y-95623071D01*
X194443727Y-96139159D01*
X194598721Y-96634526D01*
X194821742Y-97051772D01*
X195188501Y-97267894D01*
X196856395Y-95600000D01*
X195188501Y-93932106D01*
X194821742Y-94148228D01*
X194581062Y-94608105D01*
X194434725Y-95106098D01*
X194388352Y-95623071D01*
X184770667Y-95623071D01*
X184818064Y-95552137D01*
X184880292Y-95401905D01*
X184912016Y-95242421D01*
X184912016Y-95079811D01*
X184880292Y-94920327D01*
X184818064Y-94770095D01*
X184727724Y-94634891D01*
X184612741Y-94519908D01*
X184477537Y-94429568D01*
X184327305Y-94367340D01*
X184167821Y-94335616D01*
X184005211Y-94335616D01*
X183845727Y-94367340D01*
X183695495Y-94429568D01*
X183560291Y-94519908D01*
X183554083Y-94526116D01*
X182720673Y-94526116D01*
X182689484Y-94523044D01*
X182658295Y-94526116D01*
X182658292Y-94526116D01*
X182565002Y-94535304D01*
X182445304Y-94571614D01*
X182334990Y-94630578D01*
X182262527Y-94690047D01*
X182262523Y-94690051D01*
X182238299Y-94709931D01*
X182218418Y-94734156D01*
X181791475Y-95161100D01*
X181782695Y-95161100D01*
X181623211Y-95192824D01*
X181472979Y-95255052D01*
X181337775Y-95345392D01*
X181222792Y-95460375D01*
X181132452Y-95595579D01*
X181070224Y-95745811D01*
X181038500Y-95905295D01*
X179613712Y-95905295D01*
X179609776Y-95885511D01*
X179547548Y-95735279D01*
X179457208Y-95600075D01*
X179342225Y-95485092D01*
X179207021Y-95394752D01*
X179056789Y-95332524D01*
X178897305Y-95300800D01*
X178734695Y-95300800D01*
X178575211Y-95332524D01*
X178424979Y-95394752D01*
X178289775Y-95485092D01*
X178174792Y-95600075D01*
X178084452Y-95735279D01*
X178022224Y-95885511D01*
X177990500Y-96044995D01*
X175133000Y-96044995D01*
X175133000Y-90088695D01*
X176720500Y-90088695D01*
X176720500Y-90251305D01*
X176752224Y-90410789D01*
X176814452Y-90561021D01*
X176904792Y-90696225D01*
X177019775Y-90811208D01*
X177154979Y-90901548D01*
X177305211Y-90963776D01*
X177464695Y-90995500D01*
X177627305Y-90995500D01*
X177786789Y-90963776D01*
X177937021Y-90901548D01*
X178072225Y-90811208D01*
X178078433Y-90805000D01*
X184499819Y-90805000D01*
X184531000Y-90808071D01*
X184562181Y-90805000D01*
X184562192Y-90805000D01*
X184655482Y-90795812D01*
X184775180Y-90759502D01*
X184885494Y-90700537D01*
X184982185Y-90621185D01*
X185002074Y-90596950D01*
X185394880Y-90204145D01*
X185406789Y-90201776D01*
X185557021Y-90139548D01*
X185692225Y-90049208D01*
X185807208Y-89934225D01*
X185897548Y-89799021D01*
X185959776Y-89648789D01*
X185991500Y-89489305D01*
X185991500Y-89326695D01*
X185959776Y-89167211D01*
X185897548Y-89016979D01*
X185807208Y-88881775D01*
X185692225Y-88766792D01*
X185557021Y-88676452D01*
X185406789Y-88614224D01*
X185247305Y-88582500D01*
X185084695Y-88582500D01*
X184925211Y-88614224D01*
X184774979Y-88676452D01*
X184639775Y-88766792D01*
X184524792Y-88881775D01*
X184434452Y-89016979D01*
X184372224Y-89167211D01*
X184340500Y-89326695D01*
X184340500Y-89462475D01*
X184267975Y-89535000D01*
X178078433Y-89535000D01*
X178072225Y-89528792D01*
X177937021Y-89438452D01*
X177786789Y-89376224D01*
X177627305Y-89344500D01*
X177464695Y-89344500D01*
X177305211Y-89376224D01*
X177154979Y-89438452D01*
X177019775Y-89528792D01*
X176904792Y-89643775D01*
X176814452Y-89778979D01*
X176752224Y-89929211D01*
X176720500Y-90088695D01*
X175133000Y-90088695D01*
X175133000Y-89439180D01*
X175136071Y-89407999D01*
X175133000Y-89376818D01*
X175133000Y-89376808D01*
X175123812Y-89283518D01*
X175087502Y-89163820D01*
X175044738Y-89083815D01*
X175028537Y-89053505D01*
X174969068Y-88981042D01*
X174969065Y-88981039D01*
X174949185Y-88956815D01*
X174924960Y-88936934D01*
X174461074Y-88473050D01*
X174441185Y-88448815D01*
X174344494Y-88369463D01*
X174234180Y-88310498D01*
X174114482Y-88274188D01*
X174021192Y-88265000D01*
X174021181Y-88265000D01*
X173990000Y-88261929D01*
X173958819Y-88265000D01*
X172221026Y-88265000D01*
X171456025Y-87500000D01*
X190815543Y-87500000D01*
X190815543Y-89200000D01*
X190825351Y-89299585D01*
X190854399Y-89395343D01*
X190901571Y-89483595D01*
X190965052Y-89560948D01*
X191042405Y-89624429D01*
X191130657Y-89671601D01*
X191226415Y-89700649D01*
X191326000Y-89710457D01*
X191437111Y-89710457D01*
X191310325Y-89795172D01*
X191121172Y-89984325D01*
X190972556Y-90206746D01*
X190870187Y-90453886D01*
X190818000Y-90716249D01*
X190818000Y-90983751D01*
X190870187Y-91246114D01*
X190972556Y-91493254D01*
X191121172Y-91715675D01*
X191310325Y-91904828D01*
X191532746Y-92053444D01*
X191779886Y-92155813D01*
X192042249Y-92208000D01*
X192309751Y-92208000D01*
X192572114Y-92155813D01*
X192819254Y-92053444D01*
X193041675Y-91904828D01*
X193176000Y-91770503D01*
X193310325Y-91904828D01*
X193532746Y-92053444D01*
X193779886Y-92155813D01*
X194042249Y-92208000D01*
X194309751Y-92208000D01*
X194572114Y-92155813D01*
X194819254Y-92053444D01*
X195041675Y-91904828D01*
X195230828Y-91715675D01*
X195379444Y-91493254D01*
X195481813Y-91246114D01*
X195534000Y-90983751D01*
X195534000Y-90716249D01*
X195481813Y-90453886D01*
X195379444Y-90206746D01*
X195230828Y-89984325D01*
X195041675Y-89795172D01*
X194860230Y-89673935D01*
X194947157Y-89627472D01*
X195024792Y-89378397D01*
X194176000Y-88529605D01*
X194161858Y-88543748D01*
X193982253Y-88364143D01*
X193996395Y-88350000D01*
X194355605Y-88350000D01*
X195204397Y-89198792D01*
X195453472Y-89121157D01*
X195579371Y-88857117D01*
X195651339Y-88573589D01*
X195666611Y-88281469D01*
X195624599Y-87991981D01*
X195526919Y-87716253D01*
X195453472Y-87578843D01*
X195204397Y-87501208D01*
X194355605Y-88350000D01*
X193996395Y-88350000D01*
X193982253Y-88335858D01*
X194161858Y-88156253D01*
X194176000Y-88170395D01*
X195024792Y-87321603D01*
X194947157Y-87072528D01*
X194683117Y-86946629D01*
X194399589Y-86874661D01*
X194107469Y-86859389D01*
X193817981Y-86901401D01*
X193542253Y-86999081D01*
X193404843Y-87072528D01*
X193384686Y-87137196D01*
X193309595Y-87075571D01*
X193221343Y-87028399D01*
X193125585Y-86999351D01*
X193026000Y-86989543D01*
X191326000Y-86989543D01*
X191226415Y-86999351D01*
X191130657Y-87028399D01*
X191042405Y-87075571D01*
X190965052Y-87139052D01*
X190901571Y-87216405D01*
X190854399Y-87304657D01*
X190825351Y-87400415D01*
X190815543Y-87500000D01*
X171456025Y-87500000D01*
X170697024Y-86741000D01*
X173958819Y-86741000D01*
X173990000Y-86744071D01*
X174021181Y-86741000D01*
X174021192Y-86741000D01*
X174114482Y-86731812D01*
X174234180Y-86695502D01*
X174344494Y-86636537D01*
X174441185Y-86557185D01*
X174461074Y-86532950D01*
X174507024Y-86487000D01*
X177259402Y-86487000D01*
X177273775Y-86501373D01*
X177408979Y-86591713D01*
X177559211Y-86653941D01*
X177718695Y-86685665D01*
X177881305Y-86685665D01*
X178040789Y-86653941D01*
X178191021Y-86591713D01*
X178326225Y-86501373D01*
X178441208Y-86386390D01*
X178531548Y-86251186D01*
X178593776Y-86100954D01*
X178625500Y-85941470D01*
X178625500Y-85778860D01*
X178593776Y-85619376D01*
X178531548Y-85469144D01*
X178441208Y-85333940D01*
X178326225Y-85218957D01*
X178191021Y-85128617D01*
X178040789Y-85066389D01*
X177881305Y-85034665D01*
X177718695Y-85034665D01*
X177559211Y-85066389D01*
X177408979Y-85128617D01*
X177276704Y-85217000D01*
X174275180Y-85217000D01*
X174243999Y-85213929D01*
X174212818Y-85217000D01*
X174212808Y-85217000D01*
X174119518Y-85226188D01*
X173999820Y-85262498D01*
X173889506Y-85321463D01*
X173792815Y-85400815D01*
X173772926Y-85425050D01*
X173726976Y-85471000D01*
X161060433Y-85471000D01*
X161054225Y-85464792D01*
X161025502Y-85445600D01*
X169412219Y-85445600D01*
X169443400Y-85448671D01*
X169474581Y-85445600D01*
X169474592Y-85445600D01*
X169567882Y-85436412D01*
X169687580Y-85400102D01*
X169797894Y-85341137D01*
X169894585Y-85261785D01*
X169914474Y-85237550D01*
X169998524Y-85153500D01*
X170007305Y-85153500D01*
X170166789Y-85121776D01*
X170317021Y-85059548D01*
X170452225Y-84969208D01*
X170567208Y-84854225D01*
X170657548Y-84719021D01*
X170719776Y-84568789D01*
X170751500Y-84409305D01*
X170751500Y-84246695D01*
X170719776Y-84087211D01*
X170657548Y-83936979D01*
X170567208Y-83801775D01*
X170452225Y-83686792D01*
X170356860Y-83623071D01*
X194388352Y-83623071D01*
X194443727Y-84139159D01*
X194598721Y-84634526D01*
X194821742Y-85051772D01*
X195188501Y-85267894D01*
X196856395Y-83600000D01*
X195188501Y-81932106D01*
X194821742Y-82148228D01*
X194581062Y-82608105D01*
X194434725Y-83106098D01*
X194388352Y-83623071D01*
X170356860Y-83623071D01*
X170317021Y-83596452D01*
X170166789Y-83534224D01*
X170007305Y-83502500D01*
X169844695Y-83502500D01*
X169685211Y-83534224D01*
X169534979Y-83596452D01*
X169399775Y-83686792D01*
X169284792Y-83801775D01*
X169194452Y-83936979D01*
X169132224Y-84087211D01*
X169114642Y-84175600D01*
X165143731Y-84175600D01*
X166194799Y-83124533D01*
X166206406Y-83124533D01*
X166365890Y-83092809D01*
X166516122Y-83030581D01*
X166651326Y-82940241D01*
X166766309Y-82825258D01*
X166856649Y-82690054D01*
X166918877Y-82539822D01*
X166950601Y-82380338D01*
X166950601Y-82217728D01*
X166918877Y-82058244D01*
X166869509Y-81939059D01*
X166896225Y-81921208D01*
X167011208Y-81806225D01*
X167101548Y-81671021D01*
X167163776Y-81520789D01*
X167195500Y-81361305D01*
X167195500Y-81198695D01*
X167163776Y-81039211D01*
X167101548Y-80888979D01*
X167011208Y-80753775D01*
X166896225Y-80638792D01*
X166886512Y-80632302D01*
X172447511Y-80632302D01*
X172478692Y-80635373D01*
X172509873Y-80632302D01*
X172509884Y-80632302D01*
X172603174Y-80623114D01*
X172722872Y-80586804D01*
X172833186Y-80527839D01*
X172929877Y-80448487D01*
X172949766Y-80424252D01*
X173046524Y-80327494D01*
X173055305Y-80327494D01*
X173214789Y-80295770D01*
X173365021Y-80233542D01*
X173414481Y-80200494D01*
X178886917Y-80200494D01*
X178893712Y-80207289D01*
X179042429Y-80306659D01*
X179207674Y-80375106D01*
X179383098Y-80410000D01*
X179561958Y-80410000D01*
X179737382Y-80375106D01*
X179902627Y-80306659D01*
X180051344Y-80207289D01*
X180177817Y-80080816D01*
X180277187Y-79932099D01*
X180345634Y-79766854D01*
X180380528Y-79591430D01*
X180380528Y-79412570D01*
X180345634Y-79237146D01*
X180277187Y-79071901D01*
X180177817Y-78923184D01*
X180051344Y-78796711D01*
X179902627Y-78697341D01*
X179737382Y-78628894D01*
X179561958Y-78594000D01*
X179383098Y-78594000D01*
X179207674Y-78628894D01*
X179042429Y-78697341D01*
X178893712Y-78796711D01*
X178886929Y-78803494D01*
X173414481Y-78803494D01*
X173365021Y-78770446D01*
X173214789Y-78708218D01*
X173055305Y-78676494D01*
X172892695Y-78676494D01*
X172733211Y-78708218D01*
X172582979Y-78770446D01*
X172447775Y-78860786D01*
X172332792Y-78975769D01*
X172242452Y-79110973D01*
X172180224Y-79261205D01*
X172160114Y-79362302D01*
X167188922Y-79362302D01*
X167195486Y-79329305D01*
X167195486Y-79184500D01*
X168221800Y-79184500D01*
X168252289Y-79204872D01*
X168402521Y-79267100D01*
X168562005Y-79298824D01*
X168724615Y-79298824D01*
X168884099Y-79267100D01*
X169034331Y-79204872D01*
X169169535Y-79114532D01*
X169284518Y-78999549D01*
X169374858Y-78864345D01*
X169437086Y-78714113D01*
X169468810Y-78554629D01*
X169468810Y-78392019D01*
X169437576Y-78235000D01*
X188232183Y-78235000D01*
X188078746Y-78298556D01*
X187856325Y-78447172D01*
X187667172Y-78636325D01*
X187518556Y-78858746D01*
X187416187Y-79105886D01*
X187364000Y-79368249D01*
X187364000Y-79635751D01*
X187416187Y-79898114D01*
X187518556Y-80145254D01*
X187667172Y-80367675D01*
X187856325Y-80556828D01*
X188078746Y-80705444D01*
X188325886Y-80807813D01*
X188588249Y-80860000D01*
X188855751Y-80860000D01*
X189118114Y-80807813D01*
X189365254Y-80705444D01*
X189587675Y-80556828D01*
X189775593Y-80368910D01*
X189786188Y-80476482D01*
X189822498Y-80596180D01*
X189881463Y-80706494D01*
X189960815Y-80803185D01*
X190057506Y-80882537D01*
X190167820Y-80941502D01*
X190287518Y-80977812D01*
X190412000Y-80990072D01*
X190976250Y-80987000D01*
X191135000Y-80828250D01*
X191135000Y-79629000D01*
X191389000Y-79629000D01*
X191389000Y-80828250D01*
X191547750Y-80987000D01*
X192112000Y-80990072D01*
X192236482Y-80977812D01*
X192356180Y-80941502D01*
X192466494Y-80882537D01*
X192563185Y-80803185D01*
X192642537Y-80706494D01*
X192701502Y-80596180D01*
X192737812Y-80476482D01*
X192750072Y-80352000D01*
X192747000Y-79787750D01*
X192588250Y-79629000D01*
X191389000Y-79629000D01*
X191135000Y-79629000D01*
X191115000Y-79629000D01*
X191115000Y-79375000D01*
X191135000Y-79375000D01*
X191135000Y-79355000D01*
X191389000Y-79355000D01*
X191389000Y-79375000D01*
X192588250Y-79375000D01*
X192747000Y-79216250D01*
X192750072Y-78652000D01*
X192737812Y-78527518D01*
X192701502Y-78407820D01*
X192642537Y-78297506D01*
X192591240Y-78235000D01*
X198505001Y-78235000D01*
X198505001Y-81414979D01*
X198487772Y-81385742D01*
X198027895Y-81145062D01*
X197529902Y-80998725D01*
X197012929Y-80952352D01*
X196496841Y-81007727D01*
X196001474Y-81162721D01*
X195584228Y-81385742D01*
X195368106Y-81752501D01*
X197036000Y-83420395D01*
X197050143Y-83406253D01*
X197229748Y-83585858D01*
X197215605Y-83600000D01*
X197229748Y-83614143D01*
X197050143Y-83793748D01*
X197036000Y-83779605D01*
X195368106Y-85447499D01*
X195584228Y-85814258D01*
X196044105Y-86054938D01*
X196542098Y-86201275D01*
X197059071Y-86247648D01*
X197575159Y-86192273D01*
X198070526Y-86037279D01*
X198487772Y-85814258D01*
X198505001Y-85785021D01*
X198505000Y-93414978D01*
X198487772Y-93385742D01*
X198027895Y-93145062D01*
X197529902Y-92998725D01*
X197012929Y-92952352D01*
X196496841Y-93007727D01*
X196001474Y-93162721D01*
X195584228Y-93385742D01*
X195368106Y-93752501D01*
X197036000Y-95420395D01*
X197050143Y-95406253D01*
X197229748Y-95585858D01*
X197215605Y-95600000D01*
X197229748Y-95614143D01*
X197050143Y-95793748D01*
X197036000Y-95779605D01*
X195368106Y-97447499D01*
X195584228Y-97814258D01*
X196044105Y-98054938D01*
X196542098Y-98201275D01*
X197059071Y-98247648D01*
X197575159Y-98192273D01*
X198070526Y-98037279D01*
X198487772Y-97814258D01*
X198505000Y-97785022D01*
X198505000Y-100965000D01*
X196302231Y-100965000D01*
X196306072Y-100926000D01*
X196303000Y-100361750D01*
X196144250Y-100203000D01*
X194945000Y-100203000D01*
X194945000Y-100223000D01*
X194691000Y-100223000D01*
X194691000Y-100203000D01*
X193491750Y-100203000D01*
X193333000Y-100361750D01*
X193329928Y-100926000D01*
X193333769Y-100965000D01*
X170075746Y-100965000D01*
X170131501Y-100897062D01*
X170239029Y-100695891D01*
X170305245Y-100477607D01*
X170322000Y-100307488D01*
X170322000Y-99793711D01*
X170305245Y-99623592D01*
X170239029Y-99405308D01*
X170143188Y-99226000D01*
X193329928Y-99226000D01*
X193333000Y-99790250D01*
X193491750Y-99949000D01*
X194691000Y-99949000D01*
X194691000Y-98749750D01*
X194945000Y-98749750D01*
X194945000Y-99949000D01*
X196144250Y-99949000D01*
X196303000Y-99790250D01*
X196306072Y-99226000D01*
X196293812Y-99101518D01*
X196257502Y-98981820D01*
X196198537Y-98871506D01*
X196119185Y-98774815D01*
X196022494Y-98695463D01*
X195912180Y-98636498D01*
X195792482Y-98600188D01*
X195668000Y-98587928D01*
X195103750Y-98591000D01*
X194945000Y-98749750D01*
X194691000Y-98749750D01*
X194532250Y-98591000D01*
X193968000Y-98587928D01*
X193843518Y-98600188D01*
X193723820Y-98636498D01*
X193613506Y-98695463D01*
X193516815Y-98774815D01*
X193437463Y-98871506D01*
X193378498Y-98981820D01*
X193342188Y-99101518D01*
X193329928Y-99226000D01*
X170143188Y-99226000D01*
X170131501Y-99204137D01*
X169986792Y-99027808D01*
X169810462Y-98883099D01*
X169609291Y-98775571D01*
X169391007Y-98709355D01*
X169164000Y-98686997D01*
X168936992Y-98709355D01*
X168718708Y-98775571D01*
X168517537Y-98883099D01*
X168341208Y-99027808D01*
X168196499Y-99204138D01*
X168088971Y-99405309D01*
X168022755Y-99623593D01*
X168006000Y-99793712D01*
X168006000Y-100307489D01*
X168022755Y-100477608D01*
X168088971Y-100695892D01*
X168196500Y-100897063D01*
X168252254Y-100965000D01*
X167535746Y-100965000D01*
X167591501Y-100897062D01*
X167699029Y-100695891D01*
X167765245Y-100477607D01*
X167782000Y-100307488D01*
X167782000Y-99793711D01*
X167765245Y-99623592D01*
X167699029Y-99405308D01*
X167591501Y-99204137D01*
X167446792Y-99027808D01*
X167270462Y-98883099D01*
X167069291Y-98775571D01*
X166851007Y-98709355D01*
X166624000Y-98686997D01*
X166396992Y-98709355D01*
X166178708Y-98775571D01*
X165977537Y-98883099D01*
X165801208Y-99027808D01*
X165656499Y-99204138D01*
X165548971Y-99405309D01*
X165482755Y-99623593D01*
X165466000Y-99793712D01*
X165466000Y-100307489D01*
X165482755Y-100477608D01*
X165548971Y-100695892D01*
X165656500Y-100897063D01*
X165712254Y-100965000D01*
X164995746Y-100965000D01*
X165051501Y-100897062D01*
X165159029Y-100695891D01*
X165225245Y-100477607D01*
X165242000Y-100307488D01*
X165242000Y-99793711D01*
X165225245Y-99623592D01*
X165159029Y-99405308D01*
X165051501Y-99204137D01*
X164906792Y-99027808D01*
X164730462Y-98883099D01*
X164529291Y-98775571D01*
X164311007Y-98709355D01*
X164084000Y-98686997D01*
X163856992Y-98709355D01*
X163638708Y-98775571D01*
X163437537Y-98883099D01*
X163261208Y-99027808D01*
X163116499Y-99204138D01*
X163008971Y-99405309D01*
X162942755Y-99623593D01*
X162926000Y-99793712D01*
X162926000Y-100307489D01*
X162942755Y-100477608D01*
X163008971Y-100695892D01*
X163116500Y-100897063D01*
X163172254Y-100965000D01*
X162611450Y-100965000D01*
X162680854Y-100861648D01*
X162778219Y-100628118D01*
X162828154Y-100380080D01*
X162673849Y-100177600D01*
X161671000Y-100177600D01*
X161671000Y-100197600D01*
X161417000Y-100197600D01*
X161417000Y-100177600D01*
X160414151Y-100177600D01*
X160259846Y-100380080D01*
X160309781Y-100628118D01*
X160407146Y-100861648D01*
X160476550Y-100965000D01*
X159915746Y-100965000D01*
X159971501Y-100897062D01*
X160079029Y-100695891D01*
X160145245Y-100477607D01*
X160162000Y-100307488D01*
X160162000Y-99793711D01*
X160154851Y-99721120D01*
X160259846Y-99721120D01*
X160414151Y-99923600D01*
X161417000Y-99923600D01*
X161417000Y-98731533D01*
X161671000Y-98731533D01*
X161671000Y-99923600D01*
X162673849Y-99923600D01*
X162828154Y-99721120D01*
X162778219Y-99473082D01*
X162680854Y-99239552D01*
X162539800Y-99029504D01*
X162360478Y-98851010D01*
X162149779Y-98710930D01*
X161915801Y-98614647D01*
X161869471Y-98607501D01*
X161671000Y-98731533D01*
X161417000Y-98731533D01*
X161218529Y-98607501D01*
X161172199Y-98614647D01*
X160938221Y-98710930D01*
X160727522Y-98851010D01*
X160548200Y-99029504D01*
X160407146Y-99239552D01*
X160309781Y-99473082D01*
X160259846Y-99721120D01*
X160154851Y-99721120D01*
X160145245Y-99623592D01*
X160079029Y-99405308D01*
X159971501Y-99204137D01*
X159826792Y-99027808D01*
X159650462Y-98883099D01*
X159449291Y-98775571D01*
X159231007Y-98709355D01*
X159004000Y-98686997D01*
X158776992Y-98709355D01*
X158558708Y-98775571D01*
X158357537Y-98883099D01*
X158181208Y-99027808D01*
X158036499Y-99204138D01*
X157928971Y-99405309D01*
X157862755Y-99623593D01*
X157846000Y-99793712D01*
X157846000Y-100307489D01*
X157862755Y-100477608D01*
X157928971Y-100695892D01*
X158036500Y-100897063D01*
X158092254Y-100965000D01*
X157618114Y-100965000D01*
X157624457Y-100900600D01*
X157624457Y-99200600D01*
X157614649Y-99101015D01*
X157585601Y-99005257D01*
X157538429Y-98917005D01*
X157474948Y-98839652D01*
X157397595Y-98776171D01*
X157309343Y-98728999D01*
X157213585Y-98699951D01*
X157114000Y-98690143D01*
X155814000Y-98690143D01*
X155714415Y-98699951D01*
X155618657Y-98728999D01*
X155530405Y-98776171D01*
X155453052Y-98839652D01*
X155389571Y-98917005D01*
X155342399Y-99005257D01*
X155313351Y-99101015D01*
X155303543Y-99200600D01*
X155303543Y-100900600D01*
X155309886Y-100965000D01*
X147583024Y-100965000D01*
X147900525Y-100647500D01*
X147909305Y-100647500D01*
X148068789Y-100615776D01*
X148219021Y-100553548D01*
X148354225Y-100463208D01*
X148469208Y-100348225D01*
X148559548Y-100213021D01*
X148621776Y-100062789D01*
X148653500Y-99903305D01*
X148653500Y-99740695D01*
X148621776Y-99581211D01*
X148559548Y-99430979D01*
X148469208Y-99295775D01*
X148354225Y-99180792D01*
X148219021Y-99090452D01*
X148068789Y-99028224D01*
X147909305Y-98996500D01*
X147746695Y-98996500D01*
X147587211Y-99028224D01*
X147436979Y-99090452D01*
X147301775Y-99180792D01*
X147186792Y-99295775D01*
X147096452Y-99430979D01*
X147034224Y-99581211D01*
X147002500Y-99740695D01*
X147002500Y-99749475D01*
X146574376Y-100177600D01*
X145576880Y-100177600D01*
X145640474Y-100155172D01*
X145783975Y-100078468D01*
X145864635Y-99826840D01*
X144998000Y-98960205D01*
X144131365Y-99826840D01*
X144212025Y-100078468D01*
X144419172Y-100177600D01*
X134908880Y-100177600D01*
X134972474Y-100155172D01*
X135115975Y-100078468D01*
X135196635Y-99826840D01*
X134330000Y-98960205D01*
X133463365Y-99826840D01*
X133544025Y-100078468D01*
X133751172Y-100177600D01*
X124342480Y-100177600D01*
X124406074Y-100155172D01*
X124549575Y-100078468D01*
X124630235Y-99826840D01*
X123763600Y-98960205D01*
X122896965Y-99826840D01*
X122977625Y-100078468D01*
X123184772Y-100177600D01*
X116061626Y-100177600D01*
X114960400Y-99076375D01*
X114960400Y-98969939D01*
X114925260Y-98793279D01*
X114856330Y-98626869D01*
X114756261Y-98477104D01*
X114628896Y-98349739D01*
X114479131Y-98249670D01*
X114312721Y-98180740D01*
X114136061Y-98145600D01*
X113955939Y-98145600D01*
X113779279Y-98180740D01*
X113612869Y-98249670D01*
X113463104Y-98349739D01*
X113335739Y-98477104D01*
X113235670Y-98626869D01*
X113166740Y-98793279D01*
X113131600Y-98969939D01*
X113131600Y-99150061D01*
X113166740Y-99326721D01*
X113235670Y-99493131D01*
X113335739Y-99642896D01*
X113463104Y-99770261D01*
X113612869Y-99870330D01*
X113779279Y-99939260D01*
X113955939Y-99974400D01*
X114062375Y-99974400D01*
X115052974Y-100965000D01*
X104775000Y-100965000D01*
X104775000Y-96137150D01*
X116445600Y-96137150D01*
X116445600Y-96444050D01*
X116505474Y-96745052D01*
X116622919Y-97028590D01*
X116793423Y-97283767D01*
X117010433Y-97500777D01*
X117265610Y-97671281D01*
X117549148Y-97788726D01*
X117850150Y-97848600D01*
X118157050Y-97848600D01*
X118260276Y-97828067D01*
X118189354Y-97898989D01*
X118038001Y-98125504D01*
X117933748Y-98377194D01*
X117880600Y-98644386D01*
X117880600Y-98916814D01*
X117933748Y-99184006D01*
X118038001Y-99435696D01*
X118189354Y-99662211D01*
X118381989Y-99854846D01*
X118608504Y-100006199D01*
X118860194Y-100110452D01*
X119127386Y-100163600D01*
X119399814Y-100163600D01*
X119667006Y-100110452D01*
X119918696Y-100006199D01*
X120145211Y-99854846D01*
X120337846Y-99662211D01*
X120489199Y-99435696D01*
X120593452Y-99184006D01*
X120646600Y-98916814D01*
X120646600Y-98848143D01*
X122247796Y-98848143D01*
X122290099Y-99142563D01*
X122389028Y-99423074D01*
X122465732Y-99566575D01*
X122717360Y-99647235D01*
X123583995Y-98780600D01*
X122717360Y-97913965D01*
X122465732Y-97994625D01*
X122337333Y-98262929D01*
X122263745Y-98551126D01*
X122247796Y-98848143D01*
X120646600Y-98848143D01*
X120646600Y-98644386D01*
X120593452Y-98377194D01*
X120489199Y-98125504D01*
X120337846Y-97898989D01*
X120173217Y-97734360D01*
X122896965Y-97734360D01*
X123763600Y-98600995D01*
X123777743Y-98586853D01*
X123957348Y-98766458D01*
X123943205Y-98780600D01*
X124809840Y-99647235D01*
X125061468Y-99566575D01*
X125189867Y-99298271D01*
X125263455Y-99010074D01*
X125279404Y-98713057D01*
X125237101Y-98418637D01*
X125138172Y-98138126D01*
X125061468Y-97994625D01*
X124809842Y-97913966D01*
X124875208Y-97848600D01*
X125167050Y-97848600D01*
X125468052Y-97788726D01*
X125751590Y-97671281D01*
X126006767Y-97500777D01*
X126223777Y-97283767D01*
X126394281Y-97028590D01*
X126511726Y-96745052D01*
X126571600Y-96444050D01*
X126571600Y-96137150D01*
X127012000Y-96137150D01*
X127012000Y-96444050D01*
X127071874Y-96745052D01*
X127189319Y-97028590D01*
X127359823Y-97283767D01*
X127576833Y-97500777D01*
X127832010Y-97671281D01*
X128115548Y-97788726D01*
X128416550Y-97848600D01*
X128723450Y-97848600D01*
X128826676Y-97828067D01*
X128755754Y-97898989D01*
X128604401Y-98125504D01*
X128500148Y-98377194D01*
X128447000Y-98644386D01*
X128447000Y-98916814D01*
X128500148Y-99184006D01*
X128604401Y-99435696D01*
X128755754Y-99662211D01*
X128948389Y-99854846D01*
X129174904Y-100006199D01*
X129426594Y-100110452D01*
X129693786Y-100163600D01*
X129966214Y-100163600D01*
X130233406Y-100110452D01*
X130485096Y-100006199D01*
X130711611Y-99854846D01*
X130904246Y-99662211D01*
X131055599Y-99435696D01*
X131159852Y-99184006D01*
X131213000Y-98916814D01*
X131213000Y-98848143D01*
X132814196Y-98848143D01*
X132856499Y-99142563D01*
X132955428Y-99423074D01*
X133032132Y-99566575D01*
X133283760Y-99647235D01*
X134150395Y-98780600D01*
X133283760Y-97913965D01*
X133032132Y-97994625D01*
X132903733Y-98262929D01*
X132830145Y-98551126D01*
X132814196Y-98848143D01*
X131213000Y-98848143D01*
X131213000Y-98644386D01*
X131159852Y-98377194D01*
X131055599Y-98125504D01*
X130904246Y-97898989D01*
X130739617Y-97734360D01*
X133463365Y-97734360D01*
X134330000Y-98600995D01*
X134344143Y-98586853D01*
X134523748Y-98766458D01*
X134509605Y-98780600D01*
X135376240Y-99647235D01*
X135627868Y-99566575D01*
X135756267Y-99298271D01*
X135829855Y-99010074D01*
X135845804Y-98713057D01*
X135803501Y-98418637D01*
X135704572Y-98138126D01*
X135627868Y-97994625D01*
X135376242Y-97913966D01*
X135441608Y-97848600D01*
X135733450Y-97848600D01*
X136034452Y-97788726D01*
X136317990Y-97671281D01*
X136573167Y-97500777D01*
X136790177Y-97283767D01*
X136960681Y-97028590D01*
X137078126Y-96745052D01*
X137138000Y-96444050D01*
X137138000Y-96137150D01*
X137680000Y-96137150D01*
X137680000Y-96444050D01*
X137739874Y-96745052D01*
X137857319Y-97028590D01*
X138027823Y-97283767D01*
X138244833Y-97500777D01*
X138500010Y-97671281D01*
X138783548Y-97788726D01*
X139084550Y-97848600D01*
X139391450Y-97848600D01*
X139494676Y-97828067D01*
X139423754Y-97898989D01*
X139272401Y-98125504D01*
X139168148Y-98377194D01*
X139115000Y-98644386D01*
X139115000Y-98916814D01*
X139168148Y-99184006D01*
X139272401Y-99435696D01*
X139423754Y-99662211D01*
X139616389Y-99854846D01*
X139842904Y-100006199D01*
X140094594Y-100110452D01*
X140361786Y-100163600D01*
X140634214Y-100163600D01*
X140901406Y-100110452D01*
X141153096Y-100006199D01*
X141379611Y-99854846D01*
X141572246Y-99662211D01*
X141723599Y-99435696D01*
X141827852Y-99184006D01*
X141881000Y-98916814D01*
X141881000Y-98848143D01*
X143482196Y-98848143D01*
X143524499Y-99142563D01*
X143623428Y-99423074D01*
X143700132Y-99566575D01*
X143951760Y-99647235D01*
X144818395Y-98780600D01*
X143951760Y-97913965D01*
X143700132Y-97994625D01*
X143571733Y-98262929D01*
X143498145Y-98551126D01*
X143482196Y-98848143D01*
X141881000Y-98848143D01*
X141881000Y-98644386D01*
X141827852Y-98377194D01*
X141723599Y-98125504D01*
X141572246Y-97898989D01*
X141407617Y-97734360D01*
X144131365Y-97734360D01*
X144998000Y-98600995D01*
X145012143Y-98586853D01*
X145191748Y-98766458D01*
X145177605Y-98780600D01*
X146044240Y-99647235D01*
X146295868Y-99566575D01*
X146424267Y-99298271D01*
X146497855Y-99010074D01*
X146513804Y-98713057D01*
X146471501Y-98418637D01*
X146372572Y-98138126D01*
X146295868Y-97994625D01*
X146044242Y-97913966D01*
X146109608Y-97848600D01*
X146401450Y-97848600D01*
X146702452Y-97788726D01*
X146985990Y-97671281D01*
X147241167Y-97500777D01*
X147458177Y-97283767D01*
X147628681Y-97028590D01*
X147746126Y-96745052D01*
X147806000Y-96444050D01*
X147806000Y-96137150D01*
X147746126Y-95836148D01*
X147628681Y-95552610D01*
X147458177Y-95297433D01*
X147241167Y-95080423D01*
X146985990Y-94909919D01*
X146702452Y-94792474D01*
X146401450Y-94732600D01*
X146094550Y-94732600D01*
X145793548Y-94792474D01*
X145510010Y-94909919D01*
X145254833Y-95080423D01*
X145037823Y-95297433D01*
X144867319Y-95552610D01*
X144749874Y-95836148D01*
X144690000Y-96137150D01*
X144690000Y-96444050D01*
X144749874Y-96745052D01*
X144867319Y-97028590D01*
X145028671Y-97270070D01*
X144930457Y-97264796D01*
X144636037Y-97307099D01*
X144355526Y-97406028D01*
X144212025Y-97482732D01*
X144131365Y-97734360D01*
X141407617Y-97734360D01*
X141379611Y-97706354D01*
X141153096Y-97555001D01*
X140901406Y-97450748D01*
X140634214Y-97397600D01*
X140361786Y-97397600D01*
X140327530Y-97404414D01*
X140448177Y-97283767D01*
X140618681Y-97028590D01*
X140736126Y-96745052D01*
X140796000Y-96444050D01*
X140796000Y-96137150D01*
X140736126Y-95836148D01*
X140618681Y-95552610D01*
X140448177Y-95297433D01*
X140231167Y-95080423D01*
X139975990Y-94909919D01*
X139692452Y-94792474D01*
X139391450Y-94732600D01*
X139084550Y-94732600D01*
X138783548Y-94792474D01*
X138500010Y-94909919D01*
X138244833Y-95080423D01*
X138027823Y-95297433D01*
X137857319Y-95552610D01*
X137739874Y-95836148D01*
X137680000Y-96137150D01*
X137138000Y-96137150D01*
X137078126Y-95836148D01*
X136960681Y-95552610D01*
X136790177Y-95297433D01*
X136573167Y-95080423D01*
X136317990Y-94909919D01*
X136034452Y-94792474D01*
X135733450Y-94732600D01*
X135426550Y-94732600D01*
X135125548Y-94792474D01*
X134842010Y-94909919D01*
X134586833Y-95080423D01*
X134369823Y-95297433D01*
X134199319Y-95552610D01*
X134081874Y-95836148D01*
X134022000Y-96137150D01*
X134022000Y-96444050D01*
X134081874Y-96745052D01*
X134199319Y-97028590D01*
X134360671Y-97270070D01*
X134262457Y-97264796D01*
X133968037Y-97307099D01*
X133687526Y-97406028D01*
X133544025Y-97482732D01*
X133463365Y-97734360D01*
X130739617Y-97734360D01*
X130711611Y-97706354D01*
X130485096Y-97555001D01*
X130233406Y-97450748D01*
X129966214Y-97397600D01*
X129693786Y-97397600D01*
X129659530Y-97404414D01*
X129780177Y-97283767D01*
X129950681Y-97028590D01*
X130068126Y-96745052D01*
X130128000Y-96444050D01*
X130128000Y-96137150D01*
X130068126Y-95836148D01*
X129950681Y-95552610D01*
X129780177Y-95297433D01*
X129563167Y-95080423D01*
X129307990Y-94909919D01*
X129024452Y-94792474D01*
X128723450Y-94732600D01*
X128416550Y-94732600D01*
X128115548Y-94792474D01*
X127832010Y-94909919D01*
X127576833Y-95080423D01*
X127359823Y-95297433D01*
X127189319Y-95552610D01*
X127071874Y-95836148D01*
X127012000Y-96137150D01*
X126571600Y-96137150D01*
X126511726Y-95836148D01*
X126394281Y-95552610D01*
X126223777Y-95297433D01*
X126006767Y-95080423D01*
X125751590Y-94909919D01*
X125468052Y-94792474D01*
X125167050Y-94732600D01*
X124860150Y-94732600D01*
X124559148Y-94792474D01*
X124275610Y-94909919D01*
X124020433Y-95080423D01*
X123803423Y-95297433D01*
X123632919Y-95552610D01*
X123515474Y-95836148D01*
X123455600Y-96137150D01*
X123455600Y-96444050D01*
X123515474Y-96745052D01*
X123632919Y-97028590D01*
X123794271Y-97270070D01*
X123696057Y-97264796D01*
X123401637Y-97307099D01*
X123121126Y-97406028D01*
X122977625Y-97482732D01*
X122896965Y-97734360D01*
X120173217Y-97734360D01*
X120145211Y-97706354D01*
X119918696Y-97555001D01*
X119667006Y-97450748D01*
X119399814Y-97397600D01*
X119127386Y-97397600D01*
X119093130Y-97404414D01*
X119213777Y-97283767D01*
X119384281Y-97028590D01*
X119501726Y-96745052D01*
X119561600Y-96444050D01*
X119561600Y-96137150D01*
X119501726Y-95836148D01*
X119384281Y-95552610D01*
X119213777Y-95297433D01*
X118996767Y-95080423D01*
X118741590Y-94909919D01*
X118458052Y-94792474D01*
X118157050Y-94732600D01*
X117850150Y-94732600D01*
X117549148Y-94792474D01*
X117265610Y-94909919D01*
X117010433Y-95080423D01*
X116793423Y-95297433D01*
X116622919Y-95552610D01*
X116505474Y-95836148D01*
X116445600Y-96137150D01*
X104775000Y-96137150D01*
X104775000Y-94152695D01*
X105092500Y-94152695D01*
X105092500Y-94315305D01*
X105124224Y-94474789D01*
X105186452Y-94625021D01*
X105276792Y-94760225D01*
X105391775Y-94875208D01*
X105526979Y-94965548D01*
X105677211Y-95027776D01*
X105836695Y-95059500D01*
X105999305Y-95059500D01*
X106158789Y-95027776D01*
X106309021Y-94965548D01*
X106415502Y-94894400D01*
X115029561Y-94894400D01*
X115062000Y-94897595D01*
X115094439Y-94894400D01*
X115191461Y-94884844D01*
X115315947Y-94847082D01*
X115430674Y-94785759D01*
X115531233Y-94703233D01*
X115551918Y-94678028D01*
X116014029Y-94215917D01*
X116039233Y-94195233D01*
X116121759Y-94094674D01*
X116183082Y-93979947D01*
X116220844Y-93855461D01*
X116230400Y-93758439D01*
X116230400Y-93758438D01*
X116233595Y-93726001D01*
X116230400Y-93693562D01*
X116230400Y-92953502D01*
X116301548Y-92847021D01*
X116363776Y-92696789D01*
X116395500Y-92537305D01*
X116395500Y-92374695D01*
X116363776Y-92215211D01*
X116301548Y-92064979D01*
X116211208Y-91929775D01*
X116096225Y-91814792D01*
X115961021Y-91724452D01*
X115810789Y-91662224D01*
X115651305Y-91630500D01*
X115488695Y-91630500D01*
X115329211Y-91662224D01*
X115178979Y-91724452D01*
X115043775Y-91814792D01*
X114928792Y-91929775D01*
X114838452Y-92064979D01*
X114776224Y-92215211D01*
X114744500Y-92374695D01*
X114744500Y-92537305D01*
X114776224Y-92696789D01*
X114838452Y-92847021D01*
X114909601Y-92953503D01*
X114909600Y-93452454D01*
X114788454Y-93573600D01*
X106415502Y-93573600D01*
X106309021Y-93502452D01*
X106158789Y-93440224D01*
X105999305Y-93408500D01*
X105836695Y-93408500D01*
X105677211Y-93440224D01*
X105526979Y-93502452D01*
X105391775Y-93592792D01*
X105276792Y-93707775D01*
X105186452Y-93842979D01*
X105124224Y-93993211D01*
X105092500Y-94152695D01*
X104775000Y-94152695D01*
X104775000Y-92583000D01*
X113284000Y-92583000D01*
X113308776Y-92580560D01*
X113332601Y-92573333D01*
X113354557Y-92561597D01*
X113373803Y-92545803D01*
X113389597Y-92526557D01*
X113401333Y-92504601D01*
X113408560Y-92480776D01*
X113411000Y-92456000D01*
X113411000Y-88818695D01*
X122364500Y-88818695D01*
X122364500Y-88981305D01*
X122396224Y-89140789D01*
X122458452Y-89291021D01*
X122548792Y-89426225D01*
X122663775Y-89541208D01*
X122798979Y-89631548D01*
X122949211Y-89693776D01*
X123108695Y-89725500D01*
X123271305Y-89725500D01*
X123430789Y-89693776D01*
X123581021Y-89631548D01*
X123716225Y-89541208D01*
X123722433Y-89535000D01*
X128753567Y-89535000D01*
X128759775Y-89541208D01*
X128894979Y-89631548D01*
X129045211Y-89693776D01*
X129204695Y-89725500D01*
X129367305Y-89725500D01*
X129526789Y-89693776D01*
X129677021Y-89631548D01*
X129812225Y-89541208D01*
X129818433Y-89535000D01*
X137135567Y-89535000D01*
X137141775Y-89541208D01*
X137276979Y-89631548D01*
X137427211Y-89693776D01*
X137586695Y-89725500D01*
X137749305Y-89725500D01*
X137908789Y-89693776D01*
X138059021Y-89631548D01*
X138194225Y-89541208D01*
X138309208Y-89426225D01*
X138399548Y-89291021D01*
X138461776Y-89140789D01*
X138493500Y-88981305D01*
X138493500Y-88818695D01*
X138461776Y-88659211D01*
X138399548Y-88508979D01*
X138309208Y-88373775D01*
X138194225Y-88258792D01*
X138059021Y-88168452D01*
X137908789Y-88106224D01*
X137749305Y-88074500D01*
X137586695Y-88074500D01*
X137427211Y-88106224D01*
X137276979Y-88168452D01*
X137141775Y-88258792D01*
X137135567Y-88265000D01*
X129818433Y-88265000D01*
X129812225Y-88258792D01*
X129677021Y-88168452D01*
X129526789Y-88106224D01*
X129367305Y-88074500D01*
X129204695Y-88074500D01*
X129045211Y-88106224D01*
X128894979Y-88168452D01*
X128759775Y-88258792D01*
X128753567Y-88265000D01*
X123722433Y-88265000D01*
X123716225Y-88258792D01*
X123581021Y-88168452D01*
X123430789Y-88106224D01*
X123271305Y-88074500D01*
X123108695Y-88074500D01*
X122949211Y-88106224D01*
X122798979Y-88168452D01*
X122663775Y-88258792D01*
X122548792Y-88373775D01*
X122458452Y-88508979D01*
X122396224Y-88659211D01*
X122364500Y-88818695D01*
X113411000Y-88818695D01*
X113411000Y-86868000D01*
X113408560Y-86843224D01*
X113401333Y-86819399D01*
X113389597Y-86797443D01*
X113373803Y-86778197D01*
X113354557Y-86762403D01*
X113332601Y-86750667D01*
X113308776Y-86743440D01*
X113284000Y-86741000D01*
X104775000Y-86741000D01*
X104775000Y-78235000D01*
X115087150Y-78235000D01*
X114879542Y-78442608D01*
G37*
%TD.AperFunction*%
%TD*%
M02*
