%TF.GenerationSoftware,KiCad,Pcbnew,(5.1.10)-1*%
%TF.CreationDate,2021-09-27T23:39:52+02:00*%
%TF.ProjectId,XX,58582e6b-6963-4616-945f-706362585858,V00*%
%TF.SameCoordinates,Original*%
%TF.FileFunction,Legend,Bot*%
%TF.FilePolarity,Positive*%
%FSLAX46Y46*%
G04 Gerber Fmt 4.6, Leading zero omitted, Abs format (unit mm)*
G04 Created by KiCad (PCBNEW (5.1.10)-1) date 2021-09-27 23:39:52*
%MOMM*%
%LPD*%
G01*
G04 APERTURE LIST*
%ADD10C,0.500000*%
%ADD11C,0.120000*%
%ADD12C,0.254000*%
%ADD13C,0.256000*%
%ADD14C,0.150000*%
%ADD15C,0.170000*%
G04 APERTURE END LIST*
D10*
X135997172Y-80565523D02*
X135723363Y-80660761D01*
X135247172Y-80660761D01*
X135044791Y-80565523D01*
X134937648Y-80470285D01*
X134818601Y-80279809D01*
X134794791Y-80089333D01*
X134866220Y-79898857D01*
X134949553Y-79803619D01*
X135128125Y-79708380D01*
X135497172Y-79613142D01*
X135675744Y-79517904D01*
X135759077Y-79422666D01*
X135830505Y-79232190D01*
X135806696Y-79041714D01*
X135687648Y-78851238D01*
X135580505Y-78756000D01*
X135378125Y-78660761D01*
X134901934Y-78660761D01*
X134628125Y-78756000D01*
X134009077Y-80660761D02*
X133759077Y-78660761D01*
X133270982Y-80089333D01*
X132425744Y-78660761D01*
X132675744Y-80660761D01*
X131747172Y-80089333D02*
X130794791Y-80089333D01*
X132009077Y-80660761D02*
X131092410Y-78660761D01*
X130675744Y-80660761D01*
X128866220Y-80660761D02*
X129413839Y-79708380D01*
X130009077Y-80660761D02*
X129759077Y-78660761D01*
X128997172Y-78660761D01*
X128818601Y-78756000D01*
X128735267Y-78851238D01*
X128663839Y-79041714D01*
X128699553Y-79327428D01*
X128818601Y-79517904D01*
X128925744Y-79613142D01*
X129128125Y-79708380D01*
X129890029Y-79708380D01*
X128044791Y-78660761D02*
X126901934Y-78660761D01*
X127723363Y-80660761D02*
X127473363Y-78660761D01*
X124009077Y-80660761D02*
X124961458Y-80660761D01*
X124711458Y-78660761D01*
X122711458Y-78660761D02*
X122330505Y-78660761D01*
X122151934Y-78756000D01*
X121985267Y-78946476D01*
X121937648Y-79327428D01*
X122020982Y-79994095D01*
X122163839Y-80375047D01*
X122378125Y-80565523D01*
X122580505Y-80660761D01*
X122961458Y-80660761D01*
X123140029Y-80565523D01*
X123306696Y-80375047D01*
X123354315Y-79994095D01*
X123270982Y-79327428D01*
X123128125Y-78946476D01*
X122913839Y-78756000D01*
X122711458Y-78660761D01*
X119961458Y-78756000D02*
X120140029Y-78660761D01*
X120425744Y-78660761D01*
X120723363Y-78756000D01*
X120937648Y-78946476D01*
X121056696Y-79136952D01*
X121199553Y-79517904D01*
X121235267Y-79803619D01*
X121187648Y-80184571D01*
X121116220Y-80375047D01*
X120949553Y-80565523D01*
X120675744Y-80660761D01*
X120485267Y-80660761D01*
X120187648Y-80565523D01*
X120080505Y-80470285D01*
X119997172Y-79803619D01*
X120378125Y-79803619D01*
X119247172Y-80660761D02*
X118997172Y-78660761D01*
X117128125Y-80470285D02*
X117235267Y-80565523D01*
X117532886Y-80660761D01*
X117723363Y-80660761D01*
X117997172Y-80565523D01*
X118163839Y-80375047D01*
X118235267Y-80184571D01*
X118282886Y-79803619D01*
X118247172Y-79517904D01*
X118104315Y-79136952D01*
X117985267Y-78946476D01*
X117770982Y-78756000D01*
X117473363Y-78660761D01*
X117282886Y-78660761D01*
X117009077Y-78756000D01*
X116925744Y-78851238D01*
X114770982Y-80660761D02*
X114520982Y-78660761D01*
X113759077Y-78660761D01*
X113580505Y-78756000D01*
X113497172Y-78851238D01*
X113425744Y-79041714D01*
X113461458Y-79327428D01*
X113580505Y-79517904D01*
X113687648Y-79613142D01*
X113890029Y-79708380D01*
X114651934Y-79708380D01*
X111628125Y-80660761D02*
X112175744Y-79708380D01*
X112770982Y-80660761D02*
X112520982Y-78660761D01*
X111759077Y-78660761D01*
X111580505Y-78756000D01*
X111497172Y-78851238D01*
X111425744Y-79041714D01*
X111461458Y-79327428D01*
X111580505Y-79517904D01*
X111687648Y-79613142D01*
X111890029Y-79708380D01*
X112651934Y-79708380D01*
X110140029Y-78660761D02*
X109759077Y-78660761D01*
X109580505Y-78756000D01*
X109413839Y-78946476D01*
X109366220Y-79327428D01*
X109449553Y-79994095D01*
X109592410Y-80375047D01*
X109806696Y-80565523D01*
X110009077Y-80660761D01*
X110390029Y-80660761D01*
X110568601Y-80565523D01*
X110735267Y-80375047D01*
X110782886Y-79994095D01*
X110699553Y-79327428D01*
X110556696Y-78946476D01*
X110342410Y-78756000D01*
X110140029Y-78660761D01*
X107878125Y-79613142D02*
X107604315Y-79708380D01*
X107520982Y-79803619D01*
X107449553Y-79994095D01*
X107485267Y-80279809D01*
X107604315Y-80470285D01*
X107711458Y-80565523D01*
X107913839Y-80660761D01*
X108675744Y-80660761D01*
X108425744Y-78660761D01*
X107759077Y-78660761D01*
X107580505Y-78756000D01*
X107497172Y-78851238D01*
X107425744Y-79041714D01*
X107449553Y-79232190D01*
X107568601Y-79422666D01*
X107675744Y-79517904D01*
X107878125Y-79613142D01*
X108544791Y-79613142D01*
X106544791Y-79613142D02*
X105878125Y-79613142D01*
X105723363Y-80660761D02*
X106675744Y-80660761D01*
X106425744Y-78660761D01*
X105473363Y-78660761D01*
X136120601Y-83708761D02*
X135870601Y-81708761D01*
X135382505Y-83137333D01*
X134537267Y-81708761D01*
X134787267Y-83708761D01*
X132882505Y-83708761D02*
X133834886Y-83708761D01*
X133584886Y-81708761D01*
X130930125Y-81804000D02*
X131108696Y-81708761D01*
X131394410Y-81708761D01*
X131692029Y-81804000D01*
X131906315Y-81994476D01*
X132025363Y-82184952D01*
X132168220Y-82565904D01*
X132203934Y-82851619D01*
X132156315Y-83232571D01*
X132084886Y-83423047D01*
X131918220Y-83613523D01*
X131644410Y-83708761D01*
X131453934Y-83708761D01*
X131156315Y-83613523D01*
X131049172Y-83518285D01*
X130965839Y-82851619D01*
X131346791Y-82851619D01*
X129049172Y-83518285D02*
X129156315Y-83613523D01*
X129453934Y-83708761D01*
X129644410Y-83708761D01*
X129918220Y-83613523D01*
X130084886Y-83423047D01*
X130156315Y-83232571D01*
X130203934Y-82851619D01*
X130168220Y-82565904D01*
X130025363Y-82184952D01*
X129906315Y-81994476D01*
X129692029Y-81804000D01*
X129394410Y-81708761D01*
X129203934Y-81708761D01*
X128930125Y-81804000D01*
X128846791Y-81899238D01*
X128084886Y-81899238D02*
X127977744Y-81804000D01*
X127775363Y-81708761D01*
X127299172Y-81708761D01*
X127120601Y-81804000D01*
X127037267Y-81899238D01*
X126965839Y-82089714D01*
X126989648Y-82280190D01*
X127120601Y-82565904D01*
X128406315Y-83708761D01*
X127168220Y-83708761D01*
X125263458Y-83708761D02*
X126406315Y-83708761D01*
X125834886Y-83708761D02*
X125584886Y-81708761D01*
X125811077Y-81994476D01*
X126025363Y-82184952D01*
X126227744Y-82280190D01*
X123775363Y-81708761D02*
X123584886Y-81708761D01*
X123406315Y-81804000D01*
X123322982Y-81899238D01*
X123251553Y-82089714D01*
X123203934Y-82470666D01*
X123263458Y-82946857D01*
X123406315Y-83327809D01*
X123525363Y-83518285D01*
X123632505Y-83613523D01*
X123834886Y-83708761D01*
X124025363Y-83708761D01*
X124203934Y-83613523D01*
X124287267Y-83518285D01*
X124358696Y-83327809D01*
X124406315Y-82946857D01*
X124346791Y-82470666D01*
X124203934Y-82089714D01*
X124084886Y-81899238D01*
X123977744Y-81804000D01*
X123775363Y-81708761D01*
X122072982Y-82565904D02*
X122251553Y-82470666D01*
X122334886Y-82375428D01*
X122406315Y-82184952D01*
X122394410Y-82089714D01*
X122275363Y-81899238D01*
X122168220Y-81804000D01*
X121965839Y-81708761D01*
X121584886Y-81708761D01*
X121406315Y-81804000D01*
X121322982Y-81899238D01*
X121251553Y-82089714D01*
X121263458Y-82184952D01*
X121382505Y-82375428D01*
X121489648Y-82470666D01*
X121692029Y-82565904D01*
X122072982Y-82565904D01*
X122275363Y-82661142D01*
X122382505Y-82756380D01*
X122501553Y-82946857D01*
X122549172Y-83327809D01*
X122477744Y-83518285D01*
X122394410Y-83613523D01*
X122215839Y-83708761D01*
X121834886Y-83708761D01*
X121632505Y-83613523D01*
X121525363Y-83518285D01*
X121406315Y-83327809D01*
X121358696Y-82946857D01*
X121430125Y-82756380D01*
X121513458Y-82661142D01*
X121692029Y-82565904D01*
X119549172Y-83708761D02*
X120692029Y-83708761D01*
X120120601Y-83708761D02*
X119870601Y-81708761D01*
X120096791Y-81994476D01*
X120311077Y-82184952D01*
X120513458Y-82280190D01*
X117489648Y-81708761D02*
X118442029Y-81708761D01*
X118656315Y-82661142D01*
X118549172Y-82565904D01*
X118346791Y-82470666D01*
X117870601Y-82470666D01*
X117692029Y-82565904D01*
X117608696Y-82661142D01*
X117537267Y-82851619D01*
X117596791Y-83327809D01*
X117715839Y-83518285D01*
X117822982Y-83613523D01*
X118025363Y-83708761D01*
X118501553Y-83708761D01*
X118680125Y-83613523D01*
X118763458Y-83518285D01*
X116822982Y-81708761D02*
X116406315Y-83708761D01*
X115489648Y-81708761D01*
X114442029Y-81708761D02*
X114251553Y-81708761D01*
X114072982Y-81804000D01*
X113989648Y-81899238D01*
X113918220Y-82089714D01*
X113870601Y-82470666D01*
X113930125Y-82946857D01*
X114072982Y-83327809D01*
X114192029Y-83518285D01*
X114299172Y-83613523D01*
X114501553Y-83708761D01*
X114692029Y-83708761D01*
X114870601Y-83613523D01*
X114953934Y-83518285D01*
X115025363Y-83327809D01*
X115072982Y-82946857D01*
X115013458Y-82470666D01*
X114870601Y-82089714D01*
X114751553Y-81899238D01*
X114644410Y-81804000D01*
X114442029Y-81708761D01*
X112537267Y-81708761D02*
X112346791Y-81708761D01*
X112168220Y-81804000D01*
X112084886Y-81899238D01*
X112013458Y-82089714D01*
X111965839Y-82470666D01*
X112025363Y-82946857D01*
X112168220Y-83327809D01*
X112287267Y-83518285D01*
X112394410Y-83613523D01*
X112596791Y-83708761D01*
X112787267Y-83708761D01*
X112965839Y-83613523D01*
X113049172Y-83518285D01*
X113120601Y-83327809D01*
X113168220Y-82946857D01*
X113108696Y-82470666D01*
X112965839Y-82089714D01*
X112846791Y-81899238D01*
X112739648Y-81804000D01*
X112537267Y-81708761D01*
D11*
%TO.C,B1*%
X181356000Y-94869000D02*
X186055000Y-94869000D01*
X181356000Y-96647000D02*
X181356000Y-94869000D01*
X186055000Y-96647000D02*
X181356000Y-96647000D01*
D12*
X186128000Y-98638000D02*
X186128000Y-77638000D01*
X147628000Y-98638000D02*
X186128000Y-98638000D01*
X147628000Y-77638000D02*
X186128000Y-77638000D01*
X147628000Y-98638000D02*
X147628000Y-77638000D01*
D13*
%TO.C,J5*%
X187392000Y-80832000D02*
X187392000Y-78172000D01*
X189992000Y-80832000D02*
X187392000Y-80832000D01*
X189992000Y-78172000D02*
X187392000Y-78172000D01*
X189992000Y-80832000D02*
X189992000Y-78172000D01*
X191262000Y-80832000D02*
X192592000Y-80832000D01*
X192592000Y-80832000D02*
X192592000Y-79502000D01*
%TO.C,B1*%
D14*
X187602761Y-81970571D02*
X187459904Y-82018190D01*
X187412285Y-82065809D01*
X187364666Y-82161047D01*
X187364666Y-82303904D01*
X187412285Y-82399142D01*
X187459904Y-82446761D01*
X187555142Y-82494380D01*
X187936095Y-82494380D01*
X187936095Y-81494380D01*
X187602761Y-81494380D01*
X187507523Y-81542000D01*
X187459904Y-81589619D01*
X187412285Y-81684857D01*
X187412285Y-81780095D01*
X187459904Y-81875333D01*
X187507523Y-81922952D01*
X187602761Y-81970571D01*
X187936095Y-81970571D01*
X186412285Y-82494380D02*
X186983714Y-82494380D01*
X186698000Y-82494380D02*
X186698000Y-81494380D01*
X186793238Y-81637238D01*
X186888476Y-81732476D01*
X186983714Y-81780095D01*
%TO.C,J5*%
D15*
X194035333Y-79118666D02*
X194035333Y-79618666D01*
X194068666Y-79718666D01*
X194135333Y-79785333D01*
X194235333Y-79818666D01*
X194302000Y-79818666D01*
X193368666Y-79118666D02*
X193702000Y-79118666D01*
X193735333Y-79452000D01*
X193702000Y-79418666D01*
X193635333Y-79385333D01*
X193468666Y-79385333D01*
X193402000Y-79418666D01*
X193368666Y-79452000D01*
X193335333Y-79518666D01*
X193335333Y-79685333D01*
X193368666Y-79752000D01*
X193402000Y-79785333D01*
X193468666Y-79818666D01*
X193635333Y-79818666D01*
X193702000Y-79785333D01*
X193735333Y-79752000D01*
%TD*%
M02*
