%TF.GenerationSoftware,KiCad,Pcbnew,(5.1.10)-1*%
%TF.CreationDate,2021-09-27T23:39:52+02:00*%
%TF.ProjectId,XX,58582e6b-6963-4616-945f-706362585858,V00*%
%TF.SameCoordinates,Original*%
%TF.FileFunction,Legend,Top*%
%TF.FilePolarity,Positive*%
%FSLAX46Y46*%
G04 Gerber Fmt 4.6, Leading zero omitted, Abs format (unit mm)*
G04 Created by KiCad (PCBNEW (5.1.10)-1) date 2021-09-27 23:39:52*
%MOMM*%
%LPD*%
G01*
G04 APERTURE LIST*
%ADD10C,0.254000*%
%ADD11C,0.256000*%
%ADD12C,0.120000*%
%ADD13C,0.127000*%
%ADD14C,0.170000*%
%ADD15C,0.150000*%
G04 APERTURE END LIST*
D10*
%TO.C,SW3*%
X135940000Y-101480600D02*
X128220000Y-101480600D01*
X128220000Y-101480600D02*
X128220000Y-97580600D01*
X135940000Y-94470600D02*
X135420000Y-94470600D01*
X135940000Y-101480600D02*
X135940000Y-97580600D01*
X135420000Y-94980600D02*
X135420000Y-94470600D01*
X135940000Y-94980600D02*
X135940000Y-94470600D01*
X128740000Y-94980600D02*
X128740000Y-94470600D01*
X128740000Y-94470600D02*
X128220000Y-94470600D01*
X128220000Y-94980600D02*
X128220000Y-94470600D01*
X133280000Y-97810600D02*
X130880000Y-97810600D01*
%TO.C,SW2*%
X146608000Y-101480600D02*
X138888000Y-101480600D01*
X138888000Y-101480600D02*
X138888000Y-97580600D01*
X146608000Y-94470600D02*
X146088000Y-94470600D01*
X146608000Y-101480600D02*
X146608000Y-97580600D01*
X146088000Y-94980600D02*
X146088000Y-94470600D01*
X146608000Y-94980600D02*
X146608000Y-94470600D01*
X139408000Y-94980600D02*
X139408000Y-94470600D01*
X139408000Y-94470600D02*
X138888000Y-94470600D01*
X138888000Y-94980600D02*
X138888000Y-94470600D01*
X143948000Y-97810600D02*
X141548000Y-97810600D01*
%TO.C,SW1*%
X125373600Y-101480600D02*
X117653600Y-101480600D01*
X117653600Y-101480600D02*
X117653600Y-97580600D01*
X125373600Y-94470600D02*
X124853600Y-94470600D01*
X125373600Y-101480600D02*
X125373600Y-97580600D01*
X124853600Y-94980600D02*
X124853600Y-94470600D01*
X125373600Y-94980600D02*
X125373600Y-94470600D01*
X118173600Y-94980600D02*
X118173600Y-94470600D01*
X118173600Y-94470600D02*
X117653600Y-94470600D01*
X117653600Y-94980600D02*
X117653600Y-94470600D01*
X122713600Y-97810600D02*
X120313600Y-97810600D01*
%TO.C,J1*%
X155134000Y-101380600D02*
X155134000Y-100050600D01*
X156464000Y-101380600D02*
X155134000Y-101380600D01*
X157734000Y-101380600D02*
X157734000Y-98720600D01*
X157734000Y-98720600D02*
X170494000Y-98720600D01*
X157734000Y-101380600D02*
X170494000Y-101380600D01*
X170494000Y-101380600D02*
X170494000Y-98720600D01*
D11*
%TO.C,J4*%
X108542000Y-90992000D02*
X108542000Y-88332000D01*
X108542000Y-88332000D02*
X105882000Y-88332000D01*
X105882000Y-88332000D02*
X105882000Y-90992000D01*
X105882000Y-90992000D02*
X108542000Y-90992000D01*
D12*
X105882000Y-90042000D02*
X99882000Y-90042000D01*
X99882000Y-90042000D02*
X99882000Y-89282000D01*
X99882000Y-89282000D02*
X105882000Y-89282000D01*
X105882000Y-89982000D02*
X99882000Y-89982000D01*
X105882000Y-89862000D02*
X99882000Y-89862000D01*
X105882000Y-89742000D02*
X99882000Y-89742000D01*
X105882000Y-89622000D02*
X99882000Y-89622000D01*
X105882000Y-89502000D02*
X99882000Y-89502000D01*
X105882000Y-89382000D02*
X99882000Y-89382000D01*
X108872000Y-90042000D02*
X108542000Y-90042000D01*
X108872000Y-89282000D02*
X108542000Y-89282000D01*
D11*
X111252000Y-89662000D02*
X111252000Y-90932000D01*
X111252000Y-90932000D02*
X109982000Y-90932000D01*
D10*
%TO.C,U7*%
X117080000Y-77816000D02*
X147080000Y-77816000D01*
X147080000Y-77816000D02*
X147080000Y-89316000D01*
X147080000Y-89316000D02*
X117080000Y-89316000D01*
X117080000Y-89316000D02*
X117080000Y-77816000D01*
X140980000Y-80216000D02*
X139930000Y-80216000D01*
X139930000Y-80216000D02*
X139930000Y-81066000D01*
D13*
%TO.C,R16*%
X113554742Y-93630000D02*
X114029258Y-93630000D01*
X113554742Y-94330000D02*
X114029258Y-94330000D01*
%TO.C,R44*%
X149589258Y-83662000D02*
X149114742Y-83662000D01*
X149589258Y-82962000D02*
X149114742Y-82962000D01*
%TO.C,C13*%
X149843258Y-97694000D02*
X149368742Y-97694000D01*
X149843258Y-98394000D02*
X149368742Y-98394000D01*
%TO.C,C21*%
X139604000Y-90694742D02*
X139604000Y-91169258D01*
X140304000Y-90694742D02*
X140304000Y-91169258D01*
%TO.C,L1*%
X111702000Y-82104000D02*
X110802000Y-82104000D01*
X110802000Y-83504000D02*
X111702000Y-83504000D01*
%TO.C,R12*%
X110219258Y-81350600D02*
X109744742Y-81350600D01*
X110219258Y-80650600D02*
X109744742Y-80650600D01*
%TO.C,R7*%
X109744742Y-92868000D02*
X110219258Y-92868000D01*
X109744742Y-93568000D02*
X110219258Y-93568000D01*
%TO.C,C11*%
X115045258Y-82454000D02*
X114570742Y-82454000D01*
X115045258Y-83154000D02*
X114570742Y-83154000D01*
%TO.C,Y1*%
X166402000Y-97636600D02*
X170402000Y-97636600D01*
X166402000Y-94336600D02*
X166402000Y-97636600D01*
D11*
%TO.C,J3*%
X196258000Y-98746000D02*
X196258000Y-101406000D01*
X196258000Y-101406000D02*
X198918000Y-101406000D01*
X198918000Y-101406000D02*
X198918000Y-98746000D01*
X198918000Y-98746000D02*
X196258000Y-98746000D01*
D12*
X198918000Y-99696000D02*
X204918000Y-99696000D01*
X204918000Y-99696000D02*
X204918000Y-100456000D01*
X204918000Y-100456000D02*
X198918000Y-100456000D01*
X198918000Y-99756000D02*
X204918000Y-99756000D01*
X198918000Y-99876000D02*
X204918000Y-99876000D01*
X198918000Y-99996000D02*
X204918000Y-99996000D01*
X198918000Y-100116000D02*
X204918000Y-100116000D01*
X198918000Y-100236000D02*
X204918000Y-100236000D01*
X198918000Y-100356000D02*
X204918000Y-100356000D01*
X195928000Y-99696000D02*
X196258000Y-99696000D01*
X195928000Y-100456000D02*
X196258000Y-100456000D01*
D11*
X193548000Y-100076000D02*
X193548000Y-98806000D01*
X193548000Y-98806000D02*
X194818000Y-98806000D01*
D13*
%TO.C,R1*%
X106155258Y-79852000D02*
X105680742Y-79852000D01*
X106155258Y-79152000D02*
X105680742Y-79152000D01*
%TO.C,C8*%
X109744742Y-86456000D02*
X110219258Y-86456000D01*
X109744742Y-85756000D02*
X110219258Y-85756000D01*
%TO.C,C6*%
X106155258Y-83724000D02*
X105680742Y-83724000D01*
X106155258Y-84424000D02*
X105680742Y-84424000D01*
%TO.C,C5*%
X171100000Y-95774742D02*
X171100000Y-96249258D01*
X171800000Y-95774742D02*
X171800000Y-96249258D01*
%TO.C,C4*%
X165704000Y-96249258D02*
X165704000Y-95774742D01*
X165004000Y-96249258D02*
X165004000Y-95774742D01*
%TO.C,C3*%
X168893258Y-79152000D02*
X168418742Y-79152000D01*
X168893258Y-79852000D02*
X168418742Y-79852000D01*
%TO.C,C2*%
X171720742Y-87472000D02*
X172195258Y-87472000D01*
X171720742Y-86772000D02*
X172195258Y-86772000D01*
%TO.C,R36*%
X152496000Y-89424742D02*
X152496000Y-89899258D01*
X151796000Y-89424742D02*
X151796000Y-89899258D01*
%TO.C,R14*%
X172195258Y-85948000D02*
X171720742Y-85948000D01*
X172195258Y-85248000D02*
X171720742Y-85248000D01*
%TO.C,R13*%
X113554742Y-90556600D02*
X114029258Y-90556600D01*
X113554742Y-91256600D02*
X114029258Y-91256600D01*
%TO.C,R9*%
X116174000Y-79772742D02*
X116174000Y-80247258D01*
X115474000Y-79772742D02*
X115474000Y-80247258D01*
%TO.C,R43*%
X175276742Y-79914000D02*
X175751258Y-79914000D01*
X175276742Y-80614000D02*
X175751258Y-80614000D01*
%TO.C,R21*%
X128936000Y-91169258D02*
X128936000Y-90694742D01*
X129636000Y-91169258D02*
X129636000Y-90694742D01*
%TO.C,R20*%
X138780000Y-90694742D02*
X138780000Y-91169258D01*
X138080000Y-90694742D02*
X138080000Y-91169258D01*
%TO.C,R19*%
X122840000Y-91169258D02*
X122840000Y-90694742D01*
X123540000Y-91169258D02*
X123540000Y-90694742D01*
%TO.C,R11*%
X105680742Y-85756000D02*
X106155258Y-85756000D01*
X105680742Y-86456000D02*
X106155258Y-86456000D01*
%TO.C,R10*%
X110219258Y-84932000D02*
X109744742Y-84932000D01*
X110219258Y-84232000D02*
X109744742Y-84232000D01*
%TO.C,C10*%
X114029258Y-92106000D02*
X113554742Y-92106000D01*
X114029258Y-92806000D02*
X113554742Y-92806000D01*
%TO.C,L3*%
X186706742Y-88742000D02*
X187181258Y-88742000D01*
X186706742Y-88042000D02*
X187181258Y-88042000D01*
%TO.C,L2*%
X155894000Y-80206000D02*
X155894000Y-79306000D01*
X154494000Y-79306000D02*
X154494000Y-80206000D01*
%TO.C,R38*%
X179340742Y-91318600D02*
X179815258Y-91318600D01*
X179340742Y-92018600D02*
X179815258Y-92018600D01*
%TO.C,R28*%
X181118742Y-100462600D02*
X181593258Y-100462600D01*
X181118742Y-101162600D02*
X181593258Y-101162600D01*
%TO.C,R6*%
X172195258Y-92044000D02*
X171720742Y-92044000D01*
X172195258Y-91344000D02*
X171720742Y-91344000D01*
%TO.C,R5*%
X159416000Y-96985858D02*
X159416000Y-96511342D01*
X160116000Y-96985858D02*
X160116000Y-96511342D01*
%TO.C,R4*%
X158592000Y-96511342D02*
X158592000Y-96985858D01*
X157892000Y-96511342D02*
X157892000Y-96985858D01*
%TO.C,R3*%
X161640000Y-96511342D02*
X161640000Y-96985858D01*
X160940000Y-96511342D02*
X160940000Y-96985858D01*
%TO.C,R2*%
X163164000Y-96511342D02*
X163164000Y-96985858D01*
X162464000Y-96511342D02*
X162464000Y-96985858D01*
%TO.C,C1*%
X171720742Y-88996000D02*
X172195258Y-88996000D01*
X171720742Y-88296000D02*
X172195258Y-88296000D01*
%TO.C,R45*%
X176005258Y-90520000D02*
X175530742Y-90520000D01*
X176005258Y-89820000D02*
X175530742Y-89820000D01*
D11*
%TO.C,U3*%
X174754000Y-82748000D02*
X176214000Y-82748000D01*
X174754000Y-85908000D02*
X176914000Y-85908000D01*
X174754000Y-85908000D02*
X174754000Y-84978000D01*
X174754000Y-82748000D02*
X174754000Y-83678000D01*
%TO.C,U6*%
X181610000Y-83226000D02*
X178710000Y-83226000D01*
X180010000Y-86446000D02*
X183110000Y-86446000D01*
D10*
%TO.C,U5*%
X185809000Y-98266000D02*
X185809000Y-94266000D01*
X180409000Y-99541000D02*
X180409000Y-94266000D01*
D11*
%TO.C,U4*%
X153762000Y-92854600D02*
X154262000Y-92854600D01*
D10*
X154262000Y-92854600D02*
X154262000Y-93354600D01*
D12*
X154262000Y-93354600D02*
X154262000Y-93354600D01*
D11*
X154262000Y-94554600D02*
X154262000Y-95054600D01*
X154262000Y-95054600D02*
X153762000Y-95054600D01*
X152562000Y-95054600D02*
X152062000Y-95054600D01*
X152062000Y-95054600D02*
X152062000Y-94554600D01*
X152562000Y-92854600D02*
X152062000Y-92854600D01*
%TO.C,U2*%
X114946000Y-95164000D02*
X112496000Y-95164000D01*
X113146000Y-98384000D02*
X114946000Y-98384000D01*
D10*
%TO.C,U1*%
X157489000Y-91013000D02*
X158064000Y-91013000D01*
X157489000Y-85263000D02*
X158139000Y-85263000D01*
X168139000Y-85263000D02*
X167489000Y-85263000D01*
X168139000Y-91013000D02*
X167489000Y-91013000D01*
X157489000Y-91013000D02*
X157489000Y-85263000D01*
X168139000Y-91013000D02*
X168139000Y-85263000D01*
X158064000Y-91013000D02*
X158064000Y-92613000D01*
D13*
%TO.C,TH1*%
X187181258Y-86964000D02*
X186706742Y-86964000D01*
X187181258Y-86264000D02*
X186706742Y-86264000D01*
%TO.C,R42*%
X149114742Y-81438000D02*
X149589258Y-81438000D01*
X149114742Y-82138000D02*
X149589258Y-82138000D01*
%TO.C,R41*%
X159670000Y-81263258D02*
X159670000Y-80788742D01*
X160370000Y-81263258D02*
X160370000Y-80788742D01*
%TO.C,R40*%
X186848000Y-98281258D02*
X186848000Y-97806742D01*
X187548000Y-98281258D02*
X187548000Y-97806742D01*
%TO.C,R39*%
X187548000Y-94250742D02*
X187548000Y-94725258D01*
X186848000Y-94250742D02*
X186848000Y-94725258D01*
%TO.C,R37*%
X181847258Y-89478600D02*
X181372742Y-89478600D01*
X181847258Y-88778600D02*
X181372742Y-88778600D01*
%TO.C,R35*%
X176005258Y-92044000D02*
X175530742Y-92044000D01*
X176005258Y-91344000D02*
X175530742Y-91344000D01*
%TO.C,R34*%
X175530742Y-88296000D02*
X176005258Y-88296000D01*
X175530742Y-88996000D02*
X176005258Y-88996000D01*
%TO.C,R33*%
X135732000Y-90694742D02*
X135732000Y-91169258D01*
X135032000Y-90694742D02*
X135032000Y-91169258D01*
%TO.C,R32*%
X137256000Y-90694742D02*
X137256000Y-91169258D01*
X136556000Y-90694742D02*
X136556000Y-91169258D01*
%TO.C,R31*%
X175530742Y-92868000D02*
X176005258Y-92868000D01*
X175530742Y-93568000D02*
X176005258Y-93568000D01*
%TO.C,R30*%
X186706742Y-83216000D02*
X187181258Y-83216000D01*
X186706742Y-83916000D02*
X187181258Y-83916000D01*
%TO.C,R29*%
X187181258Y-85440000D02*
X186706742Y-85440000D01*
X187181258Y-84740000D02*
X186706742Y-84740000D01*
%TO.C,R27*%
X175530742Y-95916000D02*
X176005258Y-95916000D01*
X175530742Y-96616000D02*
X176005258Y-96616000D01*
%TO.C,R26*%
X176005258Y-98140000D02*
X175530742Y-98140000D01*
X176005258Y-97440000D02*
X175530742Y-97440000D01*
%TO.C,R25*%
X152891258Y-98394000D02*
X152416742Y-98394000D01*
X152891258Y-97694000D02*
X152416742Y-97694000D01*
%TO.C,R24*%
X132684000Y-90694742D02*
X132684000Y-91169258D01*
X131984000Y-90694742D02*
X131984000Y-91169258D01*
%TO.C,R23*%
X141828000Y-90694742D02*
X141828000Y-91169258D01*
X141128000Y-90694742D02*
X141128000Y-91169258D01*
%TO.C,R22*%
X126588000Y-90669342D02*
X126588000Y-91143858D01*
X125888000Y-90669342D02*
X125888000Y-91143858D01*
%TO.C,R15*%
X149368742Y-96170000D02*
X149843258Y-96170000D01*
X149368742Y-96870000D02*
X149843258Y-96870000D01*
%TO.C,R8*%
X106155258Y-93568000D02*
X105680742Y-93568000D01*
X106155258Y-92868000D02*
X105680742Y-92868000D01*
D11*
%TO.C,Q4*%
X148592000Y-88082000D02*
X150052000Y-88082000D01*
X148592000Y-91242000D02*
X150752000Y-91242000D01*
X148592000Y-91242000D02*
X148592000Y-90312000D01*
X148592000Y-88082000D02*
X148592000Y-89012000D01*
%TO.C,Q3*%
X170182000Y-80716000D02*
X171642000Y-80716000D01*
X170182000Y-83876000D02*
X172342000Y-83876000D01*
X170182000Y-83876000D02*
X170182000Y-82946000D01*
X170182000Y-80716000D02*
X170182000Y-81646000D01*
%TO.C,Q2*%
X115060000Y-89464000D02*
X113600000Y-89464000D01*
X115060000Y-86304000D02*
X112900000Y-86304000D01*
X115060000Y-86304000D02*
X115060000Y-87234000D01*
X115060000Y-89464000D02*
X115060000Y-88534000D01*
%TO.C,Q1*%
X112524000Y-78430000D02*
X113984000Y-78430000D01*
X112524000Y-81590000D02*
X114684000Y-81590000D01*
X112524000Y-81590000D02*
X112524000Y-80660000D01*
X112524000Y-78430000D02*
X112524000Y-79360000D01*
D10*
%TO.C,J2*%
X207446000Y-95710000D02*
X199476000Y-95710000D01*
X207446000Y-83490000D02*
X199476000Y-83490000D01*
X207446000Y-95710000D02*
X207446000Y-83490000D01*
X190826000Y-83490000D02*
X194576000Y-83490000D01*
X190826000Y-95710000D02*
X194576000Y-95710000D01*
X190826000Y-95710000D02*
X190826000Y-83490000D01*
D13*
%TO.C,F1*%
X182860000Y-81152000D02*
X180360000Y-81152000D01*
X180360000Y-77852000D02*
X182860000Y-77852000D01*
D12*
%TO.C,D6*%
X175814000Y-78790000D02*
X175764000Y-78690000D01*
X175714000Y-78890000D02*
X175714000Y-78640000D01*
X175614000Y-78890000D02*
X175614000Y-78540000D01*
X175564000Y-78990000D02*
X175564000Y-78540000D01*
X175514000Y-78340000D02*
X175864000Y-78740000D01*
X175514000Y-79140000D02*
X175514000Y-78340000D01*
X175864000Y-78740000D02*
X175514000Y-79140000D01*
%TO.C,D5*%
X179216000Y-94462600D02*
X178416000Y-94462600D01*
X178966000Y-94362600D02*
X178616000Y-94362600D01*
X179066000Y-94412600D02*
X178616000Y-94412600D01*
X178416000Y-94462600D02*
X178816000Y-94112600D01*
X178816000Y-94112600D02*
X179216000Y-94462600D01*
X178866000Y-94162600D02*
X178766000Y-94212600D01*
X178966000Y-94262600D02*
X178716000Y-94262600D01*
%TO.C,D4*%
X178416000Y-100076000D02*
X179216000Y-100076000D01*
X178666000Y-100176000D02*
X179016000Y-100176000D01*
X178566000Y-100126000D02*
X179016000Y-100126000D01*
X179216000Y-100076000D02*
X178816000Y-100426000D01*
X178816000Y-100426000D02*
X178416000Y-100076000D01*
X178766000Y-100376000D02*
X178866000Y-100326000D01*
X178666000Y-100276000D02*
X178916000Y-100276000D01*
%TO.C,D3*%
X171958000Y-90570000D02*
X171958000Y-89770000D01*
X172058000Y-90320000D02*
X172058000Y-89970000D01*
X172008000Y-90420000D02*
X172008000Y-89970000D01*
X171958000Y-89770000D02*
X172308000Y-90170000D01*
X172308000Y-90170000D02*
X171958000Y-90570000D01*
X172258000Y-90220000D02*
X172208000Y-90120000D01*
X172158000Y-90320000D02*
X172158000Y-90070000D01*
D11*
%TO.C,D2*%
X107190000Y-94940000D02*
X108650000Y-94940000D01*
X107190000Y-98100000D02*
X109350000Y-98100000D01*
X107190000Y-98100000D02*
X107190000Y-97170000D01*
X107190000Y-94940000D02*
X107190000Y-95870000D01*
D12*
%TO.C,D1*%
X109982000Y-79102000D02*
X109982000Y-79902000D01*
X109882000Y-79352000D02*
X109882000Y-79702000D01*
X109932000Y-79252000D02*
X109932000Y-79702000D01*
X109982000Y-79902000D02*
X109632000Y-79502000D01*
X109632000Y-79502000D02*
X109982000Y-79102000D01*
X109682000Y-79452000D02*
X109732000Y-79552000D01*
X109782000Y-79352000D02*
X109782000Y-79602000D01*
D13*
%TO.C,C36*%
X149114742Y-79090000D02*
X149589258Y-79090000D01*
X149114742Y-78390000D02*
X149589258Y-78390000D01*
%TO.C,C35*%
X149114742Y-80614000D02*
X149589258Y-80614000D01*
X149114742Y-79914000D02*
X149589258Y-79914000D01*
%TO.C,C34*%
X181847258Y-87280000D02*
X181372742Y-87280000D01*
X181847258Y-87980000D02*
X181372742Y-87980000D01*
%TO.C,C33*%
X188372000Y-94250742D02*
X188372000Y-94725258D01*
X189072000Y-94250742D02*
X189072000Y-94725258D01*
%TO.C,C32*%
X145700000Y-90694742D02*
X145700000Y-91169258D01*
X146400000Y-90694742D02*
X146400000Y-91169258D01*
%TO.C,C31*%
X189072000Y-98281258D02*
X189072000Y-97806742D01*
X188372000Y-98281258D02*
X188372000Y-97806742D01*
%TO.C,C30*%
X144876000Y-91169258D02*
X144876000Y-90694742D01*
X144176000Y-91169258D02*
X144176000Y-90694742D01*
%TO.C,C29*%
X149114742Y-87218000D02*
X149589258Y-87218000D01*
X149114742Y-86518000D02*
X149589258Y-86518000D01*
%TO.C,C28*%
X149114742Y-85694000D02*
X149589258Y-85694000D01*
X149114742Y-84994000D02*
X149589258Y-84994000D01*
%TO.C,C27*%
X184133258Y-91344000D02*
X183658742Y-91344000D01*
X184133258Y-92044000D02*
X183658742Y-92044000D01*
%TO.C,C26*%
X181847258Y-81920600D02*
X181372742Y-81920600D01*
X181847258Y-82620600D02*
X181372742Y-82620600D01*
%TO.C,C25*%
X175530742Y-95092000D02*
X176005258Y-95092000D01*
X175530742Y-94392000D02*
X176005258Y-94392000D01*
%TO.C,C24*%
X156560000Y-94191858D02*
X156560000Y-93717342D01*
X155860000Y-94191858D02*
X155860000Y-93717342D01*
%TO.C,C23*%
X152891258Y-96170000D02*
X152416742Y-96170000D01*
X152891258Y-96870000D02*
X152416742Y-96870000D01*
%TO.C,C22*%
X133508000Y-90694742D02*
X133508000Y-91169258D01*
X134208000Y-90694742D02*
X134208000Y-91169258D01*
%TO.C,C20*%
X127412000Y-90669342D02*
X127412000Y-91143858D01*
X128112000Y-90669342D02*
X128112000Y-91143858D01*
%TO.C,C19*%
X131160000Y-91169258D02*
X131160000Y-90694742D01*
X130460000Y-91169258D02*
X130460000Y-90694742D01*
%TO.C,C18*%
X143352000Y-91169258D02*
X143352000Y-90694742D01*
X142652000Y-91169258D02*
X142652000Y-90694742D01*
%TO.C,C17*%
X125064000Y-91169258D02*
X125064000Y-90694742D01*
X124364000Y-91169258D02*
X124364000Y-90694742D01*
%TO.C,C16*%
X156622000Y-80788742D02*
X156622000Y-81263258D01*
X157322000Y-80788742D02*
X157322000Y-81263258D01*
%TO.C,C15*%
X158146000Y-80788742D02*
X158146000Y-81263258D01*
X158846000Y-80788742D02*
X158846000Y-81263258D01*
%TO.C,C12*%
X175530742Y-87472000D02*
X176005258Y-87472000D01*
X175530742Y-86772000D02*
X176005258Y-86772000D01*
%TO.C,C9*%
X175276742Y-82138000D02*
X175751258Y-82138000D01*
X175276742Y-81438000D02*
X175751258Y-81438000D01*
%TO.C,C7*%
X106155258Y-81692000D02*
X105680742Y-81692000D01*
X106155258Y-82392000D02*
X105680742Y-82392000D01*
%TO.C,SW3*%
D14*
X127791333Y-100247333D02*
X127824666Y-100147333D01*
X127824666Y-99980666D01*
X127791333Y-99914000D01*
X127758000Y-99880666D01*
X127691333Y-99847333D01*
X127624666Y-99847333D01*
X127558000Y-99880666D01*
X127524666Y-99914000D01*
X127491333Y-99980666D01*
X127458000Y-100114000D01*
X127424666Y-100180666D01*
X127391333Y-100214000D01*
X127324666Y-100247333D01*
X127258000Y-100247333D01*
X127191333Y-100214000D01*
X127158000Y-100180666D01*
X127124666Y-100114000D01*
X127124666Y-99947333D01*
X127158000Y-99847333D01*
X127124666Y-99614000D02*
X127824666Y-99447333D01*
X127324666Y-99314000D01*
X127824666Y-99180666D01*
X127124666Y-99014000D01*
X127124666Y-98814000D02*
X127124666Y-98380666D01*
X127391333Y-98614000D01*
X127391333Y-98514000D01*
X127424666Y-98447333D01*
X127458000Y-98414000D01*
X127524666Y-98380666D01*
X127691333Y-98380666D01*
X127758000Y-98414000D01*
X127791333Y-98447333D01*
X127824666Y-98514000D01*
X127824666Y-98714000D01*
X127791333Y-98780666D01*
X127758000Y-98814000D01*
%TO.C,SW2*%
X138459333Y-100247333D02*
X138492666Y-100147333D01*
X138492666Y-99980666D01*
X138459333Y-99914000D01*
X138426000Y-99880666D01*
X138359333Y-99847333D01*
X138292666Y-99847333D01*
X138226000Y-99880666D01*
X138192666Y-99914000D01*
X138159333Y-99980666D01*
X138126000Y-100114000D01*
X138092666Y-100180666D01*
X138059333Y-100214000D01*
X137992666Y-100247333D01*
X137926000Y-100247333D01*
X137859333Y-100214000D01*
X137826000Y-100180666D01*
X137792666Y-100114000D01*
X137792666Y-99947333D01*
X137826000Y-99847333D01*
X137792666Y-99614000D02*
X138492666Y-99447333D01*
X137992666Y-99314000D01*
X138492666Y-99180666D01*
X137792666Y-99014000D01*
X137859333Y-98780666D02*
X137826000Y-98747333D01*
X137792666Y-98680666D01*
X137792666Y-98514000D01*
X137826000Y-98447333D01*
X137859333Y-98414000D01*
X137926000Y-98380666D01*
X137992666Y-98380666D01*
X138092666Y-98414000D01*
X138492666Y-98814000D01*
X138492666Y-98380666D01*
%TO.C,SW1*%
X117123333Y-100247333D02*
X117156666Y-100147333D01*
X117156666Y-99980666D01*
X117123333Y-99914000D01*
X117090000Y-99880666D01*
X117023333Y-99847333D01*
X116956666Y-99847333D01*
X116890000Y-99880666D01*
X116856666Y-99914000D01*
X116823333Y-99980666D01*
X116790000Y-100114000D01*
X116756666Y-100180666D01*
X116723333Y-100214000D01*
X116656666Y-100247333D01*
X116590000Y-100247333D01*
X116523333Y-100214000D01*
X116490000Y-100180666D01*
X116456666Y-100114000D01*
X116456666Y-99947333D01*
X116490000Y-99847333D01*
X116456666Y-99614000D02*
X117156666Y-99447333D01*
X116656666Y-99314000D01*
X117156666Y-99180666D01*
X116456666Y-99014000D01*
X117156666Y-98380666D02*
X117156666Y-98780666D01*
X117156666Y-98580666D02*
X116456666Y-98580666D01*
X116556666Y-98647333D01*
X116623333Y-98714000D01*
X116656666Y-98780666D01*
%TO.C,J1*%
X160100666Y-100283933D02*
X160600666Y-100283933D01*
X160700666Y-100317266D01*
X160767333Y-100383933D01*
X160800666Y-100483933D01*
X160800666Y-100550600D01*
X160800666Y-99583933D02*
X160800666Y-99983933D01*
X160800666Y-99783933D02*
X160100666Y-99783933D01*
X160200666Y-99850600D01*
X160267333Y-99917266D01*
X160300666Y-99983933D01*
%TO.C,J4*%
X109748666Y-87500666D02*
X109748666Y-88000666D01*
X109715333Y-88100666D01*
X109648666Y-88167333D01*
X109548666Y-88200666D01*
X109482000Y-88200666D01*
X110382000Y-87734000D02*
X110382000Y-88200666D01*
X110215333Y-87467333D02*
X110048666Y-87967333D01*
X110482000Y-87967333D01*
%TO.C,U7*%
D15*
X117348095Y-89622380D02*
X117348095Y-90431904D01*
X117395714Y-90527142D01*
X117443333Y-90574761D01*
X117538571Y-90622380D01*
X117729047Y-90622380D01*
X117824285Y-90574761D01*
X117871904Y-90527142D01*
X117919523Y-90431904D01*
X117919523Y-89622380D01*
X118300476Y-89622380D02*
X118967142Y-89622380D01*
X118538571Y-90622380D01*
X139532380Y-81206476D02*
X139532380Y-81777904D01*
X139532380Y-81492190D02*
X138532380Y-81492190D01*
X138675238Y-81587428D01*
X138770476Y-81682666D01*
X138818095Y-81777904D01*
X138865714Y-80349333D02*
X139532380Y-80349333D01*
X138484761Y-80587428D02*
X139199047Y-80825523D01*
X139199047Y-80206476D01*
X139632380Y-88280285D02*
X139632380Y-88851714D01*
X139632380Y-88566000D02*
X138632380Y-88566000D01*
X138775238Y-88661238D01*
X138870476Y-88756476D01*
X138918095Y-88851714D01*
%TO.C,R16*%
D14*
X115628000Y-94296666D02*
X115394666Y-93963333D01*
X115228000Y-94296666D02*
X115228000Y-93596666D01*
X115494666Y-93596666D01*
X115561333Y-93630000D01*
X115594666Y-93663333D01*
X115628000Y-93730000D01*
X115628000Y-93830000D01*
X115594666Y-93896666D01*
X115561333Y-93930000D01*
X115494666Y-93963333D01*
X115228000Y-93963333D01*
X116294666Y-94296666D02*
X115894666Y-94296666D01*
X116094666Y-94296666D02*
X116094666Y-93596666D01*
X116028000Y-93696666D01*
X115961333Y-93763333D01*
X115894666Y-93796666D01*
X116894666Y-93596666D02*
X116761333Y-93596666D01*
X116694666Y-93630000D01*
X116661333Y-93663333D01*
X116594666Y-93763333D01*
X116561333Y-93896666D01*
X116561333Y-94163333D01*
X116594666Y-94230000D01*
X116628000Y-94263333D01*
X116694666Y-94296666D01*
X116828000Y-94296666D01*
X116894666Y-94263333D01*
X116928000Y-94230000D01*
X116961333Y-94163333D01*
X116961333Y-93996666D01*
X116928000Y-93930000D01*
X116894666Y-93896666D01*
X116828000Y-93863333D01*
X116694666Y-93863333D01*
X116628000Y-93896666D01*
X116594666Y-93930000D01*
X116561333Y-93996666D01*
%TO.C,R44*%
X151188000Y-83628666D02*
X150954666Y-83295333D01*
X150788000Y-83628666D02*
X150788000Y-82928666D01*
X151054666Y-82928666D01*
X151121333Y-82962000D01*
X151154666Y-82995333D01*
X151188000Y-83062000D01*
X151188000Y-83162000D01*
X151154666Y-83228666D01*
X151121333Y-83262000D01*
X151054666Y-83295333D01*
X150788000Y-83295333D01*
X151788000Y-83162000D02*
X151788000Y-83628666D01*
X151621333Y-82895333D02*
X151454666Y-83395333D01*
X151888000Y-83395333D01*
X152454666Y-83162000D02*
X152454666Y-83628666D01*
X152288000Y-82895333D02*
X152121333Y-83395333D01*
X152554666Y-83395333D01*
%TO.C,C13*%
X149156000Y-99724000D02*
X149122666Y-99757333D01*
X149022666Y-99790666D01*
X148956000Y-99790666D01*
X148856000Y-99757333D01*
X148789333Y-99690666D01*
X148756000Y-99624000D01*
X148722666Y-99490666D01*
X148722666Y-99390666D01*
X148756000Y-99257333D01*
X148789333Y-99190666D01*
X148856000Y-99124000D01*
X148956000Y-99090666D01*
X149022666Y-99090666D01*
X149122666Y-99124000D01*
X149156000Y-99157333D01*
X149822666Y-99790666D02*
X149422666Y-99790666D01*
X149622666Y-99790666D02*
X149622666Y-99090666D01*
X149556000Y-99190666D01*
X149489333Y-99257333D01*
X149422666Y-99290666D01*
X150056000Y-99090666D02*
X150489333Y-99090666D01*
X150256000Y-99357333D01*
X150356000Y-99357333D01*
X150422666Y-99390666D01*
X150456000Y-99424000D01*
X150489333Y-99490666D01*
X150489333Y-99657333D01*
X150456000Y-99724000D01*
X150422666Y-99757333D01*
X150356000Y-99790666D01*
X150156000Y-99790666D01*
X150089333Y-99757333D01*
X150056000Y-99724000D01*
%TO.C,C21*%
X140204000Y-93668000D02*
X140237333Y-93701333D01*
X140270666Y-93801333D01*
X140270666Y-93868000D01*
X140237333Y-93968000D01*
X140170666Y-94034666D01*
X140104000Y-94068000D01*
X139970666Y-94101333D01*
X139870666Y-94101333D01*
X139737333Y-94068000D01*
X139670666Y-94034666D01*
X139604000Y-93968000D01*
X139570666Y-93868000D01*
X139570666Y-93801333D01*
X139604000Y-93701333D01*
X139637333Y-93668000D01*
X139637333Y-93401333D02*
X139604000Y-93368000D01*
X139570666Y-93301333D01*
X139570666Y-93134666D01*
X139604000Y-93068000D01*
X139637333Y-93034666D01*
X139704000Y-93001333D01*
X139770666Y-93001333D01*
X139870666Y-93034666D01*
X140270666Y-93434666D01*
X140270666Y-93001333D01*
X140270666Y-92334666D02*
X140270666Y-92734666D01*
X140270666Y-92534666D02*
X139570666Y-92534666D01*
X139670666Y-92601333D01*
X139737333Y-92668000D01*
X139770666Y-92734666D01*
%TO.C,L1*%
X108595333Y-83120666D02*
X108262000Y-83120666D01*
X108262000Y-82420666D01*
X109195333Y-83120666D02*
X108795333Y-83120666D01*
X108995333Y-83120666D02*
X108995333Y-82420666D01*
X108928666Y-82520666D01*
X108862000Y-82587333D01*
X108795333Y-82620666D01*
%TO.C,R12*%
X108266666Y-81222000D02*
X107933333Y-81455333D01*
X108266666Y-81622000D02*
X107566666Y-81622000D01*
X107566666Y-81355333D01*
X107600000Y-81288666D01*
X107633333Y-81255333D01*
X107700000Y-81222000D01*
X107800000Y-81222000D01*
X107866666Y-81255333D01*
X107900000Y-81288666D01*
X107933333Y-81355333D01*
X107933333Y-81622000D01*
X108266666Y-80555333D02*
X108266666Y-80955333D01*
X108266666Y-80755333D02*
X107566666Y-80755333D01*
X107666666Y-80822000D01*
X107733333Y-80888666D01*
X107766666Y-80955333D01*
X107633333Y-80288666D02*
X107600000Y-80255333D01*
X107566666Y-80188666D01*
X107566666Y-80022000D01*
X107600000Y-79955333D01*
X107633333Y-79922000D01*
X107700000Y-79888666D01*
X107766666Y-79888666D01*
X107866666Y-79922000D01*
X108266666Y-80322000D01*
X108266666Y-79888666D01*
%TO.C,R7*%
X109865333Y-92264666D02*
X109632000Y-91931333D01*
X109465333Y-92264666D02*
X109465333Y-91564666D01*
X109732000Y-91564666D01*
X109798666Y-91598000D01*
X109832000Y-91631333D01*
X109865333Y-91698000D01*
X109865333Y-91798000D01*
X109832000Y-91864666D01*
X109798666Y-91898000D01*
X109732000Y-91931333D01*
X109465333Y-91931333D01*
X110098666Y-91564666D02*
X110565333Y-91564666D01*
X110265333Y-92264666D01*
%TO.C,C11*%
X114358000Y-84324000D02*
X114324666Y-84357333D01*
X114224666Y-84390666D01*
X114158000Y-84390666D01*
X114058000Y-84357333D01*
X113991333Y-84290666D01*
X113958000Y-84224000D01*
X113924666Y-84090666D01*
X113924666Y-83990666D01*
X113958000Y-83857333D01*
X113991333Y-83790666D01*
X114058000Y-83724000D01*
X114158000Y-83690666D01*
X114224666Y-83690666D01*
X114324666Y-83724000D01*
X114358000Y-83757333D01*
X115024666Y-84390666D02*
X114624666Y-84390666D01*
X114824666Y-84390666D02*
X114824666Y-83690666D01*
X114758000Y-83790666D01*
X114691333Y-83857333D01*
X114624666Y-83890666D01*
X115691333Y-84390666D02*
X115291333Y-84390666D01*
X115491333Y-84390666D02*
X115491333Y-83690666D01*
X115424666Y-83790666D01*
X115358000Y-83857333D01*
X115291333Y-83890666D01*
%TO.C,Y1*%
X168068666Y-93709333D02*
X168068666Y-94042666D01*
X167835333Y-93342666D02*
X168068666Y-93709333D01*
X168302000Y-93342666D01*
X168902000Y-94042666D02*
X168502000Y-94042666D01*
X168702000Y-94042666D02*
X168702000Y-93342666D01*
X168635333Y-93442666D01*
X168568666Y-93509333D01*
X168502000Y-93542666D01*
%TO.C,J3*%
X197734666Y-97342666D02*
X197734666Y-97842666D01*
X197701333Y-97942666D01*
X197634666Y-98009333D01*
X197534666Y-98042666D01*
X197468000Y-98042666D01*
X198001333Y-97342666D02*
X198434666Y-97342666D01*
X198201333Y-97609333D01*
X198301333Y-97609333D01*
X198368000Y-97642666D01*
X198401333Y-97676000D01*
X198434666Y-97742666D01*
X198434666Y-97909333D01*
X198401333Y-97976000D01*
X198368000Y-98009333D01*
X198301333Y-98042666D01*
X198101333Y-98042666D01*
X198034666Y-98009333D01*
X198001333Y-97976000D01*
%TO.C,R1*%
X105801333Y-78802666D02*
X105568000Y-78469333D01*
X105401333Y-78802666D02*
X105401333Y-78102666D01*
X105668000Y-78102666D01*
X105734666Y-78136000D01*
X105768000Y-78169333D01*
X105801333Y-78236000D01*
X105801333Y-78336000D01*
X105768000Y-78402666D01*
X105734666Y-78436000D01*
X105668000Y-78469333D01*
X105401333Y-78469333D01*
X106468000Y-78802666D02*
X106068000Y-78802666D01*
X106268000Y-78802666D02*
X106268000Y-78102666D01*
X106201333Y-78202666D01*
X106134666Y-78269333D01*
X106068000Y-78302666D01*
%TO.C,C8*%
X111897333Y-86356000D02*
X111864000Y-86389333D01*
X111764000Y-86422666D01*
X111697333Y-86422666D01*
X111597333Y-86389333D01*
X111530666Y-86322666D01*
X111497333Y-86256000D01*
X111464000Y-86122666D01*
X111464000Y-86022666D01*
X111497333Y-85889333D01*
X111530666Y-85822666D01*
X111597333Y-85756000D01*
X111697333Y-85722666D01*
X111764000Y-85722666D01*
X111864000Y-85756000D01*
X111897333Y-85789333D01*
X112297333Y-86022666D02*
X112230666Y-85989333D01*
X112197333Y-85956000D01*
X112164000Y-85889333D01*
X112164000Y-85856000D01*
X112197333Y-85789333D01*
X112230666Y-85756000D01*
X112297333Y-85722666D01*
X112430666Y-85722666D01*
X112497333Y-85756000D01*
X112530666Y-85789333D01*
X112564000Y-85856000D01*
X112564000Y-85889333D01*
X112530666Y-85956000D01*
X112497333Y-85989333D01*
X112430666Y-86022666D01*
X112297333Y-86022666D01*
X112230666Y-86056000D01*
X112197333Y-86089333D01*
X112164000Y-86156000D01*
X112164000Y-86289333D01*
X112197333Y-86356000D01*
X112230666Y-86389333D01*
X112297333Y-86422666D01*
X112430666Y-86422666D01*
X112497333Y-86389333D01*
X112530666Y-86356000D01*
X112564000Y-86289333D01*
X112564000Y-86156000D01*
X112530666Y-86089333D01*
X112497333Y-86056000D01*
X112430666Y-86022666D01*
%TO.C,C6*%
X105801333Y-83308000D02*
X105768000Y-83341333D01*
X105668000Y-83374666D01*
X105601333Y-83374666D01*
X105501333Y-83341333D01*
X105434666Y-83274666D01*
X105401333Y-83208000D01*
X105368000Y-83074666D01*
X105368000Y-82974666D01*
X105401333Y-82841333D01*
X105434666Y-82774666D01*
X105501333Y-82708000D01*
X105601333Y-82674666D01*
X105668000Y-82674666D01*
X105768000Y-82708000D01*
X105801333Y-82741333D01*
X106401333Y-82674666D02*
X106268000Y-82674666D01*
X106201333Y-82708000D01*
X106168000Y-82741333D01*
X106101333Y-82841333D01*
X106068000Y-82974666D01*
X106068000Y-83241333D01*
X106101333Y-83308000D01*
X106134666Y-83341333D01*
X106201333Y-83374666D01*
X106334666Y-83374666D01*
X106401333Y-83341333D01*
X106434666Y-83308000D01*
X106468000Y-83241333D01*
X106468000Y-83074666D01*
X106434666Y-83008000D01*
X106401333Y-82974666D01*
X106334666Y-82941333D01*
X106201333Y-82941333D01*
X106134666Y-82974666D01*
X106101333Y-83008000D01*
X106068000Y-83074666D01*
%TO.C,C5*%
X171700000Y-94096666D02*
X171733333Y-94130000D01*
X171766666Y-94230000D01*
X171766666Y-94296666D01*
X171733333Y-94396666D01*
X171666666Y-94463333D01*
X171600000Y-94496666D01*
X171466666Y-94530000D01*
X171366666Y-94530000D01*
X171233333Y-94496666D01*
X171166666Y-94463333D01*
X171100000Y-94396666D01*
X171066666Y-94296666D01*
X171066666Y-94230000D01*
X171100000Y-94130000D01*
X171133333Y-94096666D01*
X171066666Y-93463333D02*
X171066666Y-93796666D01*
X171400000Y-93830000D01*
X171366666Y-93796666D01*
X171333333Y-93730000D01*
X171333333Y-93563333D01*
X171366666Y-93496666D01*
X171400000Y-93463333D01*
X171466666Y-93430000D01*
X171633333Y-93430000D01*
X171700000Y-93463333D01*
X171733333Y-93496666D01*
X171766666Y-93563333D01*
X171766666Y-93730000D01*
X171733333Y-93796666D01*
X171700000Y-93830000D01*
%TO.C,C4*%
X165604000Y-94096666D02*
X165637333Y-94130000D01*
X165670666Y-94230000D01*
X165670666Y-94296666D01*
X165637333Y-94396666D01*
X165570666Y-94463333D01*
X165504000Y-94496666D01*
X165370666Y-94530000D01*
X165270666Y-94530000D01*
X165137333Y-94496666D01*
X165070666Y-94463333D01*
X165004000Y-94396666D01*
X164970666Y-94296666D01*
X164970666Y-94230000D01*
X165004000Y-94130000D01*
X165037333Y-94096666D01*
X165204000Y-93496666D02*
X165670666Y-93496666D01*
X164937333Y-93663333D02*
X165437333Y-93830000D01*
X165437333Y-93396666D01*
%TO.C,C2*%
X169809333Y-87372000D02*
X169776000Y-87405333D01*
X169676000Y-87438666D01*
X169609333Y-87438666D01*
X169509333Y-87405333D01*
X169442666Y-87338666D01*
X169409333Y-87272000D01*
X169376000Y-87138666D01*
X169376000Y-87038666D01*
X169409333Y-86905333D01*
X169442666Y-86838666D01*
X169509333Y-86772000D01*
X169609333Y-86738666D01*
X169676000Y-86738666D01*
X169776000Y-86772000D01*
X169809333Y-86805333D01*
X170076000Y-86805333D02*
X170109333Y-86772000D01*
X170176000Y-86738666D01*
X170342666Y-86738666D01*
X170409333Y-86772000D01*
X170442666Y-86805333D01*
X170476000Y-86872000D01*
X170476000Y-86938666D01*
X170442666Y-87038666D01*
X170042666Y-87438666D01*
X170476000Y-87438666D01*
%TO.C,R36*%
X153892666Y-90112000D02*
X153559333Y-90345333D01*
X153892666Y-90512000D02*
X153192666Y-90512000D01*
X153192666Y-90245333D01*
X153226000Y-90178666D01*
X153259333Y-90145333D01*
X153326000Y-90112000D01*
X153426000Y-90112000D01*
X153492666Y-90145333D01*
X153526000Y-90178666D01*
X153559333Y-90245333D01*
X153559333Y-90512000D01*
X153192666Y-89878666D02*
X153192666Y-89445333D01*
X153459333Y-89678666D01*
X153459333Y-89578666D01*
X153492666Y-89512000D01*
X153526000Y-89478666D01*
X153592666Y-89445333D01*
X153759333Y-89445333D01*
X153826000Y-89478666D01*
X153859333Y-89512000D01*
X153892666Y-89578666D01*
X153892666Y-89778666D01*
X153859333Y-89845333D01*
X153826000Y-89878666D01*
X153192666Y-88845333D02*
X153192666Y-88978666D01*
X153226000Y-89045333D01*
X153259333Y-89078666D01*
X153359333Y-89145333D01*
X153492666Y-89178666D01*
X153759333Y-89178666D01*
X153826000Y-89145333D01*
X153859333Y-89112000D01*
X153892666Y-89045333D01*
X153892666Y-88912000D01*
X153859333Y-88845333D01*
X153826000Y-88812000D01*
X153759333Y-88778666D01*
X153592666Y-88778666D01*
X153526000Y-88812000D01*
X153492666Y-88845333D01*
X153459333Y-88912000D01*
X153459333Y-89045333D01*
X153492666Y-89112000D01*
X153526000Y-89145333D01*
X153592666Y-89178666D01*
%TO.C,R14*%
X169222000Y-85914666D02*
X168988666Y-85581333D01*
X168822000Y-85914666D02*
X168822000Y-85214666D01*
X169088666Y-85214666D01*
X169155333Y-85248000D01*
X169188666Y-85281333D01*
X169222000Y-85348000D01*
X169222000Y-85448000D01*
X169188666Y-85514666D01*
X169155333Y-85548000D01*
X169088666Y-85581333D01*
X168822000Y-85581333D01*
X169888666Y-85914666D02*
X169488666Y-85914666D01*
X169688666Y-85914666D02*
X169688666Y-85214666D01*
X169622000Y-85314666D01*
X169555333Y-85381333D01*
X169488666Y-85414666D01*
X170488666Y-85448000D02*
X170488666Y-85914666D01*
X170322000Y-85181333D02*
X170155333Y-85681333D01*
X170588666Y-85681333D01*
%TO.C,R13*%
X115628000Y-91248666D02*
X115394666Y-90915333D01*
X115228000Y-91248666D02*
X115228000Y-90548666D01*
X115494666Y-90548666D01*
X115561333Y-90582000D01*
X115594666Y-90615333D01*
X115628000Y-90682000D01*
X115628000Y-90782000D01*
X115594666Y-90848666D01*
X115561333Y-90882000D01*
X115494666Y-90915333D01*
X115228000Y-90915333D01*
X116294666Y-91248666D02*
X115894666Y-91248666D01*
X116094666Y-91248666D02*
X116094666Y-90548666D01*
X116028000Y-90648666D01*
X115961333Y-90715333D01*
X115894666Y-90748666D01*
X116528000Y-90548666D02*
X116961333Y-90548666D01*
X116728000Y-90815333D01*
X116828000Y-90815333D01*
X116894666Y-90848666D01*
X116928000Y-90882000D01*
X116961333Y-90948666D01*
X116961333Y-91115333D01*
X116928000Y-91182000D01*
X116894666Y-91215333D01*
X116828000Y-91248666D01*
X116628000Y-91248666D01*
X116561333Y-91215333D01*
X116528000Y-91182000D01*
%TO.C,R9*%
X115707333Y-78548666D02*
X115474000Y-78215333D01*
X115307333Y-78548666D02*
X115307333Y-77848666D01*
X115574000Y-77848666D01*
X115640666Y-77882000D01*
X115674000Y-77915333D01*
X115707333Y-77982000D01*
X115707333Y-78082000D01*
X115674000Y-78148666D01*
X115640666Y-78182000D01*
X115574000Y-78215333D01*
X115307333Y-78215333D01*
X116040666Y-78548666D02*
X116174000Y-78548666D01*
X116240666Y-78515333D01*
X116274000Y-78482000D01*
X116340666Y-78382000D01*
X116374000Y-78248666D01*
X116374000Y-77982000D01*
X116340666Y-77915333D01*
X116307333Y-77882000D01*
X116240666Y-77848666D01*
X116107333Y-77848666D01*
X116040666Y-77882000D01*
X116007333Y-77915333D01*
X115974000Y-77982000D01*
X115974000Y-78148666D01*
X116007333Y-78215333D01*
X116040666Y-78248666D01*
X116107333Y-78282000D01*
X116240666Y-78282000D01*
X116307333Y-78248666D01*
X116340666Y-78215333D01*
X116374000Y-78148666D01*
%TO.C,R43*%
X177350000Y-80580666D02*
X177116666Y-80247333D01*
X176950000Y-80580666D02*
X176950000Y-79880666D01*
X177216666Y-79880666D01*
X177283333Y-79914000D01*
X177316666Y-79947333D01*
X177350000Y-80014000D01*
X177350000Y-80114000D01*
X177316666Y-80180666D01*
X177283333Y-80214000D01*
X177216666Y-80247333D01*
X176950000Y-80247333D01*
X177950000Y-80114000D02*
X177950000Y-80580666D01*
X177783333Y-79847333D02*
X177616666Y-80347333D01*
X178050000Y-80347333D01*
X178250000Y-79880666D02*
X178683333Y-79880666D01*
X178450000Y-80147333D01*
X178550000Y-80147333D01*
X178616666Y-80180666D01*
X178650000Y-80214000D01*
X178683333Y-80280666D01*
X178683333Y-80447333D01*
X178650000Y-80514000D01*
X178616666Y-80547333D01*
X178550000Y-80580666D01*
X178350000Y-80580666D01*
X178283333Y-80547333D01*
X178250000Y-80514000D01*
%TO.C,R21*%
X129602666Y-93668000D02*
X129269333Y-93901333D01*
X129602666Y-94068000D02*
X128902666Y-94068000D01*
X128902666Y-93801333D01*
X128936000Y-93734666D01*
X128969333Y-93701333D01*
X129036000Y-93668000D01*
X129136000Y-93668000D01*
X129202666Y-93701333D01*
X129236000Y-93734666D01*
X129269333Y-93801333D01*
X129269333Y-94068000D01*
X128969333Y-93401333D02*
X128936000Y-93368000D01*
X128902666Y-93301333D01*
X128902666Y-93134666D01*
X128936000Y-93068000D01*
X128969333Y-93034666D01*
X129036000Y-93001333D01*
X129102666Y-93001333D01*
X129202666Y-93034666D01*
X129602666Y-93434666D01*
X129602666Y-93001333D01*
X129602666Y-92334666D02*
X129602666Y-92734666D01*
X129602666Y-92534666D02*
X128902666Y-92534666D01*
X129002666Y-92601333D01*
X129069333Y-92668000D01*
X129102666Y-92734666D01*
%TO.C,R20*%
X138746666Y-93668000D02*
X138413333Y-93901333D01*
X138746666Y-94068000D02*
X138046666Y-94068000D01*
X138046666Y-93801333D01*
X138080000Y-93734666D01*
X138113333Y-93701333D01*
X138180000Y-93668000D01*
X138280000Y-93668000D01*
X138346666Y-93701333D01*
X138380000Y-93734666D01*
X138413333Y-93801333D01*
X138413333Y-94068000D01*
X138113333Y-93401333D02*
X138080000Y-93368000D01*
X138046666Y-93301333D01*
X138046666Y-93134666D01*
X138080000Y-93068000D01*
X138113333Y-93034666D01*
X138180000Y-93001333D01*
X138246666Y-93001333D01*
X138346666Y-93034666D01*
X138746666Y-93434666D01*
X138746666Y-93001333D01*
X138046666Y-92568000D02*
X138046666Y-92501333D01*
X138080000Y-92434666D01*
X138113333Y-92401333D01*
X138180000Y-92368000D01*
X138313333Y-92334666D01*
X138480000Y-92334666D01*
X138613333Y-92368000D01*
X138680000Y-92401333D01*
X138713333Y-92434666D01*
X138746666Y-92501333D01*
X138746666Y-92568000D01*
X138713333Y-92634666D01*
X138680000Y-92668000D01*
X138613333Y-92701333D01*
X138480000Y-92734666D01*
X138313333Y-92734666D01*
X138180000Y-92701333D01*
X138113333Y-92668000D01*
X138080000Y-92634666D01*
X138046666Y-92568000D01*
%TO.C,R19*%
X123506666Y-93668000D02*
X123173333Y-93901333D01*
X123506666Y-94068000D02*
X122806666Y-94068000D01*
X122806666Y-93801333D01*
X122840000Y-93734666D01*
X122873333Y-93701333D01*
X122940000Y-93668000D01*
X123040000Y-93668000D01*
X123106666Y-93701333D01*
X123140000Y-93734666D01*
X123173333Y-93801333D01*
X123173333Y-94068000D01*
X123506666Y-93001333D02*
X123506666Y-93401333D01*
X123506666Y-93201333D02*
X122806666Y-93201333D01*
X122906666Y-93268000D01*
X122973333Y-93334666D01*
X123006666Y-93401333D01*
X123506666Y-92668000D02*
X123506666Y-92534666D01*
X123473333Y-92468000D01*
X123440000Y-92434666D01*
X123340000Y-92368000D01*
X123206666Y-92334666D01*
X122940000Y-92334666D01*
X122873333Y-92368000D01*
X122840000Y-92401333D01*
X122806666Y-92468000D01*
X122806666Y-92601333D01*
X122840000Y-92668000D01*
X122873333Y-92701333D01*
X122940000Y-92734666D01*
X123106666Y-92734666D01*
X123173333Y-92701333D01*
X123206666Y-92668000D01*
X123240000Y-92601333D01*
X123240000Y-92468000D01*
X123206666Y-92401333D01*
X123173333Y-92368000D01*
X123106666Y-92334666D01*
%TO.C,R11*%
X105468000Y-85406666D02*
X105234666Y-85073333D01*
X105068000Y-85406666D02*
X105068000Y-84706666D01*
X105334666Y-84706666D01*
X105401333Y-84740000D01*
X105434666Y-84773333D01*
X105468000Y-84840000D01*
X105468000Y-84940000D01*
X105434666Y-85006666D01*
X105401333Y-85040000D01*
X105334666Y-85073333D01*
X105068000Y-85073333D01*
X106134666Y-85406666D02*
X105734666Y-85406666D01*
X105934666Y-85406666D02*
X105934666Y-84706666D01*
X105868000Y-84806666D01*
X105801333Y-84873333D01*
X105734666Y-84906666D01*
X106801333Y-85406666D02*
X106401333Y-85406666D01*
X106601333Y-85406666D02*
X106601333Y-84706666D01*
X106534666Y-84806666D01*
X106468000Y-84873333D01*
X106401333Y-84906666D01*
%TO.C,R10*%
X111818000Y-84898666D02*
X111584666Y-84565333D01*
X111418000Y-84898666D02*
X111418000Y-84198666D01*
X111684666Y-84198666D01*
X111751333Y-84232000D01*
X111784666Y-84265333D01*
X111818000Y-84332000D01*
X111818000Y-84432000D01*
X111784666Y-84498666D01*
X111751333Y-84532000D01*
X111684666Y-84565333D01*
X111418000Y-84565333D01*
X112484666Y-84898666D02*
X112084666Y-84898666D01*
X112284666Y-84898666D02*
X112284666Y-84198666D01*
X112218000Y-84298666D01*
X112151333Y-84365333D01*
X112084666Y-84398666D01*
X112918000Y-84198666D02*
X112984666Y-84198666D01*
X113051333Y-84232000D01*
X113084666Y-84265333D01*
X113118000Y-84332000D01*
X113151333Y-84465333D01*
X113151333Y-84632000D01*
X113118000Y-84765333D01*
X113084666Y-84832000D01*
X113051333Y-84865333D01*
X112984666Y-84898666D01*
X112918000Y-84898666D01*
X112851333Y-84865333D01*
X112818000Y-84832000D01*
X112784666Y-84765333D01*
X112751333Y-84632000D01*
X112751333Y-84465333D01*
X112784666Y-84332000D01*
X112818000Y-84265333D01*
X112851333Y-84232000D01*
X112918000Y-84198666D01*
%TO.C,C10*%
X115628000Y-92706000D02*
X115594666Y-92739333D01*
X115494666Y-92772666D01*
X115428000Y-92772666D01*
X115328000Y-92739333D01*
X115261333Y-92672666D01*
X115228000Y-92606000D01*
X115194666Y-92472666D01*
X115194666Y-92372666D01*
X115228000Y-92239333D01*
X115261333Y-92172666D01*
X115328000Y-92106000D01*
X115428000Y-92072666D01*
X115494666Y-92072666D01*
X115594666Y-92106000D01*
X115628000Y-92139333D01*
X116294666Y-92772666D02*
X115894666Y-92772666D01*
X116094666Y-92772666D02*
X116094666Y-92072666D01*
X116028000Y-92172666D01*
X115961333Y-92239333D01*
X115894666Y-92272666D01*
X116728000Y-92072666D02*
X116794666Y-92072666D01*
X116861333Y-92106000D01*
X116894666Y-92139333D01*
X116928000Y-92206000D01*
X116961333Y-92339333D01*
X116961333Y-92506000D01*
X116928000Y-92639333D01*
X116894666Y-92706000D01*
X116861333Y-92739333D01*
X116794666Y-92772666D01*
X116728000Y-92772666D01*
X116661333Y-92739333D01*
X116628000Y-92706000D01*
X116594666Y-92639333D01*
X116561333Y-92506000D01*
X116561333Y-92339333D01*
X116594666Y-92206000D01*
X116628000Y-92139333D01*
X116661333Y-92106000D01*
X116728000Y-92072666D01*
%TO.C,L3*%
X188859333Y-88708666D02*
X188526000Y-88708666D01*
X188526000Y-88008666D01*
X189026000Y-88008666D02*
X189459333Y-88008666D01*
X189226000Y-88275333D01*
X189326000Y-88275333D01*
X189392666Y-88308666D01*
X189426000Y-88342000D01*
X189459333Y-88408666D01*
X189459333Y-88575333D01*
X189426000Y-88642000D01*
X189392666Y-88675333D01*
X189326000Y-88708666D01*
X189126000Y-88708666D01*
X189059333Y-88675333D01*
X189026000Y-88642000D01*
%TO.C,L2*%
X155077333Y-82612666D02*
X154744000Y-82612666D01*
X154744000Y-81912666D01*
X155277333Y-81979333D02*
X155310666Y-81946000D01*
X155377333Y-81912666D01*
X155544000Y-81912666D01*
X155610666Y-81946000D01*
X155644000Y-81979333D01*
X155677333Y-82046000D01*
X155677333Y-82112666D01*
X155644000Y-82212666D01*
X155244000Y-82612666D01*
X155677333Y-82612666D01*
%TO.C,R38*%
X179890000Y-90994666D02*
X179656666Y-90661333D01*
X179490000Y-90994666D02*
X179490000Y-90294666D01*
X179756666Y-90294666D01*
X179823333Y-90328000D01*
X179856666Y-90361333D01*
X179890000Y-90428000D01*
X179890000Y-90528000D01*
X179856666Y-90594666D01*
X179823333Y-90628000D01*
X179756666Y-90661333D01*
X179490000Y-90661333D01*
X180123333Y-90294666D02*
X180556666Y-90294666D01*
X180323333Y-90561333D01*
X180423333Y-90561333D01*
X180490000Y-90594666D01*
X180523333Y-90628000D01*
X180556666Y-90694666D01*
X180556666Y-90861333D01*
X180523333Y-90928000D01*
X180490000Y-90961333D01*
X180423333Y-90994666D01*
X180223333Y-90994666D01*
X180156666Y-90961333D01*
X180123333Y-90928000D01*
X180956666Y-90594666D02*
X180890000Y-90561333D01*
X180856666Y-90528000D01*
X180823333Y-90461333D01*
X180823333Y-90428000D01*
X180856666Y-90361333D01*
X180890000Y-90328000D01*
X180956666Y-90294666D01*
X181090000Y-90294666D01*
X181156666Y-90328000D01*
X181190000Y-90361333D01*
X181223333Y-90428000D01*
X181223333Y-90461333D01*
X181190000Y-90528000D01*
X181156666Y-90561333D01*
X181090000Y-90594666D01*
X180956666Y-90594666D01*
X180890000Y-90628000D01*
X180856666Y-90661333D01*
X180823333Y-90728000D01*
X180823333Y-90861333D01*
X180856666Y-90928000D01*
X180890000Y-90961333D01*
X180956666Y-90994666D01*
X181090000Y-90994666D01*
X181156666Y-90961333D01*
X181190000Y-90928000D01*
X181223333Y-90861333D01*
X181223333Y-90728000D01*
X181190000Y-90661333D01*
X181156666Y-90628000D01*
X181090000Y-90594666D01*
%TO.C,R28*%
X183446000Y-101154666D02*
X183212666Y-100821333D01*
X183046000Y-101154666D02*
X183046000Y-100454666D01*
X183312666Y-100454666D01*
X183379333Y-100488000D01*
X183412666Y-100521333D01*
X183446000Y-100588000D01*
X183446000Y-100688000D01*
X183412666Y-100754666D01*
X183379333Y-100788000D01*
X183312666Y-100821333D01*
X183046000Y-100821333D01*
X183712666Y-100521333D02*
X183746000Y-100488000D01*
X183812666Y-100454666D01*
X183979333Y-100454666D01*
X184046000Y-100488000D01*
X184079333Y-100521333D01*
X184112666Y-100588000D01*
X184112666Y-100654666D01*
X184079333Y-100754666D01*
X183679333Y-101154666D01*
X184112666Y-101154666D01*
X184512666Y-100754666D02*
X184446000Y-100721333D01*
X184412666Y-100688000D01*
X184379333Y-100621333D01*
X184379333Y-100588000D01*
X184412666Y-100521333D01*
X184446000Y-100488000D01*
X184512666Y-100454666D01*
X184646000Y-100454666D01*
X184712666Y-100488000D01*
X184746000Y-100521333D01*
X184779333Y-100588000D01*
X184779333Y-100621333D01*
X184746000Y-100688000D01*
X184712666Y-100721333D01*
X184646000Y-100754666D01*
X184512666Y-100754666D01*
X184446000Y-100788000D01*
X184412666Y-100821333D01*
X184379333Y-100888000D01*
X184379333Y-101021333D01*
X184412666Y-101088000D01*
X184446000Y-101121333D01*
X184512666Y-101154666D01*
X184646000Y-101154666D01*
X184712666Y-101121333D01*
X184746000Y-101088000D01*
X184779333Y-101021333D01*
X184779333Y-100888000D01*
X184746000Y-100821333D01*
X184712666Y-100788000D01*
X184646000Y-100754666D01*
%TO.C,R6*%
X169809333Y-92010666D02*
X169576000Y-91677333D01*
X169409333Y-92010666D02*
X169409333Y-91310666D01*
X169676000Y-91310666D01*
X169742666Y-91344000D01*
X169776000Y-91377333D01*
X169809333Y-91444000D01*
X169809333Y-91544000D01*
X169776000Y-91610666D01*
X169742666Y-91644000D01*
X169676000Y-91677333D01*
X169409333Y-91677333D01*
X170409333Y-91310666D02*
X170276000Y-91310666D01*
X170209333Y-91344000D01*
X170176000Y-91377333D01*
X170109333Y-91477333D01*
X170076000Y-91610666D01*
X170076000Y-91877333D01*
X170109333Y-91944000D01*
X170142666Y-91977333D01*
X170209333Y-92010666D01*
X170342666Y-92010666D01*
X170409333Y-91977333D01*
X170442666Y-91944000D01*
X170476000Y-91877333D01*
X170476000Y-91710666D01*
X170442666Y-91644000D01*
X170409333Y-91610666D01*
X170342666Y-91577333D01*
X170209333Y-91577333D01*
X170142666Y-91610666D01*
X170109333Y-91644000D01*
X170076000Y-91710666D01*
%TO.C,R5*%
X160082666Y-94858666D02*
X159749333Y-95092000D01*
X160082666Y-95258666D02*
X159382666Y-95258666D01*
X159382666Y-94992000D01*
X159416000Y-94925333D01*
X159449333Y-94892000D01*
X159516000Y-94858666D01*
X159616000Y-94858666D01*
X159682666Y-94892000D01*
X159716000Y-94925333D01*
X159749333Y-94992000D01*
X159749333Y-95258666D01*
X159382666Y-94225333D02*
X159382666Y-94558666D01*
X159716000Y-94592000D01*
X159682666Y-94558666D01*
X159649333Y-94492000D01*
X159649333Y-94325333D01*
X159682666Y-94258666D01*
X159716000Y-94225333D01*
X159782666Y-94192000D01*
X159949333Y-94192000D01*
X160016000Y-94225333D01*
X160049333Y-94258666D01*
X160082666Y-94325333D01*
X160082666Y-94492000D01*
X160049333Y-94558666D01*
X160016000Y-94592000D01*
%TO.C,R4*%
X158812666Y-94858666D02*
X158479333Y-95092000D01*
X158812666Y-95258666D02*
X158112666Y-95258666D01*
X158112666Y-94992000D01*
X158146000Y-94925333D01*
X158179333Y-94892000D01*
X158246000Y-94858666D01*
X158346000Y-94858666D01*
X158412666Y-94892000D01*
X158446000Y-94925333D01*
X158479333Y-94992000D01*
X158479333Y-95258666D01*
X158346000Y-94258666D02*
X158812666Y-94258666D01*
X158079333Y-94425333D02*
X158579333Y-94592000D01*
X158579333Y-94158666D01*
%TO.C,R3*%
X161606666Y-94858666D02*
X161273333Y-95092000D01*
X161606666Y-95258666D02*
X160906666Y-95258666D01*
X160906666Y-94992000D01*
X160940000Y-94925333D01*
X160973333Y-94892000D01*
X161040000Y-94858666D01*
X161140000Y-94858666D01*
X161206666Y-94892000D01*
X161240000Y-94925333D01*
X161273333Y-94992000D01*
X161273333Y-95258666D01*
X160906666Y-94625333D02*
X160906666Y-94192000D01*
X161173333Y-94425333D01*
X161173333Y-94325333D01*
X161206666Y-94258666D01*
X161240000Y-94225333D01*
X161306666Y-94192000D01*
X161473333Y-94192000D01*
X161540000Y-94225333D01*
X161573333Y-94258666D01*
X161606666Y-94325333D01*
X161606666Y-94525333D01*
X161573333Y-94592000D01*
X161540000Y-94625333D01*
%TO.C,R2*%
X163130666Y-94858666D02*
X162797333Y-95092000D01*
X163130666Y-95258666D02*
X162430666Y-95258666D01*
X162430666Y-94992000D01*
X162464000Y-94925333D01*
X162497333Y-94892000D01*
X162564000Y-94858666D01*
X162664000Y-94858666D01*
X162730666Y-94892000D01*
X162764000Y-94925333D01*
X162797333Y-94992000D01*
X162797333Y-95258666D01*
X162497333Y-94592000D02*
X162464000Y-94558666D01*
X162430666Y-94492000D01*
X162430666Y-94325333D01*
X162464000Y-94258666D01*
X162497333Y-94225333D01*
X162564000Y-94192000D01*
X162630666Y-94192000D01*
X162730666Y-94225333D01*
X163130666Y-94625333D01*
X163130666Y-94192000D01*
%TO.C,C1*%
X169809333Y-88896000D02*
X169776000Y-88929333D01*
X169676000Y-88962666D01*
X169609333Y-88962666D01*
X169509333Y-88929333D01*
X169442666Y-88862666D01*
X169409333Y-88796000D01*
X169376000Y-88662666D01*
X169376000Y-88562666D01*
X169409333Y-88429333D01*
X169442666Y-88362666D01*
X169509333Y-88296000D01*
X169609333Y-88262666D01*
X169676000Y-88262666D01*
X169776000Y-88296000D01*
X169809333Y-88329333D01*
X170476000Y-88962666D02*
X170076000Y-88962666D01*
X170276000Y-88962666D02*
X170276000Y-88262666D01*
X170209333Y-88362666D01*
X170142666Y-88429333D01*
X170076000Y-88462666D01*
%TO.C,R45*%
X177604000Y-90486666D02*
X177370666Y-90153333D01*
X177204000Y-90486666D02*
X177204000Y-89786666D01*
X177470666Y-89786666D01*
X177537333Y-89820000D01*
X177570666Y-89853333D01*
X177604000Y-89920000D01*
X177604000Y-90020000D01*
X177570666Y-90086666D01*
X177537333Y-90120000D01*
X177470666Y-90153333D01*
X177204000Y-90153333D01*
X178204000Y-90020000D02*
X178204000Y-90486666D01*
X178037333Y-89753333D02*
X177870666Y-90253333D01*
X178304000Y-90253333D01*
X178904000Y-89786666D02*
X178570666Y-89786666D01*
X178537333Y-90120000D01*
X178570666Y-90086666D01*
X178637333Y-90053333D01*
X178804000Y-90053333D01*
X178870666Y-90086666D01*
X178904000Y-90120000D01*
X178937333Y-90186666D01*
X178937333Y-90353333D01*
X178904000Y-90420000D01*
X178870666Y-90453333D01*
X178804000Y-90486666D01*
X178637333Y-90486666D01*
X178570666Y-90453333D01*
X178537333Y-90420000D01*
%TO.C,U3*%
X177266666Y-83944666D02*
X177266666Y-84511333D01*
X177300000Y-84578000D01*
X177333333Y-84611333D01*
X177400000Y-84644666D01*
X177533333Y-84644666D01*
X177600000Y-84611333D01*
X177633333Y-84578000D01*
X177666666Y-84511333D01*
X177666666Y-83944666D01*
X177933333Y-83944666D02*
X178366666Y-83944666D01*
X178133333Y-84211333D01*
X178233333Y-84211333D01*
X178300000Y-84244666D01*
X178333333Y-84278000D01*
X178366666Y-84344666D01*
X178366666Y-84511333D01*
X178333333Y-84578000D01*
X178300000Y-84611333D01*
X178233333Y-84644666D01*
X178033333Y-84644666D01*
X177966666Y-84611333D01*
X177933333Y-84578000D01*
%TO.C,U6*%
X183362666Y-82674666D02*
X183362666Y-83241333D01*
X183396000Y-83308000D01*
X183429333Y-83341333D01*
X183496000Y-83374666D01*
X183629333Y-83374666D01*
X183696000Y-83341333D01*
X183729333Y-83308000D01*
X183762666Y-83241333D01*
X183762666Y-82674666D01*
X184396000Y-82674666D02*
X184262666Y-82674666D01*
X184196000Y-82708000D01*
X184162666Y-82741333D01*
X184096000Y-82841333D01*
X184062666Y-82974666D01*
X184062666Y-83241333D01*
X184096000Y-83308000D01*
X184129333Y-83341333D01*
X184196000Y-83374666D01*
X184329333Y-83374666D01*
X184396000Y-83341333D01*
X184429333Y-83308000D01*
X184462666Y-83241333D01*
X184462666Y-83074666D01*
X184429333Y-83008000D01*
X184396000Y-82974666D01*
X184329333Y-82941333D01*
X184196000Y-82941333D01*
X184129333Y-82974666D01*
X184096000Y-83008000D01*
X184062666Y-83074666D01*
%TO.C,U5*%
X178790666Y-96644666D02*
X178790666Y-97211333D01*
X178824000Y-97278000D01*
X178857333Y-97311333D01*
X178924000Y-97344666D01*
X179057333Y-97344666D01*
X179124000Y-97311333D01*
X179157333Y-97278000D01*
X179190666Y-97211333D01*
X179190666Y-96644666D01*
X179857333Y-96644666D02*
X179524000Y-96644666D01*
X179490666Y-96978000D01*
X179524000Y-96944666D01*
X179590666Y-96911333D01*
X179757333Y-96911333D01*
X179824000Y-96944666D01*
X179857333Y-96978000D01*
X179890666Y-97044666D01*
X179890666Y-97211333D01*
X179857333Y-97278000D01*
X179824000Y-97311333D01*
X179757333Y-97344666D01*
X179590666Y-97344666D01*
X179524000Y-97311333D01*
X179490666Y-97278000D01*
%TO.C,U4*%
X152628666Y-91721266D02*
X152628666Y-92287933D01*
X152662000Y-92354600D01*
X152695333Y-92387933D01*
X152762000Y-92421266D01*
X152895333Y-92421266D01*
X152962000Y-92387933D01*
X152995333Y-92354600D01*
X153028666Y-92287933D01*
X153028666Y-91721266D01*
X153662000Y-91954600D02*
X153662000Y-92421266D01*
X153495333Y-91687933D02*
X153328666Y-92187933D01*
X153762000Y-92187933D01*
%TO.C,U2*%
X110972666Y-94612666D02*
X110972666Y-95179333D01*
X111006000Y-95246000D01*
X111039333Y-95279333D01*
X111106000Y-95312666D01*
X111239333Y-95312666D01*
X111306000Y-95279333D01*
X111339333Y-95246000D01*
X111372666Y-95179333D01*
X111372666Y-94612666D01*
X111672666Y-94679333D02*
X111706000Y-94646000D01*
X111772666Y-94612666D01*
X111939333Y-94612666D01*
X112006000Y-94646000D01*
X112039333Y-94679333D01*
X112072666Y-94746000D01*
X112072666Y-94812666D01*
X112039333Y-94912666D01*
X111639333Y-95312666D01*
X112072666Y-95312666D01*
%TO.C,U1*%
X158470666Y-82420666D02*
X158470666Y-82987333D01*
X158504000Y-83054000D01*
X158537333Y-83087333D01*
X158604000Y-83120666D01*
X158737333Y-83120666D01*
X158804000Y-83087333D01*
X158837333Y-83054000D01*
X158870666Y-82987333D01*
X158870666Y-82420666D01*
X159570666Y-83120666D02*
X159170666Y-83120666D01*
X159370666Y-83120666D02*
X159370666Y-82420666D01*
X159304000Y-82520666D01*
X159237333Y-82587333D01*
X159170666Y-82620666D01*
%TO.C,TH1*%
X188330000Y-86230666D02*
X188730000Y-86230666D01*
X188530000Y-86930666D02*
X188530000Y-86230666D01*
X188963333Y-86930666D02*
X188963333Y-86230666D01*
X188963333Y-86564000D02*
X189363333Y-86564000D01*
X189363333Y-86930666D02*
X189363333Y-86230666D01*
X190063333Y-86930666D02*
X189663333Y-86930666D01*
X189863333Y-86930666D02*
X189863333Y-86230666D01*
X189796666Y-86330666D01*
X189730000Y-86397333D01*
X189663333Y-86430666D01*
%TO.C,R42*%
X151188000Y-82104666D02*
X150954666Y-81771333D01*
X150788000Y-82104666D02*
X150788000Y-81404666D01*
X151054666Y-81404666D01*
X151121333Y-81438000D01*
X151154666Y-81471333D01*
X151188000Y-81538000D01*
X151188000Y-81638000D01*
X151154666Y-81704666D01*
X151121333Y-81738000D01*
X151054666Y-81771333D01*
X150788000Y-81771333D01*
X151788000Y-81638000D02*
X151788000Y-82104666D01*
X151621333Y-81371333D02*
X151454666Y-81871333D01*
X151888000Y-81871333D01*
X152121333Y-81471333D02*
X152154666Y-81438000D01*
X152221333Y-81404666D01*
X152388000Y-81404666D01*
X152454666Y-81438000D01*
X152488000Y-81471333D01*
X152521333Y-81538000D01*
X152521333Y-81604666D01*
X152488000Y-81704666D01*
X152088000Y-82104666D01*
X152521333Y-82104666D01*
%TO.C,R41*%
X160336666Y-79190000D02*
X160003333Y-79423333D01*
X160336666Y-79590000D02*
X159636666Y-79590000D01*
X159636666Y-79323333D01*
X159670000Y-79256666D01*
X159703333Y-79223333D01*
X159770000Y-79190000D01*
X159870000Y-79190000D01*
X159936666Y-79223333D01*
X159970000Y-79256666D01*
X160003333Y-79323333D01*
X160003333Y-79590000D01*
X159870000Y-78590000D02*
X160336666Y-78590000D01*
X159603333Y-78756666D02*
X160103333Y-78923333D01*
X160103333Y-78490000D01*
X160336666Y-77856666D02*
X160336666Y-78256666D01*
X160336666Y-78056666D02*
X159636666Y-78056666D01*
X159736666Y-78123333D01*
X159803333Y-78190000D01*
X159836666Y-78256666D01*
%TO.C,R40*%
X187514666Y-100780000D02*
X187181333Y-101013333D01*
X187514666Y-101180000D02*
X186814666Y-101180000D01*
X186814666Y-100913333D01*
X186848000Y-100846666D01*
X186881333Y-100813333D01*
X186948000Y-100780000D01*
X187048000Y-100780000D01*
X187114666Y-100813333D01*
X187148000Y-100846666D01*
X187181333Y-100913333D01*
X187181333Y-101180000D01*
X187048000Y-100180000D02*
X187514666Y-100180000D01*
X186781333Y-100346666D02*
X187281333Y-100513333D01*
X187281333Y-100080000D01*
X186814666Y-99680000D02*
X186814666Y-99613333D01*
X186848000Y-99546666D01*
X186881333Y-99513333D01*
X186948000Y-99480000D01*
X187081333Y-99446666D01*
X187248000Y-99446666D01*
X187381333Y-99480000D01*
X187448000Y-99513333D01*
X187481333Y-99546666D01*
X187514666Y-99613333D01*
X187514666Y-99680000D01*
X187481333Y-99746666D01*
X187448000Y-99780000D01*
X187381333Y-99813333D01*
X187248000Y-99846666D01*
X187081333Y-99846666D01*
X186948000Y-99813333D01*
X186881333Y-99780000D01*
X186848000Y-99746666D01*
X186814666Y-99680000D01*
%TO.C,R39*%
X187514666Y-92652000D02*
X187181333Y-92885333D01*
X187514666Y-93052000D02*
X186814666Y-93052000D01*
X186814666Y-92785333D01*
X186848000Y-92718666D01*
X186881333Y-92685333D01*
X186948000Y-92652000D01*
X187048000Y-92652000D01*
X187114666Y-92685333D01*
X187148000Y-92718666D01*
X187181333Y-92785333D01*
X187181333Y-93052000D01*
X186814666Y-92418666D02*
X186814666Y-91985333D01*
X187081333Y-92218666D01*
X187081333Y-92118666D01*
X187114666Y-92052000D01*
X187148000Y-92018666D01*
X187214666Y-91985333D01*
X187381333Y-91985333D01*
X187448000Y-92018666D01*
X187481333Y-92052000D01*
X187514666Y-92118666D01*
X187514666Y-92318666D01*
X187481333Y-92385333D01*
X187448000Y-92418666D01*
X187514666Y-91652000D02*
X187514666Y-91518666D01*
X187481333Y-91452000D01*
X187448000Y-91418666D01*
X187348000Y-91352000D01*
X187214666Y-91318666D01*
X186948000Y-91318666D01*
X186881333Y-91352000D01*
X186848000Y-91385333D01*
X186814666Y-91452000D01*
X186814666Y-91585333D01*
X186848000Y-91652000D01*
X186881333Y-91685333D01*
X186948000Y-91718666D01*
X187114666Y-91718666D01*
X187181333Y-91685333D01*
X187214666Y-91652000D01*
X187248000Y-91585333D01*
X187248000Y-91452000D01*
X187214666Y-91385333D01*
X187181333Y-91352000D01*
X187114666Y-91318666D01*
%TO.C,R37*%
X183446000Y-89470666D02*
X183212666Y-89137333D01*
X183046000Y-89470666D02*
X183046000Y-88770666D01*
X183312666Y-88770666D01*
X183379333Y-88804000D01*
X183412666Y-88837333D01*
X183446000Y-88904000D01*
X183446000Y-89004000D01*
X183412666Y-89070666D01*
X183379333Y-89104000D01*
X183312666Y-89137333D01*
X183046000Y-89137333D01*
X183679333Y-88770666D02*
X184112666Y-88770666D01*
X183879333Y-89037333D01*
X183979333Y-89037333D01*
X184046000Y-89070666D01*
X184079333Y-89104000D01*
X184112666Y-89170666D01*
X184112666Y-89337333D01*
X184079333Y-89404000D01*
X184046000Y-89437333D01*
X183979333Y-89470666D01*
X183779333Y-89470666D01*
X183712666Y-89437333D01*
X183679333Y-89404000D01*
X184346000Y-88770666D02*
X184812666Y-88770666D01*
X184512666Y-89470666D01*
%TO.C,R35*%
X177862666Y-92144000D02*
X177529333Y-92377333D01*
X177862666Y-92544000D02*
X177162666Y-92544000D01*
X177162666Y-92277333D01*
X177196000Y-92210666D01*
X177229333Y-92177333D01*
X177296000Y-92144000D01*
X177396000Y-92144000D01*
X177462666Y-92177333D01*
X177496000Y-92210666D01*
X177529333Y-92277333D01*
X177529333Y-92544000D01*
X177162666Y-91910666D02*
X177162666Y-91477333D01*
X177429333Y-91710666D01*
X177429333Y-91610666D01*
X177462666Y-91544000D01*
X177496000Y-91510666D01*
X177562666Y-91477333D01*
X177729333Y-91477333D01*
X177796000Y-91510666D01*
X177829333Y-91544000D01*
X177862666Y-91610666D01*
X177862666Y-91810666D01*
X177829333Y-91877333D01*
X177796000Y-91910666D01*
X177162666Y-90844000D02*
X177162666Y-91177333D01*
X177496000Y-91210666D01*
X177462666Y-91177333D01*
X177429333Y-91110666D01*
X177429333Y-90944000D01*
X177462666Y-90877333D01*
X177496000Y-90844000D01*
X177562666Y-90810666D01*
X177729333Y-90810666D01*
X177796000Y-90844000D01*
X177829333Y-90877333D01*
X177862666Y-90944000D01*
X177862666Y-91110666D01*
X177829333Y-91177333D01*
X177796000Y-91210666D01*
%TO.C,R34*%
X177604000Y-88962666D02*
X177370666Y-88629333D01*
X177204000Y-88962666D02*
X177204000Y-88262666D01*
X177470666Y-88262666D01*
X177537333Y-88296000D01*
X177570666Y-88329333D01*
X177604000Y-88396000D01*
X177604000Y-88496000D01*
X177570666Y-88562666D01*
X177537333Y-88596000D01*
X177470666Y-88629333D01*
X177204000Y-88629333D01*
X177837333Y-88262666D02*
X178270666Y-88262666D01*
X178037333Y-88529333D01*
X178137333Y-88529333D01*
X178204000Y-88562666D01*
X178237333Y-88596000D01*
X178270666Y-88662666D01*
X178270666Y-88829333D01*
X178237333Y-88896000D01*
X178204000Y-88929333D01*
X178137333Y-88962666D01*
X177937333Y-88962666D01*
X177870666Y-88929333D01*
X177837333Y-88896000D01*
X178870666Y-88496000D02*
X178870666Y-88962666D01*
X178704000Y-88229333D02*
X178537333Y-88729333D01*
X178970666Y-88729333D01*
%TO.C,R33*%
X135698666Y-93668000D02*
X135365333Y-93901333D01*
X135698666Y-94068000D02*
X134998666Y-94068000D01*
X134998666Y-93801333D01*
X135032000Y-93734666D01*
X135065333Y-93701333D01*
X135132000Y-93668000D01*
X135232000Y-93668000D01*
X135298666Y-93701333D01*
X135332000Y-93734666D01*
X135365333Y-93801333D01*
X135365333Y-94068000D01*
X134998666Y-93434666D02*
X134998666Y-93001333D01*
X135265333Y-93234666D01*
X135265333Y-93134666D01*
X135298666Y-93068000D01*
X135332000Y-93034666D01*
X135398666Y-93001333D01*
X135565333Y-93001333D01*
X135632000Y-93034666D01*
X135665333Y-93068000D01*
X135698666Y-93134666D01*
X135698666Y-93334666D01*
X135665333Y-93401333D01*
X135632000Y-93434666D01*
X134998666Y-92768000D02*
X134998666Y-92334666D01*
X135265333Y-92568000D01*
X135265333Y-92468000D01*
X135298666Y-92401333D01*
X135332000Y-92368000D01*
X135398666Y-92334666D01*
X135565333Y-92334666D01*
X135632000Y-92368000D01*
X135665333Y-92401333D01*
X135698666Y-92468000D01*
X135698666Y-92668000D01*
X135665333Y-92734666D01*
X135632000Y-92768000D01*
%TO.C,R32*%
X137222666Y-93668000D02*
X136889333Y-93901333D01*
X137222666Y-94068000D02*
X136522666Y-94068000D01*
X136522666Y-93801333D01*
X136556000Y-93734666D01*
X136589333Y-93701333D01*
X136656000Y-93668000D01*
X136756000Y-93668000D01*
X136822666Y-93701333D01*
X136856000Y-93734666D01*
X136889333Y-93801333D01*
X136889333Y-94068000D01*
X136522666Y-93434666D02*
X136522666Y-93001333D01*
X136789333Y-93234666D01*
X136789333Y-93134666D01*
X136822666Y-93068000D01*
X136856000Y-93034666D01*
X136922666Y-93001333D01*
X137089333Y-93001333D01*
X137156000Y-93034666D01*
X137189333Y-93068000D01*
X137222666Y-93134666D01*
X137222666Y-93334666D01*
X137189333Y-93401333D01*
X137156000Y-93434666D01*
X136589333Y-92734666D02*
X136556000Y-92701333D01*
X136522666Y-92634666D01*
X136522666Y-92468000D01*
X136556000Y-92401333D01*
X136589333Y-92368000D01*
X136656000Y-92334666D01*
X136722666Y-92334666D01*
X136822666Y-92368000D01*
X137222666Y-92768000D01*
X137222666Y-92334666D01*
%TO.C,R31*%
X172778000Y-93534666D02*
X172544666Y-93201333D01*
X172378000Y-93534666D02*
X172378000Y-92834666D01*
X172644666Y-92834666D01*
X172711333Y-92868000D01*
X172744666Y-92901333D01*
X172778000Y-92968000D01*
X172778000Y-93068000D01*
X172744666Y-93134666D01*
X172711333Y-93168000D01*
X172644666Y-93201333D01*
X172378000Y-93201333D01*
X173011333Y-92834666D02*
X173444666Y-92834666D01*
X173211333Y-93101333D01*
X173311333Y-93101333D01*
X173378000Y-93134666D01*
X173411333Y-93168000D01*
X173444666Y-93234666D01*
X173444666Y-93401333D01*
X173411333Y-93468000D01*
X173378000Y-93501333D01*
X173311333Y-93534666D01*
X173111333Y-93534666D01*
X173044666Y-93501333D01*
X173011333Y-93468000D01*
X174111333Y-93534666D02*
X173711333Y-93534666D01*
X173911333Y-93534666D02*
X173911333Y-92834666D01*
X173844666Y-92934666D01*
X173778000Y-93001333D01*
X173711333Y-93034666D01*
%TO.C,R30*%
X188780000Y-83882666D02*
X188546666Y-83549333D01*
X188380000Y-83882666D02*
X188380000Y-83182666D01*
X188646666Y-83182666D01*
X188713333Y-83216000D01*
X188746666Y-83249333D01*
X188780000Y-83316000D01*
X188780000Y-83416000D01*
X188746666Y-83482666D01*
X188713333Y-83516000D01*
X188646666Y-83549333D01*
X188380000Y-83549333D01*
X189013333Y-83182666D02*
X189446666Y-83182666D01*
X189213333Y-83449333D01*
X189313333Y-83449333D01*
X189380000Y-83482666D01*
X189413333Y-83516000D01*
X189446666Y-83582666D01*
X189446666Y-83749333D01*
X189413333Y-83816000D01*
X189380000Y-83849333D01*
X189313333Y-83882666D01*
X189113333Y-83882666D01*
X189046666Y-83849333D01*
X189013333Y-83816000D01*
X189880000Y-83182666D02*
X189946666Y-83182666D01*
X190013333Y-83216000D01*
X190046666Y-83249333D01*
X190080000Y-83316000D01*
X190113333Y-83449333D01*
X190113333Y-83616000D01*
X190080000Y-83749333D01*
X190046666Y-83816000D01*
X190013333Y-83849333D01*
X189946666Y-83882666D01*
X189880000Y-83882666D01*
X189813333Y-83849333D01*
X189780000Y-83816000D01*
X189746666Y-83749333D01*
X189713333Y-83616000D01*
X189713333Y-83449333D01*
X189746666Y-83316000D01*
X189780000Y-83249333D01*
X189813333Y-83216000D01*
X189880000Y-83182666D01*
%TO.C,R29*%
X188780000Y-85406666D02*
X188546666Y-85073333D01*
X188380000Y-85406666D02*
X188380000Y-84706666D01*
X188646666Y-84706666D01*
X188713333Y-84740000D01*
X188746666Y-84773333D01*
X188780000Y-84840000D01*
X188780000Y-84940000D01*
X188746666Y-85006666D01*
X188713333Y-85040000D01*
X188646666Y-85073333D01*
X188380000Y-85073333D01*
X189046666Y-84773333D02*
X189080000Y-84740000D01*
X189146666Y-84706666D01*
X189313333Y-84706666D01*
X189380000Y-84740000D01*
X189413333Y-84773333D01*
X189446666Y-84840000D01*
X189446666Y-84906666D01*
X189413333Y-85006666D01*
X189013333Y-85406666D01*
X189446666Y-85406666D01*
X189780000Y-85406666D02*
X189913333Y-85406666D01*
X189980000Y-85373333D01*
X190013333Y-85340000D01*
X190080000Y-85240000D01*
X190113333Y-85106666D01*
X190113333Y-84840000D01*
X190080000Y-84773333D01*
X190046666Y-84740000D01*
X189980000Y-84706666D01*
X189846666Y-84706666D01*
X189780000Y-84740000D01*
X189746666Y-84773333D01*
X189713333Y-84840000D01*
X189713333Y-85006666D01*
X189746666Y-85073333D01*
X189780000Y-85106666D01*
X189846666Y-85140000D01*
X189980000Y-85140000D01*
X190046666Y-85106666D01*
X190080000Y-85073333D01*
X190113333Y-85006666D01*
%TO.C,R27*%
X172778000Y-96582666D02*
X172544666Y-96249333D01*
X172378000Y-96582666D02*
X172378000Y-95882666D01*
X172644666Y-95882666D01*
X172711333Y-95916000D01*
X172744666Y-95949333D01*
X172778000Y-96016000D01*
X172778000Y-96116000D01*
X172744666Y-96182666D01*
X172711333Y-96216000D01*
X172644666Y-96249333D01*
X172378000Y-96249333D01*
X173044666Y-95949333D02*
X173078000Y-95916000D01*
X173144666Y-95882666D01*
X173311333Y-95882666D01*
X173378000Y-95916000D01*
X173411333Y-95949333D01*
X173444666Y-96016000D01*
X173444666Y-96082666D01*
X173411333Y-96182666D01*
X173011333Y-96582666D01*
X173444666Y-96582666D01*
X173678000Y-95882666D02*
X174144666Y-95882666D01*
X173844666Y-96582666D01*
%TO.C,R26*%
X172778000Y-98106666D02*
X172544666Y-97773333D01*
X172378000Y-98106666D02*
X172378000Y-97406666D01*
X172644666Y-97406666D01*
X172711333Y-97440000D01*
X172744666Y-97473333D01*
X172778000Y-97540000D01*
X172778000Y-97640000D01*
X172744666Y-97706666D01*
X172711333Y-97740000D01*
X172644666Y-97773333D01*
X172378000Y-97773333D01*
X173044666Y-97473333D02*
X173078000Y-97440000D01*
X173144666Y-97406666D01*
X173311333Y-97406666D01*
X173378000Y-97440000D01*
X173411333Y-97473333D01*
X173444666Y-97540000D01*
X173444666Y-97606666D01*
X173411333Y-97706666D01*
X173011333Y-98106666D01*
X173444666Y-98106666D01*
X174044666Y-97406666D02*
X173911333Y-97406666D01*
X173844666Y-97440000D01*
X173811333Y-97473333D01*
X173744666Y-97573333D01*
X173711333Y-97706666D01*
X173711333Y-97973333D01*
X173744666Y-98040000D01*
X173778000Y-98073333D01*
X173844666Y-98106666D01*
X173978000Y-98106666D01*
X174044666Y-98073333D01*
X174078000Y-98040000D01*
X174111333Y-97973333D01*
X174111333Y-97806666D01*
X174078000Y-97740000D01*
X174044666Y-97706666D01*
X173978000Y-97673333D01*
X173844666Y-97673333D01*
X173778000Y-97706666D01*
X173744666Y-97740000D01*
X173711333Y-97806666D01*
%TO.C,R25*%
X152204000Y-99630666D02*
X151970666Y-99297333D01*
X151804000Y-99630666D02*
X151804000Y-98930666D01*
X152070666Y-98930666D01*
X152137333Y-98964000D01*
X152170666Y-98997333D01*
X152204000Y-99064000D01*
X152204000Y-99164000D01*
X152170666Y-99230666D01*
X152137333Y-99264000D01*
X152070666Y-99297333D01*
X151804000Y-99297333D01*
X152470666Y-98997333D02*
X152504000Y-98964000D01*
X152570666Y-98930666D01*
X152737333Y-98930666D01*
X152804000Y-98964000D01*
X152837333Y-98997333D01*
X152870666Y-99064000D01*
X152870666Y-99130666D01*
X152837333Y-99230666D01*
X152437333Y-99630666D01*
X152870666Y-99630666D01*
X153504000Y-98930666D02*
X153170666Y-98930666D01*
X153137333Y-99264000D01*
X153170666Y-99230666D01*
X153237333Y-99197333D01*
X153404000Y-99197333D01*
X153470666Y-99230666D01*
X153504000Y-99264000D01*
X153537333Y-99330666D01*
X153537333Y-99497333D01*
X153504000Y-99564000D01*
X153470666Y-99597333D01*
X153404000Y-99630666D01*
X153237333Y-99630666D01*
X153170666Y-99597333D01*
X153137333Y-99564000D01*
%TO.C,R24*%
X132650666Y-93668000D02*
X132317333Y-93901333D01*
X132650666Y-94068000D02*
X131950666Y-94068000D01*
X131950666Y-93801333D01*
X131984000Y-93734666D01*
X132017333Y-93701333D01*
X132084000Y-93668000D01*
X132184000Y-93668000D01*
X132250666Y-93701333D01*
X132284000Y-93734666D01*
X132317333Y-93801333D01*
X132317333Y-94068000D01*
X132017333Y-93401333D02*
X131984000Y-93368000D01*
X131950666Y-93301333D01*
X131950666Y-93134666D01*
X131984000Y-93068000D01*
X132017333Y-93034666D01*
X132084000Y-93001333D01*
X132150666Y-93001333D01*
X132250666Y-93034666D01*
X132650666Y-93434666D01*
X132650666Y-93001333D01*
X132184000Y-92401333D02*
X132650666Y-92401333D01*
X131917333Y-92568000D02*
X132417333Y-92734666D01*
X132417333Y-92301333D01*
%TO.C,R23*%
X141794666Y-93668000D02*
X141461333Y-93901333D01*
X141794666Y-94068000D02*
X141094666Y-94068000D01*
X141094666Y-93801333D01*
X141128000Y-93734666D01*
X141161333Y-93701333D01*
X141228000Y-93668000D01*
X141328000Y-93668000D01*
X141394666Y-93701333D01*
X141428000Y-93734666D01*
X141461333Y-93801333D01*
X141461333Y-94068000D01*
X141161333Y-93401333D02*
X141128000Y-93368000D01*
X141094666Y-93301333D01*
X141094666Y-93134666D01*
X141128000Y-93068000D01*
X141161333Y-93034666D01*
X141228000Y-93001333D01*
X141294666Y-93001333D01*
X141394666Y-93034666D01*
X141794666Y-93434666D01*
X141794666Y-93001333D01*
X141094666Y-92768000D02*
X141094666Y-92334666D01*
X141361333Y-92568000D01*
X141361333Y-92468000D01*
X141394666Y-92401333D01*
X141428000Y-92368000D01*
X141494666Y-92334666D01*
X141661333Y-92334666D01*
X141728000Y-92368000D01*
X141761333Y-92401333D01*
X141794666Y-92468000D01*
X141794666Y-92668000D01*
X141761333Y-92734666D01*
X141728000Y-92768000D01*
%TO.C,R22*%
X126554666Y-93668000D02*
X126221333Y-93901333D01*
X126554666Y-94068000D02*
X125854666Y-94068000D01*
X125854666Y-93801333D01*
X125888000Y-93734666D01*
X125921333Y-93701333D01*
X125988000Y-93668000D01*
X126088000Y-93668000D01*
X126154666Y-93701333D01*
X126188000Y-93734666D01*
X126221333Y-93801333D01*
X126221333Y-94068000D01*
X125921333Y-93401333D02*
X125888000Y-93368000D01*
X125854666Y-93301333D01*
X125854666Y-93134666D01*
X125888000Y-93068000D01*
X125921333Y-93034666D01*
X125988000Y-93001333D01*
X126054666Y-93001333D01*
X126154666Y-93034666D01*
X126554666Y-93434666D01*
X126554666Y-93001333D01*
X125921333Y-92734666D02*
X125888000Y-92701333D01*
X125854666Y-92634666D01*
X125854666Y-92468000D01*
X125888000Y-92401333D01*
X125921333Y-92368000D01*
X125988000Y-92334666D01*
X126054666Y-92334666D01*
X126154666Y-92368000D01*
X126554666Y-92768000D01*
X126554666Y-92334666D01*
%TO.C,R15*%
X149156000Y-95820666D02*
X148922666Y-95487333D01*
X148756000Y-95820666D02*
X148756000Y-95120666D01*
X149022666Y-95120666D01*
X149089333Y-95154000D01*
X149122666Y-95187333D01*
X149156000Y-95254000D01*
X149156000Y-95354000D01*
X149122666Y-95420666D01*
X149089333Y-95454000D01*
X149022666Y-95487333D01*
X148756000Y-95487333D01*
X149822666Y-95820666D02*
X149422666Y-95820666D01*
X149622666Y-95820666D02*
X149622666Y-95120666D01*
X149556000Y-95220666D01*
X149489333Y-95287333D01*
X149422666Y-95320666D01*
X150456000Y-95120666D02*
X150122666Y-95120666D01*
X150089333Y-95454000D01*
X150122666Y-95420666D01*
X150189333Y-95387333D01*
X150356000Y-95387333D01*
X150422666Y-95420666D01*
X150456000Y-95454000D01*
X150489333Y-95520666D01*
X150489333Y-95687333D01*
X150456000Y-95754000D01*
X150422666Y-95787333D01*
X150356000Y-95820666D01*
X150189333Y-95820666D01*
X150122666Y-95787333D01*
X150089333Y-95754000D01*
%TO.C,R8*%
X105801333Y-92518666D02*
X105568000Y-92185333D01*
X105401333Y-92518666D02*
X105401333Y-91818666D01*
X105668000Y-91818666D01*
X105734666Y-91852000D01*
X105768000Y-91885333D01*
X105801333Y-91952000D01*
X105801333Y-92052000D01*
X105768000Y-92118666D01*
X105734666Y-92152000D01*
X105668000Y-92185333D01*
X105401333Y-92185333D01*
X106201333Y-92118666D02*
X106134666Y-92085333D01*
X106101333Y-92052000D01*
X106068000Y-91985333D01*
X106068000Y-91952000D01*
X106101333Y-91885333D01*
X106134666Y-91852000D01*
X106201333Y-91818666D01*
X106334666Y-91818666D01*
X106401333Y-91852000D01*
X106434666Y-91885333D01*
X106468000Y-91952000D01*
X106468000Y-91985333D01*
X106434666Y-92052000D01*
X106401333Y-92085333D01*
X106334666Y-92118666D01*
X106201333Y-92118666D01*
X106134666Y-92152000D01*
X106101333Y-92185333D01*
X106068000Y-92252000D01*
X106068000Y-92385333D01*
X106101333Y-92452000D01*
X106134666Y-92485333D01*
X106201333Y-92518666D01*
X106334666Y-92518666D01*
X106401333Y-92485333D01*
X106434666Y-92452000D01*
X106468000Y-92385333D01*
X106468000Y-92252000D01*
X106434666Y-92185333D01*
X106401333Y-92152000D01*
X106334666Y-92118666D01*
%TO.C,Q4*%
X149285333Y-92545333D02*
X149218666Y-92512000D01*
X149152000Y-92445333D01*
X149052000Y-92345333D01*
X148985333Y-92312000D01*
X148918666Y-92312000D01*
X148952000Y-92478666D02*
X148885333Y-92445333D01*
X148818666Y-92378666D01*
X148785333Y-92245333D01*
X148785333Y-92012000D01*
X148818666Y-91878666D01*
X148885333Y-91812000D01*
X148952000Y-91778666D01*
X149085333Y-91778666D01*
X149152000Y-91812000D01*
X149218666Y-91878666D01*
X149252000Y-92012000D01*
X149252000Y-92245333D01*
X149218666Y-92378666D01*
X149152000Y-92445333D01*
X149085333Y-92478666D01*
X148952000Y-92478666D01*
X149852000Y-92012000D02*
X149852000Y-92478666D01*
X149685333Y-91745333D02*
X149518666Y-92245333D01*
X149952000Y-92245333D01*
%TO.C,Q3*%
X170875333Y-80393333D02*
X170808666Y-80360000D01*
X170742000Y-80293333D01*
X170642000Y-80193333D01*
X170575333Y-80160000D01*
X170508666Y-80160000D01*
X170542000Y-80326666D02*
X170475333Y-80293333D01*
X170408666Y-80226666D01*
X170375333Y-80093333D01*
X170375333Y-79860000D01*
X170408666Y-79726666D01*
X170475333Y-79660000D01*
X170542000Y-79626666D01*
X170675333Y-79626666D01*
X170742000Y-79660000D01*
X170808666Y-79726666D01*
X170842000Y-79860000D01*
X170842000Y-80093333D01*
X170808666Y-80226666D01*
X170742000Y-80293333D01*
X170675333Y-80326666D01*
X170542000Y-80326666D01*
X171075333Y-79626666D02*
X171508666Y-79626666D01*
X171275333Y-79893333D01*
X171375333Y-79893333D01*
X171442000Y-79926666D01*
X171475333Y-79960000D01*
X171508666Y-80026666D01*
X171508666Y-80193333D01*
X171475333Y-80260000D01*
X171442000Y-80293333D01*
X171375333Y-80326666D01*
X171175333Y-80326666D01*
X171108666Y-80293333D01*
X171075333Y-80260000D01*
%TO.C,Q2*%
X116011333Y-89791333D02*
X115944666Y-89758000D01*
X115878000Y-89691333D01*
X115778000Y-89591333D01*
X115711333Y-89558000D01*
X115644666Y-89558000D01*
X115678000Y-89724666D02*
X115611333Y-89691333D01*
X115544666Y-89624666D01*
X115511333Y-89491333D01*
X115511333Y-89258000D01*
X115544666Y-89124666D01*
X115611333Y-89058000D01*
X115678000Y-89024666D01*
X115811333Y-89024666D01*
X115878000Y-89058000D01*
X115944666Y-89124666D01*
X115978000Y-89258000D01*
X115978000Y-89491333D01*
X115944666Y-89624666D01*
X115878000Y-89691333D01*
X115811333Y-89724666D01*
X115678000Y-89724666D01*
X116244666Y-89091333D02*
X116278000Y-89058000D01*
X116344666Y-89024666D01*
X116511333Y-89024666D01*
X116578000Y-89058000D01*
X116611333Y-89091333D01*
X116644666Y-89158000D01*
X116644666Y-89224666D01*
X116611333Y-89324666D01*
X116211333Y-89724666D01*
X116644666Y-89724666D01*
%TO.C,Q1*%
X111439333Y-78869333D02*
X111372666Y-78836000D01*
X111306000Y-78769333D01*
X111206000Y-78669333D01*
X111139333Y-78636000D01*
X111072666Y-78636000D01*
X111106000Y-78802666D02*
X111039333Y-78769333D01*
X110972666Y-78702666D01*
X110939333Y-78569333D01*
X110939333Y-78336000D01*
X110972666Y-78202666D01*
X111039333Y-78136000D01*
X111106000Y-78102666D01*
X111239333Y-78102666D01*
X111306000Y-78136000D01*
X111372666Y-78202666D01*
X111406000Y-78336000D01*
X111406000Y-78569333D01*
X111372666Y-78702666D01*
X111306000Y-78769333D01*
X111239333Y-78802666D01*
X111106000Y-78802666D01*
X112072666Y-78802666D02*
X111672666Y-78802666D01*
X111872666Y-78802666D02*
X111872666Y-78102666D01*
X111806000Y-78202666D01*
X111739333Y-78269333D01*
X111672666Y-78302666D01*
%TO.C,J2*%
X191028666Y-82420666D02*
X191028666Y-82920666D01*
X190995333Y-83020666D01*
X190928666Y-83087333D01*
X190828666Y-83120666D01*
X190762000Y-83120666D01*
X191328666Y-82487333D02*
X191362000Y-82454000D01*
X191428666Y-82420666D01*
X191595333Y-82420666D01*
X191662000Y-82454000D01*
X191695333Y-82487333D01*
X191728666Y-82554000D01*
X191728666Y-82620666D01*
X191695333Y-82720666D01*
X191295333Y-83120666D01*
X191728666Y-83120666D01*
%TO.C,F1*%
X184932666Y-78436000D02*
X184699333Y-78436000D01*
X184699333Y-78802666D02*
X184699333Y-78102666D01*
X185032666Y-78102666D01*
X185666000Y-78802666D02*
X185266000Y-78802666D01*
X185466000Y-78802666D02*
X185466000Y-78102666D01*
X185399333Y-78202666D01*
X185332666Y-78269333D01*
X185266000Y-78302666D01*
%TO.C,D6*%
X177029333Y-79056666D02*
X177029333Y-78356666D01*
X177196000Y-78356666D01*
X177296000Y-78390000D01*
X177362666Y-78456666D01*
X177396000Y-78523333D01*
X177429333Y-78656666D01*
X177429333Y-78756666D01*
X177396000Y-78890000D01*
X177362666Y-78956666D01*
X177296000Y-79023333D01*
X177196000Y-79056666D01*
X177029333Y-79056666D01*
X178029333Y-78356666D02*
X177896000Y-78356666D01*
X177829333Y-78390000D01*
X177796000Y-78423333D01*
X177729333Y-78523333D01*
X177696000Y-78656666D01*
X177696000Y-78923333D01*
X177729333Y-78990000D01*
X177762666Y-79023333D01*
X177829333Y-79056666D01*
X177962666Y-79056666D01*
X178029333Y-79023333D01*
X178062666Y-78990000D01*
X178096000Y-78923333D01*
X178096000Y-78756666D01*
X178062666Y-78690000D01*
X178029333Y-78656666D01*
X177962666Y-78623333D01*
X177829333Y-78623333D01*
X177762666Y-78656666D01*
X177729333Y-78690000D01*
X177696000Y-78756666D01*
%TO.C,D5*%
X178116666Y-94979266D02*
X177416666Y-94979266D01*
X177416666Y-94812600D01*
X177450000Y-94712600D01*
X177516666Y-94645933D01*
X177583333Y-94612600D01*
X177716666Y-94579266D01*
X177816666Y-94579266D01*
X177950000Y-94612600D01*
X178016666Y-94645933D01*
X178083333Y-94712600D01*
X178116666Y-94812600D01*
X178116666Y-94979266D01*
X177416666Y-93945933D02*
X177416666Y-94279266D01*
X177750000Y-94312600D01*
X177716666Y-94279266D01*
X177683333Y-94212600D01*
X177683333Y-94045933D01*
X177716666Y-93979266D01*
X177750000Y-93945933D01*
X177816666Y-93912600D01*
X177983333Y-93912600D01*
X178050000Y-93945933D01*
X178083333Y-93979266D01*
X178116666Y-94045933D01*
X178116666Y-94212600D01*
X178083333Y-94279266D01*
X178050000Y-94312600D01*
%TO.C,D4*%
X178116666Y-100592666D02*
X177416666Y-100592666D01*
X177416666Y-100426000D01*
X177450000Y-100326000D01*
X177516666Y-100259333D01*
X177583333Y-100226000D01*
X177716666Y-100192666D01*
X177816666Y-100192666D01*
X177950000Y-100226000D01*
X178016666Y-100259333D01*
X178083333Y-100326000D01*
X178116666Y-100426000D01*
X178116666Y-100592666D01*
X177650000Y-99592666D02*
X178116666Y-99592666D01*
X177383333Y-99759333D02*
X177883333Y-99926000D01*
X177883333Y-99492666D01*
%TO.C,D3*%
X169409333Y-90486666D02*
X169409333Y-89786666D01*
X169576000Y-89786666D01*
X169676000Y-89820000D01*
X169742666Y-89886666D01*
X169776000Y-89953333D01*
X169809333Y-90086666D01*
X169809333Y-90186666D01*
X169776000Y-90320000D01*
X169742666Y-90386666D01*
X169676000Y-90453333D01*
X169576000Y-90486666D01*
X169409333Y-90486666D01*
X170042666Y-89786666D02*
X170476000Y-89786666D01*
X170242666Y-90053333D01*
X170342666Y-90053333D01*
X170409333Y-90086666D01*
X170442666Y-90120000D01*
X170476000Y-90186666D01*
X170476000Y-90353333D01*
X170442666Y-90420000D01*
X170409333Y-90453333D01*
X170342666Y-90486666D01*
X170142666Y-90486666D01*
X170076000Y-90453333D01*
X170042666Y-90420000D01*
%TO.C,D2*%
X107433333Y-99336666D02*
X107433333Y-98636666D01*
X107600000Y-98636666D01*
X107700000Y-98670000D01*
X107766666Y-98736666D01*
X107800000Y-98803333D01*
X107833333Y-98936666D01*
X107833333Y-99036666D01*
X107800000Y-99170000D01*
X107766666Y-99236666D01*
X107700000Y-99303333D01*
X107600000Y-99336666D01*
X107433333Y-99336666D01*
X108100000Y-98703333D02*
X108133333Y-98670000D01*
X108200000Y-98636666D01*
X108366666Y-98636666D01*
X108433333Y-98670000D01*
X108466666Y-98703333D01*
X108500000Y-98770000D01*
X108500000Y-98836666D01*
X108466666Y-98936666D01*
X108066666Y-99336666D01*
X108500000Y-99336666D01*
%TO.C,D1*%
X109465333Y-78802666D02*
X109465333Y-78102666D01*
X109632000Y-78102666D01*
X109732000Y-78136000D01*
X109798666Y-78202666D01*
X109832000Y-78269333D01*
X109865333Y-78402666D01*
X109865333Y-78502666D01*
X109832000Y-78636000D01*
X109798666Y-78702666D01*
X109732000Y-78769333D01*
X109632000Y-78802666D01*
X109465333Y-78802666D01*
X110532000Y-78802666D02*
X110132000Y-78802666D01*
X110332000Y-78802666D02*
X110332000Y-78102666D01*
X110265333Y-78202666D01*
X110198666Y-78269333D01*
X110132000Y-78302666D01*
%TO.C,C36*%
X151188000Y-78990000D02*
X151154666Y-79023333D01*
X151054666Y-79056666D01*
X150988000Y-79056666D01*
X150888000Y-79023333D01*
X150821333Y-78956666D01*
X150788000Y-78890000D01*
X150754666Y-78756666D01*
X150754666Y-78656666D01*
X150788000Y-78523333D01*
X150821333Y-78456666D01*
X150888000Y-78390000D01*
X150988000Y-78356666D01*
X151054666Y-78356666D01*
X151154666Y-78390000D01*
X151188000Y-78423333D01*
X151421333Y-78356666D02*
X151854666Y-78356666D01*
X151621333Y-78623333D01*
X151721333Y-78623333D01*
X151788000Y-78656666D01*
X151821333Y-78690000D01*
X151854666Y-78756666D01*
X151854666Y-78923333D01*
X151821333Y-78990000D01*
X151788000Y-79023333D01*
X151721333Y-79056666D01*
X151521333Y-79056666D01*
X151454666Y-79023333D01*
X151421333Y-78990000D01*
X152454666Y-78356666D02*
X152321333Y-78356666D01*
X152254666Y-78390000D01*
X152221333Y-78423333D01*
X152154666Y-78523333D01*
X152121333Y-78656666D01*
X152121333Y-78923333D01*
X152154666Y-78990000D01*
X152188000Y-79023333D01*
X152254666Y-79056666D01*
X152388000Y-79056666D01*
X152454666Y-79023333D01*
X152488000Y-78990000D01*
X152521333Y-78923333D01*
X152521333Y-78756666D01*
X152488000Y-78690000D01*
X152454666Y-78656666D01*
X152388000Y-78623333D01*
X152254666Y-78623333D01*
X152188000Y-78656666D01*
X152154666Y-78690000D01*
X152121333Y-78756666D01*
%TO.C,C35*%
X151188000Y-80514000D02*
X151154666Y-80547333D01*
X151054666Y-80580666D01*
X150988000Y-80580666D01*
X150888000Y-80547333D01*
X150821333Y-80480666D01*
X150788000Y-80414000D01*
X150754666Y-80280666D01*
X150754666Y-80180666D01*
X150788000Y-80047333D01*
X150821333Y-79980666D01*
X150888000Y-79914000D01*
X150988000Y-79880666D01*
X151054666Y-79880666D01*
X151154666Y-79914000D01*
X151188000Y-79947333D01*
X151421333Y-79880666D02*
X151854666Y-79880666D01*
X151621333Y-80147333D01*
X151721333Y-80147333D01*
X151788000Y-80180666D01*
X151821333Y-80214000D01*
X151854666Y-80280666D01*
X151854666Y-80447333D01*
X151821333Y-80514000D01*
X151788000Y-80547333D01*
X151721333Y-80580666D01*
X151521333Y-80580666D01*
X151454666Y-80547333D01*
X151421333Y-80514000D01*
X152488000Y-79880666D02*
X152154666Y-79880666D01*
X152121333Y-80214000D01*
X152154666Y-80180666D01*
X152221333Y-80147333D01*
X152388000Y-80147333D01*
X152454666Y-80180666D01*
X152488000Y-80214000D01*
X152521333Y-80280666D01*
X152521333Y-80447333D01*
X152488000Y-80514000D01*
X152454666Y-80547333D01*
X152388000Y-80580666D01*
X152221333Y-80580666D01*
X152154666Y-80547333D01*
X152121333Y-80514000D01*
%TO.C,C34*%
X183446000Y-87880000D02*
X183412666Y-87913333D01*
X183312666Y-87946666D01*
X183246000Y-87946666D01*
X183146000Y-87913333D01*
X183079333Y-87846666D01*
X183046000Y-87780000D01*
X183012666Y-87646666D01*
X183012666Y-87546666D01*
X183046000Y-87413333D01*
X183079333Y-87346666D01*
X183146000Y-87280000D01*
X183246000Y-87246666D01*
X183312666Y-87246666D01*
X183412666Y-87280000D01*
X183446000Y-87313333D01*
X183679333Y-87246666D02*
X184112666Y-87246666D01*
X183879333Y-87513333D01*
X183979333Y-87513333D01*
X184046000Y-87546666D01*
X184079333Y-87580000D01*
X184112666Y-87646666D01*
X184112666Y-87813333D01*
X184079333Y-87880000D01*
X184046000Y-87913333D01*
X183979333Y-87946666D01*
X183779333Y-87946666D01*
X183712666Y-87913333D01*
X183679333Y-87880000D01*
X184712666Y-87480000D02*
X184712666Y-87946666D01*
X184546000Y-87213333D02*
X184379333Y-87713333D01*
X184812666Y-87713333D01*
%TO.C,C33*%
X188972000Y-92652000D02*
X189005333Y-92685333D01*
X189038666Y-92785333D01*
X189038666Y-92852000D01*
X189005333Y-92952000D01*
X188938666Y-93018666D01*
X188872000Y-93052000D01*
X188738666Y-93085333D01*
X188638666Y-93085333D01*
X188505333Y-93052000D01*
X188438666Y-93018666D01*
X188372000Y-92952000D01*
X188338666Y-92852000D01*
X188338666Y-92785333D01*
X188372000Y-92685333D01*
X188405333Y-92652000D01*
X188338666Y-92418666D02*
X188338666Y-91985333D01*
X188605333Y-92218666D01*
X188605333Y-92118666D01*
X188638666Y-92052000D01*
X188672000Y-92018666D01*
X188738666Y-91985333D01*
X188905333Y-91985333D01*
X188972000Y-92018666D01*
X189005333Y-92052000D01*
X189038666Y-92118666D01*
X189038666Y-92318666D01*
X189005333Y-92385333D01*
X188972000Y-92418666D01*
X188338666Y-91752000D02*
X188338666Y-91318666D01*
X188605333Y-91552000D01*
X188605333Y-91452000D01*
X188638666Y-91385333D01*
X188672000Y-91352000D01*
X188738666Y-91318666D01*
X188905333Y-91318666D01*
X188972000Y-91352000D01*
X189005333Y-91385333D01*
X189038666Y-91452000D01*
X189038666Y-91652000D01*
X189005333Y-91718666D01*
X188972000Y-91752000D01*
%TO.C,C32*%
X146300000Y-93668000D02*
X146333333Y-93701333D01*
X146366666Y-93801333D01*
X146366666Y-93868000D01*
X146333333Y-93968000D01*
X146266666Y-94034666D01*
X146200000Y-94068000D01*
X146066666Y-94101333D01*
X145966666Y-94101333D01*
X145833333Y-94068000D01*
X145766666Y-94034666D01*
X145700000Y-93968000D01*
X145666666Y-93868000D01*
X145666666Y-93801333D01*
X145700000Y-93701333D01*
X145733333Y-93668000D01*
X145666666Y-93434666D02*
X145666666Y-93001333D01*
X145933333Y-93234666D01*
X145933333Y-93134666D01*
X145966666Y-93068000D01*
X146000000Y-93034666D01*
X146066666Y-93001333D01*
X146233333Y-93001333D01*
X146300000Y-93034666D01*
X146333333Y-93068000D01*
X146366666Y-93134666D01*
X146366666Y-93334666D01*
X146333333Y-93401333D01*
X146300000Y-93434666D01*
X145733333Y-92734666D02*
X145700000Y-92701333D01*
X145666666Y-92634666D01*
X145666666Y-92468000D01*
X145700000Y-92401333D01*
X145733333Y-92368000D01*
X145800000Y-92334666D01*
X145866666Y-92334666D01*
X145966666Y-92368000D01*
X146366666Y-92768000D01*
X146366666Y-92334666D01*
%TO.C,C31*%
X188972000Y-100780000D02*
X189005333Y-100813333D01*
X189038666Y-100913333D01*
X189038666Y-100980000D01*
X189005333Y-101080000D01*
X188938666Y-101146666D01*
X188872000Y-101180000D01*
X188738666Y-101213333D01*
X188638666Y-101213333D01*
X188505333Y-101180000D01*
X188438666Y-101146666D01*
X188372000Y-101080000D01*
X188338666Y-100980000D01*
X188338666Y-100913333D01*
X188372000Y-100813333D01*
X188405333Y-100780000D01*
X188338666Y-100546666D02*
X188338666Y-100113333D01*
X188605333Y-100346666D01*
X188605333Y-100246666D01*
X188638666Y-100180000D01*
X188672000Y-100146666D01*
X188738666Y-100113333D01*
X188905333Y-100113333D01*
X188972000Y-100146666D01*
X189005333Y-100180000D01*
X189038666Y-100246666D01*
X189038666Y-100446666D01*
X189005333Y-100513333D01*
X188972000Y-100546666D01*
X189038666Y-99446666D02*
X189038666Y-99846666D01*
X189038666Y-99646666D02*
X188338666Y-99646666D01*
X188438666Y-99713333D01*
X188505333Y-99780000D01*
X188538666Y-99846666D01*
%TO.C,C30*%
X144776000Y-93668000D02*
X144809333Y-93701333D01*
X144842666Y-93801333D01*
X144842666Y-93868000D01*
X144809333Y-93968000D01*
X144742666Y-94034666D01*
X144676000Y-94068000D01*
X144542666Y-94101333D01*
X144442666Y-94101333D01*
X144309333Y-94068000D01*
X144242666Y-94034666D01*
X144176000Y-93968000D01*
X144142666Y-93868000D01*
X144142666Y-93801333D01*
X144176000Y-93701333D01*
X144209333Y-93668000D01*
X144142666Y-93434666D02*
X144142666Y-93001333D01*
X144409333Y-93234666D01*
X144409333Y-93134666D01*
X144442666Y-93068000D01*
X144476000Y-93034666D01*
X144542666Y-93001333D01*
X144709333Y-93001333D01*
X144776000Y-93034666D01*
X144809333Y-93068000D01*
X144842666Y-93134666D01*
X144842666Y-93334666D01*
X144809333Y-93401333D01*
X144776000Y-93434666D01*
X144142666Y-92568000D02*
X144142666Y-92501333D01*
X144176000Y-92434666D01*
X144209333Y-92401333D01*
X144276000Y-92368000D01*
X144409333Y-92334666D01*
X144576000Y-92334666D01*
X144709333Y-92368000D01*
X144776000Y-92401333D01*
X144809333Y-92434666D01*
X144842666Y-92501333D01*
X144842666Y-92568000D01*
X144809333Y-92634666D01*
X144776000Y-92668000D01*
X144709333Y-92701333D01*
X144576000Y-92734666D01*
X144409333Y-92734666D01*
X144276000Y-92701333D01*
X144209333Y-92668000D01*
X144176000Y-92634666D01*
X144142666Y-92568000D01*
%TO.C,C29*%
X151188000Y-87118000D02*
X151154666Y-87151333D01*
X151054666Y-87184666D01*
X150988000Y-87184666D01*
X150888000Y-87151333D01*
X150821333Y-87084666D01*
X150788000Y-87018000D01*
X150754666Y-86884666D01*
X150754666Y-86784666D01*
X150788000Y-86651333D01*
X150821333Y-86584666D01*
X150888000Y-86518000D01*
X150988000Y-86484666D01*
X151054666Y-86484666D01*
X151154666Y-86518000D01*
X151188000Y-86551333D01*
X151454666Y-86551333D02*
X151488000Y-86518000D01*
X151554666Y-86484666D01*
X151721333Y-86484666D01*
X151788000Y-86518000D01*
X151821333Y-86551333D01*
X151854666Y-86618000D01*
X151854666Y-86684666D01*
X151821333Y-86784666D01*
X151421333Y-87184666D01*
X151854666Y-87184666D01*
X152188000Y-87184666D02*
X152321333Y-87184666D01*
X152388000Y-87151333D01*
X152421333Y-87118000D01*
X152488000Y-87018000D01*
X152521333Y-86884666D01*
X152521333Y-86618000D01*
X152488000Y-86551333D01*
X152454666Y-86518000D01*
X152388000Y-86484666D01*
X152254666Y-86484666D01*
X152188000Y-86518000D01*
X152154666Y-86551333D01*
X152121333Y-86618000D01*
X152121333Y-86784666D01*
X152154666Y-86851333D01*
X152188000Y-86884666D01*
X152254666Y-86918000D01*
X152388000Y-86918000D01*
X152454666Y-86884666D01*
X152488000Y-86851333D01*
X152521333Y-86784666D01*
%TO.C,C28*%
X151188000Y-85594000D02*
X151154666Y-85627333D01*
X151054666Y-85660666D01*
X150988000Y-85660666D01*
X150888000Y-85627333D01*
X150821333Y-85560666D01*
X150788000Y-85494000D01*
X150754666Y-85360666D01*
X150754666Y-85260666D01*
X150788000Y-85127333D01*
X150821333Y-85060666D01*
X150888000Y-84994000D01*
X150988000Y-84960666D01*
X151054666Y-84960666D01*
X151154666Y-84994000D01*
X151188000Y-85027333D01*
X151454666Y-85027333D02*
X151488000Y-84994000D01*
X151554666Y-84960666D01*
X151721333Y-84960666D01*
X151788000Y-84994000D01*
X151821333Y-85027333D01*
X151854666Y-85094000D01*
X151854666Y-85160666D01*
X151821333Y-85260666D01*
X151421333Y-85660666D01*
X151854666Y-85660666D01*
X152254666Y-85260666D02*
X152188000Y-85227333D01*
X152154666Y-85194000D01*
X152121333Y-85127333D01*
X152121333Y-85094000D01*
X152154666Y-85027333D01*
X152188000Y-84994000D01*
X152254666Y-84960666D01*
X152388000Y-84960666D01*
X152454666Y-84994000D01*
X152488000Y-85027333D01*
X152521333Y-85094000D01*
X152521333Y-85127333D01*
X152488000Y-85194000D01*
X152454666Y-85227333D01*
X152388000Y-85260666D01*
X152254666Y-85260666D01*
X152188000Y-85294000D01*
X152154666Y-85327333D01*
X152121333Y-85394000D01*
X152121333Y-85527333D01*
X152154666Y-85594000D01*
X152188000Y-85627333D01*
X152254666Y-85660666D01*
X152388000Y-85660666D01*
X152454666Y-85627333D01*
X152488000Y-85594000D01*
X152521333Y-85527333D01*
X152521333Y-85394000D01*
X152488000Y-85327333D01*
X152454666Y-85294000D01*
X152388000Y-85260666D01*
%TO.C,C27*%
X183446000Y-90928000D02*
X183412666Y-90961333D01*
X183312666Y-90994666D01*
X183246000Y-90994666D01*
X183146000Y-90961333D01*
X183079333Y-90894666D01*
X183046000Y-90828000D01*
X183012666Y-90694666D01*
X183012666Y-90594666D01*
X183046000Y-90461333D01*
X183079333Y-90394666D01*
X183146000Y-90328000D01*
X183246000Y-90294666D01*
X183312666Y-90294666D01*
X183412666Y-90328000D01*
X183446000Y-90361333D01*
X183712666Y-90361333D02*
X183746000Y-90328000D01*
X183812666Y-90294666D01*
X183979333Y-90294666D01*
X184046000Y-90328000D01*
X184079333Y-90361333D01*
X184112666Y-90428000D01*
X184112666Y-90494666D01*
X184079333Y-90594666D01*
X183679333Y-90994666D01*
X184112666Y-90994666D01*
X184346000Y-90294666D02*
X184812666Y-90294666D01*
X184512666Y-90994666D01*
%TO.C,C26*%
X183700000Y-82292000D02*
X183666666Y-82325333D01*
X183566666Y-82358666D01*
X183500000Y-82358666D01*
X183400000Y-82325333D01*
X183333333Y-82258666D01*
X183300000Y-82192000D01*
X183266666Y-82058666D01*
X183266666Y-81958666D01*
X183300000Y-81825333D01*
X183333333Y-81758666D01*
X183400000Y-81692000D01*
X183500000Y-81658666D01*
X183566666Y-81658666D01*
X183666666Y-81692000D01*
X183700000Y-81725333D01*
X183966666Y-81725333D02*
X184000000Y-81692000D01*
X184066666Y-81658666D01*
X184233333Y-81658666D01*
X184300000Y-81692000D01*
X184333333Y-81725333D01*
X184366666Y-81792000D01*
X184366666Y-81858666D01*
X184333333Y-81958666D01*
X183933333Y-82358666D01*
X184366666Y-82358666D01*
X184966666Y-81658666D02*
X184833333Y-81658666D01*
X184766666Y-81692000D01*
X184733333Y-81725333D01*
X184666666Y-81825333D01*
X184633333Y-81958666D01*
X184633333Y-82225333D01*
X184666666Y-82292000D01*
X184700000Y-82325333D01*
X184766666Y-82358666D01*
X184900000Y-82358666D01*
X184966666Y-82325333D01*
X185000000Y-82292000D01*
X185033333Y-82225333D01*
X185033333Y-82058666D01*
X185000000Y-81992000D01*
X184966666Y-81958666D01*
X184900000Y-81925333D01*
X184766666Y-81925333D01*
X184700000Y-81958666D01*
X184666666Y-81992000D01*
X184633333Y-82058666D01*
%TO.C,C25*%
X172778000Y-94992000D02*
X172744666Y-95025333D01*
X172644666Y-95058666D01*
X172578000Y-95058666D01*
X172478000Y-95025333D01*
X172411333Y-94958666D01*
X172378000Y-94892000D01*
X172344666Y-94758666D01*
X172344666Y-94658666D01*
X172378000Y-94525333D01*
X172411333Y-94458666D01*
X172478000Y-94392000D01*
X172578000Y-94358666D01*
X172644666Y-94358666D01*
X172744666Y-94392000D01*
X172778000Y-94425333D01*
X173044666Y-94425333D02*
X173078000Y-94392000D01*
X173144666Y-94358666D01*
X173311333Y-94358666D01*
X173378000Y-94392000D01*
X173411333Y-94425333D01*
X173444666Y-94492000D01*
X173444666Y-94558666D01*
X173411333Y-94658666D01*
X173011333Y-95058666D01*
X173444666Y-95058666D01*
X174078000Y-94358666D02*
X173744666Y-94358666D01*
X173711333Y-94692000D01*
X173744666Y-94658666D01*
X173811333Y-94625333D01*
X173978000Y-94625333D01*
X174044666Y-94658666D01*
X174078000Y-94692000D01*
X174111333Y-94758666D01*
X174111333Y-94925333D01*
X174078000Y-94992000D01*
X174044666Y-95025333D01*
X173978000Y-95058666D01*
X173811333Y-95058666D01*
X173744666Y-95025333D01*
X173711333Y-94992000D01*
%TO.C,C24*%
X156460000Y-92144000D02*
X156493333Y-92177333D01*
X156526666Y-92277333D01*
X156526666Y-92344000D01*
X156493333Y-92444000D01*
X156426666Y-92510666D01*
X156360000Y-92544000D01*
X156226666Y-92577333D01*
X156126666Y-92577333D01*
X155993333Y-92544000D01*
X155926666Y-92510666D01*
X155860000Y-92444000D01*
X155826666Y-92344000D01*
X155826666Y-92277333D01*
X155860000Y-92177333D01*
X155893333Y-92144000D01*
X155893333Y-91877333D02*
X155860000Y-91844000D01*
X155826666Y-91777333D01*
X155826666Y-91610666D01*
X155860000Y-91544000D01*
X155893333Y-91510666D01*
X155960000Y-91477333D01*
X156026666Y-91477333D01*
X156126666Y-91510666D01*
X156526666Y-91910666D01*
X156526666Y-91477333D01*
X156060000Y-90877333D02*
X156526666Y-90877333D01*
X155793333Y-91044000D02*
X156293333Y-91210666D01*
X156293333Y-90777333D01*
%TO.C,C23*%
X154744000Y-96770000D02*
X154710666Y-96803333D01*
X154610666Y-96836666D01*
X154544000Y-96836666D01*
X154444000Y-96803333D01*
X154377333Y-96736666D01*
X154344000Y-96670000D01*
X154310666Y-96536666D01*
X154310666Y-96436666D01*
X154344000Y-96303333D01*
X154377333Y-96236666D01*
X154444000Y-96170000D01*
X154544000Y-96136666D01*
X154610666Y-96136666D01*
X154710666Y-96170000D01*
X154744000Y-96203333D01*
X155010666Y-96203333D02*
X155044000Y-96170000D01*
X155110666Y-96136666D01*
X155277333Y-96136666D01*
X155344000Y-96170000D01*
X155377333Y-96203333D01*
X155410666Y-96270000D01*
X155410666Y-96336666D01*
X155377333Y-96436666D01*
X154977333Y-96836666D01*
X155410666Y-96836666D01*
X155644000Y-96136666D02*
X156077333Y-96136666D01*
X155844000Y-96403333D01*
X155944000Y-96403333D01*
X156010666Y-96436666D01*
X156044000Y-96470000D01*
X156077333Y-96536666D01*
X156077333Y-96703333D01*
X156044000Y-96770000D01*
X156010666Y-96803333D01*
X155944000Y-96836666D01*
X155744000Y-96836666D01*
X155677333Y-96803333D01*
X155644000Y-96770000D01*
%TO.C,C22*%
X134108000Y-93668000D02*
X134141333Y-93701333D01*
X134174666Y-93801333D01*
X134174666Y-93868000D01*
X134141333Y-93968000D01*
X134074666Y-94034666D01*
X134008000Y-94068000D01*
X133874666Y-94101333D01*
X133774666Y-94101333D01*
X133641333Y-94068000D01*
X133574666Y-94034666D01*
X133508000Y-93968000D01*
X133474666Y-93868000D01*
X133474666Y-93801333D01*
X133508000Y-93701333D01*
X133541333Y-93668000D01*
X133541333Y-93401333D02*
X133508000Y-93368000D01*
X133474666Y-93301333D01*
X133474666Y-93134666D01*
X133508000Y-93068000D01*
X133541333Y-93034666D01*
X133608000Y-93001333D01*
X133674666Y-93001333D01*
X133774666Y-93034666D01*
X134174666Y-93434666D01*
X134174666Y-93001333D01*
X133541333Y-92734666D02*
X133508000Y-92701333D01*
X133474666Y-92634666D01*
X133474666Y-92468000D01*
X133508000Y-92401333D01*
X133541333Y-92368000D01*
X133608000Y-92334666D01*
X133674666Y-92334666D01*
X133774666Y-92368000D01*
X134174666Y-92768000D01*
X134174666Y-92334666D01*
%TO.C,C20*%
X128012000Y-93668000D02*
X128045333Y-93701333D01*
X128078666Y-93801333D01*
X128078666Y-93868000D01*
X128045333Y-93968000D01*
X127978666Y-94034666D01*
X127912000Y-94068000D01*
X127778666Y-94101333D01*
X127678666Y-94101333D01*
X127545333Y-94068000D01*
X127478666Y-94034666D01*
X127412000Y-93968000D01*
X127378666Y-93868000D01*
X127378666Y-93801333D01*
X127412000Y-93701333D01*
X127445333Y-93668000D01*
X127445333Y-93401333D02*
X127412000Y-93368000D01*
X127378666Y-93301333D01*
X127378666Y-93134666D01*
X127412000Y-93068000D01*
X127445333Y-93034666D01*
X127512000Y-93001333D01*
X127578666Y-93001333D01*
X127678666Y-93034666D01*
X128078666Y-93434666D01*
X128078666Y-93001333D01*
X127378666Y-92568000D02*
X127378666Y-92501333D01*
X127412000Y-92434666D01*
X127445333Y-92401333D01*
X127512000Y-92368000D01*
X127645333Y-92334666D01*
X127812000Y-92334666D01*
X127945333Y-92368000D01*
X128012000Y-92401333D01*
X128045333Y-92434666D01*
X128078666Y-92501333D01*
X128078666Y-92568000D01*
X128045333Y-92634666D01*
X128012000Y-92668000D01*
X127945333Y-92701333D01*
X127812000Y-92734666D01*
X127645333Y-92734666D01*
X127512000Y-92701333D01*
X127445333Y-92668000D01*
X127412000Y-92634666D01*
X127378666Y-92568000D01*
%TO.C,C19*%
X131060000Y-93668000D02*
X131093333Y-93701333D01*
X131126666Y-93801333D01*
X131126666Y-93868000D01*
X131093333Y-93968000D01*
X131026666Y-94034666D01*
X130960000Y-94068000D01*
X130826666Y-94101333D01*
X130726666Y-94101333D01*
X130593333Y-94068000D01*
X130526666Y-94034666D01*
X130460000Y-93968000D01*
X130426666Y-93868000D01*
X130426666Y-93801333D01*
X130460000Y-93701333D01*
X130493333Y-93668000D01*
X131126666Y-93001333D02*
X131126666Y-93401333D01*
X131126666Y-93201333D02*
X130426666Y-93201333D01*
X130526666Y-93268000D01*
X130593333Y-93334666D01*
X130626666Y-93401333D01*
X131126666Y-92668000D02*
X131126666Y-92534666D01*
X131093333Y-92468000D01*
X131060000Y-92434666D01*
X130960000Y-92368000D01*
X130826666Y-92334666D01*
X130560000Y-92334666D01*
X130493333Y-92368000D01*
X130460000Y-92401333D01*
X130426666Y-92468000D01*
X130426666Y-92601333D01*
X130460000Y-92668000D01*
X130493333Y-92701333D01*
X130560000Y-92734666D01*
X130726666Y-92734666D01*
X130793333Y-92701333D01*
X130826666Y-92668000D01*
X130860000Y-92601333D01*
X130860000Y-92468000D01*
X130826666Y-92401333D01*
X130793333Y-92368000D01*
X130726666Y-92334666D01*
%TO.C,C18*%
X143252000Y-93668000D02*
X143285333Y-93701333D01*
X143318666Y-93801333D01*
X143318666Y-93868000D01*
X143285333Y-93968000D01*
X143218666Y-94034666D01*
X143152000Y-94068000D01*
X143018666Y-94101333D01*
X142918666Y-94101333D01*
X142785333Y-94068000D01*
X142718666Y-94034666D01*
X142652000Y-93968000D01*
X142618666Y-93868000D01*
X142618666Y-93801333D01*
X142652000Y-93701333D01*
X142685333Y-93668000D01*
X143318666Y-93001333D02*
X143318666Y-93401333D01*
X143318666Y-93201333D02*
X142618666Y-93201333D01*
X142718666Y-93268000D01*
X142785333Y-93334666D01*
X142818666Y-93401333D01*
X142918666Y-92601333D02*
X142885333Y-92668000D01*
X142852000Y-92701333D01*
X142785333Y-92734666D01*
X142752000Y-92734666D01*
X142685333Y-92701333D01*
X142652000Y-92668000D01*
X142618666Y-92601333D01*
X142618666Y-92468000D01*
X142652000Y-92401333D01*
X142685333Y-92368000D01*
X142752000Y-92334666D01*
X142785333Y-92334666D01*
X142852000Y-92368000D01*
X142885333Y-92401333D01*
X142918666Y-92468000D01*
X142918666Y-92601333D01*
X142952000Y-92668000D01*
X142985333Y-92701333D01*
X143052000Y-92734666D01*
X143185333Y-92734666D01*
X143252000Y-92701333D01*
X143285333Y-92668000D01*
X143318666Y-92601333D01*
X143318666Y-92468000D01*
X143285333Y-92401333D01*
X143252000Y-92368000D01*
X143185333Y-92334666D01*
X143052000Y-92334666D01*
X142985333Y-92368000D01*
X142952000Y-92401333D01*
X142918666Y-92468000D01*
%TO.C,C17*%
X124964000Y-93668000D02*
X124997333Y-93701333D01*
X125030666Y-93801333D01*
X125030666Y-93868000D01*
X124997333Y-93968000D01*
X124930666Y-94034666D01*
X124864000Y-94068000D01*
X124730666Y-94101333D01*
X124630666Y-94101333D01*
X124497333Y-94068000D01*
X124430666Y-94034666D01*
X124364000Y-93968000D01*
X124330666Y-93868000D01*
X124330666Y-93801333D01*
X124364000Y-93701333D01*
X124397333Y-93668000D01*
X125030666Y-93001333D02*
X125030666Y-93401333D01*
X125030666Y-93201333D02*
X124330666Y-93201333D01*
X124430666Y-93268000D01*
X124497333Y-93334666D01*
X124530666Y-93401333D01*
X124330666Y-92768000D02*
X124330666Y-92301333D01*
X125030666Y-92601333D01*
%TO.C,C16*%
X157222000Y-79190000D02*
X157255333Y-79223333D01*
X157288666Y-79323333D01*
X157288666Y-79390000D01*
X157255333Y-79490000D01*
X157188666Y-79556666D01*
X157122000Y-79590000D01*
X156988666Y-79623333D01*
X156888666Y-79623333D01*
X156755333Y-79590000D01*
X156688666Y-79556666D01*
X156622000Y-79490000D01*
X156588666Y-79390000D01*
X156588666Y-79323333D01*
X156622000Y-79223333D01*
X156655333Y-79190000D01*
X157288666Y-78523333D02*
X157288666Y-78923333D01*
X157288666Y-78723333D02*
X156588666Y-78723333D01*
X156688666Y-78790000D01*
X156755333Y-78856666D01*
X156788666Y-78923333D01*
X156588666Y-77923333D02*
X156588666Y-78056666D01*
X156622000Y-78123333D01*
X156655333Y-78156666D01*
X156755333Y-78223333D01*
X156888666Y-78256666D01*
X157155333Y-78256666D01*
X157222000Y-78223333D01*
X157255333Y-78190000D01*
X157288666Y-78123333D01*
X157288666Y-77990000D01*
X157255333Y-77923333D01*
X157222000Y-77890000D01*
X157155333Y-77856666D01*
X156988666Y-77856666D01*
X156922000Y-77890000D01*
X156888666Y-77923333D01*
X156855333Y-77990000D01*
X156855333Y-78123333D01*
X156888666Y-78190000D01*
X156922000Y-78223333D01*
X156988666Y-78256666D01*
%TO.C,C15*%
X158746000Y-79190000D02*
X158779333Y-79223333D01*
X158812666Y-79323333D01*
X158812666Y-79390000D01*
X158779333Y-79490000D01*
X158712666Y-79556666D01*
X158646000Y-79590000D01*
X158512666Y-79623333D01*
X158412666Y-79623333D01*
X158279333Y-79590000D01*
X158212666Y-79556666D01*
X158146000Y-79490000D01*
X158112666Y-79390000D01*
X158112666Y-79323333D01*
X158146000Y-79223333D01*
X158179333Y-79190000D01*
X158812666Y-78523333D02*
X158812666Y-78923333D01*
X158812666Y-78723333D02*
X158112666Y-78723333D01*
X158212666Y-78790000D01*
X158279333Y-78856666D01*
X158312666Y-78923333D01*
X158112666Y-77890000D02*
X158112666Y-78223333D01*
X158446000Y-78256666D01*
X158412666Y-78223333D01*
X158379333Y-78156666D01*
X158379333Y-77990000D01*
X158412666Y-77923333D01*
X158446000Y-77890000D01*
X158512666Y-77856666D01*
X158679333Y-77856666D01*
X158746000Y-77890000D01*
X158779333Y-77923333D01*
X158812666Y-77990000D01*
X158812666Y-78156666D01*
X158779333Y-78223333D01*
X158746000Y-78256666D01*
%TO.C,C12*%
X177604000Y-87372000D02*
X177570666Y-87405333D01*
X177470666Y-87438666D01*
X177404000Y-87438666D01*
X177304000Y-87405333D01*
X177237333Y-87338666D01*
X177204000Y-87272000D01*
X177170666Y-87138666D01*
X177170666Y-87038666D01*
X177204000Y-86905333D01*
X177237333Y-86838666D01*
X177304000Y-86772000D01*
X177404000Y-86738666D01*
X177470666Y-86738666D01*
X177570666Y-86772000D01*
X177604000Y-86805333D01*
X178270666Y-87438666D02*
X177870666Y-87438666D01*
X178070666Y-87438666D02*
X178070666Y-86738666D01*
X178004000Y-86838666D01*
X177937333Y-86905333D01*
X177870666Y-86938666D01*
X178537333Y-86805333D02*
X178570666Y-86772000D01*
X178637333Y-86738666D01*
X178804000Y-86738666D01*
X178870666Y-86772000D01*
X178904000Y-86805333D01*
X178937333Y-86872000D01*
X178937333Y-86938666D01*
X178904000Y-87038666D01*
X178504000Y-87438666D01*
X178937333Y-87438666D01*
%TO.C,C9*%
X177429333Y-82038000D02*
X177396000Y-82071333D01*
X177296000Y-82104666D01*
X177229333Y-82104666D01*
X177129333Y-82071333D01*
X177062666Y-82004666D01*
X177029333Y-81938000D01*
X176996000Y-81804666D01*
X176996000Y-81704666D01*
X177029333Y-81571333D01*
X177062666Y-81504666D01*
X177129333Y-81438000D01*
X177229333Y-81404666D01*
X177296000Y-81404666D01*
X177396000Y-81438000D01*
X177429333Y-81471333D01*
X177762666Y-82104666D02*
X177896000Y-82104666D01*
X177962666Y-82071333D01*
X177996000Y-82038000D01*
X178062666Y-81938000D01*
X178096000Y-81804666D01*
X178096000Y-81538000D01*
X178062666Y-81471333D01*
X178029333Y-81438000D01*
X177962666Y-81404666D01*
X177829333Y-81404666D01*
X177762666Y-81438000D01*
X177729333Y-81471333D01*
X177696000Y-81538000D01*
X177696000Y-81704666D01*
X177729333Y-81771333D01*
X177762666Y-81804666D01*
X177829333Y-81838000D01*
X177962666Y-81838000D01*
X178029333Y-81804666D01*
X178062666Y-81771333D01*
X178096000Y-81704666D01*
%TO.C,C7*%
X105801333Y-81276000D02*
X105768000Y-81309333D01*
X105668000Y-81342666D01*
X105601333Y-81342666D01*
X105501333Y-81309333D01*
X105434666Y-81242666D01*
X105401333Y-81176000D01*
X105368000Y-81042666D01*
X105368000Y-80942666D01*
X105401333Y-80809333D01*
X105434666Y-80742666D01*
X105501333Y-80676000D01*
X105601333Y-80642666D01*
X105668000Y-80642666D01*
X105768000Y-80676000D01*
X105801333Y-80709333D01*
X106034666Y-80642666D02*
X106501333Y-80642666D01*
X106201333Y-81342666D01*
%TD*%
M02*
