%TF.GenerationSoftware,KiCad,Pcbnew,(5.1.10)-1*%
%TF.CreationDate,2021-09-27T23:39:52+02:00*%
%TF.ProjectId,XX,58582e6b-6963-4616-945f-706362585858,V00*%
%TF.SameCoordinates,Original*%
%TF.FileFunction,Soldermask,Top*%
%TF.FilePolarity,Negative*%
%FSLAX46Y46*%
G04 Gerber Fmt 4.6, Leading zero omitted, Abs format (unit mm)*
G04 Created by KiCad (PCBNEW (5.1.10)-1) date 2021-09-27 23:39:52*
%MOMM*%
%LPD*%
G01*
G04 APERTURE LIST*
%ADD10C,2.100000*%
%ADD11C,1.750000*%
%ADD12R,1.300000X1.700000*%
%ADD13O,1.300000X1.700000*%
%ADD14R,1.700000X1.700000*%
%ADD15O,1.700000X1.700000*%
%ADD16R,0.700000X0.800000*%
%ADD17R,0.800000X0.700000*%
%ADD18R,1.000000X1.500000*%
%ADD19R,1.400000X1.200000*%
%ADD20R,1.500000X1.000000*%
%ADD21R,0.900000X0.800000*%
%ADD22O,1.475000X0.300000*%
%ADD23R,1.475000X0.300000*%
%ADD24O,0.400000X1.200000*%
%ADD25R,0.400000X1.200000*%
%ADD26R,0.375000X0.350000*%
%ADD27R,0.350000X0.375000*%
%ADD28R,1.060000X0.650000*%
%ADD29O,0.450000X1.750000*%
%ADD30R,0.450000X1.750000*%
%ADD31C,1.700000*%
%ADD32C,4.000000*%
%ADD33R,1.125000X3.400000*%
G04 APERTURE END LIST*
D10*
%TO.C,SW3*%
X128570000Y-96290600D03*
D11*
X129830000Y-98780600D03*
X134330000Y-98780600D03*
D10*
X135580000Y-96290600D03*
%TD*%
%TO.C,SW2*%
X139238000Y-96290600D03*
D11*
X140498000Y-98780600D03*
X144998000Y-98780600D03*
D10*
X146248000Y-96290600D03*
%TD*%
%TO.C,SW1*%
X118003600Y-96290600D03*
D11*
X119263600Y-98780600D03*
X123763600Y-98780600D03*
D10*
X125013600Y-96290600D03*
%TD*%
D12*
%TO.C,J1*%
X156464000Y-100050600D03*
D13*
X159004000Y-100050600D03*
X161544000Y-100050600D03*
X164084000Y-100050600D03*
X166624000Y-100050600D03*
X169164000Y-100050600D03*
%TD*%
D14*
%TO.C,J5*%
X191262000Y-79502000D03*
D15*
X188722000Y-79502000D03*
%TD*%
D14*
%TO.C,J4*%
X109982000Y-89662000D03*
%TD*%
%TO.C,U7*%
G36*
G01*
X140480000Y-80986000D02*
X140480000Y-80826000D01*
G75*
G02*
X140560000Y-80746000I80000J0D01*
G01*
X142900000Y-80746000D01*
G75*
G02*
X142980000Y-80826000I0J-80000D01*
G01*
X142980000Y-80986000D01*
G75*
G02*
X142900000Y-81066000I-80000J0D01*
G01*
X140560000Y-81066000D01*
G75*
G02*
X140480000Y-80986000I0J80000D01*
G01*
G37*
G36*
G01*
X140480000Y-81606000D02*
X140480000Y-81446000D01*
G75*
G02*
X140560000Y-81366000I80000J0D01*
G01*
X142900000Y-81366000D01*
G75*
G02*
X142980000Y-81446000I0J-80000D01*
G01*
X142980000Y-81606000D01*
G75*
G02*
X142900000Y-81686000I-80000J0D01*
G01*
X140560000Y-81686000D01*
G75*
G02*
X140480000Y-81606000I0J80000D01*
G01*
G37*
G36*
G01*
X140480000Y-82226000D02*
X140480000Y-82066000D01*
G75*
G02*
X140560000Y-81986000I80000J0D01*
G01*
X142900000Y-81986000D01*
G75*
G02*
X142980000Y-82066000I0J-80000D01*
G01*
X142980000Y-82226000D01*
G75*
G02*
X142900000Y-82306000I-80000J0D01*
G01*
X140560000Y-82306000D01*
G75*
G02*
X140480000Y-82226000I0J80000D01*
G01*
G37*
G36*
G01*
X140480000Y-82846000D02*
X140480000Y-82686000D01*
G75*
G02*
X140560000Y-82606000I80000J0D01*
G01*
X142900000Y-82606000D01*
G75*
G02*
X142980000Y-82686000I0J-80000D01*
G01*
X142980000Y-82846000D01*
G75*
G02*
X142900000Y-82926000I-80000J0D01*
G01*
X140560000Y-82926000D01*
G75*
G02*
X140480000Y-82846000I0J80000D01*
G01*
G37*
G36*
G01*
X140480000Y-83466000D02*
X140480000Y-83306000D01*
G75*
G02*
X140560000Y-83226000I80000J0D01*
G01*
X142900000Y-83226000D01*
G75*
G02*
X142980000Y-83306000I0J-80000D01*
G01*
X142980000Y-83466000D01*
G75*
G02*
X142900000Y-83546000I-80000J0D01*
G01*
X140560000Y-83546000D01*
G75*
G02*
X140480000Y-83466000I0J80000D01*
G01*
G37*
G36*
G01*
X140480000Y-84086000D02*
X140480000Y-83926000D01*
G75*
G02*
X140560000Y-83846000I80000J0D01*
G01*
X142900000Y-83846000D01*
G75*
G02*
X142980000Y-83926000I0J-80000D01*
G01*
X142980000Y-84086000D01*
G75*
G02*
X142900000Y-84166000I-80000J0D01*
G01*
X140560000Y-84166000D01*
G75*
G02*
X140480000Y-84086000I0J80000D01*
G01*
G37*
G36*
G01*
X140480000Y-84706000D02*
X140480000Y-84546000D01*
G75*
G02*
X140560000Y-84466000I80000J0D01*
G01*
X142900000Y-84466000D01*
G75*
G02*
X142980000Y-84546000I0J-80000D01*
G01*
X142980000Y-84706000D01*
G75*
G02*
X142900000Y-84786000I-80000J0D01*
G01*
X140560000Y-84786000D01*
G75*
G02*
X140480000Y-84706000I0J80000D01*
G01*
G37*
G36*
G01*
X140480000Y-85326000D02*
X140480000Y-85166000D01*
G75*
G02*
X140560000Y-85086000I80000J0D01*
G01*
X142900000Y-85086000D01*
G75*
G02*
X142980000Y-85166000I0J-80000D01*
G01*
X142980000Y-85326000D01*
G75*
G02*
X142900000Y-85406000I-80000J0D01*
G01*
X140560000Y-85406000D01*
G75*
G02*
X140480000Y-85326000I0J80000D01*
G01*
G37*
G36*
G01*
X140480000Y-85946000D02*
X140480000Y-85786000D01*
G75*
G02*
X140560000Y-85706000I80000J0D01*
G01*
X142900000Y-85706000D01*
G75*
G02*
X142980000Y-85786000I0J-80000D01*
G01*
X142980000Y-85946000D01*
G75*
G02*
X142900000Y-86026000I-80000J0D01*
G01*
X140560000Y-86026000D01*
G75*
G02*
X140480000Y-85946000I0J80000D01*
G01*
G37*
G36*
G01*
X140480000Y-86566000D02*
X140480000Y-86406000D01*
G75*
G02*
X140560000Y-86326000I80000J0D01*
G01*
X142900000Y-86326000D01*
G75*
G02*
X142980000Y-86406000I0J-80000D01*
G01*
X142980000Y-86566000D01*
G75*
G02*
X142900000Y-86646000I-80000J0D01*
G01*
X140560000Y-86646000D01*
G75*
G02*
X140480000Y-86566000I0J80000D01*
G01*
G37*
G36*
G01*
X140480000Y-87186000D02*
X140480000Y-87026000D01*
G75*
G02*
X140560000Y-86946000I80000J0D01*
G01*
X142900000Y-86946000D01*
G75*
G02*
X142980000Y-87026000I0J-80000D01*
G01*
X142980000Y-87186000D01*
G75*
G02*
X142900000Y-87266000I-80000J0D01*
G01*
X140560000Y-87266000D01*
G75*
G02*
X140480000Y-87186000I0J80000D01*
G01*
G37*
G36*
G01*
X140480000Y-87806000D02*
X140480000Y-87646000D01*
G75*
G02*
X140560000Y-87566000I80000J0D01*
G01*
X142900000Y-87566000D01*
G75*
G02*
X142980000Y-87646000I0J-80000D01*
G01*
X142980000Y-87806000D01*
G75*
G02*
X142900000Y-87886000I-80000J0D01*
G01*
X140560000Y-87886000D01*
G75*
G02*
X140480000Y-87806000I0J80000D01*
G01*
G37*
G36*
G01*
X140480000Y-88426000D02*
X140480000Y-88266000D01*
G75*
G02*
X140560000Y-88186000I80000J0D01*
G01*
X142900000Y-88186000D01*
G75*
G02*
X142980000Y-88266000I0J-80000D01*
G01*
X142980000Y-88426000D01*
G75*
G02*
X142900000Y-88506000I-80000J0D01*
G01*
X140560000Y-88506000D01*
G75*
G02*
X140480000Y-88426000I0J80000D01*
G01*
G37*
G36*
G01*
X140480000Y-89046000D02*
X140480000Y-88886000D01*
G75*
G02*
X140560000Y-88806000I80000J0D01*
G01*
X142900000Y-88806000D01*
G75*
G02*
X142980000Y-88886000I0J-80000D01*
G01*
X142980000Y-89046000D01*
G75*
G02*
X142900000Y-89126000I-80000J0D01*
G01*
X140560000Y-89126000D01*
G75*
G02*
X140480000Y-89046000I0J80000D01*
G01*
G37*
%TD*%
D16*
%TO.C,R16*%
X114604000Y-93980000D03*
X112980000Y-93980000D03*
%TD*%
%TO.C,R44*%
X148540000Y-83312000D03*
X150164000Y-83312000D03*
%TD*%
%TO.C,C13*%
X148794000Y-98044000D03*
X150418000Y-98044000D03*
%TD*%
D17*
%TO.C,C21*%
X139954000Y-91744000D03*
X139954000Y-90120000D03*
%TD*%
D18*
%TO.C,L1*%
X110109000Y-82804000D03*
X112395000Y-82804000D03*
%TD*%
D16*
%TO.C,R12*%
X109170000Y-81000600D03*
X110794000Y-81000600D03*
%TD*%
%TO.C,R7*%
X110794000Y-93218000D03*
X109170000Y-93218000D03*
%TD*%
%TO.C,C11*%
X113996000Y-82804000D03*
X115620000Y-82804000D03*
%TD*%
D19*
%TO.C,Y1*%
X167302000Y-96836600D03*
X169502000Y-96836600D03*
X169502000Y-95136600D03*
X167302000Y-95136600D03*
%TD*%
D14*
%TO.C,J3*%
X194818000Y-100076000D03*
%TD*%
D16*
%TO.C,R1*%
X105106000Y-79502000D03*
X106730000Y-79502000D03*
%TD*%
%TO.C,C8*%
X110794000Y-86106000D03*
X109170000Y-86106000D03*
%TD*%
%TO.C,C6*%
X105106000Y-84074000D03*
X106730000Y-84074000D03*
%TD*%
D17*
%TO.C,C5*%
X171450000Y-96824000D03*
X171450000Y-95200000D03*
%TD*%
%TO.C,C4*%
X165354000Y-95200000D03*
X165354000Y-96824000D03*
%TD*%
D16*
%TO.C,C3*%
X167844000Y-79502000D03*
X169468000Y-79502000D03*
%TD*%
%TO.C,C2*%
X172770000Y-87122000D03*
X171146000Y-87122000D03*
%TD*%
D17*
%TO.C,R36*%
X152146000Y-90474000D03*
X152146000Y-88850000D03*
%TD*%
D16*
%TO.C,R14*%
X171146000Y-85598000D03*
X172770000Y-85598000D03*
%TD*%
%TO.C,R13*%
X114604000Y-90906600D03*
X112980000Y-90906600D03*
%TD*%
D17*
%TO.C,R9*%
X115824000Y-80822000D03*
X115824000Y-79198000D03*
%TD*%
D16*
%TO.C,R43*%
X176326000Y-80264000D03*
X174702000Y-80264000D03*
%TD*%
D17*
%TO.C,R21*%
X129286000Y-90120000D03*
X129286000Y-91744000D03*
%TD*%
%TO.C,R20*%
X138430000Y-91744000D03*
X138430000Y-90120000D03*
%TD*%
%TO.C,R19*%
X123190000Y-90120000D03*
X123190000Y-91744000D03*
%TD*%
D16*
%TO.C,R11*%
X106730000Y-86106000D03*
X105106000Y-86106000D03*
%TD*%
%TO.C,R10*%
X109170000Y-84582000D03*
X110794000Y-84582000D03*
%TD*%
%TO.C,C10*%
X112980000Y-92456000D03*
X114604000Y-92456000D03*
%TD*%
%TO.C,L3*%
X186132000Y-88392000D03*
X187756000Y-88392000D03*
%TD*%
D20*
%TO.C,L2*%
X155194000Y-78613000D03*
X155194000Y-80899000D03*
%TD*%
D16*
%TO.C,R38*%
X180390000Y-91668600D03*
X178766000Y-91668600D03*
%TD*%
%TO.C,R28*%
X182168000Y-100812600D03*
X180544000Y-100812600D03*
%TD*%
%TO.C,R6*%
X171146000Y-91694000D03*
X172770000Y-91694000D03*
%TD*%
D17*
%TO.C,R5*%
X159766000Y-95936600D03*
X159766000Y-97560600D03*
%TD*%
%TO.C,R4*%
X158242000Y-97560600D03*
X158242000Y-95936600D03*
%TD*%
%TO.C,R3*%
X161290000Y-97560600D03*
X161290000Y-95936600D03*
%TD*%
%TO.C,R2*%
X162814000Y-97560600D03*
X162814000Y-95936600D03*
%TD*%
D16*
%TO.C,C1*%
X172770000Y-88646000D03*
X171146000Y-88646000D03*
%TD*%
%TO.C,R45*%
X174956000Y-90170000D03*
X176580000Y-90170000D03*
%TD*%
D21*
%TO.C,U3*%
X176514000Y-85278000D03*
X176514000Y-83378000D03*
X174514000Y-84328000D03*
%TD*%
D22*
%TO.C,U6*%
X179447500Y-83836000D03*
D23*
X179447500Y-84336000D03*
X179447500Y-84836000D03*
X179447500Y-85336000D03*
X179447500Y-85836000D03*
X183772500Y-85836000D03*
X183772500Y-85336000D03*
X183772500Y-84836000D03*
X183772500Y-84336000D03*
X183772500Y-83836000D03*
%TD*%
D24*
%TO.C,U5*%
X180911500Y-98866000D03*
D25*
X181546500Y-98866000D03*
X182181500Y-98866000D03*
X182816500Y-98866000D03*
X183451500Y-98866000D03*
X184086500Y-98866000D03*
X184721500Y-98866000D03*
X185356500Y-98866000D03*
X185356500Y-93666000D03*
X184721500Y-93666000D03*
X184086500Y-93666000D03*
X183451500Y-93666000D03*
X182816500Y-93666000D03*
X182181500Y-93666000D03*
X181546500Y-93666000D03*
X180911500Y-93666000D03*
%TD*%
D26*
%TO.C,U4*%
X152399500Y-93704600D03*
X152399500Y-94204600D03*
X153924500Y-93704600D03*
X153924500Y-94204600D03*
X152399500Y-94704600D03*
X153924500Y-94704600D03*
X152399500Y-93204600D03*
X153924500Y-93204600D03*
D27*
X152912000Y-94717100D03*
X153412000Y-94717100D03*
X153412000Y-93192100D03*
X152912000Y-93192100D03*
%TD*%
D28*
%TO.C,U2*%
X112946000Y-95824000D03*
X112946000Y-96774000D03*
X112946000Y-97724000D03*
X115146000Y-97724000D03*
X115146000Y-95824000D03*
%TD*%
D29*
%TO.C,U1*%
X158589000Y-91738000D03*
D30*
X159239000Y-91738000D03*
X159889000Y-91738000D03*
X160539000Y-91738000D03*
X161189000Y-91738000D03*
X161839000Y-91738000D03*
X162489000Y-91738000D03*
X163139000Y-91738000D03*
X163789000Y-91738000D03*
X164439000Y-91738000D03*
X165089000Y-91738000D03*
X165739000Y-91738000D03*
X166389000Y-91738000D03*
X167039000Y-91738000D03*
X167039000Y-84538000D03*
X166389000Y-84538000D03*
X165739000Y-84538000D03*
X165089000Y-84538000D03*
X164439000Y-84538000D03*
X163789000Y-84538000D03*
X163139000Y-84538000D03*
X162489000Y-84538000D03*
X161839000Y-84538000D03*
X161189000Y-84538000D03*
X160539000Y-84538000D03*
X159889000Y-84538000D03*
X159239000Y-84538000D03*
X158589000Y-84538000D03*
%TD*%
D16*
%TO.C,TH1*%
X186132000Y-86614000D03*
X187756000Y-86614000D03*
%TD*%
%TO.C,R42*%
X150164000Y-81788000D03*
X148540000Y-81788000D03*
%TD*%
D17*
%TO.C,R41*%
X160020000Y-80214000D03*
X160020000Y-81838000D03*
%TD*%
%TO.C,R40*%
X187198000Y-97232000D03*
X187198000Y-98856000D03*
%TD*%
%TO.C,R39*%
X187198000Y-95300000D03*
X187198000Y-93676000D03*
%TD*%
D16*
%TO.C,R37*%
X180798000Y-89128600D03*
X182422000Y-89128600D03*
%TD*%
%TO.C,R35*%
X174956000Y-91694000D03*
X176580000Y-91694000D03*
%TD*%
%TO.C,R34*%
X176580000Y-88646000D03*
X174956000Y-88646000D03*
%TD*%
D17*
%TO.C,R33*%
X135382000Y-91744000D03*
X135382000Y-90120000D03*
%TD*%
%TO.C,R32*%
X136906000Y-91744000D03*
X136906000Y-90120000D03*
%TD*%
D16*
%TO.C,R31*%
X176580000Y-93218000D03*
X174956000Y-93218000D03*
%TD*%
%TO.C,R30*%
X187756000Y-83566000D03*
X186132000Y-83566000D03*
%TD*%
%TO.C,R29*%
X186132000Y-85090000D03*
X187756000Y-85090000D03*
%TD*%
%TO.C,R27*%
X176580000Y-96266000D03*
X174956000Y-96266000D03*
%TD*%
%TO.C,R26*%
X174956000Y-97790000D03*
X176580000Y-97790000D03*
%TD*%
%TO.C,R25*%
X151842000Y-98044000D03*
X153466000Y-98044000D03*
%TD*%
D17*
%TO.C,R24*%
X132334000Y-91744000D03*
X132334000Y-90120000D03*
%TD*%
%TO.C,R23*%
X141478000Y-91744000D03*
X141478000Y-90120000D03*
%TD*%
%TO.C,R22*%
X126238000Y-91718600D03*
X126238000Y-90094600D03*
%TD*%
D16*
%TO.C,R15*%
X150418000Y-96520000D03*
X148794000Y-96520000D03*
%TD*%
%TO.C,R8*%
X105106000Y-93218000D03*
X106730000Y-93218000D03*
%TD*%
D21*
%TO.C,Q4*%
X150352000Y-90612000D03*
X150352000Y-88712000D03*
X148352000Y-89662000D03*
%TD*%
%TO.C,Q3*%
X171942000Y-83246000D03*
X171942000Y-81346000D03*
X169942000Y-82296000D03*
%TD*%
%TO.C,Q2*%
X113300000Y-86934000D03*
X113300000Y-88834000D03*
X115300000Y-87884000D03*
%TD*%
%TO.C,Q1*%
X114284000Y-80960000D03*
X114284000Y-79060000D03*
X112284000Y-80010000D03*
%TD*%
D14*
%TO.C,J2*%
X192176000Y-88350000D03*
D31*
X192176000Y-90850000D03*
X194176000Y-90850000D03*
X194176000Y-88350000D03*
D32*
X197036000Y-95600000D03*
X197036000Y-83600000D03*
%TD*%
D33*
%TO.C,F1*%
X179472500Y-79502000D03*
X183747500Y-79502000D03*
%TD*%
D16*
%TO.C,D6*%
X174702000Y-78740000D03*
G36*
G01*
X176676000Y-78515000D02*
X176676000Y-78965000D01*
G75*
G02*
X176501000Y-79140000I-175000J0D01*
G01*
X176151000Y-79140000D01*
G75*
G02*
X175976000Y-78965000I0J175000D01*
G01*
X175976000Y-78515000D01*
G75*
G02*
X176151000Y-78340000I175000J0D01*
G01*
X176501000Y-78340000D01*
G75*
G02*
X176676000Y-78515000I0J-175000D01*
G01*
G37*
%TD*%
D17*
%TO.C,D5*%
X178816000Y-95274600D03*
G36*
G01*
X178591000Y-93300600D02*
X179041000Y-93300600D01*
G75*
G02*
X179216000Y-93475600I0J-175000D01*
G01*
X179216000Y-93825600D01*
G75*
G02*
X179041000Y-94000600I-175000J0D01*
G01*
X178591000Y-94000600D01*
G75*
G02*
X178416000Y-93825600I0J175000D01*
G01*
X178416000Y-93475600D01*
G75*
G02*
X178591000Y-93300600I175000J0D01*
G01*
G37*
%TD*%
%TO.C,D4*%
X178816000Y-99264000D03*
G36*
G01*
X179041000Y-101238000D02*
X178591000Y-101238000D01*
G75*
G02*
X178416000Y-101063000I0J175000D01*
G01*
X178416000Y-100713000D01*
G75*
G02*
X178591000Y-100538000I175000J0D01*
G01*
X179041000Y-100538000D01*
G75*
G02*
X179216000Y-100713000I0J-175000D01*
G01*
X179216000Y-101063000D01*
G75*
G02*
X179041000Y-101238000I-175000J0D01*
G01*
G37*
%TD*%
D16*
%TO.C,D3*%
X171146000Y-90170000D03*
G36*
G01*
X173120000Y-89945000D02*
X173120000Y-90395000D01*
G75*
G02*
X172945000Y-90570000I-175000J0D01*
G01*
X172595000Y-90570000D01*
G75*
G02*
X172420000Y-90395000I0J175000D01*
G01*
X172420000Y-89945000D01*
G75*
G02*
X172595000Y-89770000I175000J0D01*
G01*
X172945000Y-89770000D01*
G75*
G02*
X173120000Y-89945000I0J-175000D01*
G01*
G37*
%TD*%
D21*
%TO.C,D2*%
X108950000Y-97470000D03*
X108950000Y-95570000D03*
X106950000Y-96520000D03*
%TD*%
D16*
%TO.C,D1*%
X110794000Y-79502000D03*
G36*
G01*
X108820000Y-79727000D02*
X108820000Y-79277000D01*
G75*
G02*
X108995000Y-79102000I175000J0D01*
G01*
X109345000Y-79102000D01*
G75*
G02*
X109520000Y-79277000I0J-175000D01*
G01*
X109520000Y-79727000D01*
G75*
G02*
X109345000Y-79902000I-175000J0D01*
G01*
X108995000Y-79902000D01*
G75*
G02*
X108820000Y-79727000I0J175000D01*
G01*
G37*
%TD*%
%TO.C,C36*%
X150164000Y-78740000D03*
X148540000Y-78740000D03*
%TD*%
%TO.C,C35*%
X150164000Y-80264000D03*
X148540000Y-80264000D03*
%TD*%
%TO.C,C34*%
X180798000Y-87630000D03*
X182422000Y-87630000D03*
%TD*%
D17*
%TO.C,C33*%
X188722000Y-95300000D03*
X188722000Y-93676000D03*
%TD*%
%TO.C,C32*%
X146050000Y-91744000D03*
X146050000Y-90120000D03*
%TD*%
%TO.C,C31*%
X188722000Y-97232000D03*
X188722000Y-98856000D03*
%TD*%
%TO.C,C30*%
X144526000Y-90120000D03*
X144526000Y-91744000D03*
%TD*%
D16*
%TO.C,C29*%
X150164000Y-86868000D03*
X148540000Y-86868000D03*
%TD*%
%TO.C,C28*%
X150164000Y-85344000D03*
X148540000Y-85344000D03*
%TD*%
%TO.C,C27*%
X183084000Y-91694000D03*
X184708000Y-91694000D03*
%TD*%
%TO.C,C26*%
X180798000Y-82270600D03*
X182422000Y-82270600D03*
%TD*%
%TO.C,C25*%
X176580000Y-94742000D03*
X174956000Y-94742000D03*
%TD*%
D17*
%TO.C,C24*%
X156210000Y-93142600D03*
X156210000Y-94766600D03*
%TD*%
D16*
%TO.C,C23*%
X151842000Y-96520000D03*
X153466000Y-96520000D03*
%TD*%
D17*
%TO.C,C22*%
X133858000Y-91744000D03*
X133858000Y-90120000D03*
%TD*%
%TO.C,C20*%
X127762000Y-91718600D03*
X127762000Y-90094600D03*
%TD*%
%TO.C,C19*%
X130810000Y-90120000D03*
X130810000Y-91744000D03*
%TD*%
%TO.C,C18*%
X143002000Y-90120000D03*
X143002000Y-91744000D03*
%TD*%
%TO.C,C17*%
X124714000Y-90120000D03*
X124714000Y-91744000D03*
%TD*%
%TO.C,C16*%
X156972000Y-81838000D03*
X156972000Y-80214000D03*
%TD*%
%TO.C,C15*%
X158496000Y-81838000D03*
X158496000Y-80214000D03*
%TD*%
D16*
%TO.C,C12*%
X176580000Y-87122000D03*
X174956000Y-87122000D03*
%TD*%
%TO.C,C9*%
X176326000Y-81788000D03*
X174702000Y-81788000D03*
%TD*%
%TO.C,C7*%
X105106000Y-82042000D03*
X106730000Y-82042000D03*
%TD*%
M02*
