M48
; DRILL file {KiCad (5.1.10)-1} date 09/27/21 23:39:56
; FORMAT={-:-/ absolute / inch / decimal}
; #@! TF.CreationDate,2021-09-27T23:39:56+02:00
; #@! TF.GenerationSoftware,Kicad,Pcbnew,(5.1.10)-1
; #@! TF.FileFunction,Plated,1,2,PTH
FMAT,2
INCH
T1C0.0157
T2C0.0160
T3C0.0200
T4C0.0390
T5C0.0394
T6C0.0512
T7C0.1024
%
G90
G05
T1
X7.0658Y-3.13
T2
X4.14Y-3.18
X4.14Y-3.35
X4.16Y-3.8
X4.17Y-3.71
X4.2894Y-3.8894
X4.38Y-3.79
X4.53Y-3.12
X4.55Y-3.58
X4.55Y-3.64
X4.6Y-3.18
X4.6Y-3.26
X4.85Y-3.5
X5.05Y-3.25
X5.09Y-3.5
X5.15Y-3.39
X5.23Y-3.31
X5.42Y-3.5
X5.48Y-3.36
X5.51Y-3.66
X5.75Y-3.2973
X5.79Y-3.29
X5.809Y-3.359
X5.81Y-3.42
X5.82Y-3.93
X5.84Y-3.58
X5.88Y-3.63
X5.912Y-3.39
X5.92Y-3.66
X5.9355Y-3.28
X5.95Y-3.74
X5.96Y-3.09
X5.96Y-3.36
X5.9846Y-3.6301
X6.02Y-3.18
X6.02Y-3.46
X6.05Y-3.15
X6.06Y-3.27
X6.0955Y-3.66
X6.11Y-3.2945
X6.12Y-3.6
X6.12Y-3.73
X6.14Y-3.3144
X6.14Y-3.49
X6.17Y-3.339
X6.2Y-3.6
X6.2693Y-3.4293
X6.27Y-3.54
X6.2948Y-3.6842
X6.32Y-3.39
X6.346Y-3.174
X6.37Y-3.54
X6.3716Y-3.1984
X6.3972Y-3.5172
X6.43Y-3.18
X6.45Y-3.43
X6.45Y-3.21
X6.46Y-3.84
X6.4996Y-3.2404
X6.5Y-3.43
X6.5404Y-3.2401
X6.55Y-3.12
X6.55Y-3.2
X6.56Y-3.43
X6.57Y-3.55
X6.6395Y-3.0895
X6.67Y-3.19
X6.69Y-3.32
X6.78Y-3.67
X6.8Y-3.46
X6.81Y-3.13
X6.84Y-3.79
X6.84Y-3.85
X6.98Y-3.22
X6.99Y-3.55
X7.0Y-3.3803
X7.0Y-3.43
X7.04Y-3.7845
X7.04Y-3.859
X7.05Y-3.24
X7.12Y-3.38
X7.16Y-3.779
X7.16Y-3.839
X7.2475Y-3.7465
X7.29Y-3.52
X7.33Y-3.38
T3
X4.49Y-3.9
T4
X4.6954Y-3.889
X4.8726Y-3.889
X5.1114Y-3.889
X5.2886Y-3.889
X5.5314Y-3.889
X5.7086Y-3.889
T5
X4.33Y-3.53
X6.16Y-3.939
X6.26Y-3.939
X6.36Y-3.939
X6.46Y-3.939
X6.56Y-3.939
X6.66Y-3.939
X7.43Y-3.13
X7.53Y-3.13
X7.566Y-3.4783
X7.566Y-3.5768
X7.6447Y-3.4783
X7.6447Y-3.5768
X7.67Y-3.94
T6
X4.6458Y-3.791
X4.9218Y-3.791
X5.0618Y-3.791
X5.3378Y-3.791
X5.4818Y-3.791
X5.7578Y-3.791
T7
X7.7573Y-3.2913
X7.7573Y-3.7638
T0
M30
